ISO-10303-21;
HEADER;
/* Generated by software containing ST-Developer
 * from STEP Tools, Inc. (www.steptools.com) 
 */
/* OPTION: using custom renumber hook */

FILE_DESCRIPTION(
/* description */ ('STEP AP214',
'CAx-IF Rec.Pracs.---User Defined Attributes---1.5---2016-08-15'),
/* implementation_level */ '2;1');

FILE_NAME(
/* name */ '6a386d18ee269b265a35561d',
/* time_stamp */ '2026-06-21T23:00:40Z',
/* author */ (''),
/* organization */ (''),
/* preprocessor_version */ 'ST-DEVELOPER v20',
/* originating_system */ 'ONSHAPE BY PTC INC, 1.216',
/* authorisation */ '  ');

FILE_SCHEMA (('AUTOMOTIVE_DESIGN {1 0 10303 214 3 1 1}'));
ENDSEC;

DATA;
#10=PROPERTY_DEFINITION_REPRESENTATION(#14,#12);
#11=PROPERTY_DEFINITION_REPRESENTATION(#15,#13);
#12=REPRESENTATION('',(#16),#807);
#13=REPRESENTATION('',(#17),#807);
#14=PROPERTY_DEFINITION('pmi validation property','',#812);
#15=PROPERTY_DEFINITION('pmi validation property','',#812);
#16=VALUE_REPRESENTATION_ITEM('number of annotations',COUNT_MEASURE(0.));
#17=VALUE_REPRESENTATION_ITEM('number of views',COUNT_MEASURE(0.));
#18=SHAPE_REPRESENTATION_RELATIONSHIP('','',#451,#19);
#19=ADVANCED_BREP_SHAPE_REPRESENTATION('',(#449),#807);
#20=CONICAL_SURFACE('',#506,0.0031,0.785398163397446);
#21=CONICAL_SURFACE('',#507,0.0031,0.785398163397453);
#22=CONICAL_SURFACE('',#508,0.0031,0.785398163397446);
#23=CONICAL_SURFACE('',#509,0.0031,0.785398163397453);
#24=B_SPLINE_CURVE_WITH_KNOTS('',3,(#749,#750,#751,#752),.UNSPECIFIED.,
 .F.,.F.,(4,4),(0.,0.00168704996396614),.UNSPECIFIED.);
#25=B_SPLINE_CURVE_WITH_KNOTS('',3,(#753,#754,#755,#756),.UNSPECIFIED.,
 .F.,.F.,(4,4),(0.,0.00168704996396627),.UNSPECIFIED.);
#26=B_SPLINE_CURVE_WITH_KNOTS('',3,(#757,#758,#759,#760),.UNSPECIFIED.,
 .F.,.F.,(4,4),(0.,0.00168704996396627),.UNSPECIFIED.);
#27=B_SPLINE_CURVE_WITH_KNOTS('',3,(#761,#762,#763,#764),.UNSPECIFIED.,
 .F.,.F.,(4,4),(0.,0.00168704996396627),.UNSPECIFIED.);
#28=B_SPLINE_CURVE_WITH_KNOTS('',3,(#766,#767,#768,#769),.UNSPECIFIED.,
 .F.,.F.,(4,4),(0.,0.00143639994521729),.UNSPECIFIED.);
#29=B_SPLINE_CURVE_WITH_KNOTS('',3,(#770,#771,#772,#773),.UNSPECIFIED.,
 .F.,.F.,(4,4),(0.,0.00143639994521744),.UNSPECIFIED.);
#30=B_SPLINE_CURVE_WITH_KNOTS('',3,(#774,#775,#776,#777),.UNSPECIFIED.,
 .F.,.F.,(4,4),(0.,0.00143639994521721),.UNSPECIFIED.);
#31=B_SPLINE_CURVE_WITH_KNOTS('',3,(#778,#779,#780,#781),.UNSPECIFIED.,
 .F.,.F.,(4,4),(0.,0.00143639994521744),.UNSPECIFIED.);
#32=PLANE('',#465);
#33=PLANE('',#471);
#34=PLANE('',#477);
#35=PLANE('',#483);
#36=PLANE('',#494);
#37=PLANE('',#510);
#38=PLANE('',#513);
#39=PLANE('',#516);
#40=PLANE('',#519);
#41=ORIENTED_EDGE('',*,*,#141,.T.);
#42=ORIENTED_EDGE('',*,*,#142,.F.);
#43=ORIENTED_EDGE('',*,*,#143,.T.);
#44=ORIENTED_EDGE('',*,*,#144,.F.);
#45=ORIENTED_EDGE('',*,*,#145,.T.);
#46=ORIENTED_EDGE('',*,*,#146,.F.);
#47=ORIENTED_EDGE('',*,*,#147,.T.);
#48=ORIENTED_EDGE('',*,*,#148,.F.);
#49=ORIENTED_EDGE('',*,*,#149,.T.);
#50=ORIENTED_EDGE('',*,*,#150,.T.);
#51=ORIENTED_EDGE('',*,*,#151,.T.);
#52=ORIENTED_EDGE('',*,*,#152,.F.);
#53=ORIENTED_EDGE('',*,*,#153,.T.);
#54=ORIENTED_EDGE('',*,*,#154,.T.);
#55=ORIENTED_EDGE('',*,*,#155,.F.);
#56=ORIENTED_EDGE('',*,*,#156,.T.);
#57=ORIENTED_EDGE('',*,*,#157,.T.);
#58=ORIENTED_EDGE('',*,*,#158,.T.);
#59=ORIENTED_EDGE('',*,*,#159,.T.);
#60=ORIENTED_EDGE('',*,*,#160,.F.);
#61=ORIENTED_EDGE('',*,*,#161,.T.);
#62=ORIENTED_EDGE('',*,*,#162,.T.);
#63=ORIENTED_EDGE('',*,*,#163,.T.);
#64=ORIENTED_EDGE('',*,*,#164,.F.);
#65=ORIENTED_EDGE('',*,*,#165,.F.);
#66=ORIENTED_EDGE('',*,*,#166,.F.);
#67=ORIENTED_EDGE('',*,*,#167,.F.);
#68=ORIENTED_EDGE('',*,*,#168,.F.);
#69=ORIENTED_EDGE('',*,*,#169,.F.);
#70=ORIENTED_EDGE('',*,*,#170,.F.);
#71=ORIENTED_EDGE('',*,*,#171,.F.);
#72=ORIENTED_EDGE('',*,*,#172,.T.);
#73=ORIENTED_EDGE('',*,*,#173,.F.);
#74=ORIENTED_EDGE('',*,*,#174,.T.);
#75=ORIENTED_EDGE('',*,*,#175,.F.);
#76=ORIENTED_EDGE('',*,*,#176,.T.);
#77=ORIENTED_EDGE('',*,*,#177,.T.);
#78=ORIENTED_EDGE('',*,*,#178,.T.);
#79=ORIENTED_EDGE('',*,*,#172,.F.);
#80=ORIENTED_EDGE('',*,*,#152,.T.);
#81=ORIENTED_EDGE('',*,*,#179,.T.);
#82=ORIENTED_EDGE('',*,*,#175,.T.);
#83=ORIENTED_EDGE('',*,*,#180,.T.);
#84=ORIENTED_EDGE('',*,*,#155,.T.);
#85=ORIENTED_EDGE('',*,*,#181,.T.);
#86=ORIENTED_EDGE('',*,*,#160,.T.);
#87=ORIENTED_EDGE('',*,*,#182,.T.);
#88=ORIENTED_EDGE('',*,*,#173,.T.);
#89=ORIENTED_EDGE('',*,*,#177,.F.);
#90=ORIENTED_EDGE('',*,*,#183,.T.);
#91=ORIENTED_EDGE('',*,*,#150,.F.);
#92=ORIENTED_EDGE('',*,*,#184,.T.);
#93=ORIENTED_EDGE('',*,*,#162,.F.);
#94=ORIENTED_EDGE('',*,*,#185,.T.);
#95=ORIENTED_EDGE('',*,*,#157,.F.);
#96=ORIENTED_EDGE('',*,*,#186,.T.);
#97=ORIENTED_EDGE('',*,*,#154,.F.);
#98=ORIENTED_EDGE('',*,*,#171,.T.);
#99=ORIENTED_EDGE('',*,*,#159,.F.);
#100=ORIENTED_EDGE('',*,*,#170,.T.);
#101=ORIENTED_EDGE('',*,*,#149,.F.);
#102=ORIENTED_EDGE('',*,*,#169,.T.);
#103=ORIENTED_EDGE('',*,*,#174,.F.);
#104=ORIENTED_EDGE('',*,*,#168,.T.);
#105=ORIENTED_EDGE('',*,*,#145,.F.);
#106=ORIENTED_EDGE('',*,*,#179,.F.);
#107=ORIENTED_EDGE('',*,*,#151,.F.);
#108=ORIENTED_EDGE('',*,*,#183,.F.);
#109=ORIENTED_EDGE('',*,*,#176,.F.);
#110=ORIENTED_EDGE('',*,*,#147,.F.);
#111=ORIENTED_EDGE('',*,*,#186,.F.);
#112=ORIENTED_EDGE('',*,*,#156,.F.);
#113=ORIENTED_EDGE('',*,*,#180,.F.);
#114=ORIENTED_EDGE('',*,*,#178,.F.);
#115=ORIENTED_EDGE('',*,*,#141,.F.);
#116=ORIENTED_EDGE('',*,*,#185,.F.);
#117=ORIENTED_EDGE('',*,*,#161,.F.);
#118=ORIENTED_EDGE('',*,*,#181,.F.);
#119=ORIENTED_EDGE('',*,*,#158,.F.);
#120=ORIENTED_EDGE('',*,*,#143,.F.);
#121=ORIENTED_EDGE('',*,*,#182,.F.);
#122=ORIENTED_EDGE('',*,*,#163,.F.);
#123=ORIENTED_EDGE('',*,*,#184,.F.);
#124=ORIENTED_EDGE('',*,*,#153,.F.);
#125=ORIENTED_EDGE('',*,*,#187,.T.);
#126=ORIENTED_EDGE('',*,*,#148,.T.);
#127=ORIENTED_EDGE('',*,*,#187,.F.);
#128=ORIENTED_EDGE('',*,*,#165,.T.);
#129=ORIENTED_EDGE('',*,*,#188,.T.);
#130=ORIENTED_EDGE('',*,*,#146,.T.);
#131=ORIENTED_EDGE('',*,*,#188,.F.);
#132=ORIENTED_EDGE('',*,*,#166,.T.);
#133=ORIENTED_EDGE('',*,*,#189,.T.);
#134=ORIENTED_EDGE('',*,*,#144,.T.);
#135=ORIENTED_EDGE('',*,*,#189,.F.);
#136=ORIENTED_EDGE('',*,*,#167,.T.);
#137=ORIENTED_EDGE('',*,*,#190,.T.);
#138=ORIENTED_EDGE('',*,*,#142,.T.);
#139=ORIENTED_EDGE('',*,*,#190,.F.);
#140=ORIENTED_EDGE('',*,*,#164,.T.);
#141=EDGE_CURVE('',#191,#191,#233,.F.);
#142=EDGE_CURVE('',#192,#192,#234,.F.);
#143=EDGE_CURVE('',#193,#193,#235,.F.);
#144=EDGE_CURVE('',#194,#194,#236,.F.);
#145=EDGE_CURVE('',#195,#195,#237,.F.);
#146=EDGE_CURVE('',#196,#196,#238,.F.);
#147=EDGE_CURVE('',#197,#197,#239,.F.);
#148=EDGE_CURVE('',#198,#198,#240,.F.);
#149=EDGE_CURVE('',#199,#199,#241,.T.);
#150=EDGE_CURVE('',#200,#201,#242,.T.);
#151=EDGE_CURVE('',#201,#202,#243,.T.);
#152=EDGE_CURVE('',#203,#202,#244,.T.);
#153=EDGE_CURVE('',#203,#200,#245,.T.);
#154=EDGE_CURVE('',#204,#204,#246,.T.);
#155=EDGE_CURVE('',#205,#206,#247,.T.);
#156=EDGE_CURVE('',#205,#207,#248,.T.);
#157=EDGE_CURVE('',#207,#208,#249,.T.);
#158=EDGE_CURVE('',#208,#206,#250,.T.);
#159=EDGE_CURVE('',#209,#209,#251,.T.);
#160=EDGE_CURVE('',#210,#211,#252,.T.);
#161=EDGE_CURVE('',#210,#212,#253,.T.);
#162=EDGE_CURVE('',#212,#213,#254,.T.);
#163=EDGE_CURVE('',#213,#211,#255,.T.);
#164=EDGE_CURVE('',#214,#214,#256,.T.);
#165=EDGE_CURVE('',#215,#215,#257,.T.);
#166=EDGE_CURVE('',#216,#216,#258,.T.);
#167=EDGE_CURVE('',#217,#217,#259,.T.);
#168=EDGE_CURVE('',#218,#218,#260,.T.);
#169=EDGE_CURVE('',#219,#219,#261,.T.);
#170=EDGE_CURVE('',#220,#220,#262,.T.);
#171=EDGE_CURVE('',#221,#221,#263,.T.);
#172=EDGE_CURVE('',#222,#222,#264,.T.);
#173=EDGE_CURVE('',#223,#223,#265,.T.);
#174=EDGE_CURVE('',#224,#224,#266,.T.);
#175=EDGE_CURVE('',#225,#226,#267,.T.);
#176=EDGE_CURVE('',#225,#227,#268,.T.);
#177=EDGE_CURVE('',#227,#228,#269,.T.);
#178=EDGE_CURVE('',#228,#226,#270,.T.);
#179=EDGE_CURVE('',#202,#225,#24,.T.);
#180=EDGE_CURVE('',#226,#205,#25,.T.);
#181=EDGE_CURVE('',#206,#210,#26,.T.);
#182=EDGE_CURVE('',#211,#203,#27,.T.);
#183=EDGE_CURVE('',#227,#201,#28,.T.);
#184=EDGE_CURVE('',#200,#213,#29,.T.);
#185=EDGE_CURVE('',#212,#208,#30,.T.);
#186=EDGE_CURVE('',#207,#228,#31,.T.);
#187=EDGE_CURVE('',#229,#229,#271,.T.);
#188=EDGE_CURVE('',#230,#230,#272,.T.);
#189=EDGE_CURVE('',#231,#231,#273,.T.);
#190=EDGE_CURVE('',#232,#232,#274,.T.);
#191=VERTEX_POINT('',#665);
#192=VERTEX_POINT('',#667);
#193=VERTEX_POINT('',#670);
#194=VERTEX_POINT('',#672);
#195=VERTEX_POINT('',#675);
#196=VERTEX_POINT('',#677);
#197=VERTEX_POINT('',#680);
#198=VERTEX_POINT('',#682);
#199=VERTEX_POINT('',#685);
#200=VERTEX_POINT('',#687);
#201=VERTEX_POINT('',#688);
#202=VERTEX_POINT('',#690);
#203=VERTEX_POINT('',#692);
#204=VERTEX_POINT('',#696);
#205=VERTEX_POINT('',#698);
#206=VERTEX_POINT('',#699);
#207=VERTEX_POINT('',#701);
#208=VERTEX_POINT('',#703);
#209=VERTEX_POINT('',#707);
#210=VERTEX_POINT('',#709);
#211=VERTEX_POINT('',#710);
#212=VERTEX_POINT('',#712);
#213=VERTEX_POINT('',#714);
#214=VERTEX_POINT('',#718);
#215=VERTEX_POINT('',#720);
#216=VERTEX_POINT('',#722);
#217=VERTEX_POINT('',#724);
#218=VERTEX_POINT('',#726);
#219=VERTEX_POINT('',#728);
#220=VERTEX_POINT('',#730);
#221=VERTEX_POINT('',#732);
#222=VERTEX_POINT('',#734);
#223=VERTEX_POINT('',#736);
#224=VERTEX_POINT('',#739);
#225=VERTEX_POINT('',#741);
#226=VERTEX_POINT('',#742);
#227=VERTEX_POINT('',#744);
#228=VERTEX_POINT('',#746);
#229=VERTEX_POINT('',#792);
#230=VERTEX_POINT('',#796);
#231=VERTEX_POINT('',#800);
#232=VERTEX_POINT('',#804);
#233=CIRCLE('',#454,0.0016);
#234=CIRCLE('',#455,0.0016);
#235=CIRCLE('',#457,0.0016);
#236=CIRCLE('',#458,0.0016);
#237=CIRCLE('',#460,0.0016);
#238=CIRCLE('',#461,0.0016);
#239=CIRCLE('',#463,0.0016);
#240=CIRCLE('',#464,0.0016);
#241=CIRCLE('',#466,0.0016);
#242=CIRCLE('',#467,0.0155);
#243=CIRCLE('',#468,0.0031);
#244=CIRCLE('',#469,0.0215);
#245=CIRCLE('',#470,0.0031);
#246=CIRCLE('',#472,0.0016);
#247=CIRCLE('',#473,0.0215);
#248=CIRCLE('',#474,0.0031);
#249=CIRCLE('',#475,0.0155);
#250=CIRCLE('',#476,0.0031);
#251=CIRCLE('',#478,0.0016);
#252=CIRCLE('',#479,0.0215);
#253=CIRCLE('',#480,0.0031);
#254=CIRCLE('',#481,0.0155);
#255=CIRCLE('',#482,0.0031);
#256=CIRCLE('',#484,0.00275);
#257=CIRCLE('',#485,0.00275);
#258=CIRCLE('',#486,0.00275);
#259=CIRCLE('',#487,0.00275);
#260=CIRCLE('',#488,0.0016);
#261=CIRCLE('',#489,0.0016);
#262=CIRCLE('',#490,0.0016);
#263=CIRCLE('',#491,0.0016);
#264=CIRCLE('',#492,0.0215);
#265=CIRCLE('',#493,0.0155);
#266=CIRCLE('',#495,0.0016);
#267=CIRCLE('',#496,0.0215);
#268=CIRCLE('',#497,0.0031);
#269=CIRCLE('',#498,0.0155);
#270=CIRCLE('',#499,0.0031);
#271=CIRCLE('',#511,0.00275);
#272=CIRCLE('',#514,0.00275);
#273=CIRCLE('',#517,0.00275);
#274=CIRCLE('',#520,0.00275);
#275=EDGE_LOOP('',(#41));
#276=EDGE_LOOP('',(#42));
#277=EDGE_LOOP('',(#43));
#278=EDGE_LOOP('',(#44));
#279=EDGE_LOOP('',(#45));
#280=EDGE_LOOP('',(#46));
#281=EDGE_LOOP('',(#47));
#282=EDGE_LOOP('',(#48));
#283=EDGE_LOOP('',(#49));
#284=EDGE_LOOP('',(#50,#51,#52,#53));
#285=EDGE_LOOP('',(#54));
#286=EDGE_LOOP('',(#55,#56,#57,#58));
#287=EDGE_LOOP('',(#59));
#288=EDGE_LOOP('',(#60,#61,#62,#63));
#289=EDGE_LOOP('',(#64));
#290=EDGE_LOOP('',(#65));
#291=EDGE_LOOP('',(#66));
#292=EDGE_LOOP('',(#67));
#293=EDGE_LOOP('',(#68));
#294=EDGE_LOOP('',(#69));
#295=EDGE_LOOP('',(#70));
#296=EDGE_LOOP('',(#71));
#297=EDGE_LOOP('',(#72));
#298=EDGE_LOOP('',(#73));
#299=EDGE_LOOP('',(#74));
#300=EDGE_LOOP('',(#75,#76,#77,#78));
#301=EDGE_LOOP('',(#79));
#302=EDGE_LOOP('',(#80,#81,#82,#83,#84,#85,#86,#87));
#303=EDGE_LOOP('',(#88));
#304=EDGE_LOOP('',(#89,#90,#91,#92,#93,#94,#95,#96));
#305=EDGE_LOOP('',(#97));
#306=EDGE_LOOP('',(#98));
#307=EDGE_LOOP('',(#99));
#308=EDGE_LOOP('',(#100));
#309=EDGE_LOOP('',(#101));
#310=EDGE_LOOP('',(#102));
#311=EDGE_LOOP('',(#103));
#312=EDGE_LOOP('',(#104));
#313=EDGE_LOOP('',(#105));
#314=EDGE_LOOP('',(#106,#107,#108,#109));
#315=EDGE_LOOP('',(#110));
#316=EDGE_LOOP('',(#111,#112,#113,#114));
#317=EDGE_LOOP('',(#115));
#318=EDGE_LOOP('',(#116,#117,#118,#119));
#319=EDGE_LOOP('',(#120));
#320=EDGE_LOOP('',(#121,#122,#123,#124));
#321=EDGE_LOOP('',(#125));
#322=EDGE_LOOP('',(#126));
#323=EDGE_LOOP('',(#127));
#324=EDGE_LOOP('',(#128));
#325=EDGE_LOOP('',(#129));
#326=EDGE_LOOP('',(#130));
#327=EDGE_LOOP('',(#131));
#328=EDGE_LOOP('',(#132));
#329=EDGE_LOOP('',(#133));
#330=EDGE_LOOP('',(#134));
#331=EDGE_LOOP('',(#135));
#332=EDGE_LOOP('',(#136));
#333=EDGE_LOOP('',(#137));
#334=EDGE_LOOP('',(#138));
#335=EDGE_LOOP('',(#139));
#336=EDGE_LOOP('',(#140));
#337=FACE_BOUND('',#275,.T.);
#338=FACE_BOUND('',#276,.T.);
#339=FACE_BOUND('',#277,.T.);
#340=FACE_BOUND('',#278,.T.);
#341=FACE_BOUND('',#279,.T.);
#342=FACE_BOUND('',#280,.T.);
#343=FACE_BOUND('',#281,.T.);
#344=FACE_BOUND('',#282,.T.);
#345=FACE_BOUND('',#283,.T.);
#346=FACE_BOUND('',#284,.T.);
#347=FACE_BOUND('',#285,.T.);
#348=FACE_BOUND('',#286,.T.);
#349=FACE_BOUND('',#287,.T.);
#350=FACE_BOUND('',#288,.T.);
#351=FACE_BOUND('',#289,.T.);
#352=FACE_BOUND('',#290,.T.);
#353=FACE_BOUND('',#291,.T.);
#354=FACE_BOUND('',#292,.T.);
#355=FACE_BOUND('',#293,.T.);
#356=FACE_BOUND('',#294,.T.);
#357=FACE_BOUND('',#295,.T.);
#358=FACE_BOUND('',#296,.T.);
#359=FACE_BOUND('',#297,.T.);
#360=FACE_BOUND('',#298,.T.);
#361=FACE_BOUND('',#299,.T.);
#362=FACE_BOUND('',#300,.T.);
#363=FACE_BOUND('',#301,.T.);
#364=FACE_BOUND('',#302,.T.);
#365=FACE_BOUND('',#303,.T.);
#366=FACE_BOUND('',#304,.T.);
#367=FACE_BOUND('',#305,.T.);
#368=FACE_BOUND('',#306,.T.);
#369=FACE_BOUND('',#307,.T.);
#370=FACE_BOUND('',#308,.T.);
#371=FACE_BOUND('',#309,.T.);
#372=FACE_BOUND('',#310,.T.);
#373=FACE_BOUND('',#311,.T.);
#374=FACE_BOUND('',#312,.T.);
#375=FACE_BOUND('',#313,.T.);
#376=FACE_BOUND('',#314,.T.);
#377=FACE_BOUND('',#315,.T.);
#378=FACE_BOUND('',#316,.T.);
#379=FACE_BOUND('',#317,.T.);
#380=FACE_BOUND('',#318,.T.);
#381=FACE_BOUND('',#319,.T.);
#382=FACE_BOUND('',#320,.T.);
#383=FACE_BOUND('',#321,.T.);
#384=FACE_BOUND('',#322,.T.);
#385=FACE_BOUND('',#323,.T.);
#386=FACE_BOUND('',#324,.T.);
#387=FACE_BOUND('',#325,.T.);
#388=FACE_BOUND('',#326,.T.);
#389=FACE_BOUND('',#327,.T.);
#390=FACE_BOUND('',#328,.T.);
#391=FACE_BOUND('',#329,.T.);
#392=FACE_BOUND('',#330,.T.);
#393=FACE_BOUND('',#331,.T.);
#394=FACE_BOUND('',#332,.T.);
#395=FACE_BOUND('',#333,.T.);
#396=FACE_BOUND('',#334,.T.);
#397=FACE_BOUND('',#335,.T.);
#398=FACE_BOUND('',#336,.T.);
#399=CYLINDRICAL_SURFACE('',#453,0.0016);
#400=CYLINDRICAL_SURFACE('',#456,0.0016);
#401=CYLINDRICAL_SURFACE('',#459,0.0016);
#402=CYLINDRICAL_SURFACE('',#462,0.0016);
#403=CYLINDRICAL_SURFACE('',#500,0.0215);
#404=CYLINDRICAL_SURFACE('',#501,0.0155);
#405=CYLINDRICAL_SURFACE('',#502,0.0016);
#406=CYLINDRICAL_SURFACE('',#503,0.0016);
#407=CYLINDRICAL_SURFACE('',#504,0.0016);
#408=CYLINDRICAL_SURFACE('',#505,0.0016);
#409=CYLINDRICAL_SURFACE('',#512,0.00275);
#410=CYLINDRICAL_SURFACE('',#515,0.00275);
#411=CYLINDRICAL_SURFACE('',#518,0.00275);
#412=CYLINDRICAL_SURFACE('',#521,0.00275);
#413=ADVANCED_FACE('',(#337,#338),#399,.F.);
#414=ADVANCED_FACE('',(#339,#340),#400,.F.);
#415=ADVANCED_FACE('',(#341,#342),#401,.F.);
#416=ADVANCED_FACE('',(#343,#344),#402,.F.);
#417=ADVANCED_FACE('',(#345,#346),#32,.F.);
#418=ADVANCED_FACE('',(#347,#348),#33,.F.);
#419=ADVANCED_FACE('',(#349,#350),#34,.F.);
#420=ADVANCED_FACE('',(#351,#352,#353,#354,#355,#356,#357,#358,#359,#360),
#35,.T.);
#421=ADVANCED_FACE('',(#361,#362),#36,.F.);
#422=ADVANCED_FACE('',(#363,#364),#403,.T.);
#423=ADVANCED_FACE('',(#365,#366),#404,.F.);
#424=ADVANCED_FACE('',(#367,#368),#405,.F.);
#425=ADVANCED_FACE('',(#369,#370),#406,.F.);
#426=ADVANCED_FACE('',(#371,#372),#407,.F.);
#427=ADVANCED_FACE('',(#373,#374),#408,.F.);
#428=ADVANCED_FACE('',(#375,#376),#20,.F.);
#429=ADVANCED_FACE('',(#377,#378),#21,.F.);
#430=ADVANCED_FACE('',(#379,#380),#22,.F.);
#431=ADVANCED_FACE('',(#381,#382),#23,.F.);
#432=ADVANCED_FACE('',(#383,#384),#37,.T.);
#433=ADVANCED_FACE('',(#385,#386),#409,.F.);
#434=ADVANCED_FACE('',(#387,#388),#38,.T.);
#435=ADVANCED_FACE('',(#389,#390),#410,.F.);
#436=ADVANCED_FACE('',(#391,#392),#39,.T.);
#437=ADVANCED_FACE('',(#393,#394),#411,.F.);
#438=ADVANCED_FACE('',(#395,#396),#40,.T.);
#439=ADVANCED_FACE('',(#397,#398),#412,.F.);
#440=CLOSED_SHELL('',(#413,#414,#415,#416,#417,#418,#419,#420,#421,#422,
#423,#424,#425,#426,#427,#428,#429,#430,#431,#432,#433,#434,#435,#436,#437,
#438,#439));
#441=STYLED_ITEM('',(#442),#449);
#442=PRESENTATION_STYLE_ASSIGNMENT((#443));
#443=SURFACE_STYLE_USAGE(.BOTH.,#444);
#444=SURFACE_SIDE_STYLE('',(#445));
#445=SURFACE_STYLE_FILL_AREA(#446);
#446=FILL_AREA_STYLE('',(#447));
#447=FILL_AREA_STYLE_COLOUR('',#448);
#448=DRAUGHTING_PRE_DEFINED_COLOUR('red');
#449=MANIFOLD_SOLID_BREP('Base ring',#440);
#450=SHAPE_DEFINITION_REPRESENTATION(#812,#451);
#451=SHAPE_REPRESENTATION('Base ring',(#452),#807);
#452=AXIS2_PLACEMENT_3D('',#662,#522,#523);
#453=AXIS2_PLACEMENT_3D('',#663,#524,#525);
#454=AXIS2_PLACEMENT_3D('',#664,#526,#527);
#455=AXIS2_PLACEMENT_3D('',#666,#528,#529);
#456=AXIS2_PLACEMENT_3D('',#668,#530,#531);
#457=AXIS2_PLACEMENT_3D('',#669,#532,#533);
#458=AXIS2_PLACEMENT_3D('',#671,#534,#535);
#459=AXIS2_PLACEMENT_3D('',#673,#536,#537);
#460=AXIS2_PLACEMENT_3D('',#674,#538,#539);
#461=AXIS2_PLACEMENT_3D('',#676,#540,#541);
#462=AXIS2_PLACEMENT_3D('',#678,#542,#543);
#463=AXIS2_PLACEMENT_3D('',#679,#544,#545);
#464=AXIS2_PLACEMENT_3D('',#681,#546,#547);
#465=AXIS2_PLACEMENT_3D('',#683,#548,#549);
#466=AXIS2_PLACEMENT_3D('',#684,#550,#551);
#467=AXIS2_PLACEMENT_3D('',#686,#552,#553);
#468=AXIS2_PLACEMENT_3D('',#689,#554,#555);
#469=AXIS2_PLACEMENT_3D('',#691,#556,#557);
#470=AXIS2_PLACEMENT_3D('',#693,#558,#559);
#471=AXIS2_PLACEMENT_3D('',#694,#560,#561);
#472=AXIS2_PLACEMENT_3D('',#695,#562,#563);
#473=AXIS2_PLACEMENT_3D('',#697,#564,#565);
#474=AXIS2_PLACEMENT_3D('',#700,#566,#567);
#475=AXIS2_PLACEMENT_3D('',#702,#568,#569);
#476=AXIS2_PLACEMENT_3D('',#704,#570,#571);
#477=AXIS2_PLACEMENT_3D('',#705,#572,#573);
#478=AXIS2_PLACEMENT_3D('',#706,#574,#575);
#479=AXIS2_PLACEMENT_3D('',#708,#576,#577);
#480=AXIS2_PLACEMENT_3D('',#711,#578,#579);
#481=AXIS2_PLACEMENT_3D('',#713,#580,#581);
#482=AXIS2_PLACEMENT_3D('',#715,#582,#583);
#483=AXIS2_PLACEMENT_3D('',#716,#584,#585);
#484=AXIS2_PLACEMENT_3D('',#717,#586,#587);
#485=AXIS2_PLACEMENT_3D('',#719,#588,#589);
#486=AXIS2_PLACEMENT_3D('',#721,#590,#591);
#487=AXIS2_PLACEMENT_3D('',#723,#592,#593);
#488=AXIS2_PLACEMENT_3D('',#725,#594,#595);
#489=AXIS2_PLACEMENT_3D('',#727,#596,#597);
#490=AXIS2_PLACEMENT_3D('',#729,#598,#599);
#491=AXIS2_PLACEMENT_3D('',#731,#600,#601);
#492=AXIS2_PLACEMENT_3D('',#733,#602,#603);
#493=AXIS2_PLACEMENT_3D('',#735,#604,#605);
#494=AXIS2_PLACEMENT_3D('',#737,#606,#607);
#495=AXIS2_PLACEMENT_3D('',#738,#608,#609);
#496=AXIS2_PLACEMENT_3D('',#740,#610,#611);
#497=AXIS2_PLACEMENT_3D('',#743,#612,#613);
#498=AXIS2_PLACEMENT_3D('',#745,#614,#615);
#499=AXIS2_PLACEMENT_3D('',#747,#616,#617);
#500=AXIS2_PLACEMENT_3D('',#748,#618,#619);
#501=AXIS2_PLACEMENT_3D('',#765,#620,#621);
#502=AXIS2_PLACEMENT_3D('',#782,#622,#623);
#503=AXIS2_PLACEMENT_3D('',#783,#624,#625);
#504=AXIS2_PLACEMENT_3D('',#784,#626,#627);
#505=AXIS2_PLACEMENT_3D('',#785,#628,#629);
#506=AXIS2_PLACEMENT_3D('',#786,#630,#631);
#507=AXIS2_PLACEMENT_3D('',#787,#632,#633);
#508=AXIS2_PLACEMENT_3D('',#788,#634,#635);
#509=AXIS2_PLACEMENT_3D('',#789,#636,#637);
#510=AXIS2_PLACEMENT_3D('',#790,#638,#639);
#511=AXIS2_PLACEMENT_3D('',#791,#640,#641);
#512=AXIS2_PLACEMENT_3D('',#793,#642,#643);
#513=AXIS2_PLACEMENT_3D('',#794,#644,#645);
#514=AXIS2_PLACEMENT_3D('',#795,#646,#647);
#515=AXIS2_PLACEMENT_3D('',#797,#648,#649);
#516=AXIS2_PLACEMENT_3D('',#798,#650,#651);
#517=AXIS2_PLACEMENT_3D('',#799,#652,#653);
#518=AXIS2_PLACEMENT_3D('',#801,#654,#655);
#519=AXIS2_PLACEMENT_3D('',#802,#656,#657);
#520=AXIS2_PLACEMENT_3D('',#803,#658,#659);
#521=AXIS2_PLACEMENT_3D('',#805,#660,#661);
#522=DIRECTION('',(0.,0.,1.));
#523=DIRECTION('',(1.,0.,0.));
#524=DIRECTION('',(0.,1.,0.));
#525=DIRECTION('',(0.,0.,1.));
#526=DIRECTION('',(0.,1.,0.));
#527=DIRECTION('',(0.,0.,1.));
#528=DIRECTION('',(0.,1.,0.));
#529=DIRECTION('',(0.,0.,1.));
#530=DIRECTION('',(0.,1.,0.));
#531=DIRECTION('',(0.,0.,1.));
#532=DIRECTION('',(0.,1.,0.));
#533=DIRECTION('',(0.,0.,1.));
#534=DIRECTION('',(0.,1.,0.));
#535=DIRECTION('',(0.,0.,1.));
#536=DIRECTION('',(0.,1.,0.));
#537=DIRECTION('',(0.,0.,1.));
#538=DIRECTION('',(0.,1.,0.));
#539=DIRECTION('',(0.,0.,1.));
#540=DIRECTION('',(0.,1.,0.));
#541=DIRECTION('',(0.,0.,1.));
#542=DIRECTION('',(0.,1.,0.));
#543=DIRECTION('',(0.,0.,1.));
#544=DIRECTION('',(0.,1.,0.));
#545=DIRECTION('',(0.,0.,1.));
#546=DIRECTION('',(0.,1.,0.));
#547=DIRECTION('',(0.,0.,1.));
#548=DIRECTION('',(0.,1.,0.));
#549=DIRECTION('',(0.,0.,1.));
#550=DIRECTION('',(0.,1.,0.));
#551=DIRECTION('',(0.,0.,1.));
#552=DIRECTION('',(0.,1.,0.));
#553=DIRECTION('',(0.,0.,1.));
#554=DIRECTION('',(0.,1.,0.));
#555=DIRECTION('',(0.,0.,1.));
#556=DIRECTION('',(0.,1.,0.));
#557=DIRECTION('',(0.,0.,1.));
#558=DIRECTION('',(0.,1.,0.));
#559=DIRECTION('',(0.,0.,1.));
#560=DIRECTION('',(0.,1.,0.));
#561=DIRECTION('',(0.,0.,1.));
#562=DIRECTION('',(0.,1.,0.));
#563=DIRECTION('',(0.,0.,1.));
#564=DIRECTION('',(0.,1.,0.));
#565=DIRECTION('',(0.,0.,1.));
#566=DIRECTION('',(0.,1.,0.));
#567=DIRECTION('',(0.,0.,1.));
#568=DIRECTION('',(0.,1.,0.));
#569=DIRECTION('',(0.,0.,1.));
#570=DIRECTION('',(0.,1.,0.));
#571=DIRECTION('',(0.,0.,1.));
#572=DIRECTION('',(0.,1.,0.));
#573=DIRECTION('',(0.,0.,1.));
#574=DIRECTION('',(0.,1.,0.));
#575=DIRECTION('',(0.,0.,1.));
#576=DIRECTION('',(0.,1.,0.));
#577=DIRECTION('',(0.,0.,1.));
#578=DIRECTION('',(0.,1.,0.));
#579=DIRECTION('',(0.,0.,1.));
#580=DIRECTION('',(0.,1.,0.));
#581=DIRECTION('',(0.,0.,1.));
#582=DIRECTION('',(0.,1.,0.));
#583=DIRECTION('',(0.,0.,1.));
#584=DIRECTION('',(0.,1.,0.));
#585=DIRECTION('',(0.,0.,1.));
#586=DIRECTION('',(0.,1.,0.));
#587=DIRECTION('',(0.,0.,1.));
#588=DIRECTION('',(0.,1.,0.));
#589=DIRECTION('',(0.,0.,1.));
#590=DIRECTION('',(0.,1.,0.));
#591=DIRECTION('',(0.,0.,1.));
#592=DIRECTION('',(0.,1.,0.));
#593=DIRECTION('',(0.,0.,1.));
#594=DIRECTION('',(0.,1.,0.));
#595=DIRECTION('',(0.,0.,1.));
#596=DIRECTION('',(0.,1.,0.));
#597=DIRECTION('',(0.,0.,1.));
#598=DIRECTION('',(0.,1.,0.));
#599=DIRECTION('',(0.,0.,1.));
#600=DIRECTION('',(0.,1.,0.));
#601=DIRECTION('',(0.,0.,1.));
#602=DIRECTION('',(0.,1.,0.));
#603=DIRECTION('',(0.,0.,1.));
#604=DIRECTION('',(0.,1.,0.));
#605=DIRECTION('',(0.,0.,1.));
#606=DIRECTION('',(0.,1.,0.));
#607=DIRECTION('',(0.,0.,1.));
#608=DIRECTION('',(0.,1.,0.));
#609=DIRECTION('',(0.,0.,1.));
#610=DIRECTION('',(0.,1.,0.));
#611=DIRECTION('',(0.,0.,1.));
#612=DIRECTION('',(0.,1.,0.));
#613=DIRECTION('',(0.,0.,1.));
#614=DIRECTION('',(0.,1.,0.));
#615=DIRECTION('',(0.,0.,1.));
#616=DIRECTION('',(0.,1.,0.));
#617=DIRECTION('',(0.,0.,1.));
#618=DIRECTION('',(0.,-1.,0.));
#619=DIRECTION('',(0.,0.,-1.));
#620=DIRECTION('',(0.,-1.,0.));
#621=DIRECTION('',(0.,0.,-1.));
#622=DIRECTION('',(0.,1.,0.));
#623=DIRECTION('',(0.,0.,1.));
#624=DIRECTION('',(0.,1.,0.));
#625=DIRECTION('',(0.,0.,1.));
#626=DIRECTION('',(0.,1.,0.));
#627=DIRECTION('',(0.,0.,1.));
#628=DIRECTION('',(0.,1.,0.));
#629=DIRECTION('',(0.,0.,1.));
#630=DIRECTION('',(0.,-1.,0.));
#631=DIRECTION('',(0.,0.,-1.));
#632=DIRECTION('',(0.,-1.,0.));
#633=DIRECTION('',(0.,0.,-1.));
#634=DIRECTION('',(0.,-1.,0.));
#635=DIRECTION('',(0.,0.,-1.));
#636=DIRECTION('',(0.,-1.,0.));
#637=DIRECTION('',(0.,0.,-1.));
#638=DIRECTION('',(0.,1.,0.));
#639=DIRECTION('',(0.,0.,1.));
#640=DIRECTION('',(0.,1.,0.));
#641=DIRECTION('',(0.,0.,1.));
#642=DIRECTION('',(0.,1.,0.));
#643=DIRECTION('',(0.,0.,1.));
#644=DIRECTION('',(0.,1.,0.));
#645=DIRECTION('',(0.,0.,1.));
#646=DIRECTION('',(0.,1.,0.));
#647=DIRECTION('',(0.,0.,1.));
#648=DIRECTION('',(0.,1.,0.));
#649=DIRECTION('',(0.,0.,1.));
#650=DIRECTION('',(0.,1.,0.));
#651=DIRECTION('',(0.,0.,1.));
#652=DIRECTION('',(0.,1.,0.));
#653=DIRECTION('',(0.,0.,1.));
#654=DIRECTION('',(0.,1.,0.));
#655=DIRECTION('',(0.,0.,1.));
#656=DIRECTION('',(0.,1.,0.));
#657=DIRECTION('',(0.,0.,1.));
#658=DIRECTION('',(0.,1.,0.));
#659=DIRECTION('',(0.,0.,1.));
#660=DIRECTION('',(0.,1.,0.));
#661=DIRECTION('',(0.,0.,1.));
#662=CARTESIAN_POINT('',(0.,0.,0.));
#663=CARTESIAN_POINT('',(-0.0185,0.,-1.73472347597681E-18));
#664=CARTESIAN_POINT('',(-0.0185,0.0015,-1.73472347597681E-18));
#665=CARTESIAN_POINT('',(-0.0185,0.0015,0.0016));
#666=CARTESIAN_POINT('',(-0.0185,0.0024,-1.73472347597681E-18));
#667=CARTESIAN_POINT('',(-0.0185,0.0024,0.0016));
#668=CARTESIAN_POINT('',(-6.93889390390723E-18,0.,0.0185));
#669=CARTESIAN_POINT('',(-6.93889390390723E-18,0.0015,0.0185));
#670=CARTESIAN_POINT('',(-6.93889390390723E-18,0.0015,0.0201));
#671=CARTESIAN_POINT('',(-6.93889390390723E-18,0.0024,0.0185));
#672=CARTESIAN_POINT('',(-6.93889390390723E-18,0.0024,0.0201));
#673=CARTESIAN_POINT('',(0.0185,0.,-2.60208521396521E-18));
#674=CARTESIAN_POINT('',(0.0185,0.0015,-2.60208521396521E-18));
#675=CARTESIAN_POINT('',(0.0185,0.0015,0.0016));
#676=CARTESIAN_POINT('',(0.0185,0.0024,-2.60208521396521E-18));
#677=CARTESIAN_POINT('',(0.0185,0.0024,0.0016));
#678=CARTESIAN_POINT('',(0.,0.,-0.0185));
#679=CARTESIAN_POINT('',(0.,0.0015,-0.0185));
#680=CARTESIAN_POINT('',(0.,0.0015,-0.0169));
#681=CARTESIAN_POINT('',(0.,0.0024,-0.0185));
#682=CARTESIAN_POINT('',(0.,0.0024,-0.0169));
#683=CARTESIAN_POINT('',(0.,0.,0.));
#684=CARTESIAN_POINT('',(0.0130814754519511,0.,0.0130814754519511));
#685=CARTESIAN_POINT('',(0.0130814754519511,0.,0.0146814754519511));
#686=CARTESIAN_POINT('',(0.,0.,0.));
#687=CARTESIAN_POINT('',(0.00071470922538088,0.,0.0154835135135135));
#688=CARTESIAN_POINT('',(0.0154835135135135,0.,0.000714709225380808));
#689=CARTESIAN_POINT('',(0.0185,0.,-2.60208521396521E-18));
#690=CARTESIAN_POINT('',(0.0214835135135135,0.,0.000841811804789073));
#691=CARTESIAN_POINT('',(0.,0.,0.));
#692=CARTESIAN_POINT('',(0.000841811804789132,0.,0.0214835135135135));
#693=CARTESIAN_POINT('',(-6.93889390390723E-18,0.,0.0185));
#694=CARTESIAN_POINT('',(0.,0.,0.));
#695=CARTESIAN_POINT('',(-0.0130814754519511,0.,-0.0130814754519511));
#696=CARTESIAN_POINT('',(-0.0130814754519511,0.,-0.0114814754519511));
#697=CARTESIAN_POINT('',(0.,0.,0.));
#698=CARTESIAN_POINT('',(-0.00084181180478914,0.,-0.0214835135135135));
#699=CARTESIAN_POINT('',(-0.0214835135135135,0.,-0.000841811804789142));
#700=CARTESIAN_POINT('',(0.,0.,-0.0185));
#701=CARTESIAN_POINT('',(-0.000714709225380886,0.,-0.0154835135135135));
#702=CARTESIAN_POINT('',(0.,0.,0.));
#703=CARTESIAN_POINT('',(-0.0154835135135135,0.,-0.000714709225380774));
#704=CARTESIAN_POINT('',(-0.0185,0.,-1.73472347597681E-18));
#705=CARTESIAN_POINT('',(0.,0.,0.));
#706=CARTESIAN_POINT('',(-0.0130814754519511,0.,0.0130814754519511));
#707=CARTESIAN_POINT('',(-0.0130814754519511,0.,0.0146814754519511));
#708=CARTESIAN_POINT('',(0.,0.,0.));
#709=CARTESIAN_POINT('',(-0.0214835135135135,0.,0.000841811804789138));
#710=CARTESIAN_POINT('',(-0.000841811804789148,0.,0.0214835135135135));
#711=CARTESIAN_POINT('',(-0.0185,0.,-1.73472347597681E-18));
#712=CARTESIAN_POINT('',(-0.0154835135135135,0.,0.000714709225380771));
#713=CARTESIAN_POINT('',(0.,0.,0.));
#714=CARTESIAN_POINT('',(-0.000714709225380892,0.,0.0154835135135135));
#715=CARTESIAN_POINT('',(-6.93889390390723E-18,0.,0.0185));
#716=CARTESIAN_POINT('',(0.,0.003,0.));
#717=CARTESIAN_POINT('',(-0.0185,0.003,-1.73472347597681E-18));
#718=CARTESIAN_POINT('',(-0.0185,0.003,0.00275));
#719=CARTESIAN_POINT('',(4.33680868994202E-19,0.003,-0.0185));
#720=CARTESIAN_POINT('',(4.33680868994202E-19,0.003,-0.01575));
#721=CARTESIAN_POINT('',(0.0185,0.003,-8.67361737988404E-19));
#722=CARTESIAN_POINT('',(0.0185,0.003,0.00275));
#723=CARTESIAN_POINT('',(1.73472347597681E-18,0.003,0.0185));
#724=CARTESIAN_POINT('',(1.73472347597681E-18,0.003,0.02125));
#725=CARTESIAN_POINT('',(0.0130814754519511,0.003,-0.0130814754519511));
#726=CARTESIAN_POINT('',(0.0130814754519511,0.003,-0.0114814754519511));
#727=CARTESIAN_POINT('',(0.0130814754519511,0.003,0.0130814754519511));
#728=CARTESIAN_POINT('',(0.0130814754519511,0.003,0.0146814754519511));
#729=CARTESIAN_POINT('',(-0.0130814754519511,0.003,0.0130814754519511));
#730=CARTESIAN_POINT('',(-0.0130814754519511,0.003,0.0146814754519511));
#731=CARTESIAN_POINT('',(-0.0130814754519511,0.003,-0.0130814754519511));
#732=CARTESIAN_POINT('',(-0.0130814754519511,0.003,-0.0114814754519511));
#733=CARTESIAN_POINT('',(0.,0.003,0.));
#734=CARTESIAN_POINT('',(0.,0.003,0.0215));
#735=CARTESIAN_POINT('',(0.,0.003,0.));
#736=CARTESIAN_POINT('',(0.,0.003,0.0155));
#737=CARTESIAN_POINT('',(0.,0.,0.));
#738=CARTESIAN_POINT('',(0.0130814754519511,0.,-0.0130814754519511));
#739=CARTESIAN_POINT('',(0.0130814754519511,0.,-0.0114814754519511));
#740=CARTESIAN_POINT('',(0.,0.,0.));
#741=CARTESIAN_POINT('',(0.0214835135135135,0.,-0.000841811804789079));
#742=CARTESIAN_POINT('',(0.00084181180478914,0.,-0.0214835135135135));
#743=CARTESIAN_POINT('',(0.0185,0.,-2.60208521396521E-18));
#744=CARTESIAN_POINT('',(0.0154835135135135,0.,-0.000714709225380813));
#745=CARTESIAN_POINT('',(0.,0.,0.));
#746=CARTESIAN_POINT('',(0.000714709225380886,0.,-0.0154835135135135));
#747=CARTESIAN_POINT('',(0.,0.,-0.0185));
#748=CARTESIAN_POINT('',(0.,0.003,0.));
#749=CARTESIAN_POINT('',(0.0214835135135135,0.,0.000841811804789073));
#750=CARTESIAN_POINT('',(0.0215052548123216,0.00012974646062925,0.000286961559058515));
#751=CARTESIAN_POINT('',(0.0215052807007109,0.000129900955855307,-0.000286300872718963));
#752=CARTESIAN_POINT('',(0.0214835135135135,-2.58572968190593E-18,-0.000841811804789078));
#753=CARTESIAN_POINT('',(0.00084181180478914,0.,-0.0214835135135135));
#754=CARTESIAN_POINT('',(0.000286961559058541,0.000129746460629266,-0.0215052548123216));
#755=CARTESIAN_POINT('',(-0.000286300872718984,0.000129900955855345,-0.0215052807007109));
#756=CARTESIAN_POINT('',(-0.000841811804789142,1.71710087899497E-17,-0.0214835135135135));
#757=CARTESIAN_POINT('',(-0.0214835135135135,0.,-0.000841811804789142));
#758=CARTESIAN_POINT('',(-0.0215052548123216,0.000129746460629268,-0.000286961559058543));
#759=CARTESIAN_POINT('',(-0.0215052807007109,0.000129900955855321,0.000286300872718982));
#760=CARTESIAN_POINT('',(-0.0214835135135135,-6.67986741326629E-18,0.000841811804789137));
#761=CARTESIAN_POINT('',(-0.000841811804789148,0.,0.0214835135135135));
#762=CARTESIAN_POINT('',(-0.000286961559058549,0.000129746460629266,0.0215052548123216));
#763=CARTESIAN_POINT('',(0.000286300872718976,0.000129900955855341,0.0215052807007109));
#764=CARTESIAN_POINT('',(0.000841811804789134,1.41353254767504E-17,0.0214835135135135));
#765=CARTESIAN_POINT('',(0.,0.003,0.));
#766=CARTESIAN_POINT('',(0.0154835135135135,0.,-0.000714709225380813));
#767=CARTESIAN_POINT('',(0.0155051153857661,0.000128914398926872,-0.000246724667377828));
#768=CARTESIAN_POINT('',(0.0155051460535086,0.000129097416099554,0.000246060279137432));
#769=CARTESIAN_POINT('',(0.0154835135135135,6.68799618387724E-19,0.000714709225380808));
#770=CARTESIAN_POINT('',(0.00071470922538088,0.,0.0154835135135135));
#771=CARTESIAN_POINT('',(0.000246724667377848,0.000128914398926896,0.0155051153857661));
#772=CARTESIAN_POINT('',(-0.000246060279137469,0.000129097416099582,0.0155051460535086));
#773=CARTESIAN_POINT('',(-0.000714709225380893,4.56281294781307E-18,0.0154835135135135));
#774=CARTESIAN_POINT('',(-0.0154835135135135,0.,0.000714709225380771));
#775=CARTESIAN_POINT('',(-0.0155051153857661,0.000128914398926859,0.00024672466737781));
#776=CARTESIAN_POINT('',(-0.0155051460535086,0.000129097416099541,-0.000246060279137422));
#777=CARTESIAN_POINT('',(-0.0154835135135135,1.10257246167326E-18,-0.000714709225380774));
#778=CARTESIAN_POINT('',(-0.000714709225380886,0.,-0.0154835135135135));
#779=CARTESIAN_POINT('',(-0.000246724667377853,0.000128914398926896,-0.0155051153857661));
#780=CARTESIAN_POINT('',(0.000246060279137462,0.000129097416099578,-0.0155051460535086));
#781=CARTESIAN_POINT('',(0.000714709225380886,1.09336279908313E-18,-0.0154835135135135));
#782=CARTESIAN_POINT('',(-0.0130814754519511,0.,-0.0130814754519511));
#783=CARTESIAN_POINT('',(-0.0130814754519511,0.,0.0130814754519511));
#784=CARTESIAN_POINT('',(0.0130814754519511,0.,0.0130814754519511));
#785=CARTESIAN_POINT('',(0.0130814754519511,0.,-0.0130814754519511));
#786=CARTESIAN_POINT('',(0.0185,0.,-2.60208521396521E-18));
#787=CARTESIAN_POINT('',(0.,0.,-0.0185));
#788=CARTESIAN_POINT('',(-0.0185,0.,-1.73472347597681E-18));
#789=CARTESIAN_POINT('',(-6.93889390390723E-18,0.,0.0185));
#790=CARTESIAN_POINT('',(4.33680868994202E-19,0.0024,-0.0185));
#791=CARTESIAN_POINT('',(4.33680868994202E-19,0.0024,-0.0185));
#792=CARTESIAN_POINT('',(4.33680868994202E-19,0.0024,-0.01575));
#793=CARTESIAN_POINT('',(4.33680868994202E-19,0.0024,-0.0185));
#794=CARTESIAN_POINT('',(0.0185,0.0024,-8.67361737988404E-19));
#795=CARTESIAN_POINT('',(0.0185,0.0024,-8.67361737988404E-19));
#796=CARTESIAN_POINT('',(0.0185,0.0024,0.00275));
#797=CARTESIAN_POINT('',(0.0185,0.0024,-8.67361737988404E-19));
#798=CARTESIAN_POINT('',(1.73472347597681E-18,0.0024,0.0185));
#799=CARTESIAN_POINT('',(1.73472347597681E-18,0.0024,0.0185));
#800=CARTESIAN_POINT('',(1.73472347597681E-18,0.0024,0.02125));
#801=CARTESIAN_POINT('',(1.73472347597681E-18,0.0024,0.0185));
#802=CARTESIAN_POINT('',(-0.0185,0.0024,-1.73472347597681E-18));
#803=CARTESIAN_POINT('',(-0.0185,0.0024,-1.73472347597681E-18));
#804=CARTESIAN_POINT('',(-0.0185,0.0024,0.00275));
#805=CARTESIAN_POINT('',(-0.0185,0.0024,-1.73472347597681E-18));
#806=MECHANICAL_DESIGN_GEOMETRIC_PRESENTATION_REPRESENTATION('',(#441),
#807);
#807=(
GEOMETRIC_REPRESENTATION_CONTEXT(3)
GLOBAL_UNCERTAINTY_ASSIGNED_CONTEXT((#808))
GLOBAL_UNIT_ASSIGNED_CONTEXT((#811,#810,#809))
REPRESENTATION_CONTEXT('Base ring','TOP_LEVEL_ASSEMBLY_PART')
);
#808=UNCERTAINTY_MEASURE_WITH_UNIT(LENGTH_MEASURE(2.E-5),#811,
'DISTANCE_ACCURACY_VALUE','Maximum Tolerance applied to model');
#809=(
NAMED_UNIT(*)
SI_UNIT($,.STERADIAN.)
SOLID_ANGLE_UNIT()
);
#810=(
NAMED_UNIT(*)
PLANE_ANGLE_UNIT()
SI_UNIT($,.RADIAN.)
);
#811=(
LENGTH_UNIT()
NAMED_UNIT(*)
SI_UNIT($,.METRE.)
);
#812=PRODUCT_DEFINITION_SHAPE('','',#813);
#813=PRODUCT_DEFINITION('','',#815,#814);
#814=PRODUCT_DEFINITION_CONTEXT('',#821,'design');
#815=PRODUCT_DEFINITION_FORMATION_WITH_SPECIFIED_SOURCE('','',#817,
 .NOT_KNOWN.);
#816=PRODUCT_RELATED_PRODUCT_CATEGORY('','',(#817));
#817=PRODUCT('Base ring','Base ring','Base ring',(#819));
#818=PRODUCT_CATEGORY('','');
#819=PRODUCT_CONTEXT('',#821,'mechanical');
#820=APPLICATION_PROTOCOL_DEFINITION('international standard',
'automotive_design',2010,#821);
#821=APPLICATION_CONTEXT(
'core data for automotive mechanical design processes');
ENDSEC;
END-ISO-10303-21;
