ISO-10303-21;
HEADER;
/* Generated by software containing ST-Developer
 * from STEP Tools, Inc. (www.steptools.com) 
 */
/* OPTION: using custom renumber hook */

FILE_DESCRIPTION(
/* description */ ('STEP AP214',
'CAx-IF Rec.Pracs.---User Defined Attributes---1.5---2016-08-15'),
/* implementation_level */ '2;1');

FILE_NAME(
/* name */ '6a386d17ee269b265a35560d',
/* time_stamp */ '2026-06-21T23:00:39Z',
/* author */ (''),
/* organization */ (''),
/* preprocessor_version */ 'ST-DEVELOPER v20',
/* originating_system */ 'ONSHAPE BY PTC INC, 1.216',
/* authorisation */ '  ');

FILE_SCHEMA (('AUTOMOTIVE_DESIGN {1 0 10303 214 3 1 1}'));
ENDSEC;

DATA;
#10=PROPERTY_DEFINITION_REPRESENTATION(#14,#12);
#11=PROPERTY_DEFINITION_REPRESENTATION(#15,#13);
#12=REPRESENTATION('',(#16),#699);
#13=REPRESENTATION('',(#17),#699);
#14=PROPERTY_DEFINITION('pmi validation property','',#704);
#15=PROPERTY_DEFINITION('pmi validation property','',#704);
#16=VALUE_REPRESENTATION_ITEM('number of annotations',COUNT_MEASURE(0.));
#17=VALUE_REPRESENTATION_ITEM('number of views',COUNT_MEASURE(0.));
#18=SHAPE_REPRESENTATION_RELATIONSHIP('','',#404,#19);
#19=ADVANCED_BREP_SHAPE_REPRESENTATION('',(#402),#699);
#20=B_SPLINE_CURVE_WITH_KNOTS('',3,(#595,#596,#597,#598),.UNSPECIFIED.,
 .F.,.F.,(4,4),(0.00727335995535913,0.0134181385799935),.UNSPECIFIED.);
#21=B_SPLINE_CURVE_WITH_KNOTS('',3,(#602,#603,#604,#605),.UNSPECIFIED.,
 .F.,.F.,(4,4),(0.00727536872200943,0.013420147960733),.UNSPECIFIED.);
#22=B_SPLINE_CURVE_WITH_KNOTS('',3,(#606,#607,#608,#609),.UNSPECIFIED.,
 .F.,.F.,(4,4),(0.00727335995535913,0.0134181385799935),.UNSPECIFIED.);
#23=B_SPLINE_CURVE_WITH_KNOTS('',3,(#613,#614,#615,#616),.UNSPECIFIED.,
 .F.,.F.,(4,4),(0.00727536872200943,0.013420147960733),.UNSPECIFIED.);
#24=B_SPLINE_CURVE_WITH_KNOTS('',3,(#620,#621,#622,#623),.UNSPECIFIED.,
 .F.,.F.,(4,4),(0.00727335995535913,0.0134181385799935),.UNSPECIFIED.);
#25=B_SPLINE_CURVE_WITH_KNOTS('',3,(#627,#628,#629,#630),.UNSPECIFIED.,
 .F.,.F.,(4,4),(0.00727536872200943,0.013420147960733),.UNSPECIFIED.);
#26=B_SPLINE_CURVE_WITH_KNOTS('',3,(#631,#632,#633,#634),.UNSPECIFIED.,
 .F.,.F.,(4,4),(0.00727335995535913,0.0134181385799935),.UNSPECIFIED.);
#27=B_SPLINE_CURVE_WITH_KNOTS('',3,(#638,#639,#640,#641),.UNSPECIFIED.,
 .F.,.F.,(4,4),(0.00727536872200943,0.013420147960733),.UNSPECIFIED.);
#28=CONICAL_SURFACE('',#418,0.0025,0.217111314734906);
#29=CYLINDRICAL_SURFACE('',#415,0.0011);
#30=CYLINDRICAL_SURFACE('',#429,0.0025);
#31=CYLINDRICAL_SURFACE('',#432,0.0015);
#32=LINE('',#566,#56);
#33=LINE('',#570,#57);
#34=LINE('',#575,#58);
#35=LINE('',#579,#59);
#36=LINE('',#584,#60);
#37=LINE('',#588,#61);
#38=LINE('',#645,#62);
#39=LINE('',#649,#63);
#40=LINE('',#658,#64);
#41=LINE('',#662,#65);
#42=LINE('',#663,#66);
#43=LINE('',#667,#67);
#44=LINE('',#668,#68);
#45=LINE('',#672,#69);
#46=LINE('',#673,#70);
#47=LINE('',#677,#71);
#48=LINE('',#679,#72);
#49=LINE('',#680,#73);
#50=LINE('',#684,#74);
#51=LINE('',#685,#75);
#52=LINE('',#689,#76);
#53=LINE('',#690,#77);
#54=LINE('',#694,#78);
#55=LINE('',#696,#79);
#56=VECTOR('',#455,1.);
#57=VECTOR('',#458,1.);
#58=VECTOR('',#463,1.);
#59=VECTOR('',#466,1.);
#60=VECTOR('',#471,1.);
#61=VECTOR('',#474,1.);
#62=VECTOR('',#497,1.);
#63=VECTOR('',#500,1.);
#64=VECTOR('',#513,1.);
#65=VECTOR('',#516,1.);
#66=VECTOR('',#517,1.);
#67=VECTOR('',#520,1.);
#68=VECTOR('',#521,1.);
#69=VECTOR('',#524,1.);
#70=VECTOR('',#525,1.);
#71=VECTOR('',#528,1.);
#72=VECTOR('',#531,1.);
#73=VECTOR('',#532,1.);
#74=VECTOR('',#539,1.);
#75=VECTOR('',#540,1.);
#76=VECTOR('',#547,1.);
#77=VECTOR('',#548,1.);
#78=VECTOR('',#555,1.);
#79=VECTOR('',#558,1.);
#80=ORIENTED_EDGE('',*,*,#186,.T.);
#81=ORIENTED_EDGE('',*,*,#187,.F.);
#82=ORIENTED_EDGE('',*,*,#188,.F.);
#83=ORIENTED_EDGE('',*,*,#189,.F.);
#84=ORIENTED_EDGE('',*,*,#190,.T.);
#85=ORIENTED_EDGE('',*,*,#191,.F.);
#86=ORIENTED_EDGE('',*,*,#192,.F.);
#87=ORIENTED_EDGE('',*,*,#193,.F.);
#88=ORIENTED_EDGE('',*,*,#194,.T.);
#89=ORIENTED_EDGE('',*,*,#195,.F.);
#90=ORIENTED_EDGE('',*,*,#196,.F.);
#91=ORIENTED_EDGE('',*,*,#197,.F.);
#92=ORIENTED_EDGE('',*,*,#198,.T.);
#93=ORIENTED_EDGE('',*,*,#199,.F.);
#94=ORIENTED_EDGE('',*,*,#190,.F.);
#95=ORIENTED_EDGE('',*,*,#200,.T.);
#96=ORIENTED_EDGE('',*,*,#201,.F.);
#97=ORIENTED_EDGE('',*,*,#202,.T.);
#98=ORIENTED_EDGE('',*,*,#194,.F.);
#99=ORIENTED_EDGE('',*,*,#203,.T.);
#100=ORIENTED_EDGE('',*,*,#204,.F.);
#101=ORIENTED_EDGE('',*,*,#205,.T.);
#102=ORIENTED_EDGE('',*,*,#206,.F.);
#103=ORIENTED_EDGE('',*,*,#207,.T.);
#104=ORIENTED_EDGE('',*,*,#208,.F.);
#105=ORIENTED_EDGE('',*,*,#209,.T.);
#106=ORIENTED_EDGE('',*,*,#186,.F.);
#107=ORIENTED_EDGE('',*,*,#210,.T.);
#108=ORIENTED_EDGE('',*,*,#211,.F.);
#109=ORIENTED_EDGE('',*,*,#212,.T.);
#110=ORIENTED_EDGE('',*,*,#213,.T.);
#111=ORIENTED_EDGE('',*,*,#206,.T.);
#112=ORIENTED_EDGE('',*,*,#214,.F.);
#113=ORIENTED_EDGE('',*,*,#215,.F.);
#114=ORIENTED_EDGE('',*,*,#216,.F.);
#115=ORIENTED_EDGE('',*,*,#198,.F.);
#116=ORIENTED_EDGE('',*,*,#217,.F.);
#117=ORIENTED_EDGE('',*,*,#213,.F.);
#118=ORIENTED_EDGE('',*,*,#217,.T.);
#119=ORIENTED_EDGE('',*,*,#218,.T.);
#120=ORIENTED_EDGE('',*,*,#199,.T.);
#121=ORIENTED_EDGE('',*,*,#188,.T.);
#122=ORIENTED_EDGE('',*,*,#219,.T.);
#123=ORIENTED_EDGE('',*,*,#220,.F.);
#124=ORIENTED_EDGE('',*,*,#221,.T.);
#125=ORIENTED_EDGE('',*,*,#215,.T.);
#126=ORIENTED_EDGE('',*,*,#222,.T.);
#127=ORIENTED_EDGE('',*,*,#223,.F.);
#128=ORIENTED_EDGE('',*,*,#224,.T.);
#129=ORIENTED_EDGE('',*,*,#196,.T.);
#130=ORIENTED_EDGE('',*,*,#225,.T.);
#131=ORIENTED_EDGE('',*,*,#226,.F.);
#132=ORIENTED_EDGE('',*,*,#227,.T.);
#133=ORIENTED_EDGE('',*,*,#192,.T.);
#134=ORIENTED_EDGE('',*,*,#228,.T.);
#135=ORIENTED_EDGE('',*,*,#229,.F.);
#136=ORIENTED_EDGE('',*,*,#230,.T.);
#137=ORIENTED_EDGE('',*,*,#218,.F.);
#138=ORIENTED_EDGE('',*,*,#204,.T.);
#139=ORIENTED_EDGE('',*,*,#231,.T.);
#140=ORIENTED_EDGE('',*,*,#223,.T.);
#141=ORIENTED_EDGE('',*,*,#232,.T.);
#142=ORIENTED_EDGE('',*,*,#232,.F.);
#143=ORIENTED_EDGE('',*,*,#222,.F.);
#144=ORIENTED_EDGE('',*,*,#214,.T.);
#145=ORIENTED_EDGE('',*,*,#205,.F.);
#146=ORIENTED_EDGE('',*,*,#197,.T.);
#147=ORIENTED_EDGE('',*,*,#224,.F.);
#148=ORIENTED_EDGE('',*,*,#231,.F.);
#149=ORIENTED_EDGE('',*,*,#203,.F.);
#150=ORIENTED_EDGE('',*,*,#201,.T.);
#151=ORIENTED_EDGE('',*,*,#233,.T.);
#152=ORIENTED_EDGE('',*,*,#226,.T.);
#153=ORIENTED_EDGE('',*,*,#234,.T.);
#154=ORIENTED_EDGE('',*,*,#234,.F.);
#155=ORIENTED_EDGE('',*,*,#225,.F.);
#156=ORIENTED_EDGE('',*,*,#195,.T.);
#157=ORIENTED_EDGE('',*,*,#202,.F.);
#158=ORIENTED_EDGE('',*,*,#193,.T.);
#159=ORIENTED_EDGE('',*,*,#227,.F.);
#160=ORIENTED_EDGE('',*,*,#233,.F.);
#161=ORIENTED_EDGE('',*,*,#200,.F.);
#162=ORIENTED_EDGE('',*,*,#211,.T.);
#163=ORIENTED_EDGE('',*,*,#235,.T.);
#164=ORIENTED_EDGE('',*,*,#229,.T.);
#165=ORIENTED_EDGE('',*,*,#236,.T.);
#166=ORIENTED_EDGE('',*,*,#236,.F.);
#167=ORIENTED_EDGE('',*,*,#228,.F.);
#168=ORIENTED_EDGE('',*,*,#191,.T.);
#169=ORIENTED_EDGE('',*,*,#212,.F.);
#170=ORIENTED_EDGE('',*,*,#189,.T.);
#171=ORIENTED_EDGE('',*,*,#230,.F.);
#172=ORIENTED_EDGE('',*,*,#235,.F.);
#173=ORIENTED_EDGE('',*,*,#210,.F.);
#174=ORIENTED_EDGE('',*,*,#237,.F.);
#175=ORIENTED_EDGE('',*,*,#219,.F.);
#176=ORIENTED_EDGE('',*,*,#187,.T.);
#177=ORIENTED_EDGE('',*,*,#209,.F.);
#178=ORIENTED_EDGE('',*,*,#216,.T.);
#179=ORIENTED_EDGE('',*,*,#221,.F.);
#180=ORIENTED_EDGE('',*,*,#238,.F.);
#181=ORIENTED_EDGE('',*,*,#207,.F.);
#182=ORIENTED_EDGE('',*,*,#208,.T.);
#183=ORIENTED_EDGE('',*,*,#238,.T.);
#184=ORIENTED_EDGE('',*,*,#220,.T.);
#185=ORIENTED_EDGE('',*,*,#237,.T.);
#186=EDGE_CURVE('',#239,#240,#276,.T.);
#187=EDGE_CURVE('',#241,#240,#32,.T.);
#188=EDGE_CURVE('',#242,#241,#277,.T.);
#189=EDGE_CURVE('',#239,#242,#33,.T.);
#190=EDGE_CURVE('',#243,#244,#278,.T.);
#191=EDGE_CURVE('',#245,#244,#34,.T.);
#192=EDGE_CURVE('',#246,#245,#279,.T.);
#193=EDGE_CURVE('',#243,#246,#35,.T.);
#194=EDGE_CURVE('',#247,#248,#280,.T.);
#195=EDGE_CURVE('',#249,#248,#36,.T.);
#196=EDGE_CURVE('',#250,#249,#281,.T.);
#197=EDGE_CURVE('',#247,#250,#37,.T.);
#198=EDGE_CURVE('',#251,#251,#282,.T.);
#199=EDGE_CURVE('',#252,#252,#283,.F.);
#200=EDGE_CURVE('',#243,#253,#20,.T.);
#201=EDGE_CURVE('',#254,#253,#284,.T.);
#202=EDGE_CURVE('',#254,#248,#21,.T.);
#203=EDGE_CURVE('',#247,#255,#22,.T.);
#204=EDGE_CURVE('',#256,#255,#285,.T.);
#205=EDGE_CURVE('',#256,#257,#23,.T.);
#206=EDGE_CURVE('',#258,#257,#286,.T.);
#207=EDGE_CURVE('',#258,#259,#24,.T.);
#208=EDGE_CURVE('',#260,#259,#287,.T.);
#209=EDGE_CURVE('',#260,#240,#25,.T.);
#210=EDGE_CURVE('',#239,#261,#26,.T.);
#211=EDGE_CURVE('',#262,#261,#288,.T.);
#212=EDGE_CURVE('',#262,#244,#27,.T.);
#213=EDGE_CURVE('',#263,#263,#289,.T.);
#214=EDGE_CURVE('',#264,#257,#38,.T.);
#215=EDGE_CURVE('',#265,#264,#290,.T.);
#216=EDGE_CURVE('',#258,#265,#39,.T.);
#217=EDGE_CURVE('',#266,#266,#291,.T.);
#218=EDGE_CURVE('',#267,#267,#292,.T.);
#219=EDGE_CURVE('',#241,#268,#40,.F.);
#220=EDGE_CURVE('',#269,#268,#293,.F.);
#221=EDGE_CURVE('',#269,#265,#41,.T.);
#222=EDGE_CURVE('',#264,#270,#42,.F.);
#223=EDGE_CURVE('',#271,#270,#294,.F.);
#224=EDGE_CURVE('',#271,#250,#43,.T.);
#225=EDGE_CURVE('',#249,#272,#44,.F.);
#226=EDGE_CURVE('',#273,#272,#295,.F.);
#227=EDGE_CURVE('',#273,#246,#45,.T.);
#228=EDGE_CURVE('',#245,#274,#46,.F.);
#229=EDGE_CURVE('',#275,#274,#296,.F.);
#230=EDGE_CURVE('',#275,#242,#47,.T.);
#231=EDGE_CURVE('',#255,#271,#48,.T.);
#232=EDGE_CURVE('',#270,#256,#49,.T.);
#233=EDGE_CURVE('',#253,#273,#50,.T.);
#234=EDGE_CURVE('',#272,#254,#51,.T.);
#235=EDGE_CURVE('',#261,#275,#52,.T.);
#236=EDGE_CURVE('',#274,#262,#53,.T.);
#237=EDGE_CURVE('',#268,#260,#54,.T.);
#238=EDGE_CURVE('',#259,#269,#55,.T.);
#239=VERTEX_POINT('',#564);
#240=VERTEX_POINT('',#565);
#241=VERTEX_POINT('',#567);
#242=VERTEX_POINT('',#569);
#243=VERTEX_POINT('',#573);
#244=VERTEX_POINT('',#574);
#245=VERTEX_POINT('',#576);
#246=VERTEX_POINT('',#578);
#247=VERTEX_POINT('',#582);
#248=VERTEX_POINT('',#583);
#249=VERTEX_POINT('',#585);
#250=VERTEX_POINT('',#587);
#251=VERTEX_POINT('',#591);
#252=VERTEX_POINT('',#593);
#253=VERTEX_POINT('',#599);
#254=VERTEX_POINT('',#601);
#255=VERTEX_POINT('',#610);
#256=VERTEX_POINT('',#612);
#257=VERTEX_POINT('',#617);
#258=VERTEX_POINT('',#619);
#259=VERTEX_POINT('',#624);
#260=VERTEX_POINT('',#626);
#261=VERTEX_POINT('',#635);
#262=VERTEX_POINT('',#637);
#263=VERTEX_POINT('',#643);
#264=VERTEX_POINT('',#646);
#265=VERTEX_POINT('',#648);
#266=VERTEX_POINT('',#652);
#267=VERTEX_POINT('',#656);
#268=VERTEX_POINT('',#659);
#269=VERTEX_POINT('',#661);
#270=VERTEX_POINT('',#664);
#271=VERTEX_POINT('',#666);
#272=VERTEX_POINT('',#669);
#273=VERTEX_POINT('',#671);
#274=VERTEX_POINT('',#674);
#275=VERTEX_POINT('',#676);
#276=CIRCLE('',#407,0.004);
#277=CIRCLE('',#408,0.0015);
#278=CIRCLE('',#410,0.004);
#279=CIRCLE('',#411,0.0015);
#280=CIRCLE('',#413,0.004);
#281=CIRCLE('',#414,0.0015);
#282=CIRCLE('',#416,0.0011);
#283=CIRCLE('',#417,0.0011);
#284=CIRCLE('',#419,0.00267647058823529);
#285=CIRCLE('',#420,0.00267647058823529);
#286=CIRCLE('',#421,0.004);
#287=CIRCLE('',#422,0.00267647058823529);
#288=CIRCLE('',#423,0.00267647058823529);
#289=CIRCLE('',#424,0.0025);
#290=CIRCLE('',#426,0.0015);
#291=CIRCLE('',#428,0.0025);
#292=CIRCLE('',#431,0.0015);
#293=CIRCLE('',#433,0.0015);
#294=CIRCLE('',#434,0.0015);
#295=CIRCLE('',#435,0.0015);
#296=CIRCLE('',#436,0.0015);
#297=EDGE_LOOP('',(#80,#81,#82,#83));
#298=EDGE_LOOP('',(#84,#85,#86,#87));
#299=EDGE_LOOP('',(#88,#89,#90,#91));
#300=EDGE_LOOP('',(#92));
#301=EDGE_LOOP('',(#93));
#302=EDGE_LOOP('',(#94,#95,#96,#97,#98,#99,#100,#101,#102,#103,#104,#105,
#106,#107,#108,#109));
#303=EDGE_LOOP('',(#110));
#304=EDGE_LOOP('',(#111,#112,#113,#114));
#305=EDGE_LOOP('',(#115));
#306=EDGE_LOOP('',(#116));
#307=EDGE_LOOP('',(#117));
#308=EDGE_LOOP('',(#118));
#309=EDGE_LOOP('',(#119));
#310=EDGE_LOOP('',(#120));
#311=EDGE_LOOP('',(#121,#122,#123,#124,#125,#126,#127,#128,#129,#130,#131,
#132,#133,#134,#135,#136));
#312=EDGE_LOOP('',(#137));
#313=EDGE_LOOP('',(#138,#139,#140,#141));
#314=EDGE_LOOP('',(#142,#143,#144,#145));
#315=EDGE_LOOP('',(#146,#147,#148,#149));
#316=EDGE_LOOP('',(#150,#151,#152,#153));
#317=EDGE_LOOP('',(#154,#155,#156,#157));
#318=EDGE_LOOP('',(#158,#159,#160,#161));
#319=EDGE_LOOP('',(#162,#163,#164,#165));
#320=EDGE_LOOP('',(#166,#167,#168,#169));
#321=EDGE_LOOP('',(#170,#171,#172,#173));
#322=EDGE_LOOP('',(#174,#175,#176,#177));
#323=EDGE_LOOP('',(#178,#179,#180,#181));
#324=EDGE_LOOP('',(#182,#183,#184,#185));
#325=FACE_BOUND('',#297,.T.);
#326=FACE_BOUND('',#298,.T.);
#327=FACE_BOUND('',#299,.T.);
#328=FACE_BOUND('',#300,.T.);
#329=FACE_BOUND('',#301,.T.);
#330=FACE_BOUND('',#302,.T.);
#331=FACE_BOUND('',#303,.T.);
#332=FACE_BOUND('',#304,.T.);
#333=FACE_BOUND('',#305,.T.);
#334=FACE_BOUND('',#306,.T.);
#335=FACE_BOUND('',#307,.T.);
#336=FACE_BOUND('',#308,.T.);
#337=FACE_BOUND('',#309,.T.);
#338=FACE_BOUND('',#310,.T.);
#339=FACE_BOUND('',#311,.T.);
#340=FACE_BOUND('',#312,.T.);
#341=FACE_BOUND('',#313,.T.);
#342=FACE_BOUND('',#314,.T.);
#343=FACE_BOUND('',#315,.T.);
#344=FACE_BOUND('',#316,.T.);
#345=FACE_BOUND('',#317,.T.);
#346=FACE_BOUND('',#318,.T.);
#347=FACE_BOUND('',#319,.T.);
#348=FACE_BOUND('',#320,.T.);
#349=FACE_BOUND('',#321,.T.);
#350=FACE_BOUND('',#322,.T.);
#351=FACE_BOUND('',#323,.T.);
#352=FACE_BOUND('',#324,.T.);
#353=PLANE('',#406);
#354=PLANE('',#409);
#355=PLANE('',#412);
#356=PLANE('',#425);
#357=PLANE('',#427);
#358=PLANE('',#430);
#359=PLANE('',#437);
#360=PLANE('',#438);
#361=PLANE('',#439);
#362=PLANE('',#440);
#363=PLANE('',#441);
#364=PLANE('',#442);
#365=PLANE('',#443);
#366=PLANE('',#444);
#367=PLANE('',#445);
#368=PLANE('',#446);
#369=PLANE('',#447);
#370=PLANE('',#448);
#371=ADVANCED_FACE('',(#325),#353,.F.);
#372=ADVANCED_FACE('',(#326),#354,.F.);
#373=ADVANCED_FACE('',(#327),#355,.F.);
#374=ADVANCED_FACE('',(#328,#329),#29,.F.);
#375=ADVANCED_FACE('',(#330,#331),#28,.T.);
#376=ADVANCED_FACE('',(#332),#356,.F.);
#377=ADVANCED_FACE('',(#333,#334),#357,.F.);
#378=ADVANCED_FACE('',(#335,#336),#30,.T.);
#379=ADVANCED_FACE('',(#337,#338),#358,.T.);
#380=ADVANCED_FACE('',(#339,#340),#31,.F.);
#381=ADVANCED_FACE('',(#341),#359,.T.);
#382=ADVANCED_FACE('',(#342),#360,.F.);
#383=ADVANCED_FACE('',(#343),#361,.F.);
#384=ADVANCED_FACE('',(#344),#362,.T.);
#385=ADVANCED_FACE('',(#345),#363,.F.);
#386=ADVANCED_FACE('',(#346),#364,.F.);
#387=ADVANCED_FACE('',(#347),#365,.T.);
#388=ADVANCED_FACE('',(#348),#366,.F.);
#389=ADVANCED_FACE('',(#349),#367,.F.);
#390=ADVANCED_FACE('',(#350),#368,.F.);
#391=ADVANCED_FACE('',(#351),#369,.F.);
#392=ADVANCED_FACE('',(#352),#370,.T.);
#393=CLOSED_SHELL('',(#371,#372,#373,#374,#375,#376,#377,#378,#379,#380,
#381,#382,#383,#384,#385,#386,#387,#388,#389,#390,#391,#392));
#394=STYLED_ITEM('',(#395),#402);
#395=PRESENTATION_STYLE_ASSIGNMENT((#396));
#396=SURFACE_STYLE_USAGE(.BOTH.,#397);
#397=SURFACE_SIDE_STYLE('',(#398));
#398=SURFACE_STYLE_FILL_AREA(#399);
#399=FILL_AREA_STYLE('',(#400));
#400=FILL_AREA_STYLE_COLOUR('',#401);
#401=COLOUR_RGB('',0.752941176470588,0.752941176470588,0.752941176470588);
#402=MANIFOLD_SOLID_BREP('Cone screw',#393);
#403=SHAPE_DEFINITION_REPRESENTATION(#704,#404);
#404=SHAPE_REPRESENTATION('Cone screw',(#405),#699);
#405=AXIS2_PLACEMENT_3D('',#561,#449,#450);
#406=AXIS2_PLACEMENT_3D('',#562,#451,#452);
#407=AXIS2_PLACEMENT_3D('',#563,#453,#454);
#408=AXIS2_PLACEMENT_3D('',#568,#456,#457);
#409=AXIS2_PLACEMENT_3D('',#571,#459,#460);
#410=AXIS2_PLACEMENT_3D('',#572,#461,#462);
#411=AXIS2_PLACEMENT_3D('',#577,#464,#465);
#412=AXIS2_PLACEMENT_3D('',#580,#467,#468);
#413=AXIS2_PLACEMENT_3D('',#581,#469,#470);
#414=AXIS2_PLACEMENT_3D('',#586,#472,#473);
#415=AXIS2_PLACEMENT_3D('',#589,#475,#476);
#416=AXIS2_PLACEMENT_3D('',#590,#477,#478);
#417=AXIS2_PLACEMENT_3D('',#592,#479,#480);
#418=AXIS2_PLACEMENT_3D('',#594,#481,#482);
#419=AXIS2_PLACEMENT_3D('',#600,#483,#484);
#420=AXIS2_PLACEMENT_3D('',#611,#485,#486);
#421=AXIS2_PLACEMENT_3D('',#618,#487,#488);
#422=AXIS2_PLACEMENT_3D('',#625,#489,#490);
#423=AXIS2_PLACEMENT_3D('',#636,#491,#492);
#424=AXIS2_PLACEMENT_3D('',#642,#493,#494);
#425=AXIS2_PLACEMENT_3D('',#644,#495,#496);
#426=AXIS2_PLACEMENT_3D('',#647,#498,#499);
#427=AXIS2_PLACEMENT_3D('',#650,#501,#502);
#428=AXIS2_PLACEMENT_3D('',#651,#503,#504);
#429=AXIS2_PLACEMENT_3D('',#653,#505,#506);
#430=AXIS2_PLACEMENT_3D('',#654,#507,#508);
#431=AXIS2_PLACEMENT_3D('',#655,#509,#510);
#432=AXIS2_PLACEMENT_3D('',#657,#511,#512);
#433=AXIS2_PLACEMENT_3D('',#660,#514,#515);
#434=AXIS2_PLACEMENT_3D('',#665,#518,#519);
#435=AXIS2_PLACEMENT_3D('',#670,#522,#523);
#436=AXIS2_PLACEMENT_3D('',#675,#526,#527);
#437=AXIS2_PLACEMENT_3D('',#678,#529,#530);
#438=AXIS2_PLACEMENT_3D('',#681,#533,#534);
#439=AXIS2_PLACEMENT_3D('',#682,#535,#536);
#440=AXIS2_PLACEMENT_3D('',#683,#537,#538);
#441=AXIS2_PLACEMENT_3D('',#686,#541,#542);
#442=AXIS2_PLACEMENT_3D('',#687,#543,#544);
#443=AXIS2_PLACEMENT_3D('',#688,#545,#546);
#444=AXIS2_PLACEMENT_3D('',#691,#549,#550);
#445=AXIS2_PLACEMENT_3D('',#692,#551,#552);
#446=AXIS2_PLACEMENT_3D('',#693,#553,#554);
#447=AXIS2_PLACEMENT_3D('',#695,#556,#557);
#448=AXIS2_PLACEMENT_3D('',#697,#559,#560);
#449=DIRECTION('',(0.,0.,1.));
#450=DIRECTION('',(1.,0.,0.));
#451=DIRECTION('',(0.,1.,0.));
#452=DIRECTION('',(0.,0.,1.));
#453=DIRECTION('',(0.,-1.,0.));
#454=DIRECTION('',(0.,0.,-1.));
#455=DIRECTION('',(-1.,0.,6.09863722023096E-17));
#456=DIRECTION('',(0.,-1.,0.));
#457=DIRECTION('',(0.,0.,-1.));
#458=DIRECTION('',(-8.80914265144472E-17,0.,-1.));
#459=DIRECTION('',(0.,1.,0.));
#460=DIRECTION('',(0.,0.,1.));
#461=DIRECTION('',(0.,-1.,0.));
#462=DIRECTION('',(0.,0.,-1.));
#463=DIRECTION('',(3.72694496791892E-16,0.,1.));
#464=DIRECTION('',(0.,-1.,0.));
#465=DIRECTION('',(0.,0.,-1.));
#466=DIRECTION('',(-1.,0.,-3.93023287525995E-16));
#467=DIRECTION('',(0.,1.,0.));
#468=DIRECTION('',(0.,0.,1.));
#469=DIRECTION('',(0.,-1.,0.));
#470=DIRECTION('',(0.,0.,-1.));
#471=DIRECTION('',(1.,0.,-2.23616698075135E-16));
#472=DIRECTION('',(0.,-1.,0.));
#473=DIRECTION('',(0.,0.,-1.));
#474=DIRECTION('',(-1.55854062294791E-16,0.,1.));
#475=DIRECTION('',(0.,1.,0.));
#476=DIRECTION('',(0.,0.,1.));
#477=DIRECTION('',(0.,1.,0.));
#478=DIRECTION('',(0.,0.,1.));
#479=DIRECTION('',(0.,-1.,0.));
#480=DIRECTION('',(0.,0.,-1.));
#481=DIRECTION('',(0.,-1.,0.));
#482=DIRECTION('',(0.,0.,-1.));
#483=DIRECTION('',(0.,-1.,0.));
#484=DIRECTION('',(0.,0.,-1.));
#485=DIRECTION('',(0.,-1.,0.));
#486=DIRECTION('',(0.,0.,-1.));
#487=DIRECTION('',(0.,-1.,0.));
#488=DIRECTION('',(0.,0.,-1.));
#489=DIRECTION('',(0.,-1.,0.));
#490=DIRECTION('',(0.,0.,-1.));
#491=DIRECTION('',(0.,-1.,0.));
#492=DIRECTION('',(0.,0.,-1.));
#493=DIRECTION('',(0.,-1.,0.));
#494=DIRECTION('',(0.,0.,-1.));
#495=DIRECTION('',(0.,1.,0.));
#496=DIRECTION('',(0.,0.,1.));
#497=DIRECTION('',(8.80914265144472E-17,0.,-1.));
#498=DIRECTION('',(0.,-1.,0.));
#499=DIRECTION('',(0.,0.,-1.));
#500=DIRECTION('',(1.,0.,2.23616698075135E-16));
#501=DIRECTION('',(0.,-1.,0.));
#502=DIRECTION('',(0.,0.,-1.));
#503=DIRECTION('',(0.,-1.,0.));
#504=DIRECTION('',(0.,0.,-1.));
#505=DIRECTION('',(0.,-1.,0.));
#506=DIRECTION('',(0.,0.,-1.));
#507=DIRECTION('',(0.,-1.,0.));
#508=DIRECTION('',(0.,0.,-1.));
#509=DIRECTION('',(0.,-1.,0.));
#510=DIRECTION('',(0.,0.,-1.));
#511=DIRECTION('',(0.,-1.,0.));
#512=DIRECTION('',(0.,0.,-1.));
#513=DIRECTION('',(0.,-1.,0.));
#514=DIRECTION('',(0.,-1.,0.));
#515=DIRECTION('',(0.,0.,-1.));
#516=DIRECTION('',(0.,-1.,0.));
#517=DIRECTION('',(0.,-1.,0.));
#518=DIRECTION('',(0.,-1.,0.));
#519=DIRECTION('',(0.,0.,-1.));
#520=DIRECTION('',(0.,-1.,0.));
#521=DIRECTION('',(0.,-1.,0.));
#522=DIRECTION('',(0.,-1.,0.));
#523=DIRECTION('',(0.,0.,-1.));
#524=DIRECTION('',(0.,-1.,0.));
#525=DIRECTION('',(0.,-1.,0.));
#526=DIRECTION('',(0.,-1.,0.));
#527=DIRECTION('',(0.,0.,-1.));
#528=DIRECTION('',(0.,-1.,0.));
#529=DIRECTION('',(0.,-1.,0.));
#530=DIRECTION('',(0.,0.,-1.));
#531=DIRECTION('',(-1.55854062294791E-16,0.,1.));
#532=DIRECTION('',(8.80914265144472E-17,0.,-1.));
#533=DIRECTION('',(-1.,0.,-8.80914265144472E-17));
#534=DIRECTION('',(-8.80914265144472E-17,0.,1.));
#535=DIRECTION('',(1.,0.,1.55854062294791E-16));
#536=DIRECTION('',(1.55854062294791E-16,0.,-1.));
#537=DIRECTION('',(0.,-1.,0.));
#538=DIRECTION('',(0.,0.,-1.));
#539=DIRECTION('',(-1.,0.,-3.93023287525995E-16));
#540=DIRECTION('',(1.,0.,-2.23616698075135E-16));
#541=DIRECTION('',(-2.23616698075135E-16,0.,-1.));
#542=DIRECTION('',(-1.,0.,2.23616698075135E-16));
#543=DIRECTION('',(-3.93023287525995E-16,0.,1.));
#544=DIRECTION('',(1.,0.,3.93023287525995E-16));
#545=DIRECTION('',(0.,-1.,0.));
#546=DIRECTION('',(0.,0.,-1.));
#547=DIRECTION('',(-8.80914265144472E-17,0.,-1.));
#548=DIRECTION('',(3.72694496791892E-16,0.,1.));
#549=DIRECTION('',(1.,0.,-3.72694496791892E-16));
#550=DIRECTION('',(-3.72694496791892E-16,0.,-1.));
#551=DIRECTION('',(-1.,0.,8.80914265144472E-17));
#552=DIRECTION('',(8.80914265144472E-17,0.,1.));
#553=DIRECTION('',(6.09863722023096E-17,0.,1.));
#554=DIRECTION('',(1.,0.,-6.09863722023096E-17));
#555=DIRECTION('',(-1.,0.,6.09863722023096E-17));
#556=DIRECTION('',(2.23616698075135E-16,0.,-1.));
#557=DIRECTION('',(-1.,0.,-2.23616698075135E-16));
#558=DIRECTION('',(1.,0.,2.23616698075135E-16));
#559=DIRECTION('',(0.,-1.,0.));
#560=DIRECTION('',(0.,0.,-1.));
#561=CARTESIAN_POINT('',(0.,0.,0.));
#562=CARTESIAN_POINT('',(-0.004,0.,0.));
#563=CARTESIAN_POINT('',(0.,0.,0.));
#564=CARTESIAN_POINT('',(-0.0002,0.,0.00399499687108764));
#565=CARTESIAN_POINT('',(-0.00399499687108764,0.,0.0002));
#566=CARTESIAN_POINT('',(-0.0042,0.,0.0002));
#567=CARTESIAN_POINT('',(-0.00148660687473185,0.,0.0002));
#568=CARTESIAN_POINT('',(0.,0.,0.));
#569=CARTESIAN_POINT('',(-0.0002,0.,0.00148660687473185));
#570=CARTESIAN_POINT('',(-0.0002,0.,0.0042));
#571=CARTESIAN_POINT('',(-0.004,0.,0.));
#572=CARTESIAN_POINT('',(0.,0.,0.));
#573=CARTESIAN_POINT('',(0.00399499687108764,0.,0.0002));
#574=CARTESIAN_POINT('',(0.0002,0.,0.00399499687108764));
#575=CARTESIAN_POINT('',(0.0002,0.,0.0042));
#576=CARTESIAN_POINT('',(0.0002,0.,0.00148660687473185));
#577=CARTESIAN_POINT('',(0.,0.,0.));
#578=CARTESIAN_POINT('',(0.00148660687473185,0.,0.0002));
#579=CARTESIAN_POINT('',(0.0002,0.,0.0002));
#580=CARTESIAN_POINT('',(-0.004,0.,0.));
#581=CARTESIAN_POINT('',(0.,0.,0.));
#582=CARTESIAN_POINT('',(0.0002,0.,-0.00399499687108764));
#583=CARTESIAN_POINT('',(0.00399499687108764,0.,-0.0002));
#584=CARTESIAN_POINT('',(0.0002,0.,-0.0002));
#585=CARTESIAN_POINT('',(0.00148660687473185,0.,-0.0002));
#586=CARTESIAN_POINT('',(0.,0.,0.));
#587=CARTESIAN_POINT('',(0.0002,0.,-0.00148660687473185));
#588=CARTESIAN_POINT('',(0.0002,0.,-0.0002));
#589=CARTESIAN_POINT('',(0.,0.,0.));
#590=CARTESIAN_POINT('',(0.,0.023,0.));
#591=CARTESIAN_POINT('',(0.,0.023,0.0011));
#592=CARTESIAN_POINT('',(0.,0.012,0.));
#593=CARTESIAN_POINT('',(0.,0.012,-0.0011));
#594=CARTESIAN_POINT('',(0.,0.0068,0.));
#595=CARTESIAN_POINT('',(0.00399499687108764,2.88142961500363E-18,0.000200000000000002));
#596=CARTESIAN_POINT('',(0.00355325511776962,0.00200005784531214,0.000200000000000001));
#597=CARTESIAN_POINT('',(0.00311138181081508,0.00400008669590131,0.000200000000000001));
#598=CARTESIAN_POINT('',(0.00266898760013766,0.006,0.000200000000000001));
#599=CARTESIAN_POINT('',(0.00266898760013766,0.006,0.0002));
#600=CARTESIAN_POINT('',(0.,0.006,0.));
#601=CARTESIAN_POINT('',(0.00266898760013766,0.006,-0.0002));
#602=CARTESIAN_POINT('',(0.00266898760013766,0.006,-0.000200000000000001));
#603=CARTESIAN_POINT('',(0.00311138184131191,0.00400008655803558,-0.000200000000000001));
#604=CARTESIAN_POINT('',(0.00355325513916279,0.00200005774845107,-0.000200000000000001));
#605=CARTESIAN_POINT('',(0.00399499687108764,-1.60468190458811E-18,-0.000200000000000001));
#606=CARTESIAN_POINT('',(0.000200000000000001,2.88188521821763E-18,-0.00399499687108764));
#607=CARTESIAN_POINT('',(0.000200000000000001,0.00200005784531214,-0.00355325511776962));
#608=CARTESIAN_POINT('',(0.0002,0.00400008669590131,-0.00311138181081508));
#609=CARTESIAN_POINT('',(0.0002,0.006,-0.00266898760013766));
#610=CARTESIAN_POINT('',(0.0002,0.006,-0.00266898760013766));
#611=CARTESIAN_POINT('',(0.,0.006,0.));
#612=CARTESIAN_POINT('',(-0.0002,0.006,-0.00266898760013766));
#613=CARTESIAN_POINT('',(-0.0002,0.006,-0.00266898760013766));
#614=CARTESIAN_POINT('',(-0.0002,0.00400008655803558,-0.00311138184131191));
#615=CARTESIAN_POINT('',(-0.0002,0.00200005774845107,-0.00355325513916279));
#616=CARTESIAN_POINT('',(-0.0002,-1.60448163572401E-18,-0.00399499687108764));
#617=CARTESIAN_POINT('',(-0.0002,0.,-0.00399499687108764));
#618=CARTESIAN_POINT('',(0.,0.,0.));
#619=CARTESIAN_POINT('',(-0.00399499687108764,0.,-0.0002));
#620=CARTESIAN_POINT('',(-0.00399499687108764,2.88206744079469E-18,-0.0002));
#621=CARTESIAN_POINT('',(-0.00355325511776962,0.00200005784531214,-0.0002));
#622=CARTESIAN_POINT('',(-0.00311138181081508,0.00400008669590131,-0.0002));
#623=CARTESIAN_POINT('',(-0.00266898760013766,0.006,-0.0002));
#624=CARTESIAN_POINT('',(-0.00266898760013766,0.006,-0.0002));
#625=CARTESIAN_POINT('',(0.,0.006,0.));
#626=CARTESIAN_POINT('',(-0.00266898760013766,0.006,0.0002));
#627=CARTESIAN_POINT('',(-0.00266898760013766,0.006,0.0002));
#628=CARTESIAN_POINT('',(-0.00311138184131191,0.00400008655803558,0.0002));
#629=CARTESIAN_POINT('',(-0.00355325513916279,0.00200005774845107,0.0002));
#630=CARTESIAN_POINT('',(-0.00399499687108764,-1.60444946228346E-18,0.0002));
#631=CARTESIAN_POINT('',(-0.0002,2.88216789465677E-18,0.00399499687108764));
#632=CARTESIAN_POINT('',(-0.0002,0.00200005784531214,0.00355325511776962));
#633=CARTESIAN_POINT('',(-0.0002,0.00400008669590131,0.00311138181081508));
#634=CARTESIAN_POINT('',(-0.0002,0.006,0.00266898760013766));
#635=CARTESIAN_POINT('',(-0.0002,0.006,0.00266898760013766));
#636=CARTESIAN_POINT('',(0.,0.006,0.));
#637=CARTESIAN_POINT('',(0.0002,0.006,0.00266898760013766));
#638=CARTESIAN_POINT('',(0.000199999999999999,0.006,0.00266898760013766));
#639=CARTESIAN_POINT('',(0.0002,0.00400008655803558,0.00311138184131191));
#640=CARTESIAN_POINT('',(0.0002,0.00200005774845107,0.00355325513916279));
#641=CARTESIAN_POINT('',(0.0002,-1.60466182740005E-18,0.00399499687108764));
#642=CARTESIAN_POINT('',(0.,0.0068,0.));
#643=CARTESIAN_POINT('',(0.,0.0068,-0.0025));
#644=CARTESIAN_POINT('',(-0.004,0.,0.));
#645=CARTESIAN_POINT('',(-0.0002,0.,-0.0002));
#646=CARTESIAN_POINT('',(-0.0002,0.,-0.00148660687473185));
#647=CARTESIAN_POINT('',(0.,0.,0.));
#648=CARTESIAN_POINT('',(-0.00148660687473185,0.,-0.0002));
#649=CARTESIAN_POINT('',(-0.0042,0.,-0.0002));
#650=CARTESIAN_POINT('',(0.,0.023,0.));
#651=CARTESIAN_POINT('',(0.,0.023,0.));
#652=CARTESIAN_POINT('',(0.,0.023,-0.0025));
#653=CARTESIAN_POINT('',(0.,0.,0.));
#654=CARTESIAN_POINT('',(0.,0.012,0.));
#655=CARTESIAN_POINT('',(0.,0.012,0.));
#656=CARTESIAN_POINT('',(0.,0.012,-0.0015));
#657=CARTESIAN_POINT('',(0.,0.012,0.));
#658=CARTESIAN_POINT('',(-0.00148660687473185,0.012,0.0002));
#659=CARTESIAN_POINT('',(-0.00148660687473185,0.006,0.0002));
#660=CARTESIAN_POINT('',(0.,0.006,0.));
#661=CARTESIAN_POINT('',(-0.00148660687473185,0.006,-0.0002));
#662=CARTESIAN_POINT('',(-0.00148660687473185,0.012,-0.0002));
#663=CARTESIAN_POINT('',(-0.0002,0.012,-0.00148660687473185));
#664=CARTESIAN_POINT('',(-0.0002,0.006,-0.00148660687473185));
#665=CARTESIAN_POINT('',(0.,0.006,0.));
#666=CARTESIAN_POINT('',(0.0002,0.006,-0.00148660687473185));
#667=CARTESIAN_POINT('',(0.0002,0.012,-0.00148660687473185));
#668=CARTESIAN_POINT('',(0.00148660687473185,0.012,-0.0002));
#669=CARTESIAN_POINT('',(0.00148660687473185,0.006,-0.0002));
#670=CARTESIAN_POINT('',(0.,0.006,0.));
#671=CARTESIAN_POINT('',(0.00148660687473185,0.006,0.0002));
#672=CARTESIAN_POINT('',(0.00148660687473185,0.012,0.0002));
#673=CARTESIAN_POINT('',(0.0002,0.012,0.00148660687473185));
#674=CARTESIAN_POINT('',(0.0002,0.006,0.00148660687473185));
#675=CARTESIAN_POINT('',(0.,0.006,0.));
#676=CARTESIAN_POINT('',(-0.0002,0.006,0.00148660687473185));
#677=CARTESIAN_POINT('',(-0.0002,0.012,0.00148660687473185));
#678=CARTESIAN_POINT('',(0.,0.006,0.));
#679=CARTESIAN_POINT('',(0.0002,0.006,-0.0002));
#680=CARTESIAN_POINT('',(-0.0002,0.006,-0.0002));
#681=CARTESIAN_POINT('',(-0.0002,0.006,-0.0002));
#682=CARTESIAN_POINT('',(0.0002,0.006,-0.0002));
#683=CARTESIAN_POINT('',(0.,0.006,0.));
#684=CARTESIAN_POINT('',(0.0002,0.006,0.0002));
#685=CARTESIAN_POINT('',(0.0002,0.006,-0.0002));
#686=CARTESIAN_POINT('',(0.0002,0.006,-0.0002));
#687=CARTESIAN_POINT('',(0.0002,0.006,0.0002));
#688=CARTESIAN_POINT('',(0.,0.006,0.));
#689=CARTESIAN_POINT('',(-0.0002,0.006,0.0042));
#690=CARTESIAN_POINT('',(0.0002,0.006,0.0042));
#691=CARTESIAN_POINT('',(0.0002,0.006,0.0042));
#692=CARTESIAN_POINT('',(-0.0002,0.006,0.0042));
#693=CARTESIAN_POINT('',(-0.0042,0.006,0.0002));
#694=CARTESIAN_POINT('',(-0.0042,0.006,0.0002));
#695=CARTESIAN_POINT('',(-0.0042,0.006,-0.0002));
#696=CARTESIAN_POINT('',(-0.0042,0.006,-0.0002));
#697=CARTESIAN_POINT('',(0.,0.006,0.));
#698=MECHANICAL_DESIGN_GEOMETRIC_PRESENTATION_REPRESENTATION('',(#394),
#699);
#699=(
GEOMETRIC_REPRESENTATION_CONTEXT(3)
GLOBAL_UNCERTAINTY_ASSIGNED_CONTEXT((#700))
GLOBAL_UNIT_ASSIGNED_CONTEXT((#703,#702,#701))
REPRESENTATION_CONTEXT('Cone screw','TOP_LEVEL_ASSEMBLY_PART')
);
#700=UNCERTAINTY_MEASURE_WITH_UNIT(LENGTH_MEASURE(2.E-5),#703,
'DISTANCE_ACCURACY_VALUE','Maximum Tolerance applied to model');
#701=(
NAMED_UNIT(*)
SI_UNIT($,.STERADIAN.)
SOLID_ANGLE_UNIT()
);
#702=(
NAMED_UNIT(*)
PLANE_ANGLE_UNIT()
SI_UNIT($,.RADIAN.)
);
#703=(
LENGTH_UNIT()
NAMED_UNIT(*)
SI_UNIT($,.METRE.)
);
#704=PRODUCT_DEFINITION_SHAPE('','',#705);
#705=PRODUCT_DEFINITION('','',#707,#706);
#706=PRODUCT_DEFINITION_CONTEXT('',#713,'design');
#707=PRODUCT_DEFINITION_FORMATION_WITH_SPECIFIED_SOURCE('','',#709,
 .NOT_KNOWN.);
#708=PRODUCT_RELATED_PRODUCT_CATEGORY('','',(#709));
#709=PRODUCT('Cone screw','Cone screw','Cone screw',(#711));
#710=PRODUCT_CATEGORY('','');
#711=PRODUCT_CONTEXT('',#713,'mechanical');
#712=APPLICATION_PROTOCOL_DEFINITION('international standard',
'automotive_design',2010,#713);
#713=APPLICATION_CONTEXT(
'core data for automotive mechanical design processes');
ENDSEC;
END-ISO-10303-21;
