ISO-10303-21;
HEADER;
/* Generated by software containing ST-Developer
 * from STEP Tools, Inc. (www.steptools.com) 
 */
/* OPTION: using custom renumber hook */

FILE_DESCRIPTION(
/* description */ ('STEP AP214',
'CAx-IF Rec.Pracs.---User Defined Attributes---1.5---2016-08-15'),
/* implementation_level */ '2;1');

FILE_NAME(
/* name */ '6a386d18ee269b265a355617',
/* time_stamp */ '2026-06-21T23:00:40Z',
/* author */ (''),
/* organization */ (''),
/* preprocessor_version */ 'ST-DEVELOPER v20',
/* originating_system */ 'ONSHAPE BY PTC INC, 1.216',
/* authorisation */ '  ');

FILE_SCHEMA (('AUTOMOTIVE_DESIGN {1 0 10303 214 3 1 1}'));
ENDSEC;

DATA;
#10=PROPERTY_DEFINITION_REPRESENTATION(#14,#12);
#11=PROPERTY_DEFINITION_REPRESENTATION(#15,#13);
#12=REPRESENTATION('',(#16),#1196);
#13=REPRESENTATION('',(#17),#1196);
#14=PROPERTY_DEFINITION('pmi validation property','',#1201);
#15=PROPERTY_DEFINITION('pmi validation property','',#1201);
#16=VALUE_REPRESENTATION_ITEM('number of annotations',COUNT_MEASURE(0.));
#17=VALUE_REPRESENTATION_ITEM('number of views',COUNT_MEASURE(0.));
#18=SHAPE_REPRESENTATION_RELATIONSHIP('','',#706,#19);
#19=ADVANCED_BREP_SHAPE_REPRESENTATION('',(#704),#1196);
#20=ELLIPSE('',#774,0.00212132034355964,0.0015);
#21=OVER_RIDING_STYLED_ITEM('',(#680),#647,#678);
#22=OVER_RIDING_STYLED_ITEM('',(#681),#649,#678);
#23=OVER_RIDING_STYLED_ITEM('',(#682),#650,#678);
#24=COLOUR_RGB('',0.250980392156863,0.250980392156863,0.250980392156863);
#25=B_SPLINE_CURVE_WITH_KNOTS('',3,(#1026,#1027,#1028,#1029,#1030,#1031,
#1032),.UNSPECIFIED.,.F.,.F.,(4,1,1,1,4),(0.,0.00118453361910635,0.00236906723821269,
0.00355360085731904,0.00473813447642539),.UNSPECIFIED.);
#26=B_SPLINE_CURVE_WITH_KNOTS('',3,(#1036,#1037,#1038,#1039,#1040,#1041,
#1042),.UNSPECIFIED.,.F.,.F.,(4,1,1,1,4),(0.,0.00118453361910633,0.00236906723821267,
0.003553600857319,0.00473813447642533),.UNSPECIFIED.);
#27=B_SPLINE_CURVE_WITH_KNOTS('',3,(#1046,#1047,#1048,#1049,#1050,#1051,
#1052),.UNSPECIFIED.,.F.,.F.,(4,1,1,1,4),(0.,0.00118453361910633,0.00236906723821265,
0.00355360085731898,0.00473813447642531),.UNSPECIFIED.);
#28=B_SPLINE_CURVE_WITH_KNOTS('',3,(#1056,#1057,#1058,#1059,#1060,#1061,
#1062),.UNSPECIFIED.,.F.,.F.,(4,1,1,1,4),(0.,0.00118453361910633,0.00236906723821267,
0.003553600857319,0.00473813447642533),.UNSPECIFIED.);
#29=PLANE('',#714);
#30=PLANE('',#716);
#31=PLANE('',#717);
#32=PLANE('',#719);
#33=PLANE('',#720);
#34=PLANE('',#737);
#35=PLANE('',#741);
#36=PLANE('',#742);
#37=PLANE('',#749);
#38=PLANE('',#750);
#39=PLANE('',#751);
#40=PLANE('',#752);
#41=PLANE('',#759);
#42=PLANE('',#760);
#43=PLANE('',#761);
#44=PLANE('',#762);
#45=PLANE('',#769);
#46=PLANE('',#770);
#47=PLANE('',#771);
#48=PLANE('',#772);
#49=PLANE('',#775);
#50=PLANE('',#778);
#51=PLANE('',#779);
#52=PLANE('',#781);
#53=LINE('',#993,#98);
#54=LINE('',#997,#99);
#55=LINE('',#1002,#100);
#56=LINE('',#1003,#101);
#57=LINE('',#1005,#102);
#58=LINE('',#1007,#103);
#59=LINE('',#1011,#104);
#60=LINE('',#1013,#105);
#61=LINE('',#1063,#106);
#62=LINE('',#1068,#107);
#63=LINE('',#1071,#108);
#64=LINE('',#1076,#109);
#65=LINE('',#1079,#110);
#66=LINE('',#1084,#111);
#67=LINE('',#1106,#112);
#68=LINE('',#1110,#113);
#69=LINE('',#1112,#114);
#70=LINE('',#1113,#115);
#71=LINE('',#1115,#116);
#72=LINE('',#1117,#117);
#73=LINE('',#1128,#118);
#74=LINE('',#1132,#119);
#75=LINE('',#1134,#120);
#76=LINE('',#1135,#121);
#77=LINE('',#1137,#122);
#78=LINE('',#1139,#123);
#79=LINE('',#1150,#124);
#80=LINE('',#1154,#125);
#81=LINE('',#1156,#126);
#82=LINE('',#1157,#127);
#83=LINE('',#1159,#128);
#84=LINE('',#1161,#129);
#85=LINE('',#1164,#130);
#86=LINE('',#1168,#131);
#87=LINE('',#1170,#132);
#88=LINE('',#1171,#133);
#89=LINE('',#1173,#134);
#90=LINE('',#1175,#135);
#91=LINE('',#1177,#136);
#92=LINE('',#1179,#137);
#93=LINE('',#1183,#138);
#94=LINE('',#1184,#139);
#95=LINE('',#1186,#140);
#96=LINE('',#1188,#141);
#97=LINE('',#1190,#142);
#98=VECTOR('',#796,1.);
#99=VECTOR('',#799,1.);
#100=VECTOR('',#804,1.);
#101=VECTOR('',#805,1.);
#102=VECTOR('',#808,1.);
#103=VECTOR('',#809,1.);
#104=VECTOR('',#814,1.);
#105=VECTOR('',#817,1.);
#106=VECTOR('',#838,1.);
#107=VECTOR('',#841,1.);
#108=VECTOR('',#844,1.);
#109=VECTOR('',#847,1.);
#110=VECTOR('',#850,1.);
#111=VECTOR('',#853,1.);
#112=VECTOR('',#880,1.);
#113=VECTOR('',#883,1.);
#114=VECTOR('',#886,1.);
#115=VECTOR('',#887,1.);
#116=VECTOR('',#890,1.);
#117=VECTOR('',#893,1.);
#118=VECTOR('',#906,1.);
#119=VECTOR('',#909,1.);
#120=VECTOR('',#912,1.);
#121=VECTOR('',#913,1.);
#122=VECTOR('',#916,1.);
#123=VECTOR('',#919,1.);
#124=VECTOR('',#932,1.);
#125=VECTOR('',#935,1.);
#126=VECTOR('',#938,1.);
#127=VECTOR('',#939,1.);
#128=VECTOR('',#942,1.);
#129=VECTOR('',#945,1.);
#130=VECTOR('',#950,1.);
#131=VECTOR('',#953,1.);
#132=VECTOR('',#956,1.);
#133=VECTOR('',#957,1.);
#134=VECTOR('',#958,1.);
#135=VECTOR('',#959,1.);
#136=VECTOR('',#960,1.);
#137=VECTOR('',#963,1.);
#138=VECTOR('',#968,1.);
#139=VECTOR('',#969,1.);
#140=VECTOR('',#970,1.);
#141=VECTOR('',#971,1.);
#142=VECTOR('',#974,1.);
#143=ORIENTED_EDGE('',*,*,#315,.T.);
#144=ORIENTED_EDGE('',*,*,#316,.F.);
#145=ORIENTED_EDGE('',*,*,#317,.T.);
#146=ORIENTED_EDGE('',*,*,#318,.F.);
#147=ORIENTED_EDGE('',*,*,#319,.F.);
#148=ORIENTED_EDGE('',*,*,#320,.T.);
#149=ORIENTED_EDGE('',*,*,#321,.F.);
#150=ORIENTED_EDGE('',*,*,#322,.T.);
#151=ORIENTED_EDGE('',*,*,#319,.T.);
#152=ORIENTED_EDGE('',*,*,#323,.T.);
#153=ORIENTED_EDGE('',*,*,#315,.F.);
#154=ORIENTED_EDGE('',*,*,#322,.F.);
#155=ORIENTED_EDGE('',*,*,#324,.T.);
#156=ORIENTED_EDGE('',*,*,#325,.T.);
#157=ORIENTED_EDGE('',*,*,#320,.F.);
#158=ORIENTED_EDGE('',*,*,#325,.F.);
#159=ORIENTED_EDGE('',*,*,#326,.T.);
#160=ORIENTED_EDGE('',*,*,#327,.F.);
#161=ORIENTED_EDGE('',*,*,#317,.F.);
#162=ORIENTED_EDGE('',*,*,#316,.T.);
#163=ORIENTED_EDGE('',*,*,#327,.T.);
#164=ORIENTED_EDGE('',*,*,#328,.T.);
#165=ORIENTED_EDGE('',*,*,#323,.F.);
#166=ORIENTED_EDGE('',*,*,#318,.T.);
#167=ORIENTED_EDGE('',*,*,#329,.T.);
#168=ORIENTED_EDGE('',*,*,#330,.F.);
#169=ORIENTED_EDGE('',*,*,#330,.T.);
#170=ORIENTED_EDGE('',*,*,#331,.F.);
#171=ORIENTED_EDGE('',*,*,#332,.T.);
#172=ORIENTED_EDGE('',*,*,#333,.T.);
#173=ORIENTED_EDGE('',*,*,#334,.T.);
#174=ORIENTED_EDGE('',*,*,#335,.T.);
#175=ORIENTED_EDGE('',*,*,#336,.T.);
#176=ORIENTED_EDGE('',*,*,#337,.T.);
#177=ORIENTED_EDGE('',*,*,#338,.T.);
#178=ORIENTED_EDGE('',*,*,#339,.T.);
#179=ORIENTED_EDGE('',*,*,#340,.F.);
#180=ORIENTED_EDGE('',*,*,#341,.T.);
#181=ORIENTED_EDGE('',*,*,#342,.F.);
#182=ORIENTED_EDGE('',*,*,#343,.F.);
#183=ORIENTED_EDGE('',*,*,#344,.F.);
#184=ORIENTED_EDGE('',*,*,#345,.T.);
#185=ORIENTED_EDGE('',*,*,#346,.F.);
#186=ORIENTED_EDGE('',*,*,#347,.F.);
#187=ORIENTED_EDGE('',*,*,#348,.F.);
#188=ORIENTED_EDGE('',*,*,#349,.T.);
#189=ORIENTED_EDGE('',*,*,#350,.F.);
#190=ORIENTED_EDGE('',*,*,#351,.F.);
#191=ORIENTED_EDGE('',*,*,#352,.T.);
#192=ORIENTED_EDGE('',*,*,#328,.F.);
#193=ORIENTED_EDGE('',*,*,#326,.F.);
#194=ORIENTED_EDGE('',*,*,#324,.F.);
#195=ORIENTED_EDGE('',*,*,#321,.T.);
#196=ORIENTED_EDGE('',*,*,#329,.F.);
#197=ORIENTED_EDGE('',*,*,#353,.T.);
#198=ORIENTED_EDGE('',*,*,#352,.F.);
#199=ORIENTED_EDGE('',*,*,#354,.F.);
#200=ORIENTED_EDGE('',*,*,#353,.F.);
#201=ORIENTED_EDGE('',*,*,#354,.T.);
#202=ORIENTED_EDGE('',*,*,#331,.T.);
#203=ORIENTED_EDGE('',*,*,#355,.T.);
#204=ORIENTED_EDGE('',*,*,#356,.F.);
#205=ORIENTED_EDGE('',*,*,#357,.T.);
#206=ORIENTED_EDGE('',*,*,#358,.F.);
#207=ORIENTED_EDGE('',*,*,#359,.F.);
#208=ORIENTED_EDGE('',*,*,#360,.T.);
#209=ORIENTED_EDGE('',*,*,#349,.F.);
#210=ORIENTED_EDGE('',*,*,#361,.T.);
#211=ORIENTED_EDGE('',*,*,#359,.T.);
#212=ORIENTED_EDGE('',*,*,#362,.T.);
#213=ORIENTED_EDGE('',*,*,#355,.F.);
#214=ORIENTED_EDGE('',*,*,#361,.F.);
#215=ORIENTED_EDGE('',*,*,#348,.T.);
#216=ORIENTED_EDGE('',*,*,#363,.T.);
#217=ORIENTED_EDGE('',*,*,#360,.F.);
#218=ORIENTED_EDGE('',*,*,#363,.F.);
#219=ORIENTED_EDGE('',*,*,#351,.T.);
#220=ORIENTED_EDGE('',*,*,#364,.F.);
#221=ORIENTED_EDGE('',*,*,#357,.F.);
#222=ORIENTED_EDGE('',*,*,#356,.T.);
#223=ORIENTED_EDGE('',*,*,#364,.T.);
#224=ORIENTED_EDGE('',*,*,#350,.T.);
#225=ORIENTED_EDGE('',*,*,#362,.F.);
#226=ORIENTED_EDGE('',*,*,#358,.T.);
#227=ORIENTED_EDGE('',*,*,#365,.T.);
#228=ORIENTED_EDGE('',*,*,#366,.F.);
#229=ORIENTED_EDGE('',*,*,#367,.T.);
#230=ORIENTED_EDGE('',*,*,#368,.F.);
#231=ORIENTED_EDGE('',*,*,#369,.F.);
#232=ORIENTED_EDGE('',*,*,#370,.T.);
#233=ORIENTED_EDGE('',*,*,#345,.F.);
#234=ORIENTED_EDGE('',*,*,#371,.T.);
#235=ORIENTED_EDGE('',*,*,#369,.T.);
#236=ORIENTED_EDGE('',*,*,#372,.T.);
#237=ORIENTED_EDGE('',*,*,#365,.F.);
#238=ORIENTED_EDGE('',*,*,#371,.F.);
#239=ORIENTED_EDGE('',*,*,#344,.T.);
#240=ORIENTED_EDGE('',*,*,#373,.T.);
#241=ORIENTED_EDGE('',*,*,#370,.F.);
#242=ORIENTED_EDGE('',*,*,#373,.F.);
#243=ORIENTED_EDGE('',*,*,#347,.T.);
#244=ORIENTED_EDGE('',*,*,#374,.F.);
#245=ORIENTED_EDGE('',*,*,#367,.F.);
#246=ORIENTED_EDGE('',*,*,#366,.T.);
#247=ORIENTED_EDGE('',*,*,#374,.T.);
#248=ORIENTED_EDGE('',*,*,#346,.T.);
#249=ORIENTED_EDGE('',*,*,#372,.F.);
#250=ORIENTED_EDGE('',*,*,#368,.T.);
#251=ORIENTED_EDGE('',*,*,#375,.T.);
#252=ORIENTED_EDGE('',*,*,#376,.F.);
#253=ORIENTED_EDGE('',*,*,#377,.T.);
#254=ORIENTED_EDGE('',*,*,#378,.F.);
#255=ORIENTED_EDGE('',*,*,#379,.F.);
#256=ORIENTED_EDGE('',*,*,#380,.T.);
#257=ORIENTED_EDGE('',*,*,#341,.F.);
#258=ORIENTED_EDGE('',*,*,#381,.T.);
#259=ORIENTED_EDGE('',*,*,#379,.T.);
#260=ORIENTED_EDGE('',*,*,#382,.T.);
#261=ORIENTED_EDGE('',*,*,#375,.F.);
#262=ORIENTED_EDGE('',*,*,#381,.F.);
#263=ORIENTED_EDGE('',*,*,#340,.T.);
#264=ORIENTED_EDGE('',*,*,#383,.T.);
#265=ORIENTED_EDGE('',*,*,#380,.F.);
#266=ORIENTED_EDGE('',*,*,#383,.F.);
#267=ORIENTED_EDGE('',*,*,#343,.T.);
#268=ORIENTED_EDGE('',*,*,#384,.F.);
#269=ORIENTED_EDGE('',*,*,#377,.F.);
#270=ORIENTED_EDGE('',*,*,#376,.T.);
#271=ORIENTED_EDGE('',*,*,#384,.T.);
#272=ORIENTED_EDGE('',*,*,#342,.T.);
#273=ORIENTED_EDGE('',*,*,#382,.F.);
#274=ORIENTED_EDGE('',*,*,#378,.T.);
#275=ORIENTED_EDGE('',*,*,#385,.T.);
#276=ORIENTED_EDGE('',*,*,#386,.T.);
#277=ORIENTED_EDGE('',*,*,#387,.F.);
#278=ORIENTED_EDGE('',*,*,#337,.F.);
#279=ORIENTED_EDGE('',*,*,#388,.T.);
#280=ORIENTED_EDGE('',*,*,#385,.F.);
#281=ORIENTED_EDGE('',*,*,#336,.F.);
#282=ORIENTED_EDGE('',*,*,#389,.T.);
#283=ORIENTED_EDGE('',*,*,#390,.T.);
#284=ORIENTED_EDGE('',*,*,#391,.T.);
#285=ORIENTED_EDGE('',*,*,#392,.F.);
#286=ORIENTED_EDGE('',*,*,#332,.F.);
#287=ORIENTED_EDGE('',*,*,#393,.T.);
#288=ORIENTED_EDGE('',*,*,#394,.T.);
#289=ORIENTED_EDGE('',*,*,#389,.F.);
#290=ORIENTED_EDGE('',*,*,#339,.F.);
#291=ORIENTED_EDGE('',*,*,#387,.T.);
#292=ORIENTED_EDGE('',*,*,#395,.F.);
#293=ORIENTED_EDGE('',*,*,#334,.F.);
#294=ORIENTED_EDGE('',*,*,#396,.T.);
#295=ORIENTED_EDGE('',*,*,#397,.T.);
#296=ORIENTED_EDGE('',*,*,#398,.T.);
#297=ORIENTED_EDGE('',*,*,#393,.F.);
#298=ORIENTED_EDGE('',*,*,#338,.F.);
#299=ORIENTED_EDGE('',*,*,#398,.F.);
#300=ORIENTED_EDGE('',*,*,#399,.T.);
#301=ORIENTED_EDGE('',*,*,#390,.F.);
#302=ORIENTED_EDGE('',*,*,#394,.F.);
#303=ORIENTED_EDGE('',*,*,#388,.F.);
#304=ORIENTED_EDGE('',*,*,#335,.F.);
#305=ORIENTED_EDGE('',*,*,#395,.T.);
#306=ORIENTED_EDGE('',*,*,#386,.F.);
#307=ORIENTED_EDGE('',*,*,#397,.F.);
#308=ORIENTED_EDGE('',*,*,#400,.F.);
#309=ORIENTED_EDGE('',*,*,#391,.F.);
#310=ORIENTED_EDGE('',*,*,#399,.F.);
#311=ORIENTED_EDGE('',*,*,#392,.T.);
#312=ORIENTED_EDGE('',*,*,#400,.T.);
#313=ORIENTED_EDGE('',*,*,#396,.F.);
#314=ORIENTED_EDGE('',*,*,#333,.F.);
#315=EDGE_CURVE('',#401,#401,#463,.T.);
#316=EDGE_CURVE('',#402,#402,#464,.T.);
#317=EDGE_CURVE('',#403,#404,#465,.T.);
#318=EDGE_CURVE('',#405,#404,#53,.T.);
#319=EDGE_CURVE('',#406,#405,#466,.T.);
#320=EDGE_CURVE('',#406,#403,#54,.T.);
#321=EDGE_CURVE('',#407,#408,#467,.T.);
#322=EDGE_CURVE('',#407,#406,#55,.T.);
#323=EDGE_CURVE('',#405,#408,#56,.T.);
#324=EDGE_CURVE('',#407,#409,#57,.F.);
#325=EDGE_CURVE('',#409,#403,#58,.T.);
#326=EDGE_CURVE('',#409,#410,#468,.T.);
#327=EDGE_CURVE('',#404,#410,#59,.T.);
#328=EDGE_CURVE('',#410,#408,#60,.T.);
#329=EDGE_CURVE('',#411,#411,#469,.T.);
#330=EDGE_CURVE('',#412,#412,#470,.T.);
#331=EDGE_CURVE('',#413,#413,#471,.F.);
#332=EDGE_CURVE('',#414,#415,#472,.T.);
#333=EDGE_CURVE('',#415,#416,#25,.T.);
#334=EDGE_CURVE('',#416,#417,#473,.T.);
#335=EDGE_CURVE('',#417,#414,#26,.T.);
#336=EDGE_CURVE('',#418,#419,#474,.T.);
#337=EDGE_CURVE('',#419,#420,#27,.T.);
#338=EDGE_CURVE('',#420,#421,#475,.T.);
#339=EDGE_CURVE('',#421,#418,#28,.T.);
#340=EDGE_CURVE('',#422,#423,#61,.F.);
#341=EDGE_CURVE('',#422,#424,#476,.T.);
#342=EDGE_CURVE('',#425,#424,#62,.T.);
#343=EDGE_CURVE('',#423,#425,#477,.T.);
#344=EDGE_CURVE('',#426,#427,#63,.F.);
#345=EDGE_CURVE('',#426,#428,#478,.T.);
#346=EDGE_CURVE('',#429,#428,#64,.T.);
#347=EDGE_CURVE('',#427,#429,#479,.T.);
#348=EDGE_CURVE('',#430,#431,#65,.F.);
#349=EDGE_CURVE('',#430,#432,#480,.T.);
#350=EDGE_CURVE('',#433,#432,#66,.T.);
#351=EDGE_CURVE('',#431,#433,#481,.T.);
#352=EDGE_CURVE('',#434,#434,#482,.T.);
#353=EDGE_CURVE('',#435,#435,#483,.T.);
#354=EDGE_CURVE('',#436,#436,#484,.F.);
#355=EDGE_CURVE('',#437,#437,#485,.T.);
#356=EDGE_CURVE('',#438,#438,#486,.T.);
#357=EDGE_CURVE('',#439,#440,#487,.T.);
#358=EDGE_CURVE('',#441,#440,#67,.T.);
#359=EDGE_CURVE('',#442,#441,#488,.T.);
#360=EDGE_CURVE('',#442,#439,#68,.T.);
#361=EDGE_CURVE('',#430,#442,#69,.T.);
#362=EDGE_CURVE('',#441,#432,#70,.T.);
#363=EDGE_CURVE('',#431,#439,#71,.T.);
#364=EDGE_CURVE('',#440,#433,#72,.T.);
#365=EDGE_CURVE('',#443,#443,#489,.T.);
#366=EDGE_CURVE('',#444,#444,#490,.T.);
#367=EDGE_CURVE('',#445,#446,#491,.T.);
#368=EDGE_CURVE('',#447,#446,#73,.T.);
#369=EDGE_CURVE('',#448,#447,#492,.T.);
#370=EDGE_CURVE('',#448,#445,#74,.T.);
#371=EDGE_CURVE('',#426,#448,#75,.T.);
#372=EDGE_CURVE('',#447,#428,#76,.T.);
#373=EDGE_CURVE('',#427,#445,#77,.T.);
#374=EDGE_CURVE('',#446,#429,#78,.T.);
#375=EDGE_CURVE('',#449,#449,#493,.T.);
#376=EDGE_CURVE('',#450,#450,#494,.T.);
#377=EDGE_CURVE('',#451,#452,#495,.T.);
#378=EDGE_CURVE('',#453,#452,#79,.T.);
#379=EDGE_CURVE('',#454,#453,#496,.T.);
#380=EDGE_CURVE('',#454,#451,#80,.T.);
#381=EDGE_CURVE('',#422,#454,#81,.T.);
#382=EDGE_CURVE('',#453,#424,#82,.T.);
#383=EDGE_CURVE('',#423,#451,#83,.T.);
#384=EDGE_CURVE('',#452,#425,#84,.T.);
#385=EDGE_CURVE('',#419,#455,#85,.T.);
#386=EDGE_CURVE('',#455,#456,#20,.T.);
#387=EDGE_CURVE('',#420,#456,#86,.T.);
#388=EDGE_CURVE('',#414,#455,#87,.T.);
#389=EDGE_CURVE('',#418,#457,#88,.T.);
#390=EDGE_CURVE('',#457,#458,#89,.T.);
#391=EDGE_CURVE('',#458,#459,#90,.T.);
#392=EDGE_CURVE('',#415,#459,#91,.T.);
#393=EDGE_CURVE('',#421,#460,#92,.T.);
#394=EDGE_CURVE('',#460,#457,#497,.T.);
#395=EDGE_CURVE('',#417,#456,#93,.T.);
#396=EDGE_CURVE('',#416,#461,#94,.T.);
#397=EDGE_CURVE('',#461,#462,#95,.T.);
#398=EDGE_CURVE('',#462,#460,#96,.T.);
#399=EDGE_CURVE('',#462,#458,#97,.T.);
#400=EDGE_CURVE('',#459,#461,#498,.T.);
#401=VERTEX_POINT('',#986);
#402=VERTEX_POINT('',#988);
#403=VERTEX_POINT('',#991);
#404=VERTEX_POINT('',#992);
#405=VERTEX_POINT('',#994);
#406=VERTEX_POINT('',#996);
#407=VERTEX_POINT('',#1000);
#408=VERTEX_POINT('',#1001);
#409=VERTEX_POINT('',#1006);
#410=VERTEX_POINT('',#1010);
#411=VERTEX_POINT('',#1016);
#412=VERTEX_POINT('',#1018);
#413=VERTEX_POINT('',#1021);
#414=VERTEX_POINT('',#1024);
#415=VERTEX_POINT('',#1025);
#416=VERTEX_POINT('',#1033);
#417=VERTEX_POINT('',#1035);
#418=VERTEX_POINT('',#1044);
#419=VERTEX_POINT('',#1045);
#420=VERTEX_POINT('',#1053);
#421=VERTEX_POINT('',#1055);
#422=VERTEX_POINT('',#1064);
#423=VERTEX_POINT('',#1065);
#424=VERTEX_POINT('',#1067);
#425=VERTEX_POINT('',#1069);
#426=VERTEX_POINT('',#1072);
#427=VERTEX_POINT('',#1073);
#428=VERTEX_POINT('',#1075);
#429=VERTEX_POINT('',#1077);
#430=VERTEX_POINT('',#1080);
#431=VERTEX_POINT('',#1081);
#432=VERTEX_POINT('',#1083);
#433=VERTEX_POINT('',#1085);
#434=VERTEX_POINT('',#1088);
#435=VERTEX_POINT('',#1091);
#436=VERTEX_POINT('',#1094);
#437=VERTEX_POINT('',#1099);
#438=VERTEX_POINT('',#1101);
#439=VERTEX_POINT('',#1104);
#440=VERTEX_POINT('',#1105);
#441=VERTEX_POINT('',#1107);
#442=VERTEX_POINT('',#1109);
#443=VERTEX_POINT('',#1121);
#444=VERTEX_POINT('',#1123);
#445=VERTEX_POINT('',#1126);
#446=VERTEX_POINT('',#1127);
#447=VERTEX_POINT('',#1129);
#448=VERTEX_POINT('',#1131);
#449=VERTEX_POINT('',#1143);
#450=VERTEX_POINT('',#1145);
#451=VERTEX_POINT('',#1148);
#452=VERTEX_POINT('',#1149);
#453=VERTEX_POINT('',#1151);
#454=VERTEX_POINT('',#1153);
#455=VERTEX_POINT('',#1165);
#456=VERTEX_POINT('',#1167);
#457=VERTEX_POINT('',#1172);
#458=VERTEX_POINT('',#1174);
#459=VERTEX_POINT('',#1176);
#460=VERTEX_POINT('',#1180);
#461=VERTEX_POINT('',#1185);
#462=VERTEX_POINT('',#1187);
#463=CIRCLE('',#709,0.00175);
#464=CIRCLE('',#710,0.00175);
#465=CIRCLE('',#712,0.0035);
#466=CIRCLE('',#713,0.0035);
#467=CIRCLE('',#715,0.0155);
#468=CIRCLE('',#718,0.0155);
#469=CIRCLE('',#721,0.0155);
#470=CIRCLE('',#722,0.0105);
#471=CIRCLE('',#724,0.0105);
#472=CIRCLE('',#726,0.0155);
#473=CIRCLE('',#727,0.0155);
#474=CIRCLE('',#728,0.0155);
#475=CIRCLE('',#729,0.0155);
#476=CIRCLE('',#730,0.0155);
#477=CIRCLE('',#731,0.0155);
#478=CIRCLE('',#732,0.0155);
#479=CIRCLE('',#733,0.0155);
#480=CIRCLE('',#734,0.0155);
#481=CIRCLE('',#735,0.0155);
#482=CIRCLE('',#736,0.0155);
#483=CIRCLE('',#738,0.0105);
#484=CIRCLE('',#740,0.0105);
#485=CIRCLE('',#744,0.00175);
#486=CIRCLE('',#745,0.00175);
#487=CIRCLE('',#747,0.0035);
#488=CIRCLE('',#748,0.0035);
#489=CIRCLE('',#754,0.00175);
#490=CIRCLE('',#755,0.00175);
#491=CIRCLE('',#757,0.0035);
#492=CIRCLE('',#758,0.0035);
#493=CIRCLE('',#764,0.00175);
#494=CIRCLE('',#765,0.00175);
#495=CIRCLE('',#767,0.0035);
#496=CIRCLE('',#768,0.0035);
#497=CIRCLE('',#777,0.0015);
#498=CIRCLE('',#782,0.0015);
#499=EDGE_LOOP('',(#143));
#500=EDGE_LOOP('',(#144));
#501=EDGE_LOOP('',(#145,#146,#147,#148));
#502=EDGE_LOOP('',(#149,#150,#151,#152));
#503=EDGE_LOOP('',(#153));
#504=EDGE_LOOP('',(#154,#155,#156,#157));
#505=EDGE_LOOP('',(#158,#159,#160,#161));
#506=EDGE_LOOP('',(#162));
#507=EDGE_LOOP('',(#163,#164,#165,#166));
#508=EDGE_LOOP('',(#167));
#509=EDGE_LOOP('',(#168));
#510=EDGE_LOOP('',(#169));
#511=EDGE_LOOP('',(#170));
#512=EDGE_LOOP('',(#171,#172,#173,#174));
#513=EDGE_LOOP('',(#175,#176,#177,#178));
#514=EDGE_LOOP('',(#179,#180,#181,#182));
#515=EDGE_LOOP('',(#183,#184,#185,#186));
#516=EDGE_LOOP('',(#187,#188,#189,#190));
#517=EDGE_LOOP('',(#191));
#518=EDGE_LOOP('',(#192,#193,#194,#195));
#519=EDGE_LOOP('',(#196));
#520=EDGE_LOOP('',(#197));
#521=EDGE_LOOP('',(#198));
#522=EDGE_LOOP('',(#199));
#523=EDGE_LOOP('',(#200));
#524=EDGE_LOOP('',(#201));
#525=EDGE_LOOP('',(#202));
#526=EDGE_LOOP('',(#203));
#527=EDGE_LOOP('',(#204));
#528=EDGE_LOOP('',(#205,#206,#207,#208));
#529=EDGE_LOOP('',(#209,#210,#211,#212));
#530=EDGE_LOOP('',(#213));
#531=EDGE_LOOP('',(#214,#215,#216,#217));
#532=EDGE_LOOP('',(#218,#219,#220,#221));
#533=EDGE_LOOP('',(#222));
#534=EDGE_LOOP('',(#223,#224,#225,#226));
#535=EDGE_LOOP('',(#227));
#536=EDGE_LOOP('',(#228));
#537=EDGE_LOOP('',(#229,#230,#231,#232));
#538=EDGE_LOOP('',(#233,#234,#235,#236));
#539=EDGE_LOOP('',(#237));
#540=EDGE_LOOP('',(#238,#239,#240,#241));
#541=EDGE_LOOP('',(#242,#243,#244,#245));
#542=EDGE_LOOP('',(#246));
#543=EDGE_LOOP('',(#247,#248,#249,#250));
#544=EDGE_LOOP('',(#251));
#545=EDGE_LOOP('',(#252));
#546=EDGE_LOOP('',(#253,#254,#255,#256));
#547=EDGE_LOOP('',(#257,#258,#259,#260));
#548=EDGE_LOOP('',(#261));
#549=EDGE_LOOP('',(#262,#263,#264,#265));
#550=EDGE_LOOP('',(#266,#267,#268,#269));
#551=EDGE_LOOP('',(#270));
#552=EDGE_LOOP('',(#271,#272,#273,#274));
#553=EDGE_LOOP('',(#275,#276,#277,#278));
#554=EDGE_LOOP('',(#279,#280,#281,#282,#283,#284,#285,#286));
#555=EDGE_LOOP('',(#287,#288,#289,#290));
#556=EDGE_LOOP('',(#291,#292,#293,#294,#295,#296,#297,#298));
#557=EDGE_LOOP('',(#299,#300,#301,#302));
#558=EDGE_LOOP('',(#303,#304,#305,#306));
#559=EDGE_LOOP('',(#307,#308,#309,#310));
#560=EDGE_LOOP('',(#311,#312,#313,#314));
#561=FACE_BOUND('',#499,.T.);
#562=FACE_BOUND('',#500,.T.);
#563=FACE_BOUND('',#501,.T.);
#564=FACE_BOUND('',#502,.T.);
#565=FACE_BOUND('',#503,.T.);
#566=FACE_BOUND('',#504,.T.);
#567=FACE_BOUND('',#505,.T.);
#568=FACE_BOUND('',#506,.T.);
#569=FACE_BOUND('',#507,.T.);
#570=FACE_BOUND('',#508,.T.);
#571=FACE_BOUND('',#509,.T.);
#572=FACE_BOUND('',#510,.T.);
#573=FACE_BOUND('',#511,.T.);
#574=FACE_BOUND('',#512,.T.);
#575=FACE_BOUND('',#513,.T.);
#576=FACE_BOUND('',#514,.T.);
#577=FACE_BOUND('',#515,.T.);
#578=FACE_BOUND('',#516,.T.);
#579=FACE_BOUND('',#517,.T.);
#580=FACE_BOUND('',#518,.T.);
#581=FACE_BOUND('',#519,.T.);
#582=FACE_BOUND('',#520,.T.);
#583=FACE_BOUND('',#521,.T.);
#584=FACE_BOUND('',#522,.T.);
#585=FACE_BOUND('',#523,.T.);
#586=FACE_BOUND('',#524,.T.);
#587=FACE_BOUND('',#525,.T.);
#588=FACE_BOUND('',#526,.T.);
#589=FACE_BOUND('',#527,.T.);
#590=FACE_BOUND('',#528,.T.);
#591=FACE_BOUND('',#529,.T.);
#592=FACE_BOUND('',#530,.T.);
#593=FACE_BOUND('',#531,.T.);
#594=FACE_BOUND('',#532,.T.);
#595=FACE_BOUND('',#533,.T.);
#596=FACE_BOUND('',#534,.T.);
#597=FACE_BOUND('',#535,.T.);
#598=FACE_BOUND('',#536,.T.);
#599=FACE_BOUND('',#537,.T.);
#600=FACE_BOUND('',#538,.T.);
#601=FACE_BOUND('',#539,.T.);
#602=FACE_BOUND('',#540,.T.);
#603=FACE_BOUND('',#541,.T.);
#604=FACE_BOUND('',#542,.T.);
#605=FACE_BOUND('',#543,.T.);
#606=FACE_BOUND('',#544,.T.);
#607=FACE_BOUND('',#545,.T.);
#608=FACE_BOUND('',#546,.T.);
#609=FACE_BOUND('',#547,.T.);
#610=FACE_BOUND('',#548,.T.);
#611=FACE_BOUND('',#549,.T.);
#612=FACE_BOUND('',#550,.T.);
#613=FACE_BOUND('',#551,.T.);
#614=FACE_BOUND('',#552,.T.);
#615=FACE_BOUND('',#553,.T.);
#616=FACE_BOUND('',#554,.T.);
#617=FACE_BOUND('',#555,.T.);
#618=FACE_BOUND('',#556,.T.);
#619=FACE_BOUND('',#557,.T.);
#620=FACE_BOUND('',#558,.T.);
#621=FACE_BOUND('',#559,.T.);
#622=FACE_BOUND('',#560,.T.);
#623=CYLINDRICAL_SURFACE('',#708,0.00175);
#624=CYLINDRICAL_SURFACE('',#711,0.0035);
#625=CYLINDRICAL_SURFACE('',#723,0.0105);
#626=CYLINDRICAL_SURFACE('',#725,0.0155);
#627=CYLINDRICAL_SURFACE('',#739,0.0105);
#628=CYLINDRICAL_SURFACE('',#743,0.00175);
#629=CYLINDRICAL_SURFACE('',#746,0.0035);
#630=CYLINDRICAL_SURFACE('',#753,0.00175);
#631=CYLINDRICAL_SURFACE('',#756,0.0035);
#632=CYLINDRICAL_SURFACE('',#763,0.00175);
#633=CYLINDRICAL_SURFACE('',#766,0.0035);
#634=CYLINDRICAL_SURFACE('',#773,0.0015);
#635=CYLINDRICAL_SURFACE('',#776,0.0015);
#636=CYLINDRICAL_SURFACE('',#780,0.0015);
#637=CYLINDRICAL_SURFACE('',#783,0.0015);
#638=ADVANCED_FACE('',(#561,#562),#623,.F.);
#639=ADVANCED_FACE('',(#563),#624,.T.);
#640=ADVANCED_FACE('',(#564,#565),#29,.T.);
#641=ADVANCED_FACE('',(#566),#30,.F.);
#642=ADVANCED_FACE('',(#567,#568),#31,.F.);
#643=ADVANCED_FACE('',(#569),#32,.F.);
#644=ADVANCED_FACE('',(#570,#571),#33,.T.);
#645=ADVANCED_FACE('',(#572,#573),#625,.T.);
#646=ADVANCED_FACE('',(#574,#575,#576,#577,#578,#579,#580,#581),#626,.T.);
#647=ADVANCED_FACE('',(#582,#583),#34,.T.);
#648=ADVANCED_FACE('',(#584,#585),#627,.T.);
#649=ADVANCED_FACE('',(#586),#35,.F.);
#650=ADVANCED_FACE('',(#587),#36,.F.);
#651=ADVANCED_FACE('',(#588,#589),#628,.F.);
#652=ADVANCED_FACE('',(#590),#629,.T.);
#653=ADVANCED_FACE('',(#591,#592),#37,.T.);
#654=ADVANCED_FACE('',(#593),#38,.F.);
#655=ADVANCED_FACE('',(#594,#595),#39,.F.);
#656=ADVANCED_FACE('',(#596),#40,.F.);
#657=ADVANCED_FACE('',(#597,#598),#630,.F.);
#658=ADVANCED_FACE('',(#599),#631,.T.);
#659=ADVANCED_FACE('',(#600,#601),#41,.T.);
#660=ADVANCED_FACE('',(#602),#42,.F.);
#661=ADVANCED_FACE('',(#603,#604),#43,.F.);
#662=ADVANCED_FACE('',(#605),#44,.F.);
#663=ADVANCED_FACE('',(#606,#607),#632,.F.);
#664=ADVANCED_FACE('',(#608),#633,.T.);
#665=ADVANCED_FACE('',(#609,#610),#45,.T.);
#666=ADVANCED_FACE('',(#611),#46,.F.);
#667=ADVANCED_FACE('',(#612,#613),#47,.F.);
#668=ADVANCED_FACE('',(#614),#48,.F.);
#669=ADVANCED_FACE('',(#615),#634,.F.);
#670=ADVANCED_FACE('',(#616),#49,.F.);
#671=ADVANCED_FACE('',(#617),#635,.F.);
#672=ADVANCED_FACE('',(#618),#50,.F.);
#673=ADVANCED_FACE('',(#619),#51,.F.);
#674=ADVANCED_FACE('',(#620),#636,.F.);
#675=ADVANCED_FACE('',(#621),#52,.F.);
#676=ADVANCED_FACE('',(#622),#637,.F.);
#677=CLOSED_SHELL('',(#638,#639,#640,#641,#642,#643,#644,#645,#646,#647,
#648,#649,#650,#651,#652,#653,#654,#655,#656,#657,#658,#659,#660,#661,#662,
#663,#664,#665,#666,#667,#668,#669,#670,#671,#672,#673,#674,#675,#676));
#678=STYLED_ITEM('',(#679),#704);
#679=PRESENTATION_STYLE_ASSIGNMENT((#683));
#680=PRESENTATION_STYLE_ASSIGNMENT((#684));
#681=PRESENTATION_STYLE_ASSIGNMENT((#685));
#682=PRESENTATION_STYLE_ASSIGNMENT((#686));
#683=SURFACE_STYLE_USAGE(.BOTH.,#687);
#684=SURFACE_STYLE_USAGE(.BOTH.,#688);
#685=SURFACE_STYLE_USAGE(.BOTH.,#689);
#686=SURFACE_STYLE_USAGE(.BOTH.,#690);
#687=SURFACE_SIDE_STYLE('',(#691));
#688=SURFACE_SIDE_STYLE('',(#692));
#689=SURFACE_SIDE_STYLE('',(#693));
#690=SURFACE_SIDE_STYLE('',(#694));
#691=SURFACE_STYLE_FILL_AREA(#695);
#692=SURFACE_STYLE_FILL_AREA(#696);
#693=SURFACE_STYLE_FILL_AREA(#697);
#694=SURFACE_STYLE_FILL_AREA(#698);
#695=FILL_AREA_STYLE('',(#699));
#696=FILL_AREA_STYLE('',(#700));
#697=FILL_AREA_STYLE('',(#701));
#698=FILL_AREA_STYLE('',(#702));
#699=FILL_AREA_STYLE_COLOUR('',#703);
#700=FILL_AREA_STYLE_COLOUR('',#24);
#701=FILL_AREA_STYLE_COLOUR('',#24);
#702=FILL_AREA_STYLE_COLOUR('',#24);
#703=DRAUGHTING_PRE_DEFINED_COLOUR('red');
#704=MANIFOLD_SOLID_BREP('CRM2413',#677);
#705=SHAPE_DEFINITION_REPRESENTATION(#1201,#706);
#706=SHAPE_REPRESENTATION('CRM2413',(#707),#1196);
#707=AXIS2_PLACEMENT_3D('',#983,#784,#785);
#708=AXIS2_PLACEMENT_3D('',#984,#786,#787);
#709=AXIS2_PLACEMENT_3D('',#985,#788,#789);
#710=AXIS2_PLACEMENT_3D('',#987,#790,#791);
#711=AXIS2_PLACEMENT_3D('',#989,#792,#793);
#712=AXIS2_PLACEMENT_3D('',#990,#794,#795);
#713=AXIS2_PLACEMENT_3D('',#995,#797,#798);
#714=AXIS2_PLACEMENT_3D('',#998,#800,#801);
#715=AXIS2_PLACEMENT_3D('',#999,#802,#803);
#716=AXIS2_PLACEMENT_3D('',#1004,#806,#807);
#717=AXIS2_PLACEMENT_3D('',#1008,#810,#811);
#718=AXIS2_PLACEMENT_3D('',#1009,#812,#813);
#719=AXIS2_PLACEMENT_3D('',#1012,#815,#816);
#720=AXIS2_PLACEMENT_3D('',#1014,#818,#819);
#721=AXIS2_PLACEMENT_3D('',#1015,#820,#821);
#722=AXIS2_PLACEMENT_3D('',#1017,#822,#823);
#723=AXIS2_PLACEMENT_3D('',#1019,#824,#825);
#724=AXIS2_PLACEMENT_3D('',#1020,#826,#827);
#725=AXIS2_PLACEMENT_3D('',#1022,#828,#829);
#726=AXIS2_PLACEMENT_3D('',#1023,#830,#831);
#727=AXIS2_PLACEMENT_3D('',#1034,#832,#833);
#728=AXIS2_PLACEMENT_3D('',#1043,#834,#835);
#729=AXIS2_PLACEMENT_3D('',#1054,#836,#837);
#730=AXIS2_PLACEMENT_3D('',#1066,#839,#840);
#731=AXIS2_PLACEMENT_3D('',#1070,#842,#843);
#732=AXIS2_PLACEMENT_3D('',#1074,#845,#846);
#733=AXIS2_PLACEMENT_3D('',#1078,#848,#849);
#734=AXIS2_PLACEMENT_3D('',#1082,#851,#852);
#735=AXIS2_PLACEMENT_3D('',#1086,#854,#855);
#736=AXIS2_PLACEMENT_3D('',#1087,#856,#857);
#737=AXIS2_PLACEMENT_3D('',#1089,#858,#859);
#738=AXIS2_PLACEMENT_3D('',#1090,#860,#861);
#739=AXIS2_PLACEMENT_3D('',#1092,#862,#863);
#740=AXIS2_PLACEMENT_3D('',#1093,#864,#865);
#741=AXIS2_PLACEMENT_3D('',#1095,#866,#867);
#742=AXIS2_PLACEMENT_3D('',#1096,#868,#869);
#743=AXIS2_PLACEMENT_3D('',#1097,#870,#871);
#744=AXIS2_PLACEMENT_3D('',#1098,#872,#873);
#745=AXIS2_PLACEMENT_3D('',#1100,#874,#875);
#746=AXIS2_PLACEMENT_3D('',#1102,#876,#877);
#747=AXIS2_PLACEMENT_3D('',#1103,#878,#879);
#748=AXIS2_PLACEMENT_3D('',#1108,#881,#882);
#749=AXIS2_PLACEMENT_3D('',#1111,#884,#885);
#750=AXIS2_PLACEMENT_3D('',#1114,#888,#889);
#751=AXIS2_PLACEMENT_3D('',#1116,#891,#892);
#752=AXIS2_PLACEMENT_3D('',#1118,#894,#895);
#753=AXIS2_PLACEMENT_3D('',#1119,#896,#897);
#754=AXIS2_PLACEMENT_3D('',#1120,#898,#899);
#755=AXIS2_PLACEMENT_3D('',#1122,#900,#901);
#756=AXIS2_PLACEMENT_3D('',#1124,#902,#903);
#757=AXIS2_PLACEMENT_3D('',#1125,#904,#905);
#758=AXIS2_PLACEMENT_3D('',#1130,#907,#908);
#759=AXIS2_PLACEMENT_3D('',#1133,#910,#911);
#760=AXIS2_PLACEMENT_3D('',#1136,#914,#915);
#761=AXIS2_PLACEMENT_3D('',#1138,#917,#918);
#762=AXIS2_PLACEMENT_3D('',#1140,#920,#921);
#763=AXIS2_PLACEMENT_3D('',#1141,#922,#923);
#764=AXIS2_PLACEMENT_3D('',#1142,#924,#925);
#765=AXIS2_PLACEMENT_3D('',#1144,#926,#927);
#766=AXIS2_PLACEMENT_3D('',#1146,#928,#929);
#767=AXIS2_PLACEMENT_3D('',#1147,#930,#931);
#768=AXIS2_PLACEMENT_3D('',#1152,#933,#934);
#769=AXIS2_PLACEMENT_3D('',#1155,#936,#937);
#770=AXIS2_PLACEMENT_3D('',#1158,#940,#941);
#771=AXIS2_PLACEMENT_3D('',#1160,#943,#944);
#772=AXIS2_PLACEMENT_3D('',#1162,#946,#947);
#773=AXIS2_PLACEMENT_3D('',#1163,#948,#949);
#774=AXIS2_PLACEMENT_3D('',#1166,#951,#952);
#775=AXIS2_PLACEMENT_3D('',#1169,#954,#955);
#776=AXIS2_PLACEMENT_3D('',#1178,#961,#962);
#777=AXIS2_PLACEMENT_3D('',#1181,#964,#965);
#778=AXIS2_PLACEMENT_3D('',#1182,#966,#967);
#779=AXIS2_PLACEMENT_3D('',#1189,#972,#973);
#780=AXIS2_PLACEMENT_3D('',#1191,#975,#976);
#781=AXIS2_PLACEMENT_3D('',#1192,#977,#978);
#782=AXIS2_PLACEMENT_3D('',#1193,#979,#980);
#783=AXIS2_PLACEMENT_3D('',#1194,#981,#982);
#784=DIRECTION('',(0.,0.,1.));
#785=DIRECTION('',(1.,0.,0.));
#786=DIRECTION('',(0.,1.,0.));
#787=DIRECTION('',(0.,0.,1.));
#788=DIRECTION('',(0.,-1.,0.));
#789=DIRECTION('',(0.,0.,-1.));
#790=DIRECTION('',(0.,-1.,0.));
#791=DIRECTION('',(0.,0.,-1.));
#792=DIRECTION('',(0.,1.,0.));
#793=DIRECTION('',(0.,0.,1.));
#794=DIRECTION('',(0.,-1.,0.));
#795=DIRECTION('',(0.,0.,-1.));
#796=DIRECTION('',(0.,1.,0.));
#797=DIRECTION('',(0.,-1.,0.));
#798=DIRECTION('',(0.,0.,-1.));
#799=DIRECTION('',(0.,1.,0.));
#800=DIRECTION('',(0.,-1.,0.));
#801=DIRECTION('',(0.,0.,-1.));
#802=DIRECTION('',(0.,-1.,0.));
#803=DIRECTION('',(0.,0.,-1.));
#804=DIRECTION('',(1.,0.,0.));
#805=DIRECTION('',(-1.,0.,4.33680868994202E-17));
#806=DIRECTION('',(0.,0.,1.));
#807=DIRECTION('',(1.,0.,0.));
#808=DIRECTION('',(0.,-1.,0.));
#809=DIRECTION('',(1.,0.,0.));
#810=DIRECTION('',(0.,-1.,0.));
#811=DIRECTION('',(0.,0.,-1.));
#812=DIRECTION('',(0.,-1.,0.));
#813=DIRECTION('',(0.,0.,-1.));
#814=DIRECTION('',(-1.,0.,4.33680868994202E-17));
#815=DIRECTION('',(-4.33680868994202E-17,0.,-1.));
#816=DIRECTION('',(-1.,0.,4.33680868994202E-17));
#817=DIRECTION('',(0.,-1.,0.));
#818=DIRECTION('',(0.,-1.,0.));
#819=DIRECTION('',(0.,0.,-1.));
#820=DIRECTION('',(0.,-1.,0.));
#821=DIRECTION('',(0.,0.,-1.));
#822=DIRECTION('',(0.,-1.,0.));
#823=DIRECTION('',(0.,0.,-1.));
#824=DIRECTION('',(0.,-1.,0.));
#825=DIRECTION('',(0.,0.,-1.));
#826=DIRECTION('',(-5.02897295806389E-18,1.,0.));
#827=DIRECTION('',(-1.,-5.02897295806389E-18,0.));
#828=DIRECTION('',(0.,-1.,0.));
#829=DIRECTION('',(0.,0.,-1.));
#830=DIRECTION('',(2.14661078335671E-16,1.,-2.14661078335673E-16));
#831=DIRECTION('',(3.49148133884313E-15,2.14661078335673E-16,1.));
#832=DIRECTION('',(-2.14661078335671E-16,-1.,2.14661078335673E-16));
#833=DIRECTION('',(-3.49148133884313E-15,-2.14661078335673E-16,-1.));
#834=DIRECTION('',(2.14661078335673E-16,1.,2.14661078335672E-16));
#835=DIRECTION('',(-1.,2.14661078335673E-16,0.));
#836=DIRECTION('',(-2.14661078335673E-16,-1.,-2.14661078335672E-16));
#837=DIRECTION('',(1.,-2.14661078335673E-16,0.));
#838=DIRECTION('',(0.,-1.,0.));
#839=DIRECTION('',(0.,-1.,0.));
#840=DIRECTION('',(1.,0.,-1.04744440165294E-14));
#841=DIRECTION('',(0.,-1.,0.));
#842=DIRECTION('',(0.,-1.,0.));
#843=DIRECTION('',(1.,0.,-1.04744440165294E-14));
#844=DIRECTION('',(0.,-1.,0.));
#845=DIRECTION('',(0.,-1.,0.));
#846=DIRECTION('',(0.,0.,1.));
#847=DIRECTION('',(0.,-1.,0.));
#848=DIRECTION('',(0.,-1.,0.));
#849=DIRECTION('',(0.,0.,1.));
#850=DIRECTION('',(0.,-1.,0.));
#851=DIRECTION('',(0.,-1.,0.));
#852=DIRECTION('',(-1.,0.,3.49148133884313E-15));
#853=DIRECTION('',(0.,-1.,0.));
#854=DIRECTION('',(0.,-1.,0.));
#855=DIRECTION('',(-1.,0.,3.49148133884313E-15));
#856=DIRECTION('',(0.,-1.,0.));
#857=DIRECTION('',(0.,0.,-1.));
#858=DIRECTION('',(0.,1.,0.));
#859=DIRECTION('',(0.,0.,1.));
#860=DIRECTION('',(0.,-1.,0.));
#861=DIRECTION('',(0.,0.,-1.));
#862=DIRECTION('',(0.,-1.,0.));
#863=DIRECTION('',(0.,0.,-1.));
#864=DIRECTION('',(5.02897295806389E-18,-1.,0.));
#865=DIRECTION('',(1.,5.02897295806389E-18,0.));
#866=DIRECTION('',(5.02897295806389E-18,-1.,0.));
#867=DIRECTION('',(1.,5.02897295806389E-18,0.));
#868=DIRECTION('',(-5.02897295806389E-18,1.,0.));
#869=DIRECTION('',(-1.,-5.02897295806389E-18,0.));
#870=DIRECTION('',(0.,1.,0.));
#871=DIRECTION('',(1.,0.,-3.49148133884313E-15));
#872=DIRECTION('',(0.,-1.,0.));
#873=DIRECTION('',(-1.,0.,3.49148133884313E-15));
#874=DIRECTION('',(0.,-1.,0.));
#875=DIRECTION('',(-1.,0.,3.49148133884313E-15));
#876=DIRECTION('',(0.,1.,0.));
#877=DIRECTION('',(1.,0.,-3.49148133884313E-15));
#878=DIRECTION('',(0.,-1.,0.));
#879=DIRECTION('',(-1.,0.,3.49148133884313E-15));
#880=DIRECTION('',(0.,1.,0.));
#881=DIRECTION('',(0.,-1.,0.));
#882=DIRECTION('',(-1.,0.,3.49148133884313E-15));
#883=DIRECTION('',(0.,1.,0.));
#884=DIRECTION('',(0.,-1.,0.));
#885=DIRECTION('',(-1.,0.,3.49148133884313E-15));
#886=DIRECTION('',(-3.49148133884313E-15,0.,-1.));
#887=DIRECTION('',(3.53484942574255E-15,0.,1.));
#888=DIRECTION('',(1.,0.,-3.49148133884313E-15));
#889=DIRECTION('',(-3.49148133884313E-15,0.,-1.));
#890=DIRECTION('',(-3.49148133884313E-15,0.,-1.));
#891=DIRECTION('',(0.,-1.,0.));
#892=DIRECTION('',(-1.,0.,3.49148133884313E-15));
#893=DIRECTION('',(3.53484942574255E-15,0.,1.));
#894=DIRECTION('',(-1.,0.,3.53484942574255E-15));
#895=DIRECTION('',(3.53484942574255E-15,0.,1.));
#896=DIRECTION('',(0.,1.,0.));
#897=DIRECTION('',(0.,0.,-1.));
#898=DIRECTION('',(0.,-1.,0.));
#899=DIRECTION('',(0.,0.,1.));
#900=DIRECTION('',(0.,-1.,0.));
#901=DIRECTION('',(0.,0.,1.));
#902=DIRECTION('',(0.,1.,0.));
#903=DIRECTION('',(0.,0.,-1.));
#904=DIRECTION('',(0.,-1.,0.));
#905=DIRECTION('',(0.,0.,1.));
#906=DIRECTION('',(0.,1.,0.));
#907=DIRECTION('',(0.,-1.,0.));
#908=DIRECTION('',(0.,0.,1.));
#909=DIRECTION('',(0.,1.,0.));
#910=DIRECTION('',(0.,-1.,0.));
#911=DIRECTION('',(0.,0.,1.));
#912=DIRECTION('',(-1.,0.,0.));
#913=DIRECTION('',(1.,0.,-4.33680868994202E-17));
#914=DIRECTION('',(0.,0.,-1.));
#915=DIRECTION('',(-1.,0.,0.));
#916=DIRECTION('',(-1.,0.,0.));
#917=DIRECTION('',(0.,-1.,0.));
#918=DIRECTION('',(0.,0.,1.));
#919=DIRECTION('',(1.,0.,-4.33680868994202E-17));
#920=DIRECTION('',(4.33680868994202E-17,0.,1.));
#921=DIRECTION('',(1.,0.,-4.33680868994202E-17));
#922=DIRECTION('',(0.,1.,0.));
#923=DIRECTION('',(-1.,0.,1.04744440165294E-14));
#924=DIRECTION('',(0.,-1.,0.));
#925=DIRECTION('',(1.,0.,-1.04744440165294E-14));
#926=DIRECTION('',(0.,-1.,0.));
#927=DIRECTION('',(1.,0.,-1.04744440165294E-14));
#928=DIRECTION('',(0.,1.,0.));
#929=DIRECTION('',(-1.,0.,1.04744440165294E-14));
#930=DIRECTION('',(0.,-1.,0.));
#931=DIRECTION('',(1.,0.,-1.04744440165294E-14));
#932=DIRECTION('',(0.,1.,0.));
#933=DIRECTION('',(0.,-1.,0.));
#934=DIRECTION('',(1.,0.,-1.04744440165294E-14));
#935=DIRECTION('',(0.,1.,0.));
#936=DIRECTION('',(0.,-1.,0.));
#937=DIRECTION('',(1.,0.,-1.04744440165294E-14));
#938=DIRECTION('',(1.04744440165294E-14,0.,1.));
#939=DIRECTION('',(-1.05178121034288E-14,0.,-1.));
#940=DIRECTION('',(-1.,0.,1.04744440165294E-14));
#941=DIRECTION('',(1.04744440165294E-14,0.,1.));
#942=DIRECTION('',(1.04744440165294E-14,0.,1.));
#943=DIRECTION('',(0.,-1.,0.));
#944=DIRECTION('',(1.,0.,-1.04744440165294E-14));
#945=DIRECTION('',(-1.05178121034288E-14,0.,-1.));
#946=DIRECTION('',(1.,0.,-1.05178121034288E-14));
#947=DIRECTION('',(-1.05178121034288E-14,0.,-1.));
#948=DIRECTION('',(0.707106781186546,0.,-0.707106781186549));
#949=DIRECTION('',(-0.707106781186549,0.,-0.707106781186546));
#950=DIRECTION('',(0.707106781186546,0.,-0.707106781186549));
#951=DIRECTION('',(1.,0.,-3.4542034091043E-15));
#952=DIRECTION('',(-3.45420340910431E-15,0.,-1.));
#953=DIRECTION('',(0.707106781186546,0.,-0.707106781186549));
#954=DIRECTION('',(2.14661078335673E-16,1.,2.14661078335672E-16));
#955=DIRECTION('',(-1.,2.14661078335673E-16,0.));
#956=DIRECTION('',(-0.707106781186551,0.,-0.707106781186544));
#957=DIRECTION('',(0.707106781186546,0.,-0.707106781186549));
#958=DIRECTION('',(0.707106781186549,-3.03576608295941E-16,0.707106781186546));
#959=DIRECTION('',(0.707106781186544,-3.03576608295941E-16,-0.707106781186551));
#960=DIRECTION('',(-0.707106781186551,0.,-0.707106781186544));
#961=DIRECTION('',(0.707106781186546,0.,-0.707106781186549));
#962=DIRECTION('',(-0.707106781186549,0.,-0.707106781186546));
#963=DIRECTION('',(0.707106781186546,0.,-0.707106781186549));
#964=DIRECTION('',(0.707106781186546,0.,-0.707106781186549));
#965=DIRECTION('',(-0.707106781186549,0.,-0.707106781186546));
#966=DIRECTION('',(-2.14661078335673E-16,-1.,-2.14661078335672E-16));
#967=DIRECTION('',(1.,-2.14661078335673E-16,0.));
#968=DIRECTION('',(-0.707106781186551,0.,-0.707106781186544));
#969=DIRECTION('',(-0.707106781186551,0.,-0.707106781186544));
#970=DIRECTION('',(-0.707106781186544,3.03576608295941E-16,0.707106781186551));
#971=DIRECTION('',(-0.707106781186549,3.03576608295941E-16,-0.707106781186546));
#972=DIRECTION('',(0.707106781186546,0.,-0.707106781186549));
#973=DIRECTION('',(-0.707106781186549,0.,-0.707106781186546));
#974=DIRECTION('',(0.,1.,0.));
#975=DIRECTION('',(-0.707106781186551,0.,-0.707106781186544));
#976=DIRECTION('',(-0.707106781186544,0.,0.707106781186551));
#977=DIRECTION('',(-0.707106781186551,0.,-0.707106781186544));
#978=DIRECTION('',(-0.707106781186544,0.,0.707106781186551));
#979=DIRECTION('',(-0.707106781186551,0.,-0.707106781186544));
#980=DIRECTION('',(-0.707106781186544,0.,0.707106781186551));
#981=DIRECTION('',(-0.707106781186551,0.,-0.707106781186544));
#982=DIRECTION('',(-0.707106781186544,0.,0.707106781186551));
#983=CARTESIAN_POINT('',(0.,0.,0.));
#984=CARTESIAN_POINT('',(0.0185,-0.001,-4.33680868994202E-19));
#985=CARTESIAN_POINT('',(0.0185,-0.001,-4.33680868994202E-19));
#986=CARTESIAN_POINT('',(0.0185,-0.001,-0.00175));
#987=CARTESIAN_POINT('',(0.0185,0.0015,-4.33680868994202E-19));
#988=CARTESIAN_POINT('',(0.0185,0.0015,-0.00175));
#989=CARTESIAN_POINT('',(0.0185,-0.001,-4.33680868994202E-19));
#990=CARTESIAN_POINT('',(0.0185,0.0015,-4.33680868994202E-19));
#991=CARTESIAN_POINT('',(0.0185,0.0015,-0.0035));
#992=CARTESIAN_POINT('',(0.0185,0.0015,0.0035));
#993=CARTESIAN_POINT('',(0.0185,-0.001,0.0035));
#994=CARTESIAN_POINT('',(0.0185,-0.001,0.0035));
#995=CARTESIAN_POINT('',(0.0185,-0.001,-4.33680868994202E-19));
#996=CARTESIAN_POINT('',(0.0185,-0.001,-0.0035));
#997=CARTESIAN_POINT('',(0.0185,-0.001,-0.0035));
#998=CARTESIAN_POINT('',(0.0185,-0.001,-4.33680868994202E-19));
#999=CARTESIAN_POINT('',(0.,-0.001,0.));
#1000=CARTESIAN_POINT('',(0.0150996688705415,-0.001,-0.0035));
#1001=CARTESIAN_POINT('',(0.0150996688705415,-0.001,0.0035));
#1002=CARTESIAN_POINT('',(0.0185,-0.001,-0.0035));
#1003=CARTESIAN_POINT('',(0.0185,-0.001,0.0035));
#1004=CARTESIAN_POINT('',(0.0185,-0.001,-0.0035));
#1005=CARTESIAN_POINT('',(0.0150996688705415,-0.02485,-0.0035));
#1006=CARTESIAN_POINT('',(0.0150996688705415,0.0015,-0.0035));
#1007=CARTESIAN_POINT('',(0.0185,0.0015,-0.0035));
#1008=CARTESIAN_POINT('',(0.0185,0.0015,-4.33680868994202E-19));
#1009=CARTESIAN_POINT('',(0.,0.0015,0.));
#1010=CARTESIAN_POINT('',(0.0150996688705415,0.0015,0.0035));
#1011=CARTESIAN_POINT('',(0.0185,0.0015,0.0035));
#1012=CARTESIAN_POINT('',(0.0185,-0.001,0.0035));
#1013=CARTESIAN_POINT('',(0.0150996688705415,-0.02485,0.0035));
#1014=CARTESIAN_POINT('',(-0.0155,-0.0017,0.));
#1015=CARTESIAN_POINT('',(0.,-0.0017,0.));
#1016=CARTESIAN_POINT('',(0.,-0.0017,-0.0155));
#1017=CARTESIAN_POINT('',(0.,-0.0017,0.));
#1018=CARTESIAN_POINT('',(0.,-0.0017,-0.0105));
#1019=CARTESIAN_POINT('',(0.,-0.028505,0.));
#1020=CARTESIAN_POINT('',(0.,-0.0022,0.));
#1021=CARTESIAN_POINT('',(-0.0105,-0.0022,0.));
#1022=CARTESIAN_POINT('',(0.,-0.02485,0.));
#1023=CARTESIAN_POINT('',(0.,0.00175,0.));
#1024=CARTESIAN_POINT('',(0.00904888687342566,0.00175,0.0125844207793583));
#1025=CARTESIAN_POINT('',(0.0125844207793584,0.00175,0.00904888687342553));
#1026=CARTESIAN_POINT('',(0.0125844207793584,0.00175,0.00904888687342553));
#1027=CARTESIAN_POINT('',(0.0128182766667969,0.00175,0.00872366003277415));
#1028=CARTESIAN_POINT('',(0.0132471042602707,0.00143230286954596,0.00806410799163843));
#1029=CARTESIAN_POINT('',(0.0135022470922747,0.000252339708899941,0.00760900153067393));
#1030=CARTESIAN_POINT('',(0.0132479232588016,-0.000932133228711294,0.00806278341016612));
#1031=CARTESIAN_POINT('',(0.0128182797189841,-0.00125,0.00872365578805229));
#1032=CARTESIAN_POINT('',(0.0125844207793584,-0.00125,0.00904888687342553));
#1033=CARTESIAN_POINT('',(0.0125844207793584,-0.00125,0.00904888687342553));
#1034=CARTESIAN_POINT('',(0.,-0.00125,0.));
#1035=CARTESIAN_POINT('',(0.00904888687342566,-0.00125,0.0125844207793583));
#1036=CARTESIAN_POINT('',(0.00904888687342566,-0.00125,0.0125844207793583));
#1037=CARTESIAN_POINT('',(0.00872366003277429,-0.00125,0.0128182766667968));
#1038=CARTESIAN_POINT('',(0.0080641079916386,-0.000932302869545961,0.0132471042602706));
#1039=CARTESIAN_POINT('',(0.0076090015306741,0.000247660291100053,0.0135022470922746));
#1040=CARTESIAN_POINT('',(0.00806278341016628,0.00143213322871126,0.0132479232588015));
#1041=CARTESIAN_POINT('',(0.00872365578805243,0.00175,0.012818279718984));
#1042=CARTESIAN_POINT('',(0.00904888687342566,0.00175,0.0125844207793583));
#1043=CARTESIAN_POINT('',(0.,0.00175,0.));
#1044=CARTESIAN_POINT('',(-0.0125844207793583,0.00175,0.00904888687342562));
#1045=CARTESIAN_POINT('',(-0.00904888687342558,0.00175,0.0125844207793584));
#1046=CARTESIAN_POINT('',(-0.00904888687342558,0.00175,0.0125844207793584));
#1047=CARTESIAN_POINT('',(-0.0087236600327742,0.00174999999999999,0.0128182766667969));
#1048=CARTESIAN_POINT('',(-0.00806410799163849,0.00143230286954593,0.0132471042602707));
#1049=CARTESIAN_POINT('',(-0.00760900153067403,0.000252339708899943,0.0135022470922746));
#1050=CARTESIAN_POINT('',(-0.00806278341016617,-0.000932133228711253,0.0132479232588015));
#1051=CARTESIAN_POINT('',(-0.00872365578805235,-0.00124999999999999,0.0128182797189841));
#1052=CARTESIAN_POINT('',(-0.00904888687342558,-0.00125,0.0125844207793584));
#1053=CARTESIAN_POINT('',(-0.00904888687342558,-0.00125,0.0125844207793584));
#1054=CARTESIAN_POINT('',(0.,-0.00125,0.));
#1055=CARTESIAN_POINT('',(-0.0125844207793583,-0.00125,0.00904888687342562));
#1056=CARTESIAN_POINT('',(-0.0125844207793583,-0.00125,0.00904888687342562));
#1057=CARTESIAN_POINT('',(-0.0128182766667968,-0.00124999999999999,0.00872366003277424));
#1058=CARTESIAN_POINT('',(-0.0132471042602707,-0.000932302869545956,0.00806410799163857));
#1059=CARTESIAN_POINT('',(-0.0135022470922746,0.000247660291100056,0.00760900153067408));
#1060=CARTESIAN_POINT('',(-0.0132479232588015,0.00143213322871124,0.00806278341016625));
#1061=CARTESIAN_POINT('',(-0.012818279718984,0.00174999999999999,0.00872365578805239));
#1062=CARTESIAN_POINT('',(-0.0125844207793583,0.00175,0.00904888687342562));
#1063=CARTESIAN_POINT('',(0.00350000000000016,-0.02485,0.0150996688705415));
#1064=CARTESIAN_POINT('',(0.00350000000000016,-0.001,0.0150996688705415));
#1065=CARTESIAN_POINT('',(0.00350000000000016,0.0015,0.0150996688705415));
#1066=CARTESIAN_POINT('',(0.,-0.001,0.));
#1067=CARTESIAN_POINT('',(-0.00349999999999984,-0.001,0.0150996688705415));
#1068=CARTESIAN_POINT('',(-0.00349999999999984,-0.02485,0.0150996688705415));
#1069=CARTESIAN_POINT('',(-0.00349999999999984,0.0015,0.0150996688705415));
#1070=CARTESIAN_POINT('',(0.,0.0015,0.));
#1071=CARTESIAN_POINT('',(-0.0150996688705415,-0.02485,0.0035));
#1072=CARTESIAN_POINT('',(-0.0150996688705415,-0.001,0.0035));
#1073=CARTESIAN_POINT('',(-0.0150996688705415,0.0015,0.0035));
#1074=CARTESIAN_POINT('',(0.,-0.001,0.));
#1075=CARTESIAN_POINT('',(-0.0150996688705415,-0.001,-0.0035));
#1076=CARTESIAN_POINT('',(-0.0150996688705415,-0.02485,-0.0035));
#1077=CARTESIAN_POINT('',(-0.0150996688705415,0.0015,-0.0035));
#1078=CARTESIAN_POINT('',(0.,0.0015,0.));
#1079=CARTESIAN_POINT('',(-0.00350000000000005,-0.02485,-0.0150996688705415));
#1080=CARTESIAN_POINT('',(-0.00350000000000005,-0.001,-0.0150996688705415));
#1081=CARTESIAN_POINT('',(-0.00350000000000005,0.0015,-0.0150996688705415));
#1082=CARTESIAN_POINT('',(0.,-0.001,0.));
#1083=CARTESIAN_POINT('',(0.00349999999999995,-0.001,-0.0150996688705415));
#1084=CARTESIAN_POINT('',(0.00349999999999995,-0.02485,-0.0150996688705415));
#1085=CARTESIAN_POINT('',(0.00349999999999995,0.0015,-0.0150996688705415));
#1086=CARTESIAN_POINT('',(0.,0.0015,0.));
#1087=CARTESIAN_POINT('',(0.,0.0022,0.));
#1088=CARTESIAN_POINT('',(0.,0.0022,-0.0155));
#1089=CARTESIAN_POINT('',(-0.0155,0.0022,0.));
#1090=CARTESIAN_POINT('',(0.,0.0022,0.));
#1091=CARTESIAN_POINT('',(0.,0.0022,-0.0105));
#1092=CARTESIAN_POINT('',(0.,-0.028505,0.));
#1093=CARTESIAN_POINT('',(0.,0.0027,0.));
#1094=CARTESIAN_POINT('',(0.0105,0.0027,0.));
#1095=CARTESIAN_POINT('',(-0.0135,0.0027,0.));
#1096=CARTESIAN_POINT('',(-1.64388698584096E-37,-0.0022,0.));
#1097=CARTESIAN_POINT('',(-6.50260856375922E-17,-0.001,-0.0185));
#1098=CARTESIAN_POINT('',(-6.50260856375922E-17,-0.001,-0.0185));
#1099=CARTESIAN_POINT('',(-0.00175000000000007,-0.001,-0.0185));
#1100=CARTESIAN_POINT('',(-6.50260856375922E-17,0.0015,-0.0185));
#1101=CARTESIAN_POINT('',(-0.00175000000000007,0.0015,-0.0185));
#1102=CARTESIAN_POINT('',(-6.50260856375922E-17,-0.001,-0.0185));
#1103=CARTESIAN_POINT('',(-6.50260856375922E-17,0.0015,-0.0185));
#1104=CARTESIAN_POINT('',(-0.00350000000000006,0.0015,-0.0185));
#1105=CARTESIAN_POINT('',(0.00349999999999994,0.0015,-0.0185));
#1106=CARTESIAN_POINT('',(0.00349999999999994,-0.001,-0.0185));
#1107=CARTESIAN_POINT('',(0.00349999999999994,-0.001,-0.0185));
#1108=CARTESIAN_POINT('',(-6.50260856375922E-17,-0.001,-0.0185));
#1109=CARTESIAN_POINT('',(-0.00350000000000006,-0.001,-0.0185));
#1110=CARTESIAN_POINT('',(-0.00350000000000006,-0.001,-0.0185));
#1111=CARTESIAN_POINT('',(-6.50260856375922E-17,-0.001,-0.0185));
#1112=CARTESIAN_POINT('',(-0.00350000000000006,-0.001,-0.0185));
#1113=CARTESIAN_POINT('',(0.00349999999999994,-0.001,-0.0185));
#1114=CARTESIAN_POINT('',(-0.00350000000000006,-0.001,-0.0185));
#1115=CARTESIAN_POINT('',(-0.00350000000000006,0.0015,-0.0185));
#1116=CARTESIAN_POINT('',(-6.50260856375922E-17,0.0015,-0.0185));
#1117=CARTESIAN_POINT('',(0.00349999999999994,0.0015,-0.0185));
#1118=CARTESIAN_POINT('',(0.00349999999999994,-0.001,-0.0185));
#1119=CARTESIAN_POINT('',(-0.0185,-0.001,4.33680868994202E-19));
#1120=CARTESIAN_POINT('',(-0.0185,-0.001,4.33680868994202E-19));
#1121=CARTESIAN_POINT('',(-0.0185,-0.001,0.00175));
#1122=CARTESIAN_POINT('',(-0.0185,0.0015,4.33680868994202E-19));
#1123=CARTESIAN_POINT('',(-0.0185,0.0015,0.00175));
#1124=CARTESIAN_POINT('',(-0.0185,-0.001,4.33680868994202E-19));
#1125=CARTESIAN_POINT('',(-0.0185,0.0015,4.33680868994202E-19));
#1126=CARTESIAN_POINT('',(-0.0185,0.0015,0.0035));
#1127=CARTESIAN_POINT('',(-0.0185,0.0015,-0.0035));
#1128=CARTESIAN_POINT('',(-0.0185,-0.001,-0.0035));
#1129=CARTESIAN_POINT('',(-0.0185,-0.001,-0.0035));
#1130=CARTESIAN_POINT('',(-0.0185,-0.001,4.33680868994202E-19));
#1131=CARTESIAN_POINT('',(-0.0185,-0.001,0.0035));
#1132=CARTESIAN_POINT('',(-0.0185,-0.001,0.0035));
#1133=CARTESIAN_POINT('',(-0.0185,-0.001,4.33680868994202E-19));
#1134=CARTESIAN_POINT('',(-0.0185,-0.001,0.0035));
#1135=CARTESIAN_POINT('',(-0.0185,-0.001,-0.0035));
#1136=CARTESIAN_POINT('',(-0.0185,-0.001,0.0035));
#1137=CARTESIAN_POINT('',(-0.0185,0.0015,0.0035));
#1138=CARTESIAN_POINT('',(-0.0185,0.0015,4.33680868994202E-19));
#1139=CARTESIAN_POINT('',(-0.0185,0.0015,-0.0035));
#1140=CARTESIAN_POINT('',(-0.0185,-0.001,-0.0035));
#1141=CARTESIAN_POINT('',(1.94210895174788E-16,-0.001,0.0185));
#1142=CARTESIAN_POINT('',(1.94210895174788E-16,-0.001,0.0185));
#1143=CARTESIAN_POINT('',(0.00175000000000019,-0.001,0.0185));
#1144=CARTESIAN_POINT('',(1.94210895174788E-16,0.0015,0.0185));
#1145=CARTESIAN_POINT('',(0.00175000000000019,0.0015,0.0185));
#1146=CARTESIAN_POINT('',(1.94210895174788E-16,-0.001,0.0185));
#1147=CARTESIAN_POINT('',(1.94210895174788E-16,0.0015,0.0185));
#1148=CARTESIAN_POINT('',(0.00350000000000019,0.0015,0.0185));
#1149=CARTESIAN_POINT('',(-0.00349999999999981,0.0015,0.0185));
#1150=CARTESIAN_POINT('',(-0.00349999999999981,-0.001,0.0185));
#1151=CARTESIAN_POINT('',(-0.00349999999999981,-0.001,0.0185));
#1152=CARTESIAN_POINT('',(1.94210895174788E-16,-0.001,0.0185));
#1153=CARTESIAN_POINT('',(0.00350000000000019,-0.001,0.0185));
#1154=CARTESIAN_POINT('',(0.00350000000000019,-0.001,0.0185));
#1155=CARTESIAN_POINT('',(1.94210895174788E-16,-0.001,0.0185));
#1156=CARTESIAN_POINT('',(0.00350000000000019,-0.001,0.0185));
#1157=CARTESIAN_POINT('',(-0.00349999999999981,-0.001,0.0185));
#1158=CARTESIAN_POINT('',(0.00350000000000019,-0.001,0.0185));
#1159=CARTESIAN_POINT('',(0.00350000000000019,0.0015,0.0185));
#1160=CARTESIAN_POINT('',(1.94210895174788E-16,0.0015,0.0185));
#1161=CARTESIAN_POINT('',(-0.00349999999999981,0.0015,0.0185));
#1162=CARTESIAN_POINT('',(-0.00349999999999981,-0.001,0.0185));
#1163=CARTESIAN_POINT('',(-0.0202322330470336,0.000249999999999995,0.0237677669529664));
#1164=CARTESIAN_POINT('',(-0.0202322330470336,0.00175,0.0237677669529664));
#1165=CARTESIAN_POINT('',(1.73472347597681E-17,0.00175,0.00353553390593274));
#1166=CARTESIAN_POINT('',(1.73472347597681E-17,0.000249999999999996,0.00353553390593273));
#1167=CARTESIAN_POINT('',(1.73472347597681E-17,-0.00125,0.00353553390593274));
#1168=CARTESIAN_POINT('',(-0.0202322330470336,-0.00125,0.0237677669529664));
#1169=CARTESIAN_POINT('',(-0.0202322330470336,0.00175,0.0237677669529664));
#1170=CARTESIAN_POINT('',(0.0202322330470338,0.00175,0.0237677669529663));
#1171=CARTESIAN_POINT('',(-0.0237677669529663,0.00175,0.0202322330470337));
#1172=CARTESIAN_POINT('',(-0.00176776695296637,0.00175,-0.00176776695296637));
#1173=CARTESIAN_POINT('',(0.00176776695296637,0.00175,0.00176776695296637));
#1174=CARTESIAN_POINT('',(4.33680868994202E-19,0.00175,2.16840434497101E-19));
#1175=CARTESIAN_POINT('',(0.00176776695296636,0.00175,-0.00176776695296638));
#1176=CARTESIAN_POINT('',(0.00176776695296636,0.00175,-0.00176776695296638));
#1177=CARTESIAN_POINT('',(0.0237677669529665,0.00175,0.0202322330470335));
#1178=CARTESIAN_POINT('',(-0.0237677669529663,0.000249999999999996,0.0202322330470337));
#1179=CARTESIAN_POINT('',(-0.0237677669529663,-0.00125,0.0202322330470337));
#1180=CARTESIAN_POINT('',(-0.00176776695296637,-0.00125,-0.00176776695296637));
#1181=CARTESIAN_POINT('',(-0.00176776695296637,0.000249999999999996,-0.00176776695296637));
#1182=CARTESIAN_POINT('',(-0.0202322330470336,-0.00125,0.0237677669529664));
#1183=CARTESIAN_POINT('',(0.0202322330470338,-0.00125,0.0237677669529663));
#1184=CARTESIAN_POINT('',(0.0237677669529665,-0.00125,0.0202322330470335));
#1185=CARTESIAN_POINT('',(0.00176776695296636,-0.00125,-0.00176776695296638));
#1186=CARTESIAN_POINT('',(0.00176776695296636,-0.00125,-0.00176776695296638));
#1187=CARTESIAN_POINT('',(0.,-0.00125,0.));
#1188=CARTESIAN_POINT('',(0.00176776695296637,-0.00125,0.00176776695296637));
#1189=CARTESIAN_POINT('',(0.00176776695296637,0.000249999999999995,0.00176776695296637));
#1190=CARTESIAN_POINT('',(0.,0.000249999999999995,0.));
#1191=CARTESIAN_POINT('',(0.0202322330470338,0.000249999999999996,0.0237677669529663));
#1192=CARTESIAN_POINT('',(0.00176776695296636,0.000249999999999995,-0.00176776695296638));
#1193=CARTESIAN_POINT('',(0.00176776695296636,0.000249999999999995,-0.00176776695296638));
#1194=CARTESIAN_POINT('',(0.0237677669529665,0.000249999999999995,0.0202322330470335));
#1195=MECHANICAL_DESIGN_GEOMETRIC_PRESENTATION_REPRESENTATION('',(#678,
#21,#22,#23),#1196);
#1196=(
GEOMETRIC_REPRESENTATION_CONTEXT(3)
GLOBAL_UNCERTAINTY_ASSIGNED_CONTEXT((#1197))
GLOBAL_UNIT_ASSIGNED_CONTEXT((#1200,#1199,#1198))
REPRESENTATION_CONTEXT('CRM2413','TOP_LEVEL_ASSEMBLY_PART')
);
#1197=UNCERTAINTY_MEASURE_WITH_UNIT(LENGTH_MEASURE(2.E-5),#1200,
'DISTANCE_ACCURACY_VALUE','Maximum Tolerance applied to model');
#1198=(
NAMED_UNIT(*)
SI_UNIT($,.STERADIAN.)
SOLID_ANGLE_UNIT()
);
#1199=(
NAMED_UNIT(*)
PLANE_ANGLE_UNIT()
SI_UNIT($,.RADIAN.)
);
#1200=(
LENGTH_UNIT()
NAMED_UNIT(*)
SI_UNIT($,.METRE.)
);
#1201=PRODUCT_DEFINITION_SHAPE('','',#1202);
#1202=PRODUCT_DEFINITION('','',#1204,#1203);
#1203=PRODUCT_DEFINITION_CONTEXT('',#1210,'design');
#1204=PRODUCT_DEFINITION_FORMATION_WITH_SPECIFIED_SOURCE('','',#1206,
 .NOT_KNOWN.);
#1205=PRODUCT_RELATED_PRODUCT_CATEGORY('','',(#1206));
#1206=PRODUCT('CRM2413','CRM2413','CRM2413',(#1208));
#1207=PRODUCT_CATEGORY('','');
#1208=PRODUCT_CONTEXT('',#1210,'mechanical');
#1209=APPLICATION_PROTOCOL_DEFINITION('international standard',
'automotive_design',2010,#1210);
#1210=APPLICATION_CONTEXT(
'core data for automotive mechanical design processes');
ENDSEC;
END-ISO-10303-21;
