ISO-10303-21;
HEADER;
/* Generated by software containing ST-Developer
 * from STEP Tools, Inc. (www.steptools.com) 
 */
/* OPTION: using custom renumber hook */

FILE_DESCRIPTION(
/* description */ ('STEP AP214',
'CAx-IF Rec.Pracs.---User Defined Attributes---1.5---2016-08-15'),
/* implementation_level */ '2;1');

FILE_NAME(
/* name */ '6a386d18ee269b265a355620',
/* time_stamp */ '2026-06-21T23:00:40Z',
/* author */ (''),
/* organization */ (''),
/* preprocessor_version */ 'ST-DEVELOPER v20',
/* originating_system */ 'ONSHAPE BY PTC INC, 1.216',
/* authorisation */ '  ');

FILE_SCHEMA (('AUTOMOTIVE_DESIGN {1 0 10303 214 3 1 1}'));
ENDSEC;

DATA;
#10=PROPERTY_DEFINITION_REPRESENTATION(#14,#12);
#11=PROPERTY_DEFINITION_REPRESENTATION(#15,#13);
#12=REPRESENTATION('',(#16),#901);
#13=REPRESENTATION('',(#17),#901);
#14=PROPERTY_DEFINITION('pmi validation property','',#906);
#15=PROPERTY_DEFINITION('pmi validation property','',#906);
#16=VALUE_REPRESENTATION_ITEM('number of annotations',COUNT_MEASURE(0.));
#17=VALUE_REPRESENTATION_ITEM('number of views',COUNT_MEASURE(0.));
#18=SHAPE_REPRESENTATION_RELATIONSHIP('','',#518,#19);
#19=ADVANCED_BREP_SHAPE_REPRESENTATION('',(#516),#901);
#20=CYLINDRICAL_SURFACE('',#546,0.001);
#21=CYLINDRICAL_SURFACE('',#551,0.001);
#22=CYLINDRICAL_SURFACE('',#556,0.001);
#23=CYLINDRICAL_SURFACE('',#561,0.001);
#24=CYLINDRICAL_SURFACE('',#566,0.001);
#25=CYLINDRICAL_SURFACE('',#571,0.001);
#26=B_SPLINE_CURVE_WITH_KNOTS('',3,(#767,#768,#769,#770),.UNSPECIFIED.,
 .F.,.F.,(4,4),(2.02097670090842E-7,0.00323372584646622),.UNSPECIFIED.);
#27=B_SPLINE_CURVE_WITH_KNOTS('',3,(#774,#775,#776,#777),.UNSPECIFIED.,
 .F.,.F.,(4,4),(2.02092886877414E-7,0.00323372584168301),.UNSPECIFIED.);
#28=B_SPLINE_CURVE_WITH_KNOTS('',3,(#778,#779,#780,#781),.UNSPECIFIED.,
 .F.,.F.,(4,4),(2.02097670087409E-7,0.00323372584646622),.UNSPECIFIED.);
#29=B_SPLINE_CURVE_WITH_KNOTS('',3,(#785,#786,#787,#788),.UNSPECIFIED.,
 .F.,.F.,(4,4),(0.00811957643019937,0.0113531001778266),.UNSPECIFIED.);
#30=B_SPLINE_CURVE_WITH_KNOTS('',3,(#789,#790,#791,#792),.UNSPECIFIED.,
 .F.,.F.,(4,4),(0.00812025958563819,0.0113537833332654),.UNSPECIFIED.);
#31=B_SPLINE_CURVE_WITH_KNOTS('',3,(#796,#797,#798,#799),.UNSPECIFIED.,
 .F.,.F.,(4,4),(2.02092886873703E-7,0.003233725841683),.UNSPECIFIED.);
#32=B_SPLINE_CURVE_WITH_KNOTS('',3,(#800,#801,#802,#803),.UNSPECIFIED.,
 .F.,.F.,(4,4),(2.02097670090842E-7,0.00323372584646622),.UNSPECIFIED.);
#33=B_SPLINE_CURVE_WITH_KNOTS('',3,(#807,#808,#809,#810),.UNSPECIFIED.,
 .F.,.F.,(4,4),(2.02092886877414E-7,0.00323372584168301),.UNSPECIFIED.);
#34=B_SPLINE_CURVE_WITH_KNOTS('',3,(#811,#812,#813,#814),.UNSPECIFIED.,
 .F.,.F.,(4,4),(2.02097670090842E-7,0.00323372584646622),.UNSPECIFIED.);
#35=B_SPLINE_CURVE_WITH_KNOTS('',3,(#818,#819,#820,#821),.UNSPECIFIED.,
 .F.,.F.,(4,4),(0.00811957643019939,0.0113531001778266),.UNSPECIFIED.);
#36=B_SPLINE_CURVE_WITH_KNOTS('',3,(#822,#823,#824,#825),.UNSPECIFIED.,
 .F.,.F.,(4,4),(0.00812025958563819,0.0113537833332654),.UNSPECIFIED.);
#37=B_SPLINE_CURVE_WITH_KNOTS('',3,(#829,#830,#831,#832),.UNSPECIFIED.,
 .F.,.F.,(4,4),(2.02092886870269E-7,0.003233725841683),.UNSPECIFIED.);
#38=CONICAL_SURFACE('',#533,0.013,0.141897054604162);
#39=CIRCLE('',#521,0.013);
#40=CIRCLE('',#522,0.001);
#41=CIRCLE('',#523,0.013);
#42=CIRCLE('',#524,0.001);
#43=CIRCLE('',#525,0.013);
#44=CIRCLE('',#526,0.001);
#45=CIRCLE('',#527,0.013);
#46=CIRCLE('',#528,0.001);
#47=CIRCLE('',#529,0.013);
#48=CIRCLE('',#530,0.001);
#49=CIRCLE('',#531,0.013);
#50=CIRCLE('',#532,0.001);
#51=CIRCLE('',#534,0.0124);
#52=CIRCLE('',#535,0.0125428571428571);
#53=CIRCLE('',#536,0.0125428571428571);
#54=CIRCLE('',#537,0.0125428571428571);
#55=CIRCLE('',#538,0.0125428571428571);
#56=CIRCLE('',#539,0.0125428571428571);
#57=CIRCLE('',#540,0.0125428571428571);
#58=CIRCLE('',#545,0.001);
#59=CIRCLE('',#550,0.001);
#60=CIRCLE('',#555,0.001);
#61=CIRCLE('',#560,0.001);
#62=CIRCLE('',#565,0.001);
#63=CIRCLE('',#570,0.001);
#64=ORIENTED_EDGE('',*,*,#210,.T.);
#65=ORIENTED_EDGE('',*,*,#211,.T.);
#66=ORIENTED_EDGE('',*,*,#212,.T.);
#67=ORIENTED_EDGE('',*,*,#213,.T.);
#68=ORIENTED_EDGE('',*,*,#214,.T.);
#69=ORIENTED_EDGE('',*,*,#215,.T.);
#70=ORIENTED_EDGE('',*,*,#216,.T.);
#71=ORIENTED_EDGE('',*,*,#217,.T.);
#72=ORIENTED_EDGE('',*,*,#218,.T.);
#73=ORIENTED_EDGE('',*,*,#219,.T.);
#74=ORIENTED_EDGE('',*,*,#220,.T.);
#75=ORIENTED_EDGE('',*,*,#221,.T.);
#76=ORIENTED_EDGE('',*,*,#222,.T.);
#77=ORIENTED_EDGE('',*,*,#223,.T.);
#78=ORIENTED_EDGE('',*,*,#224,.T.);
#79=ORIENTED_EDGE('',*,*,#225,.T.);
#80=ORIENTED_EDGE('',*,*,#226,.T.);
#81=ORIENTED_EDGE('',*,*,#227,.T.);
#82=ORIENTED_EDGE('',*,*,#228,.T.);
#83=ORIENTED_EDGE('',*,*,#229,.T.);
#84=ORIENTED_EDGE('',*,*,#230,.T.);
#85=ORIENTED_EDGE('',*,*,#231,.T.);
#86=ORIENTED_EDGE('',*,*,#232,.T.);
#87=ORIENTED_EDGE('',*,*,#233,.T.);
#88=ORIENTED_EDGE('',*,*,#234,.F.);
#89=ORIENTED_EDGE('',*,*,#235,.F.);
#90=ORIENTED_EDGE('',*,*,#236,.F.);
#91=ORIENTED_EDGE('',*,*,#237,.F.);
#92=ORIENTED_EDGE('',*,*,#231,.F.);
#93=ORIENTED_EDGE('',*,*,#238,.F.);
#94=ORIENTED_EDGE('',*,*,#239,.F.);
#95=ORIENTED_EDGE('',*,*,#240,.F.);
#96=ORIENTED_EDGE('',*,*,#227,.F.);
#97=ORIENTED_EDGE('',*,*,#241,.F.);
#98=ORIENTED_EDGE('',*,*,#242,.F.);
#99=ORIENTED_EDGE('',*,*,#243,.F.);
#100=ORIENTED_EDGE('',*,*,#223,.F.);
#101=ORIENTED_EDGE('',*,*,#244,.F.);
#102=ORIENTED_EDGE('',*,*,#245,.F.);
#103=ORIENTED_EDGE('',*,*,#246,.F.);
#104=ORIENTED_EDGE('',*,*,#219,.F.);
#105=ORIENTED_EDGE('',*,*,#247,.F.);
#106=ORIENTED_EDGE('',*,*,#248,.F.);
#107=ORIENTED_EDGE('',*,*,#249,.F.);
#108=ORIENTED_EDGE('',*,*,#215,.F.);
#109=ORIENTED_EDGE('',*,*,#250,.F.);
#110=ORIENTED_EDGE('',*,*,#251,.F.);
#111=ORIENTED_EDGE('',*,*,#252,.F.);
#112=ORIENTED_EDGE('',*,*,#211,.F.);
#113=ORIENTED_EDGE('',*,*,#234,.T.);
#114=ORIENTED_EDGE('',*,*,#244,.T.);
#115=ORIENTED_EDGE('',*,*,#222,.F.);
#116=ORIENTED_EDGE('',*,*,#253,.F.);
#117=ORIENTED_EDGE('',*,*,#254,.F.);
#118=ORIENTED_EDGE('',*,*,#246,.T.);
#119=ORIENTED_EDGE('',*,*,#255,.F.);
#120=ORIENTED_EDGE('',*,*,#256,.T.);
#121=ORIENTED_EDGE('',*,*,#220,.F.);
#122=ORIENTED_EDGE('',*,*,#245,.T.);
#123=ORIENTED_EDGE('',*,*,#254,.T.);
#124=ORIENTED_EDGE('',*,*,#257,.T.);
#125=ORIENTED_EDGE('',*,*,#255,.T.);
#126=ORIENTED_EDGE('',*,*,#253,.T.);
#127=ORIENTED_EDGE('',*,*,#221,.F.);
#128=ORIENTED_EDGE('',*,*,#256,.F.);
#129=ORIENTED_EDGE('',*,*,#257,.F.);
#130=ORIENTED_EDGE('',*,*,#241,.T.);
#131=ORIENTED_EDGE('',*,*,#226,.F.);
#132=ORIENTED_EDGE('',*,*,#258,.F.);
#133=ORIENTED_EDGE('',*,*,#259,.F.);
#134=ORIENTED_EDGE('',*,*,#243,.T.);
#135=ORIENTED_EDGE('',*,*,#260,.F.);
#136=ORIENTED_EDGE('',*,*,#261,.T.);
#137=ORIENTED_EDGE('',*,*,#224,.F.);
#138=ORIENTED_EDGE('',*,*,#242,.T.);
#139=ORIENTED_EDGE('',*,*,#259,.T.);
#140=ORIENTED_EDGE('',*,*,#262,.T.);
#141=ORIENTED_EDGE('',*,*,#260,.T.);
#142=ORIENTED_EDGE('',*,*,#258,.T.);
#143=ORIENTED_EDGE('',*,*,#225,.F.);
#144=ORIENTED_EDGE('',*,*,#261,.F.);
#145=ORIENTED_EDGE('',*,*,#262,.F.);
#146=ORIENTED_EDGE('',*,*,#247,.T.);
#147=ORIENTED_EDGE('',*,*,#218,.F.);
#148=ORIENTED_EDGE('',*,*,#263,.F.);
#149=ORIENTED_EDGE('',*,*,#264,.F.);
#150=ORIENTED_EDGE('',*,*,#249,.T.);
#151=ORIENTED_EDGE('',*,*,#265,.F.);
#152=ORIENTED_EDGE('',*,*,#266,.T.);
#153=ORIENTED_EDGE('',*,*,#216,.F.);
#154=ORIENTED_EDGE('',*,*,#248,.T.);
#155=ORIENTED_EDGE('',*,*,#264,.T.);
#156=ORIENTED_EDGE('',*,*,#267,.T.);
#157=ORIENTED_EDGE('',*,*,#265,.T.);
#158=ORIENTED_EDGE('',*,*,#263,.T.);
#159=ORIENTED_EDGE('',*,*,#217,.F.);
#160=ORIENTED_EDGE('',*,*,#266,.F.);
#161=ORIENTED_EDGE('',*,*,#267,.F.);
#162=ORIENTED_EDGE('',*,*,#250,.T.);
#163=ORIENTED_EDGE('',*,*,#214,.F.);
#164=ORIENTED_EDGE('',*,*,#268,.F.);
#165=ORIENTED_EDGE('',*,*,#269,.F.);
#166=ORIENTED_EDGE('',*,*,#252,.T.);
#167=ORIENTED_EDGE('',*,*,#270,.F.);
#168=ORIENTED_EDGE('',*,*,#271,.T.);
#169=ORIENTED_EDGE('',*,*,#212,.F.);
#170=ORIENTED_EDGE('',*,*,#251,.T.);
#171=ORIENTED_EDGE('',*,*,#269,.T.);
#172=ORIENTED_EDGE('',*,*,#272,.T.);
#173=ORIENTED_EDGE('',*,*,#270,.T.);
#174=ORIENTED_EDGE('',*,*,#268,.T.);
#175=ORIENTED_EDGE('',*,*,#213,.F.);
#176=ORIENTED_EDGE('',*,*,#271,.F.);
#177=ORIENTED_EDGE('',*,*,#272,.F.);
#178=ORIENTED_EDGE('',*,*,#238,.T.);
#179=ORIENTED_EDGE('',*,*,#230,.F.);
#180=ORIENTED_EDGE('',*,*,#273,.F.);
#181=ORIENTED_EDGE('',*,*,#274,.F.);
#182=ORIENTED_EDGE('',*,*,#240,.T.);
#183=ORIENTED_EDGE('',*,*,#275,.F.);
#184=ORIENTED_EDGE('',*,*,#276,.T.);
#185=ORIENTED_EDGE('',*,*,#228,.F.);
#186=ORIENTED_EDGE('',*,*,#239,.T.);
#187=ORIENTED_EDGE('',*,*,#274,.T.);
#188=ORIENTED_EDGE('',*,*,#277,.T.);
#189=ORIENTED_EDGE('',*,*,#275,.T.);
#190=ORIENTED_EDGE('',*,*,#273,.T.);
#191=ORIENTED_EDGE('',*,*,#229,.F.);
#192=ORIENTED_EDGE('',*,*,#276,.F.);
#193=ORIENTED_EDGE('',*,*,#277,.F.);
#194=ORIENTED_EDGE('',*,*,#235,.T.);
#195=ORIENTED_EDGE('',*,*,#210,.F.);
#196=ORIENTED_EDGE('',*,*,#278,.F.);
#197=ORIENTED_EDGE('',*,*,#279,.F.);
#198=ORIENTED_EDGE('',*,*,#237,.T.);
#199=ORIENTED_EDGE('',*,*,#280,.F.);
#200=ORIENTED_EDGE('',*,*,#281,.T.);
#201=ORIENTED_EDGE('',*,*,#232,.F.);
#202=ORIENTED_EDGE('',*,*,#236,.T.);
#203=ORIENTED_EDGE('',*,*,#279,.T.);
#204=ORIENTED_EDGE('',*,*,#282,.T.);
#205=ORIENTED_EDGE('',*,*,#280,.T.);
#206=ORIENTED_EDGE('',*,*,#278,.T.);
#207=ORIENTED_EDGE('',*,*,#233,.F.);
#208=ORIENTED_EDGE('',*,*,#281,.F.);
#209=ORIENTED_EDGE('',*,*,#282,.F.);
#210=EDGE_CURVE('',#283,#284,#332,.T.);
#211=EDGE_CURVE('',#284,#285,#39,.T.);
#212=EDGE_CURVE('',#285,#286,#333,.T.);
#213=EDGE_CURVE('',#286,#287,#40,.T.);
#214=EDGE_CURVE('',#287,#288,#334,.T.);
#215=EDGE_CURVE('',#288,#289,#41,.T.);
#216=EDGE_CURVE('',#289,#290,#335,.T.);
#217=EDGE_CURVE('',#290,#291,#42,.T.);
#218=EDGE_CURVE('',#291,#292,#336,.T.);
#219=EDGE_CURVE('',#292,#293,#43,.T.);
#220=EDGE_CURVE('',#293,#294,#337,.T.);
#221=EDGE_CURVE('',#294,#295,#44,.T.);
#222=EDGE_CURVE('',#295,#296,#338,.T.);
#223=EDGE_CURVE('',#296,#297,#45,.T.);
#224=EDGE_CURVE('',#297,#298,#339,.T.);
#225=EDGE_CURVE('',#298,#299,#46,.T.);
#226=EDGE_CURVE('',#299,#300,#340,.T.);
#227=EDGE_CURVE('',#300,#301,#47,.T.);
#228=EDGE_CURVE('',#301,#302,#341,.T.);
#229=EDGE_CURVE('',#302,#303,#48,.T.);
#230=EDGE_CURVE('',#303,#304,#342,.T.);
#231=EDGE_CURVE('',#304,#305,#49,.T.);
#232=EDGE_CURVE('',#305,#306,#343,.T.);
#233=EDGE_CURVE('',#306,#283,#50,.T.);
#234=EDGE_CURVE('',#307,#307,#51,.T.);
#235=EDGE_CURVE('',#308,#284,#26,.T.);
#236=EDGE_CURVE('',#309,#308,#52,.T.);
#237=EDGE_CURVE('',#305,#309,#27,.T.);
#238=EDGE_CURVE('',#310,#304,#28,.T.);
#239=EDGE_CURVE('',#311,#310,#53,.T.);
#240=EDGE_CURVE('',#301,#311,#29,.T.);
#241=EDGE_CURVE('',#312,#300,#30,.T.);
#242=EDGE_CURVE('',#313,#312,#54,.T.);
#243=EDGE_CURVE('',#297,#313,#31,.T.);
#244=EDGE_CURVE('',#314,#296,#32,.T.);
#245=EDGE_CURVE('',#315,#314,#55,.T.);
#246=EDGE_CURVE('',#293,#315,#33,.T.);
#247=EDGE_CURVE('',#316,#292,#34,.T.);
#248=EDGE_CURVE('',#317,#316,#56,.T.);
#249=EDGE_CURVE('',#289,#317,#35,.T.);
#250=EDGE_CURVE('',#318,#288,#36,.T.);
#251=EDGE_CURVE('',#319,#318,#57,.T.);
#252=EDGE_CURVE('',#285,#319,#37,.T.);
#253=EDGE_CURVE('',#320,#295,#344,.T.);
#254=EDGE_CURVE('',#314,#320,#345,.T.);
#255=EDGE_CURVE('',#321,#315,#346,.T.);
#256=EDGE_CURVE('',#321,#294,#347,.T.);
#257=EDGE_CURVE('',#320,#321,#58,.T.);
#258=EDGE_CURVE('',#322,#299,#348,.T.);
#259=EDGE_CURVE('',#312,#322,#349,.T.);
#260=EDGE_CURVE('',#323,#313,#350,.T.);
#261=EDGE_CURVE('',#323,#298,#351,.T.);
#262=EDGE_CURVE('',#322,#323,#59,.T.);
#263=EDGE_CURVE('',#324,#291,#352,.T.);
#264=EDGE_CURVE('',#316,#324,#353,.T.);
#265=EDGE_CURVE('',#325,#317,#354,.T.);
#266=EDGE_CURVE('',#325,#290,#355,.T.);
#267=EDGE_CURVE('',#324,#325,#60,.T.);
#268=EDGE_CURVE('',#326,#287,#356,.T.);
#269=EDGE_CURVE('',#318,#326,#357,.T.);
#270=EDGE_CURVE('',#327,#319,#358,.T.);
#271=EDGE_CURVE('',#327,#286,#359,.T.);
#272=EDGE_CURVE('',#326,#327,#61,.T.);
#273=EDGE_CURVE('',#328,#303,#360,.T.);
#274=EDGE_CURVE('',#310,#328,#361,.T.);
#275=EDGE_CURVE('',#329,#311,#362,.T.);
#276=EDGE_CURVE('',#329,#302,#363,.T.);
#277=EDGE_CURVE('',#328,#329,#62,.T.);
#278=EDGE_CURVE('',#330,#283,#364,.T.);
#279=EDGE_CURVE('',#308,#330,#365,.T.);
#280=EDGE_CURVE('',#331,#309,#366,.T.);
#281=EDGE_CURVE('',#331,#306,#367,.T.);
#282=EDGE_CURVE('',#330,#331,#63,.T.);
#283=VERTEX_POINT('',#717);
#284=VERTEX_POINT('',#718);
#285=VERTEX_POINT('',#720);
#286=VERTEX_POINT('',#722);
#287=VERTEX_POINT('',#724);
#288=VERTEX_POINT('',#726);
#289=VERTEX_POINT('',#728);
#290=VERTEX_POINT('',#730);
#291=VERTEX_POINT('',#732);
#292=VERTEX_POINT('',#734);
#293=VERTEX_POINT('',#736);
#294=VERTEX_POINT('',#738);
#295=VERTEX_POINT('',#740);
#296=VERTEX_POINT('',#742);
#297=VERTEX_POINT('',#744);
#298=VERTEX_POINT('',#746);
#299=VERTEX_POINT('',#748);
#300=VERTEX_POINT('',#750);
#301=VERTEX_POINT('',#752);
#302=VERTEX_POINT('',#754);
#303=VERTEX_POINT('',#756);
#304=VERTEX_POINT('',#758);
#305=VERTEX_POINT('',#760);
#306=VERTEX_POINT('',#762);
#307=VERTEX_POINT('',#766);
#308=VERTEX_POINT('',#771);
#309=VERTEX_POINT('',#773);
#310=VERTEX_POINT('',#782);
#311=VERTEX_POINT('',#784);
#312=VERTEX_POINT('',#793);
#313=VERTEX_POINT('',#795);
#314=VERTEX_POINT('',#804);
#315=VERTEX_POINT('',#806);
#316=VERTEX_POINT('',#815);
#317=VERTEX_POINT('',#817);
#318=VERTEX_POINT('',#826);
#319=VERTEX_POINT('',#828);
#320=VERTEX_POINT('',#836);
#321=VERTEX_POINT('',#840);
#322=VERTEX_POINT('',#847);
#323=VERTEX_POINT('',#851);
#324=VERTEX_POINT('',#858);
#325=VERTEX_POINT('',#862);
#326=VERTEX_POINT('',#869);
#327=VERTEX_POINT('',#873);
#328=VERTEX_POINT('',#880);
#329=VERTEX_POINT('',#884);
#330=VERTEX_POINT('',#891);
#331=VERTEX_POINT('',#895);
#332=LINE('',#716,#368);
#333=LINE('',#721,#369);
#334=LINE('',#725,#370);
#335=LINE('',#729,#371);
#336=LINE('',#733,#372);
#337=LINE('',#737,#373);
#338=LINE('',#741,#374);
#339=LINE('',#745,#375);
#340=LINE('',#749,#376);
#341=LINE('',#753,#377);
#342=LINE('',#757,#378);
#343=LINE('',#761,#379);
#344=LINE('',#835,#380);
#345=LINE('',#837,#381);
#346=LINE('',#839,#382);
#347=LINE('',#841,#383);
#348=LINE('',#846,#384);
#349=LINE('',#848,#385);
#350=LINE('',#850,#386);
#351=LINE('',#852,#387);
#352=LINE('',#857,#388);
#353=LINE('',#859,#389);
#354=LINE('',#861,#390);
#355=LINE('',#863,#391);
#356=LINE('',#868,#392);
#357=LINE('',#870,#393);
#358=LINE('',#872,#394);
#359=LINE('',#874,#395);
#360=LINE('',#879,#396);
#361=LINE('',#881,#397);
#362=LINE('',#883,#398);
#363=LINE('',#885,#399);
#364=LINE('',#890,#400);
#365=LINE('',#892,#401);
#366=LINE('',#894,#402);
#367=LINE('',#896,#403);
#368=VECTOR('',#576,1.);
#369=VECTOR('',#579,1.);
#370=VECTOR('',#582,1.);
#371=VECTOR('',#585,1.);
#372=VECTOR('',#588,1.);
#373=VECTOR('',#591,1.);
#374=VECTOR('',#594,1.);
#375=VECTOR('',#597,1.);
#376=VECTOR('',#600,1.);
#377=VECTOR('',#603,1.);
#378=VECTOR('',#606,1.);
#379=VECTOR('',#609,1.);
#380=VECTOR('',#632,1.);
#381=VECTOR('',#633,1.);
#382=VECTOR('',#636,1.);
#383=VECTOR('',#637,1.);
#384=VECTOR('',#646,1.);
#385=VECTOR('',#647,1.);
#386=VECTOR('',#650,1.);
#387=VECTOR('',#651,1.);
#388=VECTOR('',#660,1.);
#389=VECTOR('',#661,1.);
#390=VECTOR('',#664,1.);
#391=VECTOR('',#665,1.);
#392=VECTOR('',#674,1.);
#393=VECTOR('',#675,1.);
#394=VECTOR('',#678,1.);
#395=VECTOR('',#679,1.);
#396=VECTOR('',#688,1.);
#397=VECTOR('',#689,1.);
#398=VECTOR('',#692,1.);
#399=VECTOR('',#693,1.);
#400=VECTOR('',#702,1.);
#401=VECTOR('',#703,1.);
#402=VECTOR('',#706,1.);
#403=VECTOR('',#707,1.);
#404=EDGE_LOOP('',(#64,#65,#66,#67,#68,#69,#70,#71,#72,#73,#74,#75,#76,
#77,#78,#79,#80,#81,#82,#83,#84,#85,#86,#87));
#405=EDGE_LOOP('',(#88));
#406=EDGE_LOOP('',(#89,#90,#91,#92,#93,#94,#95,#96,#97,#98,#99,#100,#101,
#102,#103,#104,#105,#106,#107,#108,#109,#110,#111,#112));
#407=EDGE_LOOP('',(#113));
#408=EDGE_LOOP('',(#114,#115,#116,#117));
#409=EDGE_LOOP('',(#118,#119,#120,#121));
#410=EDGE_LOOP('',(#122,#123,#124,#125));
#411=EDGE_LOOP('',(#126,#127,#128,#129));
#412=EDGE_LOOP('',(#130,#131,#132,#133));
#413=EDGE_LOOP('',(#134,#135,#136,#137));
#414=EDGE_LOOP('',(#138,#139,#140,#141));
#415=EDGE_LOOP('',(#142,#143,#144,#145));
#416=EDGE_LOOP('',(#146,#147,#148,#149));
#417=EDGE_LOOP('',(#150,#151,#152,#153));
#418=EDGE_LOOP('',(#154,#155,#156,#157));
#419=EDGE_LOOP('',(#158,#159,#160,#161));
#420=EDGE_LOOP('',(#162,#163,#164,#165));
#421=EDGE_LOOP('',(#166,#167,#168,#169));
#422=EDGE_LOOP('',(#170,#171,#172,#173));
#423=EDGE_LOOP('',(#174,#175,#176,#177));
#424=EDGE_LOOP('',(#178,#179,#180,#181));
#425=EDGE_LOOP('',(#182,#183,#184,#185));
#426=EDGE_LOOP('',(#186,#187,#188,#189));
#427=EDGE_LOOP('',(#190,#191,#192,#193));
#428=EDGE_LOOP('',(#194,#195,#196,#197));
#429=EDGE_LOOP('',(#198,#199,#200,#201));
#430=EDGE_LOOP('',(#202,#203,#204,#205));
#431=EDGE_LOOP('',(#206,#207,#208,#209));
#432=FACE_BOUND('',#404,.T.);
#433=FACE_BOUND('',#405,.T.);
#434=FACE_BOUND('',#406,.T.);
#435=FACE_BOUND('',#407,.T.);
#436=FACE_BOUND('',#408,.T.);
#437=FACE_BOUND('',#409,.T.);
#438=FACE_BOUND('',#410,.T.);
#439=FACE_BOUND('',#411,.T.);
#440=FACE_BOUND('',#412,.T.);
#441=FACE_BOUND('',#413,.T.);
#442=FACE_BOUND('',#414,.T.);
#443=FACE_BOUND('',#415,.T.);
#444=FACE_BOUND('',#416,.T.);
#445=FACE_BOUND('',#417,.T.);
#446=FACE_BOUND('',#418,.T.);
#447=FACE_BOUND('',#419,.T.);
#448=FACE_BOUND('',#420,.T.);
#449=FACE_BOUND('',#421,.T.);
#450=FACE_BOUND('',#422,.T.);
#451=FACE_BOUND('',#423,.T.);
#452=FACE_BOUND('',#424,.T.);
#453=FACE_BOUND('',#425,.T.);
#454=FACE_BOUND('',#426,.T.);
#455=FACE_BOUND('',#427,.T.);
#456=FACE_BOUND('',#428,.T.);
#457=FACE_BOUND('',#429,.T.);
#458=FACE_BOUND('',#430,.T.);
#459=FACE_BOUND('',#431,.T.);
#460=PLANE('',#520);
#461=PLANE('',#541);
#462=PLANE('',#542);
#463=PLANE('',#543);
#464=PLANE('',#544);
#465=PLANE('',#547);
#466=PLANE('',#548);
#467=PLANE('',#549);
#468=PLANE('',#552);
#469=PLANE('',#553);
#470=PLANE('',#554);
#471=PLANE('',#557);
#472=PLANE('',#558);
#473=PLANE('',#559);
#474=PLANE('',#562);
#475=PLANE('',#563);
#476=PLANE('',#564);
#477=PLANE('',#567);
#478=PLANE('',#568);
#479=PLANE('',#569);
#480=ADVANCED_FACE('',(#432),#460,.F.);
#481=ADVANCED_FACE('',(#433,#434),#38,.T.);
#482=ADVANCED_FACE('',(#435),#461,.F.);
#483=ADVANCED_FACE('',(#436),#462,.T.);
#484=ADVANCED_FACE('',(#437),#463,.T.);
#485=ADVANCED_FACE('',(#438),#464,.T.);
#486=ADVANCED_FACE('',(#439),#20,.F.);
#487=ADVANCED_FACE('',(#440),#465,.T.);
#488=ADVANCED_FACE('',(#441),#466,.T.);
#489=ADVANCED_FACE('',(#442),#467,.T.);
#490=ADVANCED_FACE('',(#443),#21,.F.);
#491=ADVANCED_FACE('',(#444),#468,.T.);
#492=ADVANCED_FACE('',(#445),#469,.T.);
#493=ADVANCED_FACE('',(#446),#470,.T.);
#494=ADVANCED_FACE('',(#447),#22,.F.);
#495=ADVANCED_FACE('',(#448),#471,.T.);
#496=ADVANCED_FACE('',(#449),#472,.T.);
#497=ADVANCED_FACE('',(#450),#473,.T.);
#498=ADVANCED_FACE('',(#451),#23,.F.);
#499=ADVANCED_FACE('',(#452),#474,.T.);
#500=ADVANCED_FACE('',(#453),#475,.T.);
#501=ADVANCED_FACE('',(#454),#476,.T.);
#502=ADVANCED_FACE('',(#455),#24,.F.);
#503=ADVANCED_FACE('',(#456),#477,.T.);
#504=ADVANCED_FACE('',(#457),#478,.T.);
#505=ADVANCED_FACE('',(#458),#479,.T.);
#506=ADVANCED_FACE('',(#459),#25,.F.);
#507=CLOSED_SHELL('',(#480,#481,#482,#483,#484,#485,#486,#487,#488,#489,
#490,#491,#492,#493,#494,#495,#496,#497,#498,#499,#500,#501,#502,#503,#504,
#505,#506));
#508=STYLED_ITEM('',(#509),#516);
#509=PRESENTATION_STYLE_ASSIGNMENT((#510));
#510=SURFACE_STYLE_USAGE(.BOTH.,#511);
#511=SURFACE_SIDE_STYLE('',(#512));
#512=SURFACE_STYLE_FILL_AREA(#513);
#513=FILL_AREA_STYLE('',(#514));
#514=FILL_AREA_STYLE_COLOUR('',#515);
#515=DRAUGHTING_PRE_DEFINED_COLOUR('red');
#516=MANIFOLD_SOLID_BREP('CRM2413',#507);
#517=SHAPE_DEFINITION_REPRESENTATION(#906,#518);
#518=SHAPE_REPRESENTATION('CRM2413',(#519),#901);
#519=AXIS2_PLACEMENT_3D('',#714,#572,#573);
#520=AXIS2_PLACEMENT_3D('',#715,#574,#575);
#521=AXIS2_PLACEMENT_3D('',#719,#577,#578);
#522=AXIS2_PLACEMENT_3D('',#723,#580,#581);
#523=AXIS2_PLACEMENT_3D('',#727,#583,#584);
#524=AXIS2_PLACEMENT_3D('',#731,#586,#587);
#525=AXIS2_PLACEMENT_3D('',#735,#589,#590);
#526=AXIS2_PLACEMENT_3D('',#739,#592,#593);
#527=AXIS2_PLACEMENT_3D('',#743,#595,#596);
#528=AXIS2_PLACEMENT_3D('',#747,#598,#599);
#529=AXIS2_PLACEMENT_3D('',#751,#601,#602);
#530=AXIS2_PLACEMENT_3D('',#755,#604,#605);
#531=AXIS2_PLACEMENT_3D('',#759,#607,#608);
#532=AXIS2_PLACEMENT_3D('',#763,#610,#611);
#533=AXIS2_PLACEMENT_3D('',#764,#612,#613);
#534=AXIS2_PLACEMENT_3D('',#765,#614,#615);
#535=AXIS2_PLACEMENT_3D('',#772,#616,#617);
#536=AXIS2_PLACEMENT_3D('',#783,#618,#619);
#537=AXIS2_PLACEMENT_3D('',#794,#620,#621);
#538=AXIS2_PLACEMENT_3D('',#805,#622,#623);
#539=AXIS2_PLACEMENT_3D('',#816,#624,#625);
#540=AXIS2_PLACEMENT_3D('',#827,#626,#627);
#541=AXIS2_PLACEMENT_3D('',#833,#628,#629);
#542=AXIS2_PLACEMENT_3D('',#834,#630,#631);
#543=AXIS2_PLACEMENT_3D('',#838,#634,#635);
#544=AXIS2_PLACEMENT_3D('',#842,#638,#639);
#545=AXIS2_PLACEMENT_3D('',#843,#640,#641);
#546=AXIS2_PLACEMENT_3D('',#844,#642,#643);
#547=AXIS2_PLACEMENT_3D('',#845,#644,#645);
#548=AXIS2_PLACEMENT_3D('',#849,#648,#649);
#549=AXIS2_PLACEMENT_3D('',#853,#652,#653);
#550=AXIS2_PLACEMENT_3D('',#854,#654,#655);
#551=AXIS2_PLACEMENT_3D('',#855,#656,#657);
#552=AXIS2_PLACEMENT_3D('',#856,#658,#659);
#553=AXIS2_PLACEMENT_3D('',#860,#662,#663);
#554=AXIS2_PLACEMENT_3D('',#864,#666,#667);
#555=AXIS2_PLACEMENT_3D('',#865,#668,#669);
#556=AXIS2_PLACEMENT_3D('',#866,#670,#671);
#557=AXIS2_PLACEMENT_3D('',#867,#672,#673);
#558=AXIS2_PLACEMENT_3D('',#871,#676,#677);
#559=AXIS2_PLACEMENT_3D('',#875,#680,#681);
#560=AXIS2_PLACEMENT_3D('',#876,#682,#683);
#561=AXIS2_PLACEMENT_3D('',#877,#684,#685);
#562=AXIS2_PLACEMENT_3D('',#878,#686,#687);
#563=AXIS2_PLACEMENT_3D('',#882,#690,#691);
#564=AXIS2_PLACEMENT_3D('',#886,#694,#695);
#565=AXIS2_PLACEMENT_3D('',#887,#696,#697);
#566=AXIS2_PLACEMENT_3D('',#888,#698,#699);
#567=AXIS2_PLACEMENT_3D('',#889,#700,#701);
#568=AXIS2_PLACEMENT_3D('',#893,#704,#705);
#569=AXIS2_PLACEMENT_3D('',#897,#708,#709);
#570=AXIS2_PLACEMENT_3D('',#898,#710,#711);
#571=AXIS2_PLACEMENT_3D('',#899,#712,#713);
#572=DIRECTION('',(0.,0.,1.));
#573=DIRECTION('',(1.,0.,0.));
#574=DIRECTION('',(5.02897295806389E-18,-1.,0.));
#575=DIRECTION('',(1.,5.02897295806389E-18,0.));
#576=DIRECTION('',(-0.5,0.,-0.86602540378444));
#577=DIRECTION('',(-5.02897295806389E-18,1.,0.));
#578=DIRECTION('',(-1.,-5.02897295806389E-18,0.));
#579=DIRECTION('',(0.50000000000001,0.,0.866025403784433));
#580=DIRECTION('',(0.,-1.,0.));
#581=DIRECTION('',(-0.866025403784443,0.,-0.499999999999992));
#582=DIRECTION('',(-1.,0.,7.105427357601E-15));
#583=DIRECTION('',(-5.02897295806389E-18,1.,0.));
#584=DIRECTION('',(-1.,-5.02897295806389E-18,0.));
#585=DIRECTION('',(1.,0.,-1.39332989590457E-14));
#586=DIRECTION('',(0.,-1.,0.));
#587=DIRECTION('',(-0.866025403784433,0.,0.50000000000001));
#588=DIRECTION('',(-0.499999999999992,0.,0.866025403784443));
#589=DIRECTION('',(-5.02897295806389E-18,1.,0.));
#590=DIRECTION('',(-1.,-5.02897295806389E-18,0.));
#591=DIRECTION('',(0.5,0.,-0.86602540378444));
#592=DIRECTION('',(0.,-1.,0.));
#593=DIRECTION('',(0.,0.,1.));
#594=DIRECTION('',(0.5,0.,0.86602540378444));
#595=DIRECTION('',(-5.02897295806389E-18,1.,0.));
#596=DIRECTION('',(-1.,-5.02897295806389E-18,0.));
#597=DIRECTION('',(-0.5,0.,-0.866025403784436));
#598=DIRECTION('',(0.,-1.,0.));
#599=DIRECTION('',(0.86602540378444,0.,0.5));
#600=DIRECTION('',(1.,0.,-1.11022302462516E-16));
#601=DIRECTION('',(-5.02897295806389E-18,1.,0.));
#602=DIRECTION('',(-1.,-5.02897295806389E-18,0.));
#603=DIRECTION('',(-1.,0.,6.88338275267597E-15));
#604=DIRECTION('',(0.,-1.,0.));
#605=DIRECTION('',(0.866025403784436,0.,-0.5));
#606=DIRECTION('',(0.5,0.,-0.86602540378444));
#607=DIRECTION('',(-5.02897295806389E-18,1.,0.));
#608=DIRECTION('',(-1.,-5.02897295806389E-18,0.));
#609=DIRECTION('',(-0.5,0.,0.86602540378444));
#610=DIRECTION('',(0.,-1.,0.));
#611=DIRECTION('',(0.,0.,-1.));
#612=DIRECTION('',(0.,1.,0.));
#613=DIRECTION('',(0.,0.,1.));
#614=DIRECTION('',(0.,-1.,0.));
#615=DIRECTION('',(0.,0.,-1.));
#616=DIRECTION('',(0.,1.,0.));
#617=DIRECTION('',(0.,0.,1.));
#618=DIRECTION('',(0.,1.,0.));
#619=DIRECTION('',(0.,0.,1.));
#620=DIRECTION('',(0.,1.,0.));
#621=DIRECTION('',(0.,0.,1.));
#622=DIRECTION('',(0.,1.,0.));
#623=DIRECTION('',(0.,0.,1.));
#624=DIRECTION('',(0.,1.,0.));
#625=DIRECTION('',(0.,0.,1.));
#626=DIRECTION('',(0.,1.,0.));
#627=DIRECTION('',(0.,0.,1.));
#628=DIRECTION('',(0.,1.,0.));
#629=DIRECTION('',(0.,0.,1.));
#630=DIRECTION('',(-0.86602540378444,0.,0.5));
#631=DIRECTION('',(0.5,0.,0.86602540378444));
#632=DIRECTION('',(0.,1.,0.));
#633=DIRECTION('',(-0.5,0.,-0.86602540378444));
#634=DIRECTION('',(0.86602540378444,0.,0.5));
#635=DIRECTION('',(0.5,0.,-0.86602540378444));
#636=DIRECTION('',(-0.5,0.,0.86602540378444));
#637=DIRECTION('',(0.,1.,0.));
#638=DIRECTION('',(0.,1.,0.));
#639=DIRECTION('',(0.,0.,1.));
#640=DIRECTION('',(0.,1.,0.));
#641=DIRECTION('',(0.,0.,1.));
#642=DIRECTION('',(0.,1.,0.));
#643=DIRECTION('',(0.,0.,1.));
#644=DIRECTION('',(1.11022302462516E-16,0.,1.));
#645=DIRECTION('',(1.,0.,-1.11022302462516E-16));
#646=DIRECTION('',(0.,1.,0.));
#647=DIRECTION('',(-1.,0.,1.11022302462516E-16));
#648=DIRECTION('',(0.866025403784436,0.,-0.5));
#649=DIRECTION('',(-0.5,0.,-0.866025403784436));
#650=DIRECTION('',(0.5,0.,0.866025403784436));
#651=DIRECTION('',(0.,1.,0.));
#652=DIRECTION('',(0.,1.,0.));
#653=DIRECTION('',(0.,0.,1.));
#654=DIRECTION('',(0.,1.,0.));
#655=DIRECTION('',(0.,0.,1.));
#656=DIRECTION('',(0.,1.,0.));
#657=DIRECTION('',(0.,0.,1.));
#658=DIRECTION('',(-0.866025403784443,0.,-0.499999999999992));
#659=DIRECTION('',(-0.499999999999992,0.,0.866025403784443));
#660=DIRECTION('',(0.,1.,0.));
#661=DIRECTION('',(0.499999999999992,0.,-0.866025403784443));
#662=DIRECTION('',(1.39332989590457E-14,0.,1.));
#663=DIRECTION('',(1.,0.,-1.39332989590457E-14));
#664=DIRECTION('',(-1.,0.,1.39332989590457E-14));
#665=DIRECTION('',(0.,1.,0.));
#666=DIRECTION('',(0.,1.,0.));
#667=DIRECTION('',(0.,0.,1.));
#668=DIRECTION('',(0.,1.,0.));
#669=DIRECTION('',(0.,0.,1.));
#670=DIRECTION('',(0.,1.,0.));
#671=DIRECTION('',(0.,0.,1.));
#672=DIRECTION('',(-7.105427357601E-15,0.,-1.));
#673=DIRECTION('',(-1.,0.,7.105427357601E-15));
#674=DIRECTION('',(0.,1.,0.));
#675=DIRECTION('',(1.,0.,-7.105427357601E-15));
#676=DIRECTION('',(-0.866025403784433,0.,0.50000000000001));
#677=DIRECTION('',(0.50000000000001,0.,0.866025403784433));
#678=DIRECTION('',(-0.50000000000001,0.,-0.866025403784433));
#679=DIRECTION('',(0.,1.,0.));
#680=DIRECTION('',(0.,1.,0.));
#681=DIRECTION('',(0.,0.,1.));
#682=DIRECTION('',(0.,1.,0.));
#683=DIRECTION('',(0.,0.,1.));
#684=DIRECTION('',(0.,1.,0.));
#685=DIRECTION('',(0.,0.,1.));
#686=DIRECTION('',(0.86602540378444,0.,0.5));
#687=DIRECTION('',(0.5,0.,-0.86602540378444));
#688=DIRECTION('',(0.,1.,0.));
#689=DIRECTION('',(-0.5,0.,0.86602540378444));
#690=DIRECTION('',(-6.88338275267597E-15,0.,-1.));
#691=DIRECTION('',(-1.,0.,6.88338275267597E-15));
#692=DIRECTION('',(1.,0.,-6.88338275267597E-15));
#693=DIRECTION('',(0.,1.,0.));
#694=DIRECTION('',(0.,1.,0.));
#695=DIRECTION('',(0.,0.,1.));
#696=DIRECTION('',(0.,1.,0.));
#697=DIRECTION('',(0.,0.,1.));
#698=DIRECTION('',(0.,1.,0.));
#699=DIRECTION('',(0.,0.,1.));
#700=DIRECTION('',(0.86602540378444,0.,-0.5));
#701=DIRECTION('',(-0.5,0.,-0.86602540378444));
#702=DIRECTION('',(0.,1.,0.));
#703=DIRECTION('',(0.5,0.,0.86602540378444));
#704=DIRECTION('',(-0.86602540378444,0.,-0.5));
#705=DIRECTION('',(-0.5,0.,0.86602540378444));
#706=DIRECTION('',(0.5,0.,-0.86602540378444));
#707=DIRECTION('',(0.,1.,0.));
#708=DIRECTION('',(0.,1.,0.));
#709=DIRECTION('',(0.,0.,1.));
#710=DIRECTION('',(0.,1.,0.));
#711=DIRECTION('',(0.,0.,1.));
#712=DIRECTION('',(0.,1.,0.));
#713=DIRECTION('',(0.,0.,1.));
#714=CARTESIAN_POINT('',(0.,0.,0.));
#715=CARTESIAN_POINT('',(-0.013,-0.02065,0.));
#716=CARTESIAN_POINT('',(-0.000866025403784447,-0.02065,-0.006));
#717=CARTESIAN_POINT('',(-0.000866025403784447,-0.02065,-0.006));
#718=CARTESIAN_POINT('',(-0.00445334685513593,-0.02065,-0.0122134230168225));
#719=CARTESIAN_POINT('',(1.17426518570792E-19,-0.02065,0.));
#720=CARTESIAN_POINT('',(-0.00835046117216603,-0.02065,-0.00996342301682245));
#721=CARTESIAN_POINT('',(-0.00967061700892636,-0.02065,-0.01225));
#722=CARTESIAN_POINT('',(-0.00476313972081446,-0.02065,-0.00375));
#723=CARTESIAN_POINT('',(-0.00562916512459889,-0.02065,-0.00324999999999995));
#724=CARTESIAN_POINT('',(-0.00562916512459889,-0.02065,-0.00224999999999995));
#725=CARTESIAN_POINT('',(-0.00562916512459889,-0.02065,-0.00224999999999995));
#726=CARTESIAN_POINT('',(-0.0128038080273019,-0.02065,-0.0022499999999999));
#727=CARTESIAN_POINT('',(1.17426518570792E-19,-0.02065,0.));
#728=CARTESIAN_POINT('',(-0.0128038080273018,-0.02065,0.00225000000000017));
#729=CARTESIAN_POINT('',(-0.0154441197008224,-0.02065,0.00225000000000021));
#730=CARTESIAN_POINT('',(-0.00562916512459883,-0.02065,0.00225000000000007));
#731=CARTESIAN_POINT('',(-0.00562916512459882,-0.02065,0.00325000000000007));
#732=CARTESIAN_POINT('',(-0.00476313972081438,-0.02065,0.00375000000000007));
#733=CARTESIAN_POINT('',(-0.00476313972081438,-0.02065,0.00375000000000007));
#734=CARTESIAN_POINT('',(-0.00835046117216582,-0.02065,0.00996342301682263));
#735=CARTESIAN_POINT('',(1.17426518570792E-19,-0.02065,0.));
#736=CARTESIAN_POINT('',(-0.00445334685513593,-0.02065,0.0122134230168225));
#737=CARTESIAN_POINT('',(-0.00577350269189623,-0.02065,0.0145));
#738=CARTESIAN_POINT('',(-0.00086602540378444,-0.02065,0.006));
#739=CARTESIAN_POINT('',(0.,-0.02065,0.0065));
#740=CARTESIAN_POINT('',(0.000866025403784447,-0.02065,0.006));
#741=CARTESIAN_POINT('',(0.000866025403784447,-0.02065,0.006));
#742=CARTESIAN_POINT('',(0.00445334685513593,-0.02065,0.0122134230168225));
#743=CARTESIAN_POINT('',(1.17426518570792E-19,-0.02065,0.));
#744=CARTESIAN_POINT('',(0.00835046117216596,-0.02065,0.0099634230168225));
#745=CARTESIAN_POINT('',(0.00967061700892628,-0.02065,0.01225));
#746=CARTESIAN_POINT('',(0.00476313972081443,-0.02065,0.00375));
#747=CARTESIAN_POINT('',(0.00562916512459887,-0.02065,0.00325));
#748=CARTESIAN_POINT('',(0.00562916512459888,-0.02065,0.00225));
#749=CARTESIAN_POINT('',(0.00562916512459888,-0.02065,0.00225));
#750=CARTESIAN_POINT('',(0.0128038080273019,-0.02065,0.00225));
#751=CARTESIAN_POINT('',(1.17426518570792E-19,-0.02065,0.));
#752=CARTESIAN_POINT('',(0.0128038080273019,-0.02065,-0.00225000000000008));
#753=CARTESIAN_POINT('',(0.0154441197008225,-0.02065,-0.0022500000000001));
#754=CARTESIAN_POINT('',(0.00562916512459885,-0.02065,-0.00225000000000003));
#755=CARTESIAN_POINT('',(0.00562916512459885,-0.02065,-0.00325));
#756=CARTESIAN_POINT('',(0.00476313972081441,-0.02065,-0.00375));
#757=CARTESIAN_POINT('',(0.00476313972081441,-0.02065,-0.00375));
#758=CARTESIAN_POINT('',(0.00835046117216589,-0.02065,-0.00996342301682257));
#759=CARTESIAN_POINT('',(1.17426518570792E-19,-0.02065,0.));
#760=CARTESIAN_POINT('',(0.00445334685513593,-0.02065,-0.0122134230168225));
#761=CARTESIAN_POINT('',(0.00577350269189623,-0.02065,-0.0145));
#762=CARTESIAN_POINT('',(0.00086602540378444,-0.02065,-0.006));
#763=CARTESIAN_POINT('',(0.,-0.02065,-0.0065));
#764=CARTESIAN_POINT('',(0.,-0.02065,0.));
#765=CARTESIAN_POINT('',(0.,-0.02485,0.));
#766=CARTESIAN_POINT('',(0.,-0.02485,-0.0124));
#767=CARTESIAN_POINT('',(-0.0042211422933652,-0.02385,-0.0118112329180863));
#768=CARTESIAN_POINT('',(-0.00429858810322477,-0.0227833461885463,-0.0119453729955964));
#769=CARTESIAN_POINT('',(-0.00437598801840148,-0.0217166790558992,-0.012079433581184));
#770=CARTESIAN_POINT('',(-0.00445334685513595,-0.02065,-0.0122134230168225));
#771=CARTESIAN_POINT('',(-0.00422114229336518,-0.02385,-0.0118112329180863));
#772=CARTESIAN_POINT('',(0.,-0.02385,0.));
#773=CARTESIAN_POINT('',(0.00422114229336517,-0.02385,-0.0118112329180863));
#774=CARTESIAN_POINT('',(0.00445334685513593,-0.02065,-0.0122134230168226));
#775=CARTESIAN_POINT('',(0.00437598801840146,-0.0217166790558992,-0.012079433581184));
#776=CARTESIAN_POINT('',(0.00429858810322474,-0.0227833461885463,-0.0119453729955964));
#777=CARTESIAN_POINT('',(0.00422114229336517,-0.02385,-0.0118112329180863));
#778=CARTESIAN_POINT('',(0.00811825661039517,-0.02385,-0.00956123291808634));
#779=CARTESIAN_POINT('',(0.00819570242025473,-0.0227833461885463,-0.00969537299559642));
#780=CARTESIAN_POINT('',(0.00827310233543145,-0.0217166790558992,-0.00982943358118402));
#781=CARTESIAN_POINT('',(0.00835046117216592,-0.02065,-0.00996342301682255));
#782=CARTESIAN_POINT('',(0.00811825661039514,-0.02385,-0.00956123291808635));
#783=CARTESIAN_POINT('',(0.,-0.02385,0.));
#784=CARTESIAN_POINT('',(0.0123393989037603,-0.02385,-0.00225000000000008));
#785=CARTESIAN_POINT('',(0.0128038080273019,-0.02065,-0.00225000000000008));
#786=CARTESIAN_POINT('',(0.0126490903535,-0.0217166790581947,-0.00225000000000008));
#787=CARTESIAN_POINT('',(0.0124942905231336,-0.0227833461909281,-0.00225000000000008));
#788=CARTESIAN_POINT('',(0.0123393989037604,-0.02385,-0.00225000000000008));
#789=CARTESIAN_POINT('',(0.0123393989037604,-0.02385,0.00225));
#790=CARTESIAN_POINT('',(0.0124942905231336,-0.022783346190928,0.00225));
#791=CARTESIAN_POINT('',(0.0126490903535,-0.0217166790581947,0.00225));
#792=CARTESIAN_POINT('',(0.0128038080273019,-0.02065,0.00225));
#793=CARTESIAN_POINT('',(0.0123393989037604,-0.02385,0.00225));
#794=CARTESIAN_POINT('',(0.,-0.02385,0.));
#795=CARTESIAN_POINT('',(0.00811825661039521,-0.02385,0.0095612329180863));
#796=CARTESIAN_POINT('',(0.00835046117216596,-0.02065,0.00996342301682252));
#797=CARTESIAN_POINT('',(0.00827310233543148,-0.0217166790558992,0.00982943358118399));
#798=CARTESIAN_POINT('',(0.00819570242025477,-0.0227833461885463,0.00969537299559639));
#799=CARTESIAN_POINT('',(0.0081182566103952,-0.02385,0.00956123291808631));
#800=CARTESIAN_POINT('',(0.0042211422933652,-0.02385,0.0118112329180863));
#801=CARTESIAN_POINT('',(0.00429858810322477,-0.0227833461885463,0.0119453729955964));
#802=CARTESIAN_POINT('',(0.00437598801840148,-0.0217166790558992,0.012079433581184));
#803=CARTESIAN_POINT('',(0.00445334685513595,-0.02065,0.0122134230168225));
#804=CARTESIAN_POINT('',(0.00422114229336518,-0.02385,0.0118112329180863));
#805=CARTESIAN_POINT('',(0.,-0.02385,0.));
#806=CARTESIAN_POINT('',(-0.00422114229336517,-0.02385,0.0118112329180863));
#807=CARTESIAN_POINT('',(-0.00445334685513593,-0.02065,0.0122134230168226));
#808=CARTESIAN_POINT('',(-0.00437598801840146,-0.0217166790558992,0.012079433581184));
#809=CARTESIAN_POINT('',(-0.00429858810322474,-0.0227833461885463,0.0119453729955964));
#810=CARTESIAN_POINT('',(-0.00422114229336517,-0.02385,0.0118112329180863));
#811=CARTESIAN_POINT('',(-0.00811825661039508,-0.02385,0.00956123291808642));
#812=CARTESIAN_POINT('',(-0.00819570242025464,-0.0227833461885463,0.0096953729955965));
#813=CARTESIAN_POINT('',(-0.00827310233543136,-0.0217166790558992,0.0098294335811841));
#814=CARTESIAN_POINT('',(-0.00835046117216582,-0.02065,0.00996342301682263));
#815=CARTESIAN_POINT('',(-0.00811825661039507,-0.02385,0.00956123291808641));
#816=CARTESIAN_POINT('',(0.,-0.02385,0.));
#817=CARTESIAN_POINT('',(-0.0123393989037603,-0.02385,0.00225000000000016));
#818=CARTESIAN_POINT('',(-0.0128038080273018,-0.02065,0.00225000000000017));
#819=CARTESIAN_POINT('',(-0.0126490903535,-0.0217166790581947,0.00225000000000017));
#820=CARTESIAN_POINT('',(-0.0124942905231336,-0.0227833461909281,0.00225000000000017));
#821=CARTESIAN_POINT('',(-0.0123393989037603,-0.02385,0.00225000000000017));
#822=CARTESIAN_POINT('',(-0.0123393989037604,-0.02385,-0.0022499999999999));
#823=CARTESIAN_POINT('',(-0.0124942905231337,-0.022783346190928,-0.0022499999999999));
#824=CARTESIAN_POINT('',(-0.0126490903535,-0.0217166790581947,-0.0022499999999999));
#825=CARTESIAN_POINT('',(-0.0128038080273019,-0.02065,-0.0022499999999999));
#826=CARTESIAN_POINT('',(-0.0123393989037604,-0.02385,-0.0022499999999999));
#827=CARTESIAN_POINT('',(0.,-0.02385,0.));
#828=CARTESIAN_POINT('',(-0.00811825661039527,-0.02385,-0.00956123291808624));
#829=CARTESIAN_POINT('',(-0.00835046117216599,-0.02065,-0.00996342301682249));
#830=CARTESIAN_POINT('',(-0.00827310233543152,-0.0217166790558992,-0.00982943358118396));
#831=CARTESIAN_POINT('',(-0.0081957024202548,-0.0227833461885463,-0.00969537299559637));
#832=CARTESIAN_POINT('',(-0.00811825661039523,-0.02385,-0.00956123291808628));
#833=CARTESIAN_POINT('',(-0.0124,-0.02485,0.));
#834=CARTESIAN_POINT('',(0.000866025403784447,-0.0394901275039985,0.006));
#835=CARTESIAN_POINT('',(0.000866025403784447,-0.0394901275039985,0.006));
#836=CARTESIAN_POINT('',(0.000866025403784447,-0.02385,0.006));
#837=CARTESIAN_POINT('',(0.000866025403784447,-0.02385,0.006));
#838=CARTESIAN_POINT('',(-0.00577350269189623,-0.0394901275039985,0.0145));
#839=CARTESIAN_POINT('',(-0.00577350269189623,-0.02385,0.0145));
#840=CARTESIAN_POINT('',(-0.00086602540378444,-0.02385,0.006));
#841=CARTESIAN_POINT('',(-0.00086602540378444,-0.0394901275039985,0.006));
#842=CARTESIAN_POINT('',(-0.0124,-0.02385,0.));
#843=CARTESIAN_POINT('',(0.,-0.02385,0.0065));
#844=CARTESIAN_POINT('',(0.,-0.0394901275039985,0.0065));
#845=CARTESIAN_POINT('',(0.00562916512459888,-0.0395796721784899,0.00225));
#846=CARTESIAN_POINT('',(0.00562916512459888,-0.0395796721784899,0.00225));
#847=CARTESIAN_POINT('',(0.00562916512459888,-0.02385,0.00225));
#848=CARTESIAN_POINT('',(0.00562916512459888,-0.02385,0.00225));
#849=CARTESIAN_POINT('',(0.00967061700892628,-0.0395796721784899,0.01225));
#850=CARTESIAN_POINT('',(0.00967061700892628,-0.02385,0.01225));
#851=CARTESIAN_POINT('',(0.00476313972081443,-0.02385,0.00375));
#852=CARTESIAN_POINT('',(0.00476313972081443,-0.0395796721784899,0.00375));
#853=CARTESIAN_POINT('',(-0.0124,-0.02385,0.));
#854=CARTESIAN_POINT('',(0.00562916512459887,-0.02385,0.00325));
#855=CARTESIAN_POINT('',(0.00562916512459887,-0.0395796721784899,0.00325));
#856=CARTESIAN_POINT('',(-0.00476313972081438,-0.03957967217849,0.00375000000000007));
#857=CARTESIAN_POINT('',(-0.00476313972081438,-0.03957967217849,0.00375000000000007));
#858=CARTESIAN_POINT('',(-0.00476313972081438,-0.02385,0.00375000000000007));
#859=CARTESIAN_POINT('',(-0.00476313972081438,-0.02385,0.00375000000000007));
#860=CARTESIAN_POINT('',(-0.0154441197008224,-0.03957967217849,0.00225000000000021));
#861=CARTESIAN_POINT('',(-0.0154441197008224,-0.02385,0.00225000000000021));
#862=CARTESIAN_POINT('',(-0.00562916512459883,-0.02385,0.00225000000000007));
#863=CARTESIAN_POINT('',(-0.00562916512459883,-0.03957967217849,0.00225000000000007));
#864=CARTESIAN_POINT('',(-0.0124,-0.02385,0.));
#865=CARTESIAN_POINT('',(-0.00562916512459882,-0.02385,0.00325000000000007));
#866=CARTESIAN_POINT('',(-0.00562916512459882,-0.03957967217849,0.00325000000000007));
#867=CARTESIAN_POINT('',(-0.00562916512459889,-0.0395796721784899,-0.00224999999999995));
#868=CARTESIAN_POINT('',(-0.00562916512459889,-0.0395796721784899,-0.00224999999999995));
#869=CARTESIAN_POINT('',(-0.00562916512459889,-0.02385,-0.00224999999999995));
#870=CARTESIAN_POINT('',(-0.00562916512459889,-0.02385,-0.00224999999999995));
#871=CARTESIAN_POINT('',(-0.00967061700892636,-0.0395796721784899,-0.01225));
#872=CARTESIAN_POINT('',(-0.00967061700892636,-0.02385,-0.01225));
#873=CARTESIAN_POINT('',(-0.00476313972081446,-0.02385,-0.00375));
#874=CARTESIAN_POINT('',(-0.00476313972081446,-0.0395796721784899,-0.00375));
#875=CARTESIAN_POINT('',(-0.0124,-0.02385,0.));
#876=CARTESIAN_POINT('',(-0.00562916512459889,-0.02385,-0.00324999999999995));
#877=CARTESIAN_POINT('',(-0.00562916512459889,-0.0395796721784899,-0.00324999999999995));
#878=CARTESIAN_POINT('',(0.00476313972081441,-0.0395796721784899,-0.00375));
#879=CARTESIAN_POINT('',(0.00476313972081441,-0.0395796721784899,-0.00375));
#880=CARTESIAN_POINT('',(0.00476313972081441,-0.02385,-0.00375));
#881=CARTESIAN_POINT('',(0.00476313972081441,-0.02385,-0.00375));
#882=CARTESIAN_POINT('',(0.0154441197008225,-0.0395796721784899,-0.0022500000000001));
#883=CARTESIAN_POINT('',(0.0154441197008225,-0.02385,-0.0022500000000001));
#884=CARTESIAN_POINT('',(0.00562916512459885,-0.02385,-0.00225000000000003));
#885=CARTESIAN_POINT('',(0.00562916512459885,-0.0395796721784899,-0.00225000000000003));
#886=CARTESIAN_POINT('',(-0.0124,-0.02385,0.));
#887=CARTESIAN_POINT('',(0.00562916512459885,-0.02385,-0.00325));
#888=CARTESIAN_POINT('',(0.00562916512459885,-0.0395796721784899,-0.00325));
#889=CARTESIAN_POINT('',(-0.000866025403784447,-0.0394901275039985,-0.006));
#890=CARTESIAN_POINT('',(-0.000866025403784447,-0.0394901275039985,-0.006));
#891=CARTESIAN_POINT('',(-0.000866025403784447,-0.02385,-0.006));
#892=CARTESIAN_POINT('',(-0.000866025403784447,-0.02385,-0.006));
#893=CARTESIAN_POINT('',(0.00577350269189623,-0.0394901275039985,-0.0145));
#894=CARTESIAN_POINT('',(0.00577350269189623,-0.02385,-0.0145));
#895=CARTESIAN_POINT('',(0.00086602540378444,-0.02385,-0.006));
#896=CARTESIAN_POINT('',(0.00086602540378444,-0.0394901275039985,-0.006));
#897=CARTESIAN_POINT('',(-0.0124,-0.02385,0.));
#898=CARTESIAN_POINT('',(0.,-0.02385,-0.0065));
#899=CARTESIAN_POINT('',(0.,-0.0394901275039985,-0.0065));
#900=MECHANICAL_DESIGN_GEOMETRIC_PRESENTATION_REPRESENTATION('',(#508),
#901);
#901=(
GEOMETRIC_REPRESENTATION_CONTEXT(3)
GLOBAL_UNCERTAINTY_ASSIGNED_CONTEXT((#902))
GLOBAL_UNIT_ASSIGNED_CONTEXT((#905,#904,#903))
REPRESENTATION_CONTEXT('CRM2413','TOP_LEVEL_ASSEMBLY_PART')
);
#902=UNCERTAINTY_MEASURE_WITH_UNIT(LENGTH_MEASURE(2.E-5),#905,
'DISTANCE_ACCURACY_VALUE','Maximum Tolerance applied to model');
#903=(
NAMED_UNIT(*)
SI_UNIT($,.STERADIAN.)
SOLID_ANGLE_UNIT()
);
#904=(
NAMED_UNIT(*)
PLANE_ANGLE_UNIT()
SI_UNIT($,.RADIAN.)
);
#905=(
LENGTH_UNIT()
NAMED_UNIT(*)
SI_UNIT($,.METRE.)
);
#906=PRODUCT_DEFINITION_SHAPE('','',#907);
#907=PRODUCT_DEFINITION('','',#909,#908);
#908=PRODUCT_DEFINITION_CONTEXT('',#915,'design');
#909=PRODUCT_DEFINITION_FORMATION_WITH_SPECIFIED_SOURCE('','',#911,
 .NOT_KNOWN.);
#910=PRODUCT_RELATED_PRODUCT_CATEGORY('','',(#911));
#911=PRODUCT('CRM2413','CRM2413','CRM2413',(#913));
#912=PRODUCT_CATEGORY('','');
#913=PRODUCT_CONTEXT('',#915,'mechanical');
#914=APPLICATION_PROTOCOL_DEFINITION('international standard',
'automotive_design',2010,#915);
#915=APPLICATION_CONTEXT(
'core data for automotive mechanical design processes');
ENDSEC;
END-ISO-10303-21;
