ISO-10303-21;
HEADER;
/* Generated by software containing ST-Developer
 * from STEP Tools, Inc. (www.steptools.com) 
 */
/* OPTION: using custom renumber hook */

FILE_DESCRIPTION(
/* description */ ('STEP AP214',
'CAx-IF Rec.Pracs.---User Defined Attributes---1.5---2016-08-15'),
/* implementation_level */ '2;1');

FILE_NAME(
/* name */ '6a386d19ee269b265a355631',
/* time_stamp */ '2026-06-21T23:00:42Z',
/* author */ (''),
/* organization */ (''),
/* preprocessor_version */ 'ST-DEVELOPER v20',
/* originating_system */ 'ONSHAPE BY PTC INC, 1.216',
/* authorisation */ '  ');

FILE_SCHEMA (('AUTOMOTIVE_DESIGN {1 0 10303 214 3 1 1}'));
ENDSEC;

DATA;
#10=PROPERTY_DEFINITION_REPRESENTATION(#14,#12);
#11=PROPERTY_DEFINITION_REPRESENTATION(#15,#13);
#12=REPRESENTATION('',(#16),#986);
#13=REPRESENTATION('',(#17),#986);
#14=PROPERTY_DEFINITION('pmi validation property','',#991);
#15=PROPERTY_DEFINITION('pmi validation property','',#991);
#16=VALUE_REPRESENTATION_ITEM('number of annotations',COUNT_MEASURE(0.));
#17=VALUE_REPRESENTATION_ITEM('number of views',COUNT_MEASURE(0.));
#18=SHAPE_REPRESENTATION_RELATIONSHIP('','',#598,#19);
#19=ADVANCED_BREP_SHAPE_REPRESENTATION('',(#596),#986);
#20=OVER_RIDING_STYLED_ITEM('',(#548),#516,#546);
#21=OVER_RIDING_STYLED_ITEM('',(#549),#518,#546);
#22=OVER_RIDING_STYLED_ITEM('',(#550),#520,#546);
#23=OVER_RIDING_STYLED_ITEM('',(#551),#521,#546);
#24=OVER_RIDING_STYLED_ITEM('',(#552),#522,#546);
#25=OVER_RIDING_STYLED_ITEM('',(#553),#523,#546);
#26=OVER_RIDING_STYLED_ITEM('',(#554),#542,#546);
#27=COLOUR_RGB('',0.752941176470588,0.752941176470588,0.752941176470588);
#28=COLOUR_RGB('',0.250980392156863,0.250980392156863,0.250980392156863);
#29=CONICAL_SURFACE('',#626,0.0135,0.588002603547567);
#30=CONICAL_SURFACE('',#680,0.012429632483024,0.588002603547567);
#31=CYLINDRICAL_SURFACE('',#624,0.0035);
#32=CYLINDRICAL_SURFACE('',#628,0.0155);
#33=CYLINDRICAL_SURFACE('',#631,0.0025);
#34=CYLINDRICAL_SURFACE('',#637,0.0015);
#35=CYLINDRICAL_SURFACE('',#641,0.0035);
#36=CYLINDRICAL_SURFACE('',#642,0.0025);
#37=CYLINDRICAL_SURFACE('',#644,0.00125);
#38=CYLINDRICAL_SURFACE('',#646,0.0025);
#39=CYLINDRICAL_SURFACE('',#648,0.0025);
#40=CYLINDRICAL_SURFACE('',#650,0.00125);
#41=CYLINDRICAL_SURFACE('',#652,0.00125);
#42=CYLINDRICAL_SURFACE('',#654,0.0025);
#43=CYLINDRICAL_SURFACE('',#656,0.0025);
#44=CYLINDRICAL_SURFACE('',#658,0.0025);
#45=CYLINDRICAL_SURFACE('',#660,0.00125);
#46=CYLINDRICAL_SURFACE('',#662,0.00125);
#47=CYLINDRICAL_SURFACE('',#664,0.00125);
#48=CYLINDRICAL_SURFACE('',#666,0.00125);
#49=CYLINDRICAL_SURFACE('',#668,0.00125);
#50=CYLINDRICAL_SURFACE('',#670,0.00125);
#51=CYLINDRICAL_SURFACE('',#672,0.00125);
#52=CYLINDRICAL_SURFACE('',#674,0.00125);
#53=CYLINDRICAL_SURFACE('',#676,0.00125);
#54=CYLINDRICAL_SURFACE('',#678,0.0135);
#55=ORIENTED_EDGE('',*,*,#155,.T.);
#56=ORIENTED_EDGE('',*,*,#156,.T.);
#57=ORIENTED_EDGE('',*,*,#157,.F.);
#58=ORIENTED_EDGE('',*,*,#158,.F.);
#59=ORIENTED_EDGE('',*,*,#159,.F.);
#60=ORIENTED_EDGE('',*,*,#160,.F.);
#61=ORIENTED_EDGE('',*,*,#161,.F.);
#62=ORIENTED_EDGE('',*,*,#162,.F.);
#63=ORIENTED_EDGE('',*,*,#163,.F.);
#64=ORIENTED_EDGE('',*,*,#164,.F.);
#65=ORIENTED_EDGE('',*,*,#165,.F.);
#66=ORIENTED_EDGE('',*,*,#166,.F.);
#67=ORIENTED_EDGE('',*,*,#167,.F.);
#68=ORIENTED_EDGE('',*,*,#168,.F.);
#69=ORIENTED_EDGE('',*,*,#169,.F.);
#70=ORIENTED_EDGE('',*,*,#170,.F.);
#71=ORIENTED_EDGE('',*,*,#171,.F.);
#72=ORIENTED_EDGE('',*,*,#172,.F.);
#73=ORIENTED_EDGE('',*,*,#173,.F.);
#74=ORIENTED_EDGE('',*,*,#174,.F.);
#75=ORIENTED_EDGE('',*,*,#175,.F.);
#76=ORIENTED_EDGE('',*,*,#176,.T.);
#77=ORIENTED_EDGE('',*,*,#176,.F.);
#78=ORIENTED_EDGE('',*,*,#177,.T.);
#79=ORIENTED_EDGE('',*,*,#178,.F.);
#80=ORIENTED_EDGE('',*,*,#175,.T.);
#81=ORIENTED_EDGE('',*,*,#178,.T.);
#82=ORIENTED_EDGE('',*,*,#156,.F.);
#83=ORIENTED_EDGE('',*,*,#179,.T.);
#84=ORIENTED_EDGE('',*,*,#177,.F.);
#85=ORIENTED_EDGE('',*,*,#180,.T.);
#86=ORIENTED_EDGE('',*,*,#179,.F.);
#87=ORIENTED_EDGE('',*,*,#181,.T.);
#88=ORIENTED_EDGE('',*,*,#180,.F.);
#89=ORIENTED_EDGE('',*,*,#182,.F.);
#90=ORIENTED_EDGE('',*,*,#183,.F.);
#91=ORIENTED_EDGE('',*,*,#182,.T.);
#92=ORIENTED_EDGE('',*,*,#184,.F.);
#93=ORIENTED_EDGE('',*,*,#183,.T.);
#94=ORIENTED_EDGE('',*,*,#184,.T.);
#95=ORIENTED_EDGE('',*,*,#181,.F.);
#96=ORIENTED_EDGE('',*,*,#185,.T.);
#97=ORIENTED_EDGE('',*,*,#174,.T.);
#98=ORIENTED_EDGE('',*,*,#186,.T.);
#99=ORIENTED_EDGE('',*,*,#173,.T.);
#100=ORIENTED_EDGE('',*,*,#187,.T.);
#101=ORIENTED_EDGE('',*,*,#172,.T.);
#102=ORIENTED_EDGE('',*,*,#188,.T.);
#103=ORIENTED_EDGE('',*,*,#171,.T.);
#104=ORIENTED_EDGE('',*,*,#189,.T.);
#105=ORIENTED_EDGE('',*,*,#170,.T.);
#106=ORIENTED_EDGE('',*,*,#190,.T.);
#107=ORIENTED_EDGE('',*,*,#169,.T.);
#108=ORIENTED_EDGE('',*,*,#191,.T.);
#109=ORIENTED_EDGE('',*,*,#168,.T.);
#110=ORIENTED_EDGE('',*,*,#192,.T.);
#111=ORIENTED_EDGE('',*,*,#167,.T.);
#112=ORIENTED_EDGE('',*,*,#193,.T.);
#113=ORIENTED_EDGE('',*,*,#166,.T.);
#114=ORIENTED_EDGE('',*,*,#194,.T.);
#115=ORIENTED_EDGE('',*,*,#165,.T.);
#116=ORIENTED_EDGE('',*,*,#195,.T.);
#117=ORIENTED_EDGE('',*,*,#164,.T.);
#118=ORIENTED_EDGE('',*,*,#196,.T.);
#119=ORIENTED_EDGE('',*,*,#163,.T.);
#120=ORIENTED_EDGE('',*,*,#197,.T.);
#121=ORIENTED_EDGE('',*,*,#162,.T.);
#122=ORIENTED_EDGE('',*,*,#198,.T.);
#123=ORIENTED_EDGE('',*,*,#161,.T.);
#124=ORIENTED_EDGE('',*,*,#199,.T.);
#125=ORIENTED_EDGE('',*,*,#160,.T.);
#126=ORIENTED_EDGE('',*,*,#200,.T.);
#127=ORIENTED_EDGE('',*,*,#159,.T.);
#128=ORIENTED_EDGE('',*,*,#201,.T.);
#129=ORIENTED_EDGE('',*,*,#158,.T.);
#130=ORIENTED_EDGE('',*,*,#202,.T.);
#131=ORIENTED_EDGE('',*,*,#157,.T.);
#132=ORIENTED_EDGE('',*,*,#155,.F.);
#133=ORIENTED_EDGE('',*,*,#203,.T.);
#134=ORIENTED_EDGE('',*,*,#203,.F.);
#135=ORIENTED_EDGE('',*,*,#204,.T.);
#136=ORIENTED_EDGE('',*,*,#186,.F.);
#137=ORIENTED_EDGE('',*,*,#188,.F.);
#138=ORIENTED_EDGE('',*,*,#190,.F.);
#139=ORIENTED_EDGE('',*,*,#192,.F.);
#140=ORIENTED_EDGE('',*,*,#194,.F.);
#141=ORIENTED_EDGE('',*,*,#196,.F.);
#142=ORIENTED_EDGE('',*,*,#198,.F.);
#143=ORIENTED_EDGE('',*,*,#200,.F.);
#144=ORIENTED_EDGE('',*,*,#202,.F.);
#145=ORIENTED_EDGE('',*,*,#204,.F.);
#146=ORIENTED_EDGE('',*,*,#201,.F.);
#147=ORIENTED_EDGE('',*,*,#199,.F.);
#148=ORIENTED_EDGE('',*,*,#197,.F.);
#149=ORIENTED_EDGE('',*,*,#195,.F.);
#150=ORIENTED_EDGE('',*,*,#193,.F.);
#151=ORIENTED_EDGE('',*,*,#191,.F.);
#152=ORIENTED_EDGE('',*,*,#189,.F.);
#153=ORIENTED_EDGE('',*,*,#187,.F.);
#154=ORIENTED_EDGE('',*,*,#185,.F.);
#155=EDGE_CURVE('',#205,#205,#255,.T.);
#156=EDGE_CURVE('',#206,#206,#256,.T.);
#157=EDGE_CURVE('',#207,#207,#257,.T.);
#158=EDGE_CURVE('',#208,#208,#258,.T.);
#159=EDGE_CURVE('',#209,#209,#259,.T.);
#160=EDGE_CURVE('',#210,#210,#260,.T.);
#161=EDGE_CURVE('',#211,#211,#261,.T.);
#162=EDGE_CURVE('',#212,#212,#262,.T.);
#163=EDGE_CURVE('',#213,#213,#263,.T.);
#164=EDGE_CURVE('',#214,#214,#264,.T.);
#165=EDGE_CURVE('',#215,#215,#265,.T.);
#166=EDGE_CURVE('',#216,#216,#266,.T.);
#167=EDGE_CURVE('',#217,#217,#267,.T.);
#168=EDGE_CURVE('',#218,#218,#268,.T.);
#169=EDGE_CURVE('',#219,#219,#269,.T.);
#170=EDGE_CURVE('',#220,#220,#270,.T.);
#171=EDGE_CURVE('',#221,#221,#271,.T.);
#172=EDGE_CURVE('',#222,#222,#272,.T.);
#173=EDGE_CURVE('',#223,#223,#273,.T.);
#174=EDGE_CURVE('',#224,#224,#274,.T.);
#175=EDGE_CURVE('',#225,#225,#275,.T.);
#176=EDGE_CURVE('',#226,#226,#276,.T.);
#177=EDGE_CURVE('',#227,#227,#277,.T.);
#178=EDGE_CURVE('',#228,#228,#278,.T.);
#179=EDGE_CURVE('',#229,#229,#279,.T.);
#180=EDGE_CURVE('',#230,#230,#280,.T.);
#181=EDGE_CURVE('',#231,#231,#281,.T.);
#182=EDGE_CURVE('',#232,#232,#282,.T.);
#183=EDGE_CURVE('',#233,#233,#283,.T.);
#184=EDGE_CURVE('',#234,#234,#284,.T.);
#185=EDGE_CURVE('',#235,#235,#285,.F.);
#186=EDGE_CURVE('',#236,#236,#286,.F.);
#187=EDGE_CURVE('',#237,#237,#287,.F.);
#188=EDGE_CURVE('',#238,#238,#288,.F.);
#189=EDGE_CURVE('',#239,#239,#289,.F.);
#190=EDGE_CURVE('',#240,#240,#290,.F.);
#191=EDGE_CURVE('',#241,#241,#291,.F.);
#192=EDGE_CURVE('',#242,#242,#292,.F.);
#193=EDGE_CURVE('',#243,#243,#293,.F.);
#194=EDGE_CURVE('',#244,#244,#294,.F.);
#195=EDGE_CURVE('',#245,#245,#295,.F.);
#196=EDGE_CURVE('',#246,#246,#296,.F.);
#197=EDGE_CURVE('',#247,#247,#297,.F.);
#198=EDGE_CURVE('',#248,#248,#298,.F.);
#199=EDGE_CURVE('',#249,#249,#299,.F.);
#200=EDGE_CURVE('',#250,#250,#300,.F.);
#201=EDGE_CURVE('',#251,#251,#301,.F.);
#202=EDGE_CURVE('',#252,#252,#302,.F.);
#203=EDGE_CURVE('',#253,#253,#303,.T.);
#204=EDGE_CURVE('',#254,#254,#304,.T.);
#205=VERTEX_POINT('',#854);
#206=VERTEX_POINT('',#856);
#207=VERTEX_POINT('',#859);
#208=VERTEX_POINT('',#861);
#209=VERTEX_POINT('',#863);
#210=VERTEX_POINT('',#865);
#211=VERTEX_POINT('',#867);
#212=VERTEX_POINT('',#869);
#213=VERTEX_POINT('',#871);
#214=VERTEX_POINT('',#873);
#215=VERTEX_POINT('',#875);
#216=VERTEX_POINT('',#877);
#217=VERTEX_POINT('',#879);
#218=VERTEX_POINT('',#881);
#219=VERTEX_POINT('',#883);
#220=VERTEX_POINT('',#885);
#221=VERTEX_POINT('',#887);
#222=VERTEX_POINT('',#889);
#223=VERTEX_POINT('',#891);
#224=VERTEX_POINT('',#893);
#225=VERTEX_POINT('',#895);
#226=VERTEX_POINT('',#897);
#227=VERTEX_POINT('',#900);
#228=VERTEX_POINT('',#903);
#229=VERTEX_POINT('',#907);
#230=VERTEX_POINT('',#910);
#231=VERTEX_POINT('',#913);
#232=VERTEX_POINT('',#916);
#233=VERTEX_POINT('',#919);
#234=VERTEX_POINT('',#922);
#235=VERTEX_POINT('',#926);
#236=VERTEX_POINT('',#929);
#237=VERTEX_POINT('',#932);
#238=VERTEX_POINT('',#935);
#239=VERTEX_POINT('',#938);
#240=VERTEX_POINT('',#941);
#241=VERTEX_POINT('',#944);
#242=VERTEX_POINT('',#947);
#243=VERTEX_POINT('',#950);
#244=VERTEX_POINT('',#953);
#245=VERTEX_POINT('',#956);
#246=VERTEX_POINT('',#959);
#247=VERTEX_POINT('',#962);
#248=VERTEX_POINT('',#965);
#249=VERTEX_POINT('',#968);
#250=VERTEX_POINT('',#971);
#251=VERTEX_POINT('',#974);
#252=VERTEX_POINT('',#977);
#253=VERTEX_POINT('',#980);
#254=VERTEX_POINT('',#983);
#255=CIRCLE('',#601,0.0135);
#256=CIRCLE('',#602,0.0155);
#257=CIRCLE('',#604,0.00125);
#258=CIRCLE('',#605,0.00125);
#259=CIRCLE('',#606,0.00125);
#260=CIRCLE('',#607,0.00125);
#261=CIRCLE('',#608,0.00125);
#262=CIRCLE('',#609,0.00125);
#263=CIRCLE('',#610,0.00125);
#264=CIRCLE('',#611,0.00125);
#265=CIRCLE('',#612,0.00125);
#266=CIRCLE('',#613,0.0025);
#267=CIRCLE('',#614,0.0025);
#268=CIRCLE('',#615,0.0025);
#269=CIRCLE('',#616,0.00125);
#270=CIRCLE('',#617,0.00125);
#271=CIRCLE('',#618,0.0025);
#272=CIRCLE('',#619,0.0025);
#273=CIRCLE('',#620,0.00125);
#274=CIRCLE('',#621,0.0025);
#275=CIRCLE('',#622,0.0135);
#276=CIRCLE('',#623,0.0035);
#277=CIRCLE('',#625,0.0035);
#278=CIRCLE('',#627,0.0155);
#279=CIRCLE('',#630,0.0025);
#280=CIRCLE('',#632,0.0025);
#281=CIRCLE('',#634,0.0035);
#282=CIRCLE('',#636,0.0015);
#283=CIRCLE('',#638,0.0015);
#284=CIRCLE('',#640,0.0035);
#285=CIRCLE('',#643,0.0025);
#286=CIRCLE('',#645,0.00125);
#287=CIRCLE('',#647,0.0025);
#288=CIRCLE('',#649,0.0025);
#289=CIRCLE('',#651,0.00125);
#290=CIRCLE('',#653,0.00125);
#291=CIRCLE('',#655,0.0025);
#292=CIRCLE('',#657,0.0025);
#293=CIRCLE('',#659,0.0025);
#294=CIRCLE('',#661,0.00125);
#295=CIRCLE('',#663,0.00125);
#296=CIRCLE('',#665,0.00125);
#297=CIRCLE('',#667,0.00125);
#298=CIRCLE('',#669,0.00125);
#299=CIRCLE('',#671,0.00125);
#300=CIRCLE('',#673,0.00125);
#301=CIRCLE('',#675,0.00125);
#302=CIRCLE('',#677,0.00125);
#303=CIRCLE('',#679,0.0135);
#304=CIRCLE('',#681,0.012429632483024);
#305=EDGE_LOOP('',(#55));
#306=EDGE_LOOP('',(#56));
#307=EDGE_LOOP('',(#57));
#308=EDGE_LOOP('',(#58));
#309=EDGE_LOOP('',(#59));
#310=EDGE_LOOP('',(#60));
#311=EDGE_LOOP('',(#61));
#312=EDGE_LOOP('',(#62));
#313=EDGE_LOOP('',(#63));
#314=EDGE_LOOP('',(#64));
#315=EDGE_LOOP('',(#65));
#316=EDGE_LOOP('',(#66));
#317=EDGE_LOOP('',(#67));
#318=EDGE_LOOP('',(#68));
#319=EDGE_LOOP('',(#69));
#320=EDGE_LOOP('',(#70));
#321=EDGE_LOOP('',(#71));
#322=EDGE_LOOP('',(#72));
#323=EDGE_LOOP('',(#73));
#324=EDGE_LOOP('',(#74));
#325=EDGE_LOOP('',(#75));
#326=EDGE_LOOP('',(#76));
#327=EDGE_LOOP('',(#77));
#328=EDGE_LOOP('',(#78));
#329=EDGE_LOOP('',(#79));
#330=EDGE_LOOP('',(#80));
#331=EDGE_LOOP('',(#81));
#332=EDGE_LOOP('',(#82));
#333=EDGE_LOOP('',(#83));
#334=EDGE_LOOP('',(#84));
#335=EDGE_LOOP('',(#85));
#336=EDGE_LOOP('',(#86));
#337=EDGE_LOOP('',(#87));
#338=EDGE_LOOP('',(#88));
#339=EDGE_LOOP('',(#89));
#340=EDGE_LOOP('',(#90));
#341=EDGE_LOOP('',(#91));
#342=EDGE_LOOP('',(#92));
#343=EDGE_LOOP('',(#93));
#344=EDGE_LOOP('',(#94));
#345=EDGE_LOOP('',(#95));
#346=EDGE_LOOP('',(#96));
#347=EDGE_LOOP('',(#97));
#348=EDGE_LOOP('',(#98));
#349=EDGE_LOOP('',(#99));
#350=EDGE_LOOP('',(#100));
#351=EDGE_LOOP('',(#101));
#352=EDGE_LOOP('',(#102));
#353=EDGE_LOOP('',(#103));
#354=EDGE_LOOP('',(#104));
#355=EDGE_LOOP('',(#105));
#356=EDGE_LOOP('',(#106));
#357=EDGE_LOOP('',(#107));
#358=EDGE_LOOP('',(#108));
#359=EDGE_LOOP('',(#109));
#360=EDGE_LOOP('',(#110));
#361=EDGE_LOOP('',(#111));
#362=EDGE_LOOP('',(#112));
#363=EDGE_LOOP('',(#113));
#364=EDGE_LOOP('',(#114));
#365=EDGE_LOOP('',(#115));
#366=EDGE_LOOP('',(#116));
#367=EDGE_LOOP('',(#117));
#368=EDGE_LOOP('',(#118));
#369=EDGE_LOOP('',(#119));
#370=EDGE_LOOP('',(#120));
#371=EDGE_LOOP('',(#121));
#372=EDGE_LOOP('',(#122));
#373=EDGE_LOOP('',(#123));
#374=EDGE_LOOP('',(#124));
#375=EDGE_LOOP('',(#125));
#376=EDGE_LOOP('',(#126));
#377=EDGE_LOOP('',(#127));
#378=EDGE_LOOP('',(#128));
#379=EDGE_LOOP('',(#129));
#380=EDGE_LOOP('',(#130));
#381=EDGE_LOOP('',(#131));
#382=EDGE_LOOP('',(#132));
#383=EDGE_LOOP('',(#133));
#384=EDGE_LOOP('',(#134));
#385=EDGE_LOOP('',(#135));
#386=EDGE_LOOP('',(#136));
#387=EDGE_LOOP('',(#137));
#388=EDGE_LOOP('',(#138));
#389=EDGE_LOOP('',(#139));
#390=EDGE_LOOP('',(#140));
#391=EDGE_LOOP('',(#141));
#392=EDGE_LOOP('',(#142));
#393=EDGE_LOOP('',(#143));
#394=EDGE_LOOP('',(#144));
#395=EDGE_LOOP('',(#145));
#396=EDGE_LOOP('',(#146));
#397=EDGE_LOOP('',(#147));
#398=EDGE_LOOP('',(#148));
#399=EDGE_LOOP('',(#149));
#400=EDGE_LOOP('',(#150));
#401=EDGE_LOOP('',(#151));
#402=EDGE_LOOP('',(#152));
#403=EDGE_LOOP('',(#153));
#404=EDGE_LOOP('',(#154));
#405=FACE_BOUND('',#305,.T.);
#406=FACE_BOUND('',#306,.T.);
#407=FACE_BOUND('',#307,.T.);
#408=FACE_BOUND('',#308,.T.);
#409=FACE_BOUND('',#309,.T.);
#410=FACE_BOUND('',#310,.T.);
#411=FACE_BOUND('',#311,.T.);
#412=FACE_BOUND('',#312,.T.);
#413=FACE_BOUND('',#313,.T.);
#414=FACE_BOUND('',#314,.T.);
#415=FACE_BOUND('',#315,.T.);
#416=FACE_BOUND('',#316,.T.);
#417=FACE_BOUND('',#317,.T.);
#418=FACE_BOUND('',#318,.T.);
#419=FACE_BOUND('',#319,.T.);
#420=FACE_BOUND('',#320,.T.);
#421=FACE_BOUND('',#321,.T.);
#422=FACE_BOUND('',#322,.T.);
#423=FACE_BOUND('',#323,.T.);
#424=FACE_BOUND('',#324,.T.);
#425=FACE_BOUND('',#325,.T.);
#426=FACE_BOUND('',#326,.T.);
#427=FACE_BOUND('',#327,.T.);
#428=FACE_BOUND('',#328,.T.);
#429=FACE_BOUND('',#329,.T.);
#430=FACE_BOUND('',#330,.T.);
#431=FACE_BOUND('',#331,.T.);
#432=FACE_BOUND('',#332,.T.);
#433=FACE_BOUND('',#333,.T.);
#434=FACE_BOUND('',#334,.T.);
#435=FACE_BOUND('',#335,.T.);
#436=FACE_BOUND('',#336,.T.);
#437=FACE_BOUND('',#337,.T.);
#438=FACE_BOUND('',#338,.T.);
#439=FACE_BOUND('',#339,.T.);
#440=FACE_BOUND('',#340,.T.);
#441=FACE_BOUND('',#341,.T.);
#442=FACE_BOUND('',#342,.T.);
#443=FACE_BOUND('',#343,.T.);
#444=FACE_BOUND('',#344,.T.);
#445=FACE_BOUND('',#345,.T.);
#446=FACE_BOUND('',#346,.T.);
#447=FACE_BOUND('',#347,.T.);
#448=FACE_BOUND('',#348,.T.);
#449=FACE_BOUND('',#349,.T.);
#450=FACE_BOUND('',#350,.T.);
#451=FACE_BOUND('',#351,.T.);
#452=FACE_BOUND('',#352,.T.);
#453=FACE_BOUND('',#353,.T.);
#454=FACE_BOUND('',#354,.T.);
#455=FACE_BOUND('',#355,.T.);
#456=FACE_BOUND('',#356,.T.);
#457=FACE_BOUND('',#357,.T.);
#458=FACE_BOUND('',#358,.T.);
#459=FACE_BOUND('',#359,.T.);
#460=FACE_BOUND('',#360,.T.);
#461=FACE_BOUND('',#361,.T.);
#462=FACE_BOUND('',#362,.T.);
#463=FACE_BOUND('',#363,.T.);
#464=FACE_BOUND('',#364,.T.);
#465=FACE_BOUND('',#365,.T.);
#466=FACE_BOUND('',#366,.T.);
#467=FACE_BOUND('',#367,.T.);
#468=FACE_BOUND('',#368,.T.);
#469=FACE_BOUND('',#369,.T.);
#470=FACE_BOUND('',#370,.T.);
#471=FACE_BOUND('',#371,.T.);
#472=FACE_BOUND('',#372,.T.);
#473=FACE_BOUND('',#373,.T.);
#474=FACE_BOUND('',#374,.T.);
#475=FACE_BOUND('',#375,.T.);
#476=FACE_BOUND('',#376,.T.);
#477=FACE_BOUND('',#377,.T.);
#478=FACE_BOUND('',#378,.T.);
#479=FACE_BOUND('',#379,.T.);
#480=FACE_BOUND('',#380,.T.);
#481=FACE_BOUND('',#381,.T.);
#482=FACE_BOUND('',#382,.T.);
#483=FACE_BOUND('',#383,.T.);
#484=FACE_BOUND('',#384,.T.);
#485=FACE_BOUND('',#385,.T.);
#486=FACE_BOUND('',#386,.T.);
#487=FACE_BOUND('',#387,.T.);
#488=FACE_BOUND('',#388,.T.);
#489=FACE_BOUND('',#389,.T.);
#490=FACE_BOUND('',#390,.T.);
#491=FACE_BOUND('',#391,.T.);
#492=FACE_BOUND('',#392,.T.);
#493=FACE_BOUND('',#393,.T.);
#494=FACE_BOUND('',#394,.T.);
#495=FACE_BOUND('',#395,.T.);
#496=FACE_BOUND('',#396,.T.);
#497=FACE_BOUND('',#397,.T.);
#498=FACE_BOUND('',#398,.T.);
#499=FACE_BOUND('',#399,.T.);
#500=FACE_BOUND('',#400,.T.);
#501=FACE_BOUND('',#401,.T.);
#502=FACE_BOUND('',#402,.T.);
#503=FACE_BOUND('',#403,.T.);
#504=FACE_BOUND('',#404,.T.);
#505=PLANE('',#600);
#506=PLANE('',#603);
#507=PLANE('',#629);
#508=PLANE('',#633);
#509=PLANE('',#635);
#510=PLANE('',#639);
#511=PLANE('',#682);
#512=ADVANCED_FACE('',(#405,#406),#505,.T.);
#513=ADVANCED_FACE('',(#407,#408,#409,#410,#411,#412,#413,#414,#415,#416,
#417,#418,#419,#420,#421,#422,#423,#424,#425,#426),#506,.F.);
#514=ADVANCED_FACE('',(#427,#428),#31,.T.);
#515=ADVANCED_FACE('',(#429,#430),#29,.T.);
#516=ADVANCED_FACE('',(#431,#432),#32,.T.);
#517=ADVANCED_FACE('',(#433,#434),#507,.T.);
#518=ADVANCED_FACE('',(#435,#436),#33,.T.);
#519=ADVANCED_FACE('',(#437,#438),#508,.T.);
#520=ADVANCED_FACE('',(#439),#509,.F.);
#521=ADVANCED_FACE('',(#440,#441),#34,.T.);
#522=ADVANCED_FACE('',(#442,#443),#510,.F.);
#523=ADVANCED_FACE('',(#444,#445),#35,.T.);
#524=ADVANCED_FACE('',(#446,#447),#36,.F.);
#525=ADVANCED_FACE('',(#448,#449),#37,.F.);
#526=ADVANCED_FACE('',(#450,#451),#38,.F.);
#527=ADVANCED_FACE('',(#452,#453),#39,.F.);
#528=ADVANCED_FACE('',(#454,#455),#40,.F.);
#529=ADVANCED_FACE('',(#456,#457),#41,.F.);
#530=ADVANCED_FACE('',(#458,#459),#42,.F.);
#531=ADVANCED_FACE('',(#460,#461),#43,.F.);
#532=ADVANCED_FACE('',(#462,#463),#44,.F.);
#533=ADVANCED_FACE('',(#464,#465),#45,.F.);
#534=ADVANCED_FACE('',(#466,#467),#46,.F.);
#535=ADVANCED_FACE('',(#468,#469),#47,.F.);
#536=ADVANCED_FACE('',(#470,#471),#48,.F.);
#537=ADVANCED_FACE('',(#472,#473),#49,.F.);
#538=ADVANCED_FACE('',(#474,#475),#50,.F.);
#539=ADVANCED_FACE('',(#476,#477),#51,.F.);
#540=ADVANCED_FACE('',(#478,#479),#52,.F.);
#541=ADVANCED_FACE('',(#480,#481),#53,.F.);
#542=ADVANCED_FACE('',(#482,#483),#54,.F.);
#543=ADVANCED_FACE('',(#484,#485),#30,.F.);
#544=ADVANCED_FACE('',(#486,#487,#488,#489,#490,#491,#492,#493,#494,#495,
#496,#497,#498,#499,#500,#501,#502,#503,#504),#511,.F.);
#545=CLOSED_SHELL('',(#512,#513,#514,#515,#516,#517,#518,#519,#520,#521,
#522,#523,#524,#525,#526,#527,#528,#529,#530,#531,#532,#533,#534,#535,#536,
#537,#538,#539,#540,#541,#542,#543,#544));
#546=STYLED_ITEM('',(#547),#596);
#547=PRESENTATION_STYLE_ASSIGNMENT((#555));
#548=PRESENTATION_STYLE_ASSIGNMENT((#556));
#549=PRESENTATION_STYLE_ASSIGNMENT((#557));
#550=PRESENTATION_STYLE_ASSIGNMENT((#558));
#551=PRESENTATION_STYLE_ASSIGNMENT((#559));
#552=PRESENTATION_STYLE_ASSIGNMENT((#560));
#553=PRESENTATION_STYLE_ASSIGNMENT((#561));
#554=PRESENTATION_STYLE_ASSIGNMENT((#562));
#555=SURFACE_STYLE_USAGE(.BOTH.,#563);
#556=SURFACE_STYLE_USAGE(.BOTH.,#564);
#557=SURFACE_STYLE_USAGE(.BOTH.,#565);
#558=SURFACE_STYLE_USAGE(.BOTH.,#566);
#559=SURFACE_STYLE_USAGE(.BOTH.,#567);
#560=SURFACE_STYLE_USAGE(.BOTH.,#568);
#561=SURFACE_STYLE_USAGE(.BOTH.,#569);
#562=SURFACE_STYLE_USAGE(.BOTH.,#570);
#563=SURFACE_SIDE_STYLE('',(#571));
#564=SURFACE_SIDE_STYLE('',(#572));
#565=SURFACE_SIDE_STYLE('',(#573));
#566=SURFACE_SIDE_STYLE('',(#574));
#567=SURFACE_SIDE_STYLE('',(#575));
#568=SURFACE_SIDE_STYLE('',(#576));
#569=SURFACE_SIDE_STYLE('',(#577));
#570=SURFACE_SIDE_STYLE('',(#578));
#571=SURFACE_STYLE_FILL_AREA(#579);
#572=SURFACE_STYLE_FILL_AREA(#580);
#573=SURFACE_STYLE_FILL_AREA(#581);
#574=SURFACE_STYLE_FILL_AREA(#582);
#575=SURFACE_STYLE_FILL_AREA(#583);
#576=SURFACE_STYLE_FILL_AREA(#584);
#577=SURFACE_STYLE_FILL_AREA(#585);
#578=SURFACE_STYLE_FILL_AREA(#586);
#579=FILL_AREA_STYLE('',(#587));
#580=FILL_AREA_STYLE('',(#588));
#581=FILL_AREA_STYLE('',(#589));
#582=FILL_AREA_STYLE('',(#590));
#583=FILL_AREA_STYLE('',(#591));
#584=FILL_AREA_STYLE('',(#592));
#585=FILL_AREA_STYLE('',(#593));
#586=FILL_AREA_STYLE('',(#594));
#587=FILL_AREA_STYLE_COLOUR('',#595);
#588=FILL_AREA_STYLE_COLOUR('',#27);
#589=FILL_AREA_STYLE_COLOUR('',#27);
#590=FILL_AREA_STYLE_COLOUR('',#27);
#591=FILL_AREA_STYLE_COLOUR('',#27);
#592=FILL_AREA_STYLE_COLOUR('',#27);
#593=FILL_AREA_STYLE_COLOUR('',#27);
#594=FILL_AREA_STYLE_COLOUR('',#28);
#595=DRAUGHTING_PRE_DEFINED_COLOUR('red');
#596=MANIFOLD_SOLID_BREP('CRM2413',#545);
#597=SHAPE_DEFINITION_REPRESENTATION(#991,#598);
#598=SHAPE_REPRESENTATION('CRM2413',(#599),#986);
#599=AXIS2_PLACEMENT_3D('',#851,#683,#684);
#600=AXIS2_PLACEMENT_3D('',#852,#685,#686);
#601=AXIS2_PLACEMENT_3D('',#853,#687,#688);
#602=AXIS2_PLACEMENT_3D('',#855,#689,#690);
#603=AXIS2_PLACEMENT_3D('',#857,#691,#692);
#604=AXIS2_PLACEMENT_3D('',#858,#693,#694);
#605=AXIS2_PLACEMENT_3D('',#860,#695,#696);
#606=AXIS2_PLACEMENT_3D('',#862,#697,#698);
#607=AXIS2_PLACEMENT_3D('',#864,#699,#700);
#608=AXIS2_PLACEMENT_3D('',#866,#701,#702);
#609=AXIS2_PLACEMENT_3D('',#868,#703,#704);
#610=AXIS2_PLACEMENT_3D('',#870,#705,#706);
#611=AXIS2_PLACEMENT_3D('',#872,#707,#708);
#612=AXIS2_PLACEMENT_3D('',#874,#709,#710);
#613=AXIS2_PLACEMENT_3D('',#876,#711,#712);
#614=AXIS2_PLACEMENT_3D('',#878,#713,#714);
#615=AXIS2_PLACEMENT_3D('',#880,#715,#716);
#616=AXIS2_PLACEMENT_3D('',#882,#717,#718);
#617=AXIS2_PLACEMENT_3D('',#884,#719,#720);
#618=AXIS2_PLACEMENT_3D('',#886,#721,#722);
#619=AXIS2_PLACEMENT_3D('',#888,#723,#724);
#620=AXIS2_PLACEMENT_3D('',#890,#725,#726);
#621=AXIS2_PLACEMENT_3D('',#892,#727,#728);
#622=AXIS2_PLACEMENT_3D('',#894,#729,#730);
#623=AXIS2_PLACEMENT_3D('',#896,#731,#732);
#624=AXIS2_PLACEMENT_3D('',#898,#733,#734);
#625=AXIS2_PLACEMENT_3D('',#899,#735,#736);
#626=AXIS2_PLACEMENT_3D('',#901,#737,#738);
#627=AXIS2_PLACEMENT_3D('',#902,#739,#740);
#628=AXIS2_PLACEMENT_3D('',#904,#741,#742);
#629=AXIS2_PLACEMENT_3D('',#905,#743,#744);
#630=AXIS2_PLACEMENT_3D('',#906,#745,#746);
#631=AXIS2_PLACEMENT_3D('',#908,#747,#748);
#632=AXIS2_PLACEMENT_3D('',#909,#749,#750);
#633=AXIS2_PLACEMENT_3D('',#911,#751,#752);
#634=AXIS2_PLACEMENT_3D('',#912,#753,#754);
#635=AXIS2_PLACEMENT_3D('',#914,#755,#756);
#636=AXIS2_PLACEMENT_3D('',#915,#757,#758);
#637=AXIS2_PLACEMENT_3D('',#917,#759,#760);
#638=AXIS2_PLACEMENT_3D('',#918,#761,#762);
#639=AXIS2_PLACEMENT_3D('',#920,#763,#764);
#640=AXIS2_PLACEMENT_3D('',#921,#765,#766);
#641=AXIS2_PLACEMENT_3D('',#923,#767,#768);
#642=AXIS2_PLACEMENT_3D('',#924,#769,#770);
#643=AXIS2_PLACEMENT_3D('',#925,#771,#772);
#644=AXIS2_PLACEMENT_3D('',#927,#773,#774);
#645=AXIS2_PLACEMENT_3D('',#928,#775,#776);
#646=AXIS2_PLACEMENT_3D('',#930,#777,#778);
#647=AXIS2_PLACEMENT_3D('',#931,#779,#780);
#648=AXIS2_PLACEMENT_3D('',#933,#781,#782);
#649=AXIS2_PLACEMENT_3D('',#934,#783,#784);
#650=AXIS2_PLACEMENT_3D('',#936,#785,#786);
#651=AXIS2_PLACEMENT_3D('',#937,#787,#788);
#652=AXIS2_PLACEMENT_3D('',#939,#789,#790);
#653=AXIS2_PLACEMENT_3D('',#940,#791,#792);
#654=AXIS2_PLACEMENT_3D('',#942,#793,#794);
#655=AXIS2_PLACEMENT_3D('',#943,#795,#796);
#656=AXIS2_PLACEMENT_3D('',#945,#797,#798);
#657=AXIS2_PLACEMENT_3D('',#946,#799,#800);
#658=AXIS2_PLACEMENT_3D('',#948,#801,#802);
#659=AXIS2_PLACEMENT_3D('',#949,#803,#804);
#660=AXIS2_PLACEMENT_3D('',#951,#805,#806);
#661=AXIS2_PLACEMENT_3D('',#952,#807,#808);
#662=AXIS2_PLACEMENT_3D('',#954,#809,#810);
#663=AXIS2_PLACEMENT_3D('',#955,#811,#812);
#664=AXIS2_PLACEMENT_3D('',#957,#813,#814);
#665=AXIS2_PLACEMENT_3D('',#958,#815,#816);
#666=AXIS2_PLACEMENT_3D('',#960,#817,#818);
#667=AXIS2_PLACEMENT_3D('',#961,#819,#820);
#668=AXIS2_PLACEMENT_3D('',#963,#821,#822);
#669=AXIS2_PLACEMENT_3D('',#964,#823,#824);
#670=AXIS2_PLACEMENT_3D('',#966,#825,#826);
#671=AXIS2_PLACEMENT_3D('',#967,#827,#828);
#672=AXIS2_PLACEMENT_3D('',#969,#829,#830);
#673=AXIS2_PLACEMENT_3D('',#970,#831,#832);
#674=AXIS2_PLACEMENT_3D('',#972,#833,#834);
#675=AXIS2_PLACEMENT_3D('',#973,#835,#836);
#676=AXIS2_PLACEMENT_3D('',#975,#837,#838);
#677=AXIS2_PLACEMENT_3D('',#976,#839,#840);
#678=AXIS2_PLACEMENT_3D('',#978,#841,#842);
#679=AXIS2_PLACEMENT_3D('',#979,#843,#844);
#680=AXIS2_PLACEMENT_3D('',#981,#845,#846);
#681=AXIS2_PLACEMENT_3D('',#982,#847,#848);
#682=AXIS2_PLACEMENT_3D('',#984,#849,#850);
#683=DIRECTION('',(0.,0.,1.));
#684=DIRECTION('',(1.,0.,0.));
#685=DIRECTION('',(0.,-1.,0.));
#686=DIRECTION('',(0.,0.,-1.));
#687=DIRECTION('',(-5.02897295806389E-18,1.,0.));
#688=DIRECTION('',(-1.,-5.02897295806389E-18,0.));
#689=DIRECTION('',(0.,-1.,0.));
#690=DIRECTION('',(0.,0.,-1.));
#691=DIRECTION('',(0.,-1.,0.));
#692=DIRECTION('',(0.,0.,-1.));
#693=DIRECTION('',(0.,1.,0.));
#694=DIRECTION('',(0.,0.,1.));
#695=DIRECTION('',(0.,1.,0.));
#696=DIRECTION('',(0.,0.,1.));
#697=DIRECTION('',(0.,1.,0.));
#698=DIRECTION('',(0.,0.,1.));
#699=DIRECTION('',(0.,1.,0.));
#700=DIRECTION('',(0.,0.,1.));
#701=DIRECTION('',(0.,1.,0.));
#702=DIRECTION('',(0.,0.,1.));
#703=DIRECTION('',(0.,1.,0.));
#704=DIRECTION('',(0.,0.,1.));
#705=DIRECTION('',(0.,1.,0.));
#706=DIRECTION('',(0.,0.,1.));
#707=DIRECTION('',(0.,1.,0.));
#708=DIRECTION('',(0.,0.,1.));
#709=DIRECTION('',(0.,1.,0.));
#710=DIRECTION('',(0.,0.,1.));
#711=DIRECTION('',(0.,1.,0.));
#712=DIRECTION('',(0.,0.,1.));
#713=DIRECTION('',(0.,1.,0.));
#714=DIRECTION('',(0.,0.,1.));
#715=DIRECTION('',(0.,1.,0.));
#716=DIRECTION('',(0.,0.,1.));
#717=DIRECTION('',(0.,1.,0.));
#718=DIRECTION('',(0.,0.,1.));
#719=DIRECTION('',(0.,1.,0.));
#720=DIRECTION('',(0.,0.,1.));
#721=DIRECTION('',(0.,1.,0.));
#722=DIRECTION('',(0.,0.,1.));
#723=DIRECTION('',(0.,1.,0.));
#724=DIRECTION('',(0.,0.,1.));
#725=DIRECTION('',(0.,1.,0.));
#726=DIRECTION('',(0.,0.,1.));
#727=DIRECTION('',(0.,1.,0.));
#728=DIRECTION('',(0.,0.,1.));
#729=DIRECTION('',(0.,-1.,0.));
#730=DIRECTION('',(0.,0.,-1.));
#731=DIRECTION('',(0.,-1.,0.));
#732=DIRECTION('',(0.,0.,-1.));
#733=DIRECTION('',(0.,-1.,0.));
#734=DIRECTION('',(0.,0.,-1.));
#735=DIRECTION('',(0.,-1.,0.));
#736=DIRECTION('',(0.,0.,-1.));
#737=DIRECTION('',(0.,-1.,0.));
#738=DIRECTION('',(0.,0.,-1.));
#739=DIRECTION('',(0.,-1.,0.));
#740=DIRECTION('',(0.,0.,-1.));
#741=DIRECTION('',(0.,-1.,0.));
#742=DIRECTION('',(0.,0.,-1.));
#743=DIRECTION('',(0.,1.,0.));
#744=DIRECTION('',(0.,0.,1.));
#745=DIRECTION('',(0.,-1.,0.));
#746=DIRECTION('',(0.,0.,-1.));
#747=DIRECTION('',(0.,-1.,0.));
#748=DIRECTION('',(0.,0.,-1.));
#749=DIRECTION('',(0.,-1.,0.));
#750=DIRECTION('',(0.,0.,-1.));
#751=DIRECTION('',(0.,-1.,0.));
#752=DIRECTION('',(0.,0.,-1.));
#753=DIRECTION('',(0.,-1.,0.));
#754=DIRECTION('',(0.,0.,-1.));
#755=DIRECTION('',(0.,-1.,0.));
#756=DIRECTION('',(0.,0.,-1.));
#757=DIRECTION('',(0.,-1.,0.));
#758=DIRECTION('',(0.,0.,-1.));
#759=DIRECTION('',(0.,-1.,0.));
#760=DIRECTION('',(0.,0.,-1.));
#761=DIRECTION('',(0.,-1.,0.));
#762=DIRECTION('',(0.,0.,-1.));
#763=DIRECTION('',(0.,-1.,0.));
#764=DIRECTION('',(0.,0.,-1.));
#765=DIRECTION('',(0.,-1.,0.));
#766=DIRECTION('',(0.,0.,-1.));
#767=DIRECTION('',(0.,-1.,0.));
#768=DIRECTION('',(0.,0.,-1.));
#769=DIRECTION('',(0.,1.,0.));
#770=DIRECTION('',(0.,0.,1.));
#771=DIRECTION('',(-5.02897295806389E-18,1.,0.));
#772=DIRECTION('',(-1.,-5.02897295806389E-18,0.));
#773=DIRECTION('',(0.,1.,0.));
#774=DIRECTION('',(0.,0.,1.));
#775=DIRECTION('',(-5.02897295806389E-18,1.,0.));
#776=DIRECTION('',(-1.,-5.02897295806389E-18,0.));
#777=DIRECTION('',(0.,1.,0.));
#778=DIRECTION('',(0.,0.,1.));
#779=DIRECTION('',(-5.02897295806389E-18,1.,0.));
#780=DIRECTION('',(-1.,-5.02897295806389E-18,0.));
#781=DIRECTION('',(0.,1.,0.));
#782=DIRECTION('',(0.,0.,1.));
#783=DIRECTION('',(-5.02897295806389E-18,1.,0.));
#784=DIRECTION('',(-1.,-5.02897295806389E-18,0.));
#785=DIRECTION('',(0.,1.,0.));
#786=DIRECTION('',(0.,0.,1.));
#787=DIRECTION('',(-5.02897295806389E-18,1.,0.));
#788=DIRECTION('',(-1.,-5.02897295806389E-18,0.));
#789=DIRECTION('',(0.,1.,0.));
#790=DIRECTION('',(0.,0.,1.));
#791=DIRECTION('',(-5.02897295806389E-18,1.,0.));
#792=DIRECTION('',(-1.,-5.02897295806389E-18,0.));
#793=DIRECTION('',(0.,1.,0.));
#794=DIRECTION('',(0.,0.,1.));
#795=DIRECTION('',(-5.02897295806389E-18,1.,0.));
#796=DIRECTION('',(-1.,-5.02897295806389E-18,0.));
#797=DIRECTION('',(0.,1.,0.));
#798=DIRECTION('',(0.,0.,1.));
#799=DIRECTION('',(-5.02897295806389E-18,1.,0.));
#800=DIRECTION('',(-1.,-5.02897295806389E-18,0.));
#801=DIRECTION('',(0.,1.,0.));
#802=DIRECTION('',(0.,0.,1.));
#803=DIRECTION('',(-5.02897295806389E-18,1.,0.));
#804=DIRECTION('',(-1.,-5.02897295806389E-18,0.));
#805=DIRECTION('',(0.,1.,0.));
#806=DIRECTION('',(0.,0.,1.));
#807=DIRECTION('',(-5.02897295806389E-18,1.,0.));
#808=DIRECTION('',(-1.,-5.02897295806389E-18,0.));
#809=DIRECTION('',(0.,1.,0.));
#810=DIRECTION('',(0.,0.,1.));
#811=DIRECTION('',(-5.02897295806389E-18,1.,0.));
#812=DIRECTION('',(-1.,-5.02897295806389E-18,0.));
#813=DIRECTION('',(0.,1.,0.));
#814=DIRECTION('',(0.,0.,1.));
#815=DIRECTION('',(-5.02897295806389E-18,1.,0.));
#816=DIRECTION('',(-1.,-5.02897295806389E-18,0.));
#817=DIRECTION('',(0.,1.,0.));
#818=DIRECTION('',(0.,0.,1.));
#819=DIRECTION('',(-5.02897295806389E-18,1.,0.));
#820=DIRECTION('',(-1.,-5.02897295806389E-18,0.));
#821=DIRECTION('',(0.,1.,0.));
#822=DIRECTION('',(0.,0.,1.));
#823=DIRECTION('',(-5.02897295806389E-18,1.,0.));
#824=DIRECTION('',(-1.,-5.02897295806389E-18,0.));
#825=DIRECTION('',(0.,1.,0.));
#826=DIRECTION('',(0.,0.,1.));
#827=DIRECTION('',(-5.02897295806389E-18,1.,0.));
#828=DIRECTION('',(-1.,-5.02897295806389E-18,0.));
#829=DIRECTION('',(0.,1.,0.));
#830=DIRECTION('',(0.,0.,1.));
#831=DIRECTION('',(-5.02897295806389E-18,1.,0.));
#832=DIRECTION('',(-1.,-5.02897295806389E-18,0.));
#833=DIRECTION('',(0.,1.,0.));
#834=DIRECTION('',(0.,0.,1.));
#835=DIRECTION('',(-5.02897295806389E-18,1.,0.));
#836=DIRECTION('',(-1.,-5.02897295806389E-18,0.));
#837=DIRECTION('',(0.,1.,0.));
#838=DIRECTION('',(0.,0.,1.));
#839=DIRECTION('',(-5.02897295806389E-18,1.,0.));
#840=DIRECTION('',(-1.,-5.02897295806389E-18,0.));
#841=DIRECTION('',(-5.02897295806389E-18,1.,0.));
#842=DIRECTION('',(-1.,-5.02897295806389E-18,0.));
#843=DIRECTION('',(-5.02897295806389E-18,1.,0.));
#844=DIRECTION('',(-1.,-5.02897295806389E-18,0.));
#845=DIRECTION('',(5.02897295806389E-18,-1.,0.));
#846=DIRECTION('',(1.,5.02897295806389E-18,0.));
#847=DIRECTION('',(-5.02897295806389E-18,1.,0.));
#848=DIRECTION('',(-1.,-5.02897295806389E-18,0.));
#849=DIRECTION('',(-5.02897295806389E-18,1.,0.));
#850=DIRECTION('',(-1.,-5.02897295806389E-18,0.));
#851=CARTESIAN_POINT('',(0.,0.,0.));
#852=CARTESIAN_POINT('',(-0.0155,0.0027,0.));
#853=CARTESIAN_POINT('',(0.,0.0027,0.));
#854=CARTESIAN_POINT('',(-0.0135,0.0027,0.));
#855=CARTESIAN_POINT('',(0.,0.0027,0.));
#856=CARTESIAN_POINT('',(0.,0.0027,-0.0155));
#857=CARTESIAN_POINT('',(-0.0035,0.02365,0.));
#858=CARTESIAN_POINT('',(0.00349999999999996,0.02365,0.00606217782649109));
#859=CARTESIAN_POINT('',(0.00349999999999996,0.02365,0.00731217782649109));
#860=CARTESIAN_POINT('',(0.00975,0.02365,5.46437894932694E-17));
#861=CARTESIAN_POINT('',(0.00975,0.02365,0.00125000000000005));
#862=CARTESIAN_POINT('',(0.007,0.02365,3.80283911999291E-17));
#863=CARTESIAN_POINT('',(0.007,0.02365,0.00125000000000004));
#864=CARTESIAN_POINT('',(0.004875,0.02365,-0.00844374768689825));
#865=CARTESIAN_POINT('',(0.004875,0.02365,-0.00719374768689825));
#866=CARTESIAN_POINT('',(-0.007,0.02365,-3.4477629085039E-17));
#867=CARTESIAN_POINT('',(-0.007,0.02365,0.00124999999999997));
#868=CARTESIAN_POINT('',(-0.004875,0.02365,0.00844374768689825));
#869=CARTESIAN_POINT('',(-0.004875,0.02365,0.00969374768689825));
#870=CARTESIAN_POINT('',(-0.0035,0.02365,0.00606217782649105));
#871=CARTESIAN_POINT('',(-0.0035,0.02365,0.00731217782649105));
#872=CARTESIAN_POINT('',(0.004875,0.02365,0.0084437476868983));
#873=CARTESIAN_POINT('',(0.004875,0.02365,0.0096937476868983));
#874=CARTESIAN_POINT('',(-0.00349999999999996,0.02365,-0.00606217782649109));
#875=CARTESIAN_POINT('',(-0.00349999999999996,0.02365,-0.00481217782649109));
#876=CARTESIAN_POINT('',(0.00692820323027551,0.02365,-0.004));
#877=CARTESIAN_POINT('',(0.00692820323027551,0.02365,-0.0015));
#878=CARTESIAN_POINT('',(0.00692820323027551,0.02365,0.004));
#879=CARTESIAN_POINT('',(0.00692820323027551,0.02365,0.0065));
#880=CARTESIAN_POINT('',(8.67361737988404E-19,0.02365,0.008));
#881=CARTESIAN_POINT('',(8.67361737988404E-19,0.02365,0.0105));
#882=CARTESIAN_POINT('',(0.0035,0.02365,-0.00606217782649105));
#883=CARTESIAN_POINT('',(0.0035,0.02365,-0.00481217782649105));
#884=CARTESIAN_POINT('',(-0.004875,0.02365,-0.00844374768689831));
#885=CARTESIAN_POINT('',(-0.004875,0.02365,-0.00719374768689831));
#886=CARTESIAN_POINT('',(-0.00692820323027551,0.02365,-0.004));
#887=CARTESIAN_POINT('',(-0.00692820323027551,0.02365,-0.0015));
#888=CARTESIAN_POINT('',(-0.00692820323027551,0.02365,0.004));
#889=CARTESIAN_POINT('',(-0.00692820323027551,0.02365,0.0065));
#890=CARTESIAN_POINT('',(-0.00975,0.02365,-4.9439619065339E-17));
#891=CARTESIAN_POINT('',(-0.00975,0.02365,0.00124999999999995));
#892=CARTESIAN_POINT('',(0.,0.02365,-0.008));
#893=CARTESIAN_POINT('',(0.,0.02365,-0.0055));
#894=CARTESIAN_POINT('',(0.,0.02365,0.));
#895=CARTESIAN_POINT('',(0.,0.02365,-0.0135));
#896=CARTESIAN_POINT('',(0.,0.02365,0.));
#897=CARTESIAN_POINT('',(0.,0.02365,-0.0035));
#898=CARTESIAN_POINT('',(0.,-0.02485,0.));
#899=CARTESIAN_POINT('',(0.,0.02755,0.));
#900=CARTESIAN_POINT('',(0.,0.02755,-0.0035));
#901=CARTESIAN_POINT('',(0.,0.02365,0.));
#902=CARTESIAN_POINT('',(0.,0.02065,0.));
#903=CARTESIAN_POINT('',(0.,0.02065,-0.0155));
#904=CARTESIAN_POINT('',(0.,-0.02485,0.));
#905=CARTESIAN_POINT('',(-0.0035,0.02755,0.));
#906=CARTESIAN_POINT('',(0.,0.02755,0.));
#907=CARTESIAN_POINT('',(0.,0.02755,-0.0025));
#908=CARTESIAN_POINT('',(0.,-0.028505,0.));
#909=CARTESIAN_POINT('',(0.,0.02855,0.));
#910=CARTESIAN_POINT('',(0.,0.02855,-0.0025));
#911=CARTESIAN_POINT('',(-0.0035,0.02855,0.));
#912=CARTESIAN_POINT('',(0.,0.02855,0.));
#913=CARTESIAN_POINT('',(0.,0.02855,-0.0035));
#914=CARTESIAN_POINT('',(0.,0.04825,0.));
#915=CARTESIAN_POINT('',(0.,0.04825,0.));
#916=CARTESIAN_POINT('',(0.,0.04825,-0.0015));
#917=CARTESIAN_POINT('',(0.,-0.02485,0.));
#918=CARTESIAN_POINT('',(0.,0.03345,0.));
#919=CARTESIAN_POINT('',(0.,0.03345,-0.0015));
#920=CARTESIAN_POINT('',(-0.0015,0.03345,0.));
#921=CARTESIAN_POINT('',(0.,0.03345,0.));
#922=CARTESIAN_POINT('',(0.,0.03345,-0.0035));
#923=CARTESIAN_POINT('',(0.,-0.02485,0.));
#924=CARTESIAN_POINT('',(0.,0.02115,-0.008));
#925=CARTESIAN_POINT('',(0.,0.02165,-0.008));
#926=CARTESIAN_POINT('',(-0.0025,0.02165,-0.008));
#927=CARTESIAN_POINT('',(-0.00975,0.02115,-4.9439619065339E-17));
#928=CARTESIAN_POINT('',(-0.00975,0.02165,-4.9439619065339E-17));
#929=CARTESIAN_POINT('',(-0.011,0.02165,-4.9439619065339E-17));
#930=CARTESIAN_POINT('',(-0.00692820323027551,0.02115,0.004));
#931=CARTESIAN_POINT('',(-0.00692820323027551,0.02165,0.004));
#932=CARTESIAN_POINT('',(-0.00942820323027551,0.02165,0.004));
#933=CARTESIAN_POINT('',(-0.00692820323027551,0.02115,-0.004));
#934=CARTESIAN_POINT('',(-0.00692820323027551,0.02165,-0.004));
#935=CARTESIAN_POINT('',(-0.00942820323027551,0.02165,-0.004));
#936=CARTESIAN_POINT('',(-0.004875,0.02115,-0.00844374768689831));
#937=CARTESIAN_POINT('',(-0.004875,0.02165,-0.00844374768689831));
#938=CARTESIAN_POINT('',(-0.006125,0.02165,-0.00844374768689831));
#939=CARTESIAN_POINT('',(0.0035,0.02115,-0.00606217782649105));
#940=CARTESIAN_POINT('',(0.0035,0.02165,-0.00606217782649105));
#941=CARTESIAN_POINT('',(0.00225,0.02165,-0.00606217782649105));
#942=CARTESIAN_POINT('',(8.67361737988404E-19,0.02115,0.008));
#943=CARTESIAN_POINT('',(8.67361737988404E-19,0.02165,0.008));
#944=CARTESIAN_POINT('',(-0.0025,0.02165,0.008));
#945=CARTESIAN_POINT('',(0.00692820323027551,0.02115,0.004));
#946=CARTESIAN_POINT('',(0.00692820323027551,0.02165,0.004));
#947=CARTESIAN_POINT('',(0.00442820323027551,0.02165,0.004));
#948=CARTESIAN_POINT('',(0.00692820323027551,0.02115,-0.004));
#949=CARTESIAN_POINT('',(0.00692820323027551,0.02165,-0.004));
#950=CARTESIAN_POINT('',(0.00442820323027551,0.02165,-0.004));
#951=CARTESIAN_POINT('',(-0.00349999999999996,0.02115,-0.00606217782649109));
#952=CARTESIAN_POINT('',(-0.00349999999999996,0.02165,-0.00606217782649109));
#953=CARTESIAN_POINT('',(-0.00474999999999996,0.02165,-0.00606217782649109));
#954=CARTESIAN_POINT('',(0.004875,0.02115,0.0084437476868983));
#955=CARTESIAN_POINT('',(0.004875,0.02165,0.0084437476868983));
#956=CARTESIAN_POINT('',(0.003625,0.02165,0.0084437476868983));
#957=CARTESIAN_POINT('',(-0.0035,0.02115,0.00606217782649105));
#958=CARTESIAN_POINT('',(-0.0035,0.02165,0.00606217782649105));
#959=CARTESIAN_POINT('',(-0.00475,0.02165,0.00606217782649105));
#960=CARTESIAN_POINT('',(-0.004875,0.02115,0.00844374768689825));
#961=CARTESIAN_POINT('',(-0.004875,0.02165,0.00844374768689825));
#962=CARTESIAN_POINT('',(-0.006125,0.02165,0.00844374768689825));
#963=CARTESIAN_POINT('',(-0.007,0.02115,-3.4477629085039E-17));
#964=CARTESIAN_POINT('',(-0.007,0.02165,-3.4477629085039E-17));
#965=CARTESIAN_POINT('',(-0.00825,0.02165,-3.4477629085039E-17));
#966=CARTESIAN_POINT('',(0.004875,0.02115,-0.00844374768689825));
#967=CARTESIAN_POINT('',(0.004875,0.02165,-0.00844374768689825));
#968=CARTESIAN_POINT('',(0.003625,0.02165,-0.00844374768689825));
#969=CARTESIAN_POINT('',(0.007,0.02115,3.80283911999291E-17));
#970=CARTESIAN_POINT('',(0.007,0.02165,3.80283911999291E-17));
#971=CARTESIAN_POINT('',(0.00575,0.02165,3.80283911999291E-17));
#972=CARTESIAN_POINT('',(0.00975,0.02115,5.46437894932694E-17));
#973=CARTESIAN_POINT('',(0.00975,0.02165,5.46437894932694E-17));
#974=CARTESIAN_POINT('',(0.0085,0.02165,5.46437894932694E-17));
#975=CARTESIAN_POINT('',(0.00349999999999996,0.02115,0.00606217782649109));
#976=CARTESIAN_POINT('',(0.00349999999999996,0.02165,0.00606217782649109));
#977=CARTESIAN_POINT('',(0.00224999999999996,0.02165,0.00606217782649109));
#978=CARTESIAN_POINT('',(-9.52990375553106E-20,0.02165,0.));
#979=CARTESIAN_POINT('',(-8.72247636082173E-20,0.020044448724536,0.));
#980=CARTESIAN_POINT('',(-0.0135,0.020044448724536,0.));
#981=CARTESIAN_POINT('',(-9.52990375553106E-20,0.02165,0.));
#982=CARTESIAN_POINT('',(-9.52990375553106E-20,0.02165,0.));
#983=CARTESIAN_POINT('',(-0.012429632483024,0.02165,0.));
#984=CARTESIAN_POINT('',(-0.012429632483024,0.02165,0.));
#985=MECHANICAL_DESIGN_GEOMETRIC_PRESENTATION_REPRESENTATION('',(#546,#20,
#21,#22,#23,#24,#25,#26),#986);
#986=(
GEOMETRIC_REPRESENTATION_CONTEXT(3)
GLOBAL_UNCERTAINTY_ASSIGNED_CONTEXT((#987))
GLOBAL_UNIT_ASSIGNED_CONTEXT((#990,#989,#988))
REPRESENTATION_CONTEXT('CRM2413','TOP_LEVEL_ASSEMBLY_PART')
);
#987=UNCERTAINTY_MEASURE_WITH_UNIT(LENGTH_MEASURE(1.E-8),#990,
'DISTANCE_ACCURACY_VALUE','Maximum Tolerance applied to model');
#988=(
NAMED_UNIT(*)
SI_UNIT($,.STERADIAN.)
SOLID_ANGLE_UNIT()
);
#989=(
NAMED_UNIT(*)
PLANE_ANGLE_UNIT()
SI_UNIT($,.RADIAN.)
);
#990=(
LENGTH_UNIT()
NAMED_UNIT(*)
SI_UNIT($,.METRE.)
);
#991=PRODUCT_DEFINITION_SHAPE('','',#992);
#992=PRODUCT_DEFINITION('','',#994,#993);
#993=PRODUCT_DEFINITION_CONTEXT('',#1000,'design');
#994=PRODUCT_DEFINITION_FORMATION_WITH_SPECIFIED_SOURCE('','',#996,
 .NOT_KNOWN.);
#995=PRODUCT_RELATED_PRODUCT_CATEGORY('','',(#996));
#996=PRODUCT('CRM2413','CRM2413','CRM2413',(#998));
#997=PRODUCT_CATEGORY('','');
#998=PRODUCT_CONTEXT('',#1000,'mechanical');
#999=APPLICATION_PROTOCOL_DEFINITION('international standard',
'automotive_design',2010,#1000);
#1000=APPLICATION_CONTEXT(
'core data for automotive mechanical design processes');
ENDSEC;
END-ISO-10303-21;
