ISO-10303-21;
HEADER;
/* Generated by software containing ST-Developer
 * from STEP Tools, Inc. (www.steptools.com) 
 */
/* OPTION: using custom renumber hook */

FILE_DESCRIPTION(
/* description */ ('STEP AP214',
'CAx-IF Rec.Pracs.---User Defined Attributes---1.5---2016-08-15'),
/* implementation_level */ '2;1');

FILE_NAME(
/* name */ '6a386d17ee269b265a355610',
/* time_stamp */ '2026-06-21T23:00:40Z',
/* author */ (''),
/* organization */ (''),
/* preprocessor_version */ 'ST-DEVELOPER v20',
/* originating_system */ 'ONSHAPE BY PTC INC, 1.216',
/* authorisation */ '  ');

FILE_SCHEMA (('AUTOMOTIVE_DESIGN {1 0 10303 214 3 1 1}'));
ENDSEC;

DATA;
#10=PROPERTY_DEFINITION_REPRESENTATION(#14,#12);
#11=PROPERTY_DEFINITION_REPRESENTATION(#15,#13);
#12=REPRESENTATION('',(#16),#369);
#13=REPRESENTATION('',(#17),#369);
#14=PROPERTY_DEFINITION('pmi validation property','',#374);
#15=PROPERTY_DEFINITION('pmi validation property','',#374);
#16=VALUE_REPRESENTATION_ITEM('number of annotations',COUNT_MEASURE(0.));
#17=VALUE_REPRESENTATION_ITEM('number of views',COUNT_MEASURE(0.));
#18=SHAPE_REPRESENTATION_RELATIONSHIP('','',#225,#19);
#19=ADVANCED_BREP_SHAPE_REPRESENTATION('',(#223),#369);
#20=CYLINDRICAL_SURFACE('',#231,0.0025);
#21=CYLINDRICAL_SURFACE('',#240,0.00175);
#22=LINE('',#315,#38);
#23=LINE('',#320,#39);
#24=LINE('',#327,#40);
#25=LINE('',#331,#41);
#26=LINE('',#335,#42);
#27=LINE('',#339,#43);
#28=LINE('',#340,#44);
#29=LINE('',#344,#45);
#30=LINE('',#345,#46);
#31=LINE('',#349,#47);
#32=LINE('',#351,#48);
#33=LINE('',#352,#49);
#34=LINE('',#357,#50);
#35=LINE('',#360,#51);
#36=LINE('',#363,#52);
#37=LINE('',#366,#53);
#38=VECTOR('',#255,1.);
#39=VECTOR('',#258,1.);
#40=VECTOR('',#265,1.);
#41=VECTOR('',#268,1.);
#42=VECTOR('',#271,1.);
#43=VECTOR('',#274,1.);
#44=VECTOR('',#275,1.);
#45=VECTOR('',#278,1.);
#46=VECTOR('',#279,1.);
#47=VECTOR('',#282,1.);
#48=VECTOR('',#285,1.);
#49=VECTOR('',#286,1.);
#50=VECTOR('',#293,1.);
#51=VECTOR('',#298,1.);
#52=VECTOR('',#303,1.);
#53=VECTOR('',#308,1.);
#54=ORIENTED_EDGE('',*,*,#106,.T.);
#55=ORIENTED_EDGE('',*,*,#107,.T.);
#56=ORIENTED_EDGE('',*,*,#108,.F.);
#57=ORIENTED_EDGE('',*,*,#109,.T.);
#58=ORIENTED_EDGE('',*,*,#110,.F.);
#59=ORIENTED_EDGE('',*,*,#111,.F.);
#60=ORIENTED_EDGE('',*,*,#112,.T.);
#61=ORIENTED_EDGE('',*,*,#113,.F.);
#62=ORIENTED_EDGE('',*,*,#114,.T.);
#63=ORIENTED_EDGE('',*,*,#115,.F.);
#64=ORIENTED_EDGE('',*,*,#116,.T.);
#65=ORIENTED_EDGE('',*,*,#117,.T.);
#66=ORIENTED_EDGE('',*,*,#118,.T.);
#67=ORIENTED_EDGE('',*,*,#119,.F.);
#68=ORIENTED_EDGE('',*,*,#120,.F.);
#69=ORIENTED_EDGE('',*,*,#121,.F.);
#70=ORIENTED_EDGE('',*,*,#110,.T.);
#71=ORIENTED_EDGE('',*,*,#122,.F.);
#72=ORIENTED_EDGE('',*,*,#123,.T.);
#73=ORIENTED_EDGE('',*,*,#124,.F.);
#74=ORIENTED_EDGE('',*,*,#108,.T.);
#75=ORIENTED_EDGE('',*,*,#125,.F.);
#76=ORIENTED_EDGE('',*,*,#111,.T.);
#77=ORIENTED_EDGE('',*,*,#126,.F.);
#78=ORIENTED_EDGE('',*,*,#115,.T.);
#79=ORIENTED_EDGE('',*,*,#127,.F.);
#80=ORIENTED_EDGE('',*,*,#127,.T.);
#81=ORIENTED_EDGE('',*,*,#106,.F.);
#82=ORIENTED_EDGE('',*,*,#126,.T.);
#83=ORIENTED_EDGE('',*,*,#118,.F.);
#84=ORIENTED_EDGE('',*,*,#128,.F.);
#85=ORIENTED_EDGE('',*,*,#116,.F.);
#86=ORIENTED_EDGE('',*,*,#128,.T.);
#87=ORIENTED_EDGE('',*,*,#117,.F.);
#88=ORIENTED_EDGE('',*,*,#125,.T.);
#89=ORIENTED_EDGE('',*,*,#114,.F.);
#90=ORIENTED_EDGE('',*,*,#129,.F.);
#91=ORIENTED_EDGE('',*,*,#112,.F.);
#92=ORIENTED_EDGE('',*,*,#113,.T.);
#93=ORIENTED_EDGE('',*,*,#129,.T.);
#94=ORIENTED_EDGE('',*,*,#122,.T.);
#95=ORIENTED_EDGE('',*,*,#109,.F.);
#96=ORIENTED_EDGE('',*,*,#124,.T.);
#97=ORIENTED_EDGE('',*,*,#130,.T.);
#98=ORIENTED_EDGE('',*,*,#130,.F.);
#99=ORIENTED_EDGE('',*,*,#123,.F.);
#100=ORIENTED_EDGE('',*,*,#119,.T.);
#101=ORIENTED_EDGE('',*,*,#107,.F.);
#102=ORIENTED_EDGE('',*,*,#121,.T.);
#103=ORIENTED_EDGE('',*,*,#131,.T.);
#104=ORIENTED_EDGE('',*,*,#120,.T.);
#105=ORIENTED_EDGE('',*,*,#131,.F.);
#106=EDGE_CURVE('',#132,#132,#150,.T.);
#107=EDGE_CURVE('',#133,#134,#22,.T.);
#108=EDGE_CURVE('',#135,#134,#151,.T.);
#109=EDGE_CURVE('',#135,#136,#23,.T.);
#110=EDGE_CURVE('',#133,#136,#152,.T.);
#111=EDGE_CURVE('',#137,#138,#153,.T.);
#112=EDGE_CURVE('',#137,#139,#24,.T.);
#113=EDGE_CURVE('',#140,#139,#154,.T.);
#114=EDGE_CURVE('',#140,#141,#25,.F.);
#115=EDGE_CURVE('',#142,#141,#155,.T.);
#116=EDGE_CURVE('',#142,#143,#26,.T.);
#117=EDGE_CURVE('',#143,#144,#156,.T.);
#118=EDGE_CURVE('',#144,#138,#27,.F.);
#119=EDGE_CURVE('',#145,#134,#28,.T.);
#120=EDGE_CURVE('',#146,#145,#157,.T.);
#121=EDGE_CURVE('',#133,#146,#29,.F.);
#122=EDGE_CURVE('',#147,#136,#30,.T.);
#123=EDGE_CURVE('',#147,#148,#158,.T.);
#124=EDGE_CURVE('',#135,#148,#31,.F.);
#125=EDGE_CURVE('',#137,#141,#32,.T.);
#126=EDGE_CURVE('',#142,#138,#33,.T.);
#127=EDGE_CURVE('',#149,#149,#159,.T.);
#128=EDGE_CURVE('',#143,#144,#34,.T.);
#129=EDGE_CURVE('',#139,#140,#35,.T.);
#130=EDGE_CURVE('',#148,#147,#36,.T.);
#131=EDGE_CURVE('',#146,#145,#37,.T.);
#132=VERTEX_POINT('',#314);
#133=VERTEX_POINT('',#316);
#134=VERTEX_POINT('',#317);
#135=VERTEX_POINT('',#319);
#136=VERTEX_POINT('',#321);
#137=VERTEX_POINT('',#325);
#138=VERTEX_POINT('',#326);
#139=VERTEX_POINT('',#328);
#140=VERTEX_POINT('',#330);
#141=VERTEX_POINT('',#332);
#142=VERTEX_POINT('',#334);
#143=VERTEX_POINT('',#336);
#144=VERTEX_POINT('',#338);
#145=VERTEX_POINT('',#341);
#146=VERTEX_POINT('',#343);
#147=VERTEX_POINT('',#346);
#148=VERTEX_POINT('',#348);
#149=VERTEX_POINT('',#354);
#150=CIRCLE('',#228,0.00175);
#151=CIRCLE('',#229,0.0025);
#152=CIRCLE('',#230,0.0025);
#153=CIRCLE('',#232,0.0025);
#154=CIRCLE('',#233,0.0025);
#155=CIRCLE('',#234,0.0025);
#156=CIRCLE('',#235,0.0025);
#157=CIRCLE('',#236,0.0025);
#158=CIRCLE('',#237,0.0025);
#159=CIRCLE('',#239,0.00175);
#160=EDGE_LOOP('',(#54));
#161=EDGE_LOOP('',(#55,#56,#57,#58));
#162=EDGE_LOOP('',(#59,#60,#61,#62,#63,#64,#65,#66));
#163=EDGE_LOOP('',(#67,#68,#69,#70,#71,#72,#73,#74));
#164=EDGE_LOOP('',(#75,#76,#77,#78));
#165=EDGE_LOOP('',(#79));
#166=EDGE_LOOP('',(#80));
#167=EDGE_LOOP('',(#81));
#168=EDGE_LOOP('',(#82,#83,#84,#85));
#169=EDGE_LOOP('',(#86,#87));
#170=EDGE_LOOP('',(#88,#89,#90,#91));
#171=EDGE_LOOP('',(#92,#93));
#172=EDGE_LOOP('',(#94,#95,#96,#97));
#173=EDGE_LOOP('',(#98,#99));
#174=EDGE_LOOP('',(#100,#101,#102,#103));
#175=EDGE_LOOP('',(#104,#105));
#176=FACE_BOUND('',#160,.T.);
#177=FACE_BOUND('',#161,.T.);
#178=FACE_BOUND('',#162,.T.);
#179=FACE_BOUND('',#163,.T.);
#180=FACE_BOUND('',#164,.T.);
#181=FACE_BOUND('',#165,.T.);
#182=FACE_BOUND('',#166,.T.);
#183=FACE_BOUND('',#167,.T.);
#184=FACE_BOUND('',#168,.T.);
#185=FACE_BOUND('',#169,.T.);
#186=FACE_BOUND('',#170,.T.);
#187=FACE_BOUND('',#171,.T.);
#188=FACE_BOUND('',#172,.T.);
#189=FACE_BOUND('',#173,.T.);
#190=FACE_BOUND('',#174,.T.);
#191=FACE_BOUND('',#175,.T.);
#192=PLANE('',#227);
#193=PLANE('',#238);
#194=PLANE('',#241);
#195=PLANE('',#242);
#196=PLANE('',#243);
#197=PLANE('',#244);
#198=PLANE('',#245);
#199=PLANE('',#246);
#200=PLANE('',#247);
#201=PLANE('',#248);
#202=ADVANCED_FACE('',(#176,#177),#192,.F.);
#203=ADVANCED_FACE('',(#178,#179),#20,.T.);
#204=ADVANCED_FACE('',(#180,#181),#193,.T.);
#205=ADVANCED_FACE('',(#182,#183),#21,.F.);
#206=ADVANCED_FACE('',(#184),#194,.F.);
#207=ADVANCED_FACE('',(#185),#195,.F.);
#208=ADVANCED_FACE('',(#186),#196,.F.);
#209=ADVANCED_FACE('',(#187),#197,.T.);
#210=ADVANCED_FACE('',(#188),#198,.T.);
#211=ADVANCED_FACE('',(#189),#199,.F.);
#212=ADVANCED_FACE('',(#190),#200,.T.);
#213=ADVANCED_FACE('',(#191),#201,.T.);
#214=CLOSED_SHELL('',(#202,#203,#204,#205,#206,#207,#208,#209,#210,#211,
#212,#213));
#215=STYLED_ITEM('',(#216),#223);
#216=PRESENTATION_STYLE_ASSIGNMENT((#217));
#217=SURFACE_STYLE_USAGE(.BOTH.,#218);
#218=SURFACE_SIDE_STYLE('',(#219));
#219=SURFACE_STYLE_FILL_AREA(#220);
#220=FILL_AREA_STYLE('',(#221));
#221=FILL_AREA_STYLE_COLOUR('',#222);
#222=DRAUGHTING_PRE_DEFINED_COLOUR('red');
#223=MANIFOLD_SOLID_BREP('Extension rods',#214);
#224=SHAPE_DEFINITION_REPRESENTATION(#374,#225);
#225=SHAPE_REPRESENTATION('Extension rods',(#226),#369);
#226=AXIS2_PLACEMENT_3D('',#311,#249,#250);
#227=AXIS2_PLACEMENT_3D('',#312,#251,#252);
#228=AXIS2_PLACEMENT_3D('',#313,#253,#254);
#229=AXIS2_PLACEMENT_3D('',#318,#256,#257);
#230=AXIS2_PLACEMENT_3D('',#322,#259,#260);
#231=AXIS2_PLACEMENT_3D('',#323,#261,#262);
#232=AXIS2_PLACEMENT_3D('',#324,#263,#264);
#233=AXIS2_PLACEMENT_3D('',#329,#266,#267);
#234=AXIS2_PLACEMENT_3D('',#333,#269,#270);
#235=AXIS2_PLACEMENT_3D('',#337,#272,#273);
#236=AXIS2_PLACEMENT_3D('',#342,#276,#277);
#237=AXIS2_PLACEMENT_3D('',#347,#280,#281);
#238=AXIS2_PLACEMENT_3D('',#350,#283,#284);
#239=AXIS2_PLACEMENT_3D('',#353,#287,#288);
#240=AXIS2_PLACEMENT_3D('',#355,#289,#290);
#241=AXIS2_PLACEMENT_3D('',#356,#291,#292);
#242=AXIS2_PLACEMENT_3D('',#358,#294,#295);
#243=AXIS2_PLACEMENT_3D('',#359,#296,#297);
#244=AXIS2_PLACEMENT_3D('',#361,#299,#300);
#245=AXIS2_PLACEMENT_3D('',#362,#301,#302);
#246=AXIS2_PLACEMENT_3D('',#364,#304,#305);
#247=AXIS2_PLACEMENT_3D('',#365,#306,#307);
#248=AXIS2_PLACEMENT_3D('',#367,#309,#310);
#249=DIRECTION('',(0.,0.,1.));
#250=DIRECTION('',(1.,0.,0.));
#251=DIRECTION('',(0.,1.,0.));
#252=DIRECTION('',(0.,0.,1.));
#253=DIRECTION('',(0.,1.,0.));
#254=DIRECTION('',(0.,0.,1.));
#255=DIRECTION('',(0.,0.,-1.));
#256=DIRECTION('',(0.,1.,0.));
#257=DIRECTION('',(0.,0.,1.));
#258=DIRECTION('',(0.,0.,1.));
#259=DIRECTION('',(0.,1.,0.));
#260=DIRECTION('',(0.,0.,1.));
#261=DIRECTION('',(0.,-1.,0.));
#262=DIRECTION('',(0.,0.,-1.));
#263=DIRECTION('',(0.,1.,0.));
#264=DIRECTION('',(0.,0.,1.));
#265=DIRECTION('',(0.,-1.,0.));
#266=DIRECTION('',(0.,1.,0.));
#267=DIRECTION('',(0.,0.,1.));
#268=DIRECTION('',(0.,-1.,0.));
#269=DIRECTION('',(0.,1.,0.));
#270=DIRECTION('',(0.,0.,1.));
#271=DIRECTION('',(0.,-1.,0.));
#272=DIRECTION('',(0.,-1.,0.));
#273=DIRECTION('',(0.,0.,-1.));
#274=DIRECTION('',(0.,-1.,0.));
#275=DIRECTION('',(0.,-1.,0.));
#276=DIRECTION('',(0.,-1.,0.));
#277=DIRECTION('',(0.,0.,-1.));
#278=DIRECTION('',(0.,-1.,0.));
#279=DIRECTION('',(0.,-1.,0.));
#280=DIRECTION('',(0.,1.,0.));
#281=DIRECTION('',(0.,0.,1.));
#282=DIRECTION('',(0.,-1.,0.));
#283=DIRECTION('',(0.,1.,0.));
#284=DIRECTION('',(0.,0.,1.));
#285=DIRECTION('',(0.,0.,-1.));
#286=DIRECTION('',(0.,0.,1.));
#287=DIRECTION('',(0.,1.,0.));
#288=DIRECTION('',(0.,0.,1.));
#289=DIRECTION('',(0.,-1.,0.));
#290=DIRECTION('',(0.,0.,-1.));
#291=DIRECTION('',(-1.,0.,0.));
#292=DIRECTION('',(0.,0.,1.));
#293=DIRECTION('',(0.,0.,1.));
#294=DIRECTION('',(0.,-1.,0.));
#295=DIRECTION('',(0.,0.,-1.));
#296=DIRECTION('',(1.,0.,0.));
#297=DIRECTION('',(0.,0.,-1.));
#298=DIRECTION('',(0.,0.,-1.));
#299=DIRECTION('',(0.,1.,0.));
#300=DIRECTION('',(0.,0.,1.));
#301=DIRECTION('',(1.,0.,0.));
#302=DIRECTION('',(0.,0.,-1.));
#303=DIRECTION('',(0.,0.,1.));
#304=DIRECTION('',(0.,1.,0.));
#305=DIRECTION('',(0.,0.,-1.));
#306=DIRECTION('',(-1.,0.,0.));
#307=DIRECTION('',(0.,0.,1.));
#308=DIRECTION('',(0.,0.,-1.));
#309=DIRECTION('',(0.,-1.,0.));
#310=DIRECTION('',(0.,0.,1.));
#311=CARTESIAN_POINT('',(0.,0.,0.));
#312=CARTESIAN_POINT('',(0.,-0.0165,0.));
#313=CARTESIAN_POINT('',(0.,-0.0165,0.));
#314=CARTESIAN_POINT('',(0.,-0.0165,0.00175));
#315=CARTESIAN_POINT('',(-0.00225,-0.0165,-0.0025));
#316=CARTESIAN_POINT('',(-0.00225,-0.0165,0.00108972473588517));
#317=CARTESIAN_POINT('',(-0.00225,-0.0165,-0.00108972473588517));
#318=CARTESIAN_POINT('',(0.,-0.0165,0.));
#319=CARTESIAN_POINT('',(0.00225,-0.0165,-0.00108972473588517));
#320=CARTESIAN_POINT('',(0.00225,-0.0165,-0.0025));
#321=CARTESIAN_POINT('',(0.00225,-0.0165,0.00108972473588517));
#322=CARTESIAN_POINT('',(0.,-0.0165,0.));
#323=CARTESIAN_POINT('',(0.,0.0165,0.));
#324=CARTESIAN_POINT('',(0.,0.0165,0.));
#325=CARTESIAN_POINT('',(-0.00225,0.0165,0.00108972473588517));
#326=CARTESIAN_POINT('',(0.00225,0.0165,0.00108972473588517));
#327=CARTESIAN_POINT('',(-0.00225,0.0165,0.00108972473588517));
#328=CARTESIAN_POINT('',(-0.00225,0.0115,0.00108972473588517));
#329=CARTESIAN_POINT('',(0.,0.0115,0.));
#330=CARTESIAN_POINT('',(-0.00225,0.0115,-0.00108972473588517));
#331=CARTESIAN_POINT('',(-0.00225,0.0165,-0.00108972473588517));
#332=CARTESIAN_POINT('',(-0.00225,0.0165,-0.00108972473588517));
#333=CARTESIAN_POINT('',(0.,0.0165,0.));
#334=CARTESIAN_POINT('',(0.00225,0.0165,-0.00108972473588517));
#335=CARTESIAN_POINT('',(0.00225,0.0165,-0.00108972473588517));
#336=CARTESIAN_POINT('',(0.00225,0.0115,-0.00108972473588517));
#337=CARTESIAN_POINT('',(0.,0.0115,0.));
#338=CARTESIAN_POINT('',(0.00225,0.0115,0.00108972473588517));
#339=CARTESIAN_POINT('',(0.00225,0.0165,0.00108972473588517));
#340=CARTESIAN_POINT('',(-0.00225,0.0165,-0.00108972473588517));
#341=CARTESIAN_POINT('',(-0.00225,-0.0115,-0.00108972473588517));
#342=CARTESIAN_POINT('',(0.,-0.0115,0.));
#343=CARTESIAN_POINT('',(-0.00225,-0.0115,0.00108972473588517));
#344=CARTESIAN_POINT('',(-0.00225,0.0165,0.00108972473588517));
#345=CARTESIAN_POINT('',(0.00225,0.0165,0.00108972473588517));
#346=CARTESIAN_POINT('',(0.00225,-0.0115,0.00108972473588517));
#347=CARTESIAN_POINT('',(0.,-0.0115,0.));
#348=CARTESIAN_POINT('',(0.00225,-0.0115,-0.00108972473588517));
#349=CARTESIAN_POINT('',(0.00225,0.0165,-0.00108972473588517));
#350=CARTESIAN_POINT('',(0.,0.0165,0.));
#351=CARTESIAN_POINT('',(-0.00225,0.0165,-0.0025));
#352=CARTESIAN_POINT('',(0.00225,0.0165,-0.0025));
#353=CARTESIAN_POINT('',(0.,0.0165,0.));
#354=CARTESIAN_POINT('',(0.,0.0165,0.00175));
#355=CARTESIAN_POINT('',(0.,0.0165,0.));
#356=CARTESIAN_POINT('',(0.00225,0.0115,-0.0025));
#357=CARTESIAN_POINT('',(0.00225,0.0115,-0.0025));
#358=CARTESIAN_POINT('',(0.,0.0115,0.));
#359=CARTESIAN_POINT('',(-0.00225,0.0115,-0.0025));
#360=CARTESIAN_POINT('',(-0.00225,0.0115,-0.0025));
#361=CARTESIAN_POINT('',(0.,0.0115,0.));
#362=CARTESIAN_POINT('',(0.00225,-0.0115,-0.0025));
#363=CARTESIAN_POINT('',(0.00225,-0.0115,-0.0025));
#364=CARTESIAN_POINT('',(0.,-0.0115,0.));
#365=CARTESIAN_POINT('',(-0.00225,-0.0115,-0.0025));
#366=CARTESIAN_POINT('',(-0.00225,-0.0115,-0.0025));
#367=CARTESIAN_POINT('',(0.,-0.0115,0.));
#368=MECHANICAL_DESIGN_GEOMETRIC_PRESENTATION_REPRESENTATION('',(#215),
#369);
#369=(
GEOMETRIC_REPRESENTATION_CONTEXT(3)
GLOBAL_UNCERTAINTY_ASSIGNED_CONTEXT((#370))
GLOBAL_UNIT_ASSIGNED_CONTEXT((#373,#372,#371))
REPRESENTATION_CONTEXT('Extension rods','TOP_LEVEL_ASSEMBLY_PART')
);
#370=UNCERTAINTY_MEASURE_WITH_UNIT(LENGTH_MEASURE(1.E-8),#373,
'DISTANCE_ACCURACY_VALUE','Maximum Tolerance applied to model');
#371=(
NAMED_UNIT(*)
SI_UNIT($,.STERADIAN.)
SOLID_ANGLE_UNIT()
);
#372=(
NAMED_UNIT(*)
PLANE_ANGLE_UNIT()
SI_UNIT($,.RADIAN.)
);
#373=(
LENGTH_UNIT()
NAMED_UNIT(*)
SI_UNIT($,.METRE.)
);
#374=PRODUCT_DEFINITION_SHAPE('','',#375);
#375=PRODUCT_DEFINITION('','',#377,#376);
#376=PRODUCT_DEFINITION_CONTEXT('',#383,'design');
#377=PRODUCT_DEFINITION_FORMATION_WITH_SPECIFIED_SOURCE('','',#379,
 .NOT_KNOWN.);
#378=PRODUCT_RELATED_PRODUCT_CATEGORY('','',(#379));
#379=PRODUCT('Extension rods','Extension rods','Extension rods',(#381));
#380=PRODUCT_CATEGORY('','');
#381=PRODUCT_CONTEXT('',#383,'mechanical');
#382=APPLICATION_PROTOCOL_DEFINITION('international standard',
'automotive_design',2010,#383);
#383=APPLICATION_CONTEXT(
'core data for automotive mechanical design processes');
ENDSEC;
END-ISO-10303-21;
