ISO-10303-21;
HEADER;
/* Generated by software containing ST-Developer
 * from STEP Tools, Inc. (www.steptools.com) 
 */
/* OPTION: using custom renumber hook */

FILE_DESCRIPTION(
/* description */ ('STEP AP214',
'CAx-IF Rec.Pracs.---User Defined Attributes---1.5---2016-08-15'),
/* implementation_level */ '2;1');

FILE_NAME(
/* name */ '6a386d18ee269b265a355623',
/* time_stamp */ '2026-06-21T23:00:41Z',
/* author */ (''),
/* organization */ (''),
/* preprocessor_version */ 'ST-DEVELOPER v20',
/* originating_system */ 'ONSHAPE BY PTC INC, 1.216',
/* authorisation */ '  ');

FILE_SCHEMA (('AUTOMOTIVE_DESIGN {1 0 10303 214 3 1 1}'));
ENDSEC;

DATA;
#10=PROPERTY_DEFINITION_REPRESENTATION(#14,#12);
#11=PROPERTY_DEFINITION_REPRESENTATION(#15,#13);
#12=REPRESENTATION('',(#16),#983);
#13=REPRESENTATION('',(#17),#983);
#14=PROPERTY_DEFINITION('pmi validation property','',#988);
#15=PROPERTY_DEFINITION('pmi validation property','',#988);
#16=VALUE_REPRESENTATION_ITEM('number of annotations',COUNT_MEASURE(0.));
#17=VALUE_REPRESENTATION_ITEM('number of views',COUNT_MEASURE(0.));
#18=SHAPE_REPRESENTATION_RELATIONSHIP('','',#526,#19);
#19=ADVANCED_BREP_SHAPE_REPRESENTATION('',(#524),#983);
#20=B_SPLINE_SURFACE_WITH_KNOTS('',3,1,((#945,#946),(#947,#948),(#949,#950),
(#951,#952),(#953,#954),(#955,#956),(#957,#958)),
 .SURF_OF_LINEAR_EXTRUSION.,.F.,.F.,.F.,(4,1,1,1,4),(2,2),(0.,0.515488603648956,
1.03097720729791,1.54646581094687,2.06195441459583),(0.,1.),
 .UNSPECIFIED.);
#21=B_SPLINE_SURFACE_WITH_KNOTS('',3,1,((#962,#963),(#964,#965),(#966,#967),
(#968,#969),(#970,#971),(#972,#973),(#974,#975)),
 .SURF_OF_LINEAR_EXTRUSION.,.F.,.F.,.F.,(4,1,1,1,4),(2,2),(0.,0.515488603648956,
1.03097720729791,1.54646581094687,2.06195441459583),(0.,1.),
 .UNSPECIFIED.);
#22=LINE('',#769,#32);
#23=LINE('',#773,#33);
#24=LINE('',#928,#34);
#25=LINE('',#929,#35);
#26=LINE('',#943,#36);
#27=LINE('',#944,#37);
#28=LINE('',#960,#38);
#29=LINE('',#976,#39);
#30=LINE('',#978,#40);
#31=LINE('',#980,#41);
#32=VECTOR('',#603,1.);
#33=VECTOR('',#606,1.);
#34=VECTOR('',#685,1.);
#35=VECTOR('',#686,1.);
#36=VECTOR('',#713,1.);
#37=VECTOR('',#714,1.);
#38=VECTOR('',#717,1.);
#39=VECTOR('',#720,1.);
#40=VECTOR('',#723,1.);
#41=VECTOR('',#726,1.);
#42=PLANE('',#532);
#43=PLANE('',#539);
#44=PLANE('',#555);
#45=PLANE('',#572);
#46=PLANE('',#587);
#47=PLANE('',#590);
#48=ELLIPSE('',#530,0.020539100169993,0.01335);
#49=ELLIPSE('',#535,0.0220776095460224,0.01435);
#50=ELLIPSE('',#537,0.0220776095460224,0.01435);
#51=ELLIPSE('',#571,0.020539100169993,0.01335);
#52=CIRCLE('',#529,0.01335);
#53=CIRCLE('',#531,0.01335);
#54=CIRCLE('',#533,0.01435);
#55=CIRCLE('',#536,0.01435);
#56=CIRCLE('',#538,0.01435);
#57=CIRCLE('',#540,0.00125);
#58=CIRCLE('',#541,0.00125);
#59=CIRCLE('',#542,0.00125);
#60=CIRCLE('',#543,0.00125);
#61=CIRCLE('',#544,0.00125);
#62=CIRCLE('',#545,0.00125);
#63=CIRCLE('',#546,0.00125);
#64=CIRCLE('',#547,0.00125);
#65=CIRCLE('',#548,0.00125);
#66=CIRCLE('',#549,0.00125);
#67=CIRCLE('',#550,0.00125);
#68=CIRCLE('',#551,0.00125);
#69=CIRCLE('',#552,0.0055);
#70=CIRCLE('',#554,0.0055);
#71=CIRCLE('',#556,0.00125);
#72=CIRCLE('',#557,0.00125);
#73=CIRCLE('',#558,0.00125);
#74=CIRCLE('',#559,0.00125);
#75=CIRCLE('',#560,0.00125);
#76=CIRCLE('',#561,0.00125);
#77=CIRCLE('',#562,0.00125);
#78=CIRCLE('',#563,0.00125);
#79=CIRCLE('',#564,0.00125);
#80=CIRCLE('',#565,0.00125);
#81=CIRCLE('',#566,0.00125);
#82=CIRCLE('',#567,0.00125);
#83=CIRCLE('',#568,0.01335);
#84=CIRCLE('',#570,0.01335);
#85=ORIENTED_EDGE('',*,*,#207,.F.);
#86=ORIENTED_EDGE('',*,*,#208,.F.);
#87=ORIENTED_EDGE('',*,*,#209,.F.);
#88=ORIENTED_EDGE('',*,*,#210,.F.);
#89=ORIENTED_EDGE('',*,*,#211,.F.);
#90=ORIENTED_EDGE('',*,*,#212,.F.);
#91=ORIENTED_EDGE('',*,*,#213,.T.);
#92=ORIENTED_EDGE('',*,*,#214,.F.);
#93=ORIENTED_EDGE('',*,*,#215,.F.);
#94=ORIENTED_EDGE('',*,*,#216,.F.);
#95=ORIENTED_EDGE('',*,*,#208,.T.);
#96=ORIENTED_EDGE('',*,*,#217,.F.);
#97=ORIENTED_EDGE('',*,*,#218,.F.);
#98=ORIENTED_EDGE('',*,*,#219,.F.);
#99=ORIENTED_EDGE('',*,*,#220,.F.);
#100=ORIENTED_EDGE('',*,*,#221,.T.);
#101=ORIENTED_EDGE('',*,*,#222,.F.);
#102=ORIENTED_EDGE('',*,*,#223,.F.);
#103=ORIENTED_EDGE('',*,*,#224,.F.);
#104=ORIENTED_EDGE('',*,*,#225,.F.);
#105=ORIENTED_EDGE('',*,*,#215,.T.);
#106=ORIENTED_EDGE('',*,*,#226,.F.);
#107=ORIENTED_EDGE('',*,*,#227,.F.);
#108=ORIENTED_EDGE('',*,*,#228,.F.);
#109=ORIENTED_EDGE('',*,*,#229,.F.);
#110=ORIENTED_EDGE('',*,*,#230,.F.);
#111=ORIENTED_EDGE('',*,*,#231,.F.);
#112=ORIENTED_EDGE('',*,*,#232,.F.);
#113=ORIENTED_EDGE('',*,*,#233,.F.);
#114=ORIENTED_EDGE('',*,*,#234,.F.);
#115=ORIENTED_EDGE('',*,*,#235,.F.);
#116=ORIENTED_EDGE('',*,*,#236,.F.);
#117=ORIENTED_EDGE('',*,*,#237,.F.);
#118=ORIENTED_EDGE('',*,*,#238,.F.);
#119=ORIENTED_EDGE('',*,*,#226,.T.);
#120=ORIENTED_EDGE('',*,*,#239,.F.);
#121=ORIENTED_EDGE('',*,*,#239,.T.);
#122=ORIENTED_EDGE('',*,*,#240,.F.);
#123=ORIENTED_EDGE('',*,*,#240,.T.);
#124=ORIENTED_EDGE('',*,*,#241,.F.);
#125=ORIENTED_EDGE('',*,*,#242,.F.);
#126=ORIENTED_EDGE('',*,*,#243,.F.);
#127=ORIENTED_EDGE('',*,*,#244,.F.);
#128=ORIENTED_EDGE('',*,*,#245,.F.);
#129=ORIENTED_EDGE('',*,*,#246,.F.);
#130=ORIENTED_EDGE('',*,*,#247,.F.);
#131=ORIENTED_EDGE('',*,*,#248,.F.);
#132=ORIENTED_EDGE('',*,*,#249,.F.);
#133=ORIENTED_EDGE('',*,*,#250,.F.);
#134=ORIENTED_EDGE('',*,*,#251,.F.);
#135=ORIENTED_EDGE('',*,*,#252,.F.);
#136=ORIENTED_EDGE('',*,*,#213,.F.);
#137=ORIENTED_EDGE('',*,*,#253,.F.);
#138=ORIENTED_EDGE('',*,*,#254,.F.);
#139=ORIENTED_EDGE('',*,*,#253,.T.);
#140=ORIENTED_EDGE('',*,*,#255,.F.);
#141=ORIENTED_EDGE('',*,*,#256,.F.);
#142=ORIENTED_EDGE('',*,*,#257,.F.);
#143=ORIENTED_EDGE('',*,*,#258,.F.);
#144=ORIENTED_EDGE('',*,*,#259,.F.);
#145=ORIENTED_EDGE('',*,*,#260,.F.);
#146=ORIENTED_EDGE('',*,*,#256,.T.);
#147=ORIENTED_EDGE('',*,*,#261,.F.);
#148=ORIENTED_EDGE('',*,*,#221,.F.);
#149=ORIENTED_EDGE('',*,*,#252,.T.);
#150=ORIENTED_EDGE('',*,*,#238,.T.);
#151=ORIENTED_EDGE('',*,*,#251,.T.);
#152=ORIENTED_EDGE('',*,*,#237,.T.);
#153=ORIENTED_EDGE('',*,*,#250,.T.);
#154=ORIENTED_EDGE('',*,*,#236,.T.);
#155=ORIENTED_EDGE('',*,*,#249,.T.);
#156=ORIENTED_EDGE('',*,*,#235,.T.);
#157=ORIENTED_EDGE('',*,*,#248,.T.);
#158=ORIENTED_EDGE('',*,*,#234,.T.);
#159=ORIENTED_EDGE('',*,*,#247,.T.);
#160=ORIENTED_EDGE('',*,*,#233,.T.);
#161=ORIENTED_EDGE('',*,*,#246,.T.);
#162=ORIENTED_EDGE('',*,*,#232,.T.);
#163=ORIENTED_EDGE('',*,*,#245,.T.);
#164=ORIENTED_EDGE('',*,*,#231,.T.);
#165=ORIENTED_EDGE('',*,*,#244,.T.);
#166=ORIENTED_EDGE('',*,*,#230,.T.);
#167=ORIENTED_EDGE('',*,*,#243,.T.);
#168=ORIENTED_EDGE('',*,*,#229,.T.);
#169=ORIENTED_EDGE('',*,*,#242,.T.);
#170=ORIENTED_EDGE('',*,*,#228,.T.);
#171=ORIENTED_EDGE('',*,*,#241,.T.);
#172=ORIENTED_EDGE('',*,*,#227,.T.);
#173=ORIENTED_EDGE('',*,*,#223,.T.);
#174=ORIENTED_EDGE('',*,*,#262,.T.);
#175=ORIENTED_EDGE('',*,*,#211,.T.);
#176=ORIENTED_EDGE('',*,*,#263,.F.);
#177=ORIENTED_EDGE('',*,*,#222,.T.);
#178=ORIENTED_EDGE('',*,*,#261,.T.);
#179=ORIENTED_EDGE('',*,*,#255,.T.);
#180=ORIENTED_EDGE('',*,*,#212,.T.);
#181=ORIENTED_EDGE('',*,*,#262,.F.);
#182=ORIENTED_EDGE('',*,*,#225,.T.);
#183=ORIENTED_EDGE('',*,*,#264,.T.);
#184=ORIENTED_EDGE('',*,*,#209,.T.);
#185=ORIENTED_EDGE('',*,*,#216,.T.);
#186=ORIENTED_EDGE('',*,*,#224,.T.);
#187=ORIENTED_EDGE('',*,*,#263,.T.);
#188=ORIENTED_EDGE('',*,*,#210,.T.);
#189=ORIENTED_EDGE('',*,*,#264,.F.);
#190=ORIENTED_EDGE('',*,*,#217,.T.);
#191=ORIENTED_EDGE('',*,*,#214,.T.);
#192=ORIENTED_EDGE('',*,*,#207,.T.);
#193=ORIENTED_EDGE('',*,*,#254,.T.);
#194=ORIENTED_EDGE('',*,*,#265,.F.);
#195=ORIENTED_EDGE('',*,*,#218,.T.);
#196=ORIENTED_EDGE('',*,*,#265,.T.);
#197=ORIENTED_EDGE('',*,*,#259,.T.);
#198=ORIENTED_EDGE('',*,*,#266,.F.);
#199=ORIENTED_EDGE('',*,*,#220,.T.);
#200=ORIENTED_EDGE('',*,*,#267,.T.);
#201=ORIENTED_EDGE('',*,*,#257,.T.);
#202=ORIENTED_EDGE('',*,*,#260,.T.);
#203=ORIENTED_EDGE('',*,*,#219,.T.);
#204=ORIENTED_EDGE('',*,*,#266,.T.);
#205=ORIENTED_EDGE('',*,*,#258,.T.);
#206=ORIENTED_EDGE('',*,*,#267,.F.);
#207=EDGE_CURVE('',#268,#269,#317,.T.);
#208=EDGE_CURVE('',#270,#268,#52,.T.);
#209=EDGE_CURVE('',#271,#270,#318,.T.);
#210=EDGE_CURVE('',#272,#271,#48,.T.);
#211=EDGE_CURVE('',#273,#272,#319,.T.);
#212=EDGE_CURVE('',#274,#273,#320,.T.);
#213=EDGE_CURVE('',#274,#269,#53,.T.);
#214=EDGE_CURVE('',#275,#268,#22,.T.);
#215=EDGE_CURVE('',#276,#275,#54,.T.);
#216=EDGE_CURVE('',#270,#276,#23,.F.);
#217=EDGE_CURVE('',#277,#275,#321,.T.);
#218=EDGE_CURVE('',#278,#277,#322,.T.);
#219=EDGE_CURVE('',#279,#278,#49,.F.);
#220=EDGE_CURVE('',#280,#279,#323,.T.);
#221=EDGE_CURVE('',#280,#281,#55,.T.);
#222=EDGE_CURVE('',#282,#281,#324,.T.);
#223=EDGE_CURVE('',#283,#282,#325,.T.);
#224=EDGE_CURVE('',#284,#283,#50,.F.);
#225=EDGE_CURVE('',#276,#284,#326,.T.);
#226=EDGE_CURVE('',#285,#285,#56,.T.);
#227=EDGE_CURVE('',#286,#286,#57,.T.);
#228=EDGE_CURVE('',#287,#287,#58,.T.);
#229=EDGE_CURVE('',#288,#288,#59,.T.);
#230=EDGE_CURVE('',#289,#289,#60,.T.);
#231=EDGE_CURVE('',#290,#290,#61,.T.);
#232=EDGE_CURVE('',#291,#291,#62,.T.);
#233=EDGE_CURVE('',#292,#292,#63,.T.);
#234=EDGE_CURVE('',#293,#293,#64,.T.);
#235=EDGE_CURVE('',#294,#294,#65,.T.);
#236=EDGE_CURVE('',#295,#295,#66,.T.);
#237=EDGE_CURVE('',#296,#296,#67,.T.);
#238=EDGE_CURVE('',#297,#297,#68,.T.);
#239=EDGE_CURVE('',#298,#298,#69,.T.);
#240=EDGE_CURVE('',#299,#299,#70,.T.);
#241=EDGE_CURVE('',#300,#300,#71,.T.);
#242=EDGE_CURVE('',#301,#301,#72,.T.);
#243=EDGE_CURVE('',#302,#302,#73,.T.);
#244=EDGE_CURVE('',#303,#303,#74,.T.);
#245=EDGE_CURVE('',#304,#304,#75,.T.);
#246=EDGE_CURVE('',#305,#305,#76,.T.);
#247=EDGE_CURVE('',#306,#306,#77,.T.);
#248=EDGE_CURVE('',#307,#307,#78,.T.);
#249=EDGE_CURVE('',#308,#308,#79,.T.);
#250=EDGE_CURVE('',#309,#309,#80,.T.);
#251=EDGE_CURVE('',#310,#310,#81,.T.);
#252=EDGE_CURVE('',#311,#311,#82,.T.);
#253=EDGE_CURVE('',#269,#274,#83,.T.);
#254=EDGE_CURVE('',#269,#312,#327,.T.);
#255=EDGE_CURVE('',#313,#274,#328,.T.);
#256=EDGE_CURVE('',#314,#313,#84,.T.);
#257=EDGE_CURVE('',#315,#314,#329,.T.);
#258=EDGE_CURVE('',#316,#315,#51,.T.);
#259=EDGE_CURVE('',#312,#316,#330,.T.);
#260=EDGE_CURVE('',#314,#280,#24,.F.);
#261=EDGE_CURVE('',#281,#313,#25,.T.);
#262=EDGE_CURVE('',#282,#273,#26,.T.);
#263=EDGE_CURVE('',#283,#272,#27,.T.);
#264=EDGE_CURVE('',#284,#271,#28,.T.);
#265=EDGE_CURVE('',#277,#312,#29,.T.);
#266=EDGE_CURVE('',#278,#316,#30,.T.);
#267=EDGE_CURVE('',#279,#315,#31,.T.);
#268=VERTEX_POINT('',#740);
#269=VERTEX_POINT('',#741);
#270=VERTEX_POINT('',#743);
#271=VERTEX_POINT('',#750);
#272=VERTEX_POINT('',#752);
#273=VERTEX_POINT('',#760);
#274=VERTEX_POINT('',#766);
#275=VERTEX_POINT('',#770);
#276=VERTEX_POINT('',#772);
#277=VERTEX_POINT('',#786);
#278=VERTEX_POINT('',#794);
#279=VERTEX_POINT('',#796);
#280=VERTEX_POINT('',#803);
#281=VERTEX_POINT('',#805);
#282=VERTEX_POINT('',#817);
#283=VERTEX_POINT('',#825);
#284=VERTEX_POINT('',#827);
#285=VERTEX_POINT('',#835);
#286=VERTEX_POINT('',#838);
#287=VERTEX_POINT('',#840);
#288=VERTEX_POINT('',#842);
#289=VERTEX_POINT('',#844);
#290=VERTEX_POINT('',#846);
#291=VERTEX_POINT('',#848);
#292=VERTEX_POINT('',#850);
#293=VERTEX_POINT('',#852);
#294=VERTEX_POINT('',#854);
#295=VERTEX_POINT('',#856);
#296=VERTEX_POINT('',#858);
#297=VERTEX_POINT('',#860);
#298=VERTEX_POINT('',#862);
#299=VERTEX_POINT('',#865);
#300=VERTEX_POINT('',#868);
#301=VERTEX_POINT('',#870);
#302=VERTEX_POINT('',#872);
#303=VERTEX_POINT('',#874);
#304=VERTEX_POINT('',#876);
#305=VERTEX_POINT('',#878);
#306=VERTEX_POINT('',#880);
#307=VERTEX_POINT('',#882);
#308=VERTEX_POINT('',#884);
#309=VERTEX_POINT('',#886);
#310=VERTEX_POINT('',#888);
#311=VERTEX_POINT('',#890);
#312=VERTEX_POINT('',#898);
#313=VERTEX_POINT('',#908);
#314=VERTEX_POINT('',#910);
#315=VERTEX_POINT('',#917);
#316=VERTEX_POINT('',#919);
#317=B_SPLINE_CURVE_WITH_KNOTS('',3,(#731,#732,#733,#734,#735,#736,#737,
#738,#739),.UNSPECIFIED.,.F.,.F.,(4,1,1,1,1,1,4),(5.89350179945687E-31,
0.00224757654257694,0.00449515308515387,0.00899030617030774,0.0112378827128847,
0.0134854592554616,0.0179806123406155),.UNSPECIFIED.);
#318=B_SPLINE_CURVE_WITH_KNOTS('',3,(#744,#745,#746,#747,#748,#749),
 .UNSPECIFIED.,.F.,.F.,(4,1,1,4),(0.,0.000589546679670589,0.00117909335934118,
0.00235818671868236),.UNSPECIFIED.);
#319=B_SPLINE_CURVE_WITH_KNOTS('',3,(#753,#754,#755,#756,#757,#758,#759),
 .UNSPECIFIED.,.F.,.F.,(4,1,1,1,4),(0.,0.000532019106612259,0.00106403821322452,
0.00159605731983678,0.00212807642644904),.UNSPECIFIED.);
#320=B_SPLINE_CURVE_WITH_KNOTS('',3,(#761,#762,#763,#764,#765),
 .UNSPECIFIED.,.F.,.F.,(4,1,4),(0.0179806123406155,0.0214487066918916,0.0249168010431678),
 .UNSPECIFIED.);
#321=B_SPLINE_CURVE_WITH_KNOTS('',3,(#775,#776,#777,#778,#779,#780,#781,
#782,#783,#784,#785),.UNSPECIFIED.,.F.,.F.,(4,1,1,1,1,1,1,1,4),(0.,0.00306964955225168,
0.00613929910450335,0.00920894865675503,0.0122785982090067,0.0153482477612584,
0.0184178973135101,0.0214875468657617,0.0245571964180134),.UNSPECIFIED.);
#322=B_SPLINE_CURVE_WITH_KNOTS('',3,(#787,#788,#789,#790,#791,#792,#793),
 .UNSPECIFIED.,.F.,.F.,(4,1,1,1,4),(0.,0.000522467976725979,0.00104493595345196,
0.00156740393017794,0.00208987190690392),.UNSPECIFIED.);
#323=B_SPLINE_CURVE_WITH_KNOTS('',3,(#797,#798,#799,#800,#801,#802),
 .UNSPECIFIED.,.F.,.F.,(4,1,1,4),(0.,0.00117093007003237,0.00175639510504856,
0.00234186014006474),.UNSPECIFIED.);
#324=B_SPLINE_CURVE_WITH_KNOTS('',3,(#806,#807,#808,#809,#810,#811,#812,
#813,#814,#815,#816),.UNSPECIFIED.,.F.,.F.,(4,1,1,1,1,1,1,1,4),(0.,0.00306964955225168,
0.00613929910450335,0.00920894865675503,0.0122785982090067,0.0153482477612584,
0.0184178973135101,0.0214875468657617,0.0245571964180134),.UNSPECIFIED.);
#325=B_SPLINE_CURVE_WITH_KNOTS('',3,(#818,#819,#820,#821,#822,#823,#824),
 .UNSPECIFIED.,.F.,.F.,(4,1,1,1,4),(0.,0.000522467976725979,0.00104493595345196,
0.00156740393017794,0.00208987190690392),.UNSPECIFIED.);
#326=B_SPLINE_CURVE_WITH_KNOTS('',3,(#828,#829,#830,#831,#832,#833),
 .UNSPECIFIED.,.F.,.F.,(4,1,1,4),(0.,0.00117093007003237,0.00175639510504856,
0.00234186014006474),.UNSPECIFIED.);
#327=B_SPLINE_CURVE_WITH_KNOTS('',3,(#893,#894,#895,#896,#897),
 .UNSPECIFIED.,.F.,.F.,(4,1,4),(0.0179806123406155,0.0214487066918916,0.0249168010431678),
 .UNSPECIFIED.);
#328=B_SPLINE_CURVE_WITH_KNOTS('',3,(#899,#900,#901,#902,#903,#904,#905,
#906,#907),.UNSPECIFIED.,.F.,.F.,(4,1,1,1,1,1,4),(5.89350179945687E-31,
0.00224757654257694,0.00449515308515387,0.00899030617030774,0.0112378827128847,
0.0134854592554616,0.0179806123406155),.UNSPECIFIED.);
#329=B_SPLINE_CURVE_WITH_KNOTS('',3,(#911,#912,#913,#914,#915,#916),
 .UNSPECIFIED.,.F.,.F.,(4,1,1,4),(0.,0.000589546679670589,0.00117909335934118,
0.00235818671868236),.UNSPECIFIED.);
#330=B_SPLINE_CURVE_WITH_KNOTS('',3,(#920,#921,#922,#923,#924,#925,#926),
 .UNSPECIFIED.,.F.,.F.,(4,1,1,1,4),(0.,0.000532019106612259,0.00106403821322452,
0.00159605731983678,0.00212807642644904),.UNSPECIFIED.);
#331=EDGE_LOOP('',(#85,#86,#87,#88,#89,#90,#91));
#332=EDGE_LOOP('',(#92,#93,#94,#95));
#333=EDGE_LOOP('',(#96,#97,#98,#99,#100,#101,#102,#103,#104,#105));
#334=EDGE_LOOP('',(#106));
#335=EDGE_LOOP('',(#107));
#336=EDGE_LOOP('',(#108));
#337=EDGE_LOOP('',(#109));
#338=EDGE_LOOP('',(#110));
#339=EDGE_LOOP('',(#111));
#340=EDGE_LOOP('',(#112));
#341=EDGE_LOOP('',(#113));
#342=EDGE_LOOP('',(#114));
#343=EDGE_LOOP('',(#115));
#344=EDGE_LOOP('',(#116));
#345=EDGE_LOOP('',(#117));
#346=EDGE_LOOP('',(#118));
#347=EDGE_LOOP('',(#119));
#348=EDGE_LOOP('',(#120));
#349=EDGE_LOOP('',(#121));
#350=EDGE_LOOP('',(#122));
#351=EDGE_LOOP('',(#123));
#352=EDGE_LOOP('',(#124));
#353=EDGE_LOOP('',(#125));
#354=EDGE_LOOP('',(#126));
#355=EDGE_LOOP('',(#127));
#356=EDGE_LOOP('',(#128));
#357=EDGE_LOOP('',(#129));
#358=EDGE_LOOP('',(#130));
#359=EDGE_LOOP('',(#131));
#360=EDGE_LOOP('',(#132));
#361=EDGE_LOOP('',(#133));
#362=EDGE_LOOP('',(#134));
#363=EDGE_LOOP('',(#135));
#364=EDGE_LOOP('',(#136,#137));
#365=EDGE_LOOP('',(#138,#139,#140,#141,#142,#143,#144));
#366=EDGE_LOOP('',(#145,#146,#147,#148));
#367=EDGE_LOOP('',(#149));
#368=EDGE_LOOP('',(#150));
#369=EDGE_LOOP('',(#151));
#370=EDGE_LOOP('',(#152));
#371=EDGE_LOOP('',(#153));
#372=EDGE_LOOP('',(#154));
#373=EDGE_LOOP('',(#155));
#374=EDGE_LOOP('',(#156));
#375=EDGE_LOOP('',(#157));
#376=EDGE_LOOP('',(#158));
#377=EDGE_LOOP('',(#159));
#378=EDGE_LOOP('',(#160));
#379=EDGE_LOOP('',(#161));
#380=EDGE_LOOP('',(#162));
#381=EDGE_LOOP('',(#163));
#382=EDGE_LOOP('',(#164));
#383=EDGE_LOOP('',(#165));
#384=EDGE_LOOP('',(#166));
#385=EDGE_LOOP('',(#167));
#386=EDGE_LOOP('',(#168));
#387=EDGE_LOOP('',(#169));
#388=EDGE_LOOP('',(#170));
#389=EDGE_LOOP('',(#171));
#390=EDGE_LOOP('',(#172));
#391=EDGE_LOOP('',(#173,#174,#175,#176));
#392=EDGE_LOOP('',(#177,#178,#179,#180,#181));
#393=EDGE_LOOP('',(#182,#183,#184,#185));
#394=EDGE_LOOP('',(#186,#187,#188,#189));
#395=EDGE_LOOP('',(#190,#191,#192,#193,#194));
#396=EDGE_LOOP('',(#195,#196,#197,#198));
#397=EDGE_LOOP('',(#199,#200,#201,#202));
#398=EDGE_LOOP('',(#203,#204,#205,#206));
#399=FACE_BOUND('',#331,.T.);
#400=FACE_BOUND('',#332,.T.);
#401=FACE_BOUND('',#333,.T.);
#402=FACE_BOUND('',#334,.T.);
#403=FACE_BOUND('',#335,.T.);
#404=FACE_BOUND('',#336,.T.);
#405=FACE_BOUND('',#337,.T.);
#406=FACE_BOUND('',#338,.T.);
#407=FACE_BOUND('',#339,.T.);
#408=FACE_BOUND('',#340,.T.);
#409=FACE_BOUND('',#341,.T.);
#410=FACE_BOUND('',#342,.T.);
#411=FACE_BOUND('',#343,.T.);
#412=FACE_BOUND('',#344,.T.);
#413=FACE_BOUND('',#345,.T.);
#414=FACE_BOUND('',#346,.T.);
#415=FACE_BOUND('',#347,.T.);
#416=FACE_BOUND('',#348,.T.);
#417=FACE_BOUND('',#349,.T.);
#418=FACE_BOUND('',#350,.T.);
#419=FACE_BOUND('',#351,.T.);
#420=FACE_BOUND('',#352,.T.);
#421=FACE_BOUND('',#353,.T.);
#422=FACE_BOUND('',#354,.T.);
#423=FACE_BOUND('',#355,.T.);
#424=FACE_BOUND('',#356,.T.);
#425=FACE_BOUND('',#357,.T.);
#426=FACE_BOUND('',#358,.T.);
#427=FACE_BOUND('',#359,.T.);
#428=FACE_BOUND('',#360,.T.);
#429=FACE_BOUND('',#361,.T.);
#430=FACE_BOUND('',#362,.T.);
#431=FACE_BOUND('',#363,.T.);
#432=FACE_BOUND('',#364,.T.);
#433=FACE_BOUND('',#365,.T.);
#434=FACE_BOUND('',#366,.T.);
#435=FACE_BOUND('',#367,.T.);
#436=FACE_BOUND('',#368,.T.);
#437=FACE_BOUND('',#369,.T.);
#438=FACE_BOUND('',#370,.T.);
#439=FACE_BOUND('',#371,.T.);
#440=FACE_BOUND('',#372,.T.);
#441=FACE_BOUND('',#373,.T.);
#442=FACE_BOUND('',#374,.T.);
#443=FACE_BOUND('',#375,.T.);
#444=FACE_BOUND('',#376,.T.);
#445=FACE_BOUND('',#377,.T.);
#446=FACE_BOUND('',#378,.T.);
#447=FACE_BOUND('',#379,.T.);
#448=FACE_BOUND('',#380,.T.);
#449=FACE_BOUND('',#381,.T.);
#450=FACE_BOUND('',#382,.T.);
#451=FACE_BOUND('',#383,.T.);
#452=FACE_BOUND('',#384,.T.);
#453=FACE_BOUND('',#385,.T.);
#454=FACE_BOUND('',#386,.T.);
#455=FACE_BOUND('',#387,.T.);
#456=FACE_BOUND('',#388,.T.);
#457=FACE_BOUND('',#389,.T.);
#458=FACE_BOUND('',#390,.T.);
#459=FACE_BOUND('',#391,.T.);
#460=FACE_BOUND('',#392,.T.);
#461=FACE_BOUND('',#393,.T.);
#462=FACE_BOUND('',#394,.T.);
#463=FACE_BOUND('',#395,.T.);
#464=FACE_BOUND('',#396,.T.);
#465=FACE_BOUND('',#397,.T.);
#466=FACE_BOUND('',#398,.T.);
#467=CYLINDRICAL_SURFACE('',#528,0.01335);
#468=CYLINDRICAL_SURFACE('',#534,0.01435);
#469=CYLINDRICAL_SURFACE('',#553,0.0055);
#470=CYLINDRICAL_SURFACE('',#569,0.01335);
#471=CYLINDRICAL_SURFACE('',#573,0.00125);
#472=CYLINDRICAL_SURFACE('',#574,0.00125);
#473=CYLINDRICAL_SURFACE('',#575,0.00125);
#474=CYLINDRICAL_SURFACE('',#576,0.00125);
#475=CYLINDRICAL_SURFACE('',#577,0.00125);
#476=CYLINDRICAL_SURFACE('',#578,0.00125);
#477=CYLINDRICAL_SURFACE('',#579,0.00125);
#478=CYLINDRICAL_SURFACE('',#580,0.00125);
#479=CYLINDRICAL_SURFACE('',#581,0.00125);
#480=CYLINDRICAL_SURFACE('',#582,0.00125);
#481=CYLINDRICAL_SURFACE('',#583,0.00125);
#482=CYLINDRICAL_SURFACE('',#584,0.00125);
#483=CYLINDRICAL_SURFACE('',#585,0.001);
#484=CYLINDRICAL_SURFACE('',#586,0.001);
#485=CYLINDRICAL_SURFACE('',#588,0.001);
#486=CYLINDRICAL_SURFACE('',#589,0.001);
#487=ADVANCED_FACE('',(#399),#467,.F.);
#488=ADVANCED_FACE('',(#400),#42,.T.);
#489=ADVANCED_FACE('',(#401,#402),#468,.T.);
#490=ADVANCED_FACE('',(#403,#404,#405,#406,#407,#408,#409,#410,#411,#412,
#413,#414,#415,#416),#43,.T.);
#491=ADVANCED_FACE('',(#417,#418),#469,.F.);
#492=ADVANCED_FACE('',(#419,#420,#421,#422,#423,#424,#425,#426,#427,#428,
#429,#430,#431,#432),#44,.T.);
#493=ADVANCED_FACE('',(#433),#470,.F.);
#494=ADVANCED_FACE('',(#434),#45,.T.);
#495=ADVANCED_FACE('',(#435,#436),#471,.F.);
#496=ADVANCED_FACE('',(#437,#438),#472,.F.);
#497=ADVANCED_FACE('',(#439,#440),#473,.F.);
#498=ADVANCED_FACE('',(#441,#442),#474,.F.);
#499=ADVANCED_FACE('',(#443,#444),#475,.F.);
#500=ADVANCED_FACE('',(#445,#446),#476,.F.);
#501=ADVANCED_FACE('',(#447,#448),#477,.F.);
#502=ADVANCED_FACE('',(#449,#450),#478,.F.);
#503=ADVANCED_FACE('',(#451,#452),#479,.F.);
#504=ADVANCED_FACE('',(#453,#454),#480,.F.);
#505=ADVANCED_FACE('',(#455,#456),#481,.F.);
#506=ADVANCED_FACE('',(#457,#458),#482,.F.);
#507=ADVANCED_FACE('',(#459),#483,.F.);
#508=ADVANCED_FACE('',(#460),#20,.F.);
#509=ADVANCED_FACE('',(#461),#484,.T.);
#510=ADVANCED_FACE('',(#462),#46,.F.);
#511=ADVANCED_FACE('',(#463),#21,.F.);
#512=ADVANCED_FACE('',(#464),#485,.F.);
#513=ADVANCED_FACE('',(#465),#486,.T.);
#514=ADVANCED_FACE('',(#466),#47,.F.);
#515=CLOSED_SHELL('',(#487,#488,#489,#490,#491,#492,#493,#494,#495,#496,
#497,#498,#499,#500,#501,#502,#503,#504,#505,#506,#507,#508,#509,#510,#511,
#512,#513,#514));
#516=STYLED_ITEM('',(#517),#524);
#517=PRESENTATION_STYLE_ASSIGNMENT((#518));
#518=SURFACE_STYLE_USAGE(.BOTH.,#519);
#519=SURFACE_SIDE_STYLE('',(#520));
#520=SURFACE_STYLE_FILL_AREA(#521);
#521=FILL_AREA_STYLE('',(#522));
#522=FILL_AREA_STYLE_COLOUR('',#523);
#523=COLOUR_RGB('',0.752941176470588,0.752941176470588,0.752941176470588);
#524=MANIFOLD_SOLID_BREP('Propeller 1 cover',#515);
#525=SHAPE_DEFINITION_REPRESENTATION(#988,#526);
#526=SHAPE_REPRESENTATION('Propeller 1 cover',(#527),#983);
#527=AXIS2_PLACEMENT_3D('',#729,#591,#592);
#528=AXIS2_PLACEMENT_3D('',#730,#593,#594);
#529=AXIS2_PLACEMENT_3D('',#742,#595,#596);
#530=AXIS2_PLACEMENT_3D('',#751,#597,#598);
#531=AXIS2_PLACEMENT_3D('',#767,#599,#600);
#532=AXIS2_PLACEMENT_3D('',#768,#601,#602);
#533=AXIS2_PLACEMENT_3D('',#771,#604,#605);
#534=AXIS2_PLACEMENT_3D('',#774,#607,#608);
#535=AXIS2_PLACEMENT_3D('',#795,#609,#610);
#536=AXIS2_PLACEMENT_3D('',#804,#611,#612);
#537=AXIS2_PLACEMENT_3D('',#826,#613,#614);
#538=AXIS2_PLACEMENT_3D('',#834,#615,#616);
#539=AXIS2_PLACEMENT_3D('',#836,#617,#618);
#540=AXIS2_PLACEMENT_3D('',#837,#619,#620);
#541=AXIS2_PLACEMENT_3D('',#839,#621,#622);
#542=AXIS2_PLACEMENT_3D('',#841,#623,#624);
#543=AXIS2_PLACEMENT_3D('',#843,#625,#626);
#544=AXIS2_PLACEMENT_3D('',#845,#627,#628);
#545=AXIS2_PLACEMENT_3D('',#847,#629,#630);
#546=AXIS2_PLACEMENT_3D('',#849,#631,#632);
#547=AXIS2_PLACEMENT_3D('',#851,#633,#634);
#548=AXIS2_PLACEMENT_3D('',#853,#635,#636);
#549=AXIS2_PLACEMENT_3D('',#855,#637,#638);
#550=AXIS2_PLACEMENT_3D('',#857,#639,#640);
#551=AXIS2_PLACEMENT_3D('',#859,#641,#642);
#552=AXIS2_PLACEMENT_3D('',#861,#643,#644);
#553=AXIS2_PLACEMENT_3D('',#863,#645,#646);
#554=AXIS2_PLACEMENT_3D('',#864,#647,#648);
#555=AXIS2_PLACEMENT_3D('',#866,#649,#650);
#556=AXIS2_PLACEMENT_3D('',#867,#651,#652);
#557=AXIS2_PLACEMENT_3D('',#869,#653,#654);
#558=AXIS2_PLACEMENT_3D('',#871,#655,#656);
#559=AXIS2_PLACEMENT_3D('',#873,#657,#658);
#560=AXIS2_PLACEMENT_3D('',#875,#659,#660);
#561=AXIS2_PLACEMENT_3D('',#877,#661,#662);
#562=AXIS2_PLACEMENT_3D('',#879,#663,#664);
#563=AXIS2_PLACEMENT_3D('',#881,#665,#666);
#564=AXIS2_PLACEMENT_3D('',#883,#667,#668);
#565=AXIS2_PLACEMENT_3D('',#885,#669,#670);
#566=AXIS2_PLACEMENT_3D('',#887,#671,#672);
#567=AXIS2_PLACEMENT_3D('',#889,#673,#674);
#568=AXIS2_PLACEMENT_3D('',#891,#675,#676);
#569=AXIS2_PLACEMENT_3D('',#892,#677,#678);
#570=AXIS2_PLACEMENT_3D('',#909,#679,#680);
#571=AXIS2_PLACEMENT_3D('',#918,#681,#682);
#572=AXIS2_PLACEMENT_3D('',#927,#683,#684);
#573=AXIS2_PLACEMENT_3D('',#930,#687,#688);
#574=AXIS2_PLACEMENT_3D('',#931,#689,#690);
#575=AXIS2_PLACEMENT_3D('',#932,#691,#692);
#576=AXIS2_PLACEMENT_3D('',#933,#693,#694);
#577=AXIS2_PLACEMENT_3D('',#934,#695,#696);
#578=AXIS2_PLACEMENT_3D('',#935,#697,#698);
#579=AXIS2_PLACEMENT_3D('',#936,#699,#700);
#580=AXIS2_PLACEMENT_3D('',#937,#701,#702);
#581=AXIS2_PLACEMENT_3D('',#938,#703,#704);
#582=AXIS2_PLACEMENT_3D('',#939,#705,#706);
#583=AXIS2_PLACEMENT_3D('',#940,#707,#708);
#584=AXIS2_PLACEMENT_3D('',#941,#709,#710);
#585=AXIS2_PLACEMENT_3D('',#942,#711,#712);
#586=AXIS2_PLACEMENT_3D('',#959,#715,#716);
#587=AXIS2_PLACEMENT_3D('',#961,#718,#719);
#588=AXIS2_PLACEMENT_3D('',#977,#721,#722);
#589=AXIS2_PLACEMENT_3D('',#979,#724,#725);
#590=AXIS2_PLACEMENT_3D('',#981,#727,#728);
#591=DIRECTION('',(0.,0.,1.));
#592=DIRECTION('',(1.,0.,0.));
#593=DIRECTION('',(0.,1.,0.));
#594=DIRECTION('',(0.,0.,1.));
#595=DIRECTION('',(0.,1.,0.));
#596=DIRECTION('',(0.,0.,1.));
#597=DIRECTION('',(-0.759951494214413,-0.649979789256005,0.));
#598=DIRECTION('',(-0.649979789256005,0.759951494214413,0.));
#599=DIRECTION('',(0.,1.,0.));
#600=DIRECTION('',(0.,0.,1.));
#601=DIRECTION('',(0.,-1.,0.));
#602=DIRECTION('',(0.,0.,-1.));
#603=DIRECTION('',(0.,0.,-1.));
#604=DIRECTION('',(0.,1.,0.));
#605=DIRECTION('',(0.,0.,1.));
#606=DIRECTION('',(0.,0.,1.));
#607=DIRECTION('',(0.,1.,0.));
#608=DIRECTION('',(0.,0.,1.));
#609=DIRECTION('',(0.759951494214413,-0.649979789256005,0.));
#610=DIRECTION('',(0.649979789256005,0.759951494214413,0.));
#611=DIRECTION('',(0.,1.,0.));
#612=DIRECTION('',(0.,0.,1.));
#613=DIRECTION('',(-0.759951494214413,-0.649979789256005,0.));
#614=DIRECTION('',(-0.649979789256005,0.759951494214413,0.));
#615=DIRECTION('',(0.,1.,0.));
#616=DIRECTION('',(0.,0.,1.));
#617=DIRECTION('',(0.,1.,0.));
#618=DIRECTION('',(0.,0.,1.));
#619=DIRECTION('',(0.,1.,0.));
#620=DIRECTION('',(0.,0.,1.));
#621=DIRECTION('',(0.,1.,0.));
#622=DIRECTION('',(0.,0.,1.));
#623=DIRECTION('',(0.,1.,0.));
#624=DIRECTION('',(0.,0.,1.));
#625=DIRECTION('',(0.,1.,0.));
#626=DIRECTION('',(0.,0.,1.));
#627=DIRECTION('',(0.,1.,0.));
#628=DIRECTION('',(0.,0.,1.));
#629=DIRECTION('',(0.,1.,0.));
#630=DIRECTION('',(0.,0.,1.));
#631=DIRECTION('',(0.,1.,0.));
#632=DIRECTION('',(0.,0.,1.));
#633=DIRECTION('',(0.,1.,0.));
#634=DIRECTION('',(0.,0.,1.));
#635=DIRECTION('',(0.,1.,0.));
#636=DIRECTION('',(0.,0.,1.));
#637=DIRECTION('',(0.,1.,0.));
#638=DIRECTION('',(0.,0.,1.));
#639=DIRECTION('',(0.,1.,0.));
#640=DIRECTION('',(0.,0.,1.));
#641=DIRECTION('',(0.,1.,0.));
#642=DIRECTION('',(0.,0.,1.));
#643=DIRECTION('',(0.,1.,0.));
#644=DIRECTION('',(0.,0.,1.));
#645=DIRECTION('',(0.,1.,0.));
#646=DIRECTION('',(0.,0.,1.));
#647=DIRECTION('',(0.,1.,0.));
#648=DIRECTION('',(0.,0.,1.));
#649=DIRECTION('',(0.,-1.,0.));
#650=DIRECTION('',(0.,0.,-1.));
#651=DIRECTION('',(0.,-1.,0.));
#652=DIRECTION('',(0.,0.,-1.));
#653=DIRECTION('',(0.,-1.,0.));
#654=DIRECTION('',(0.,0.,-1.));
#655=DIRECTION('',(0.,-1.,0.));
#656=DIRECTION('',(0.,0.,-1.));
#657=DIRECTION('',(0.,-1.,0.));
#658=DIRECTION('',(0.,0.,-1.));
#659=DIRECTION('',(0.,-1.,0.));
#660=DIRECTION('',(0.,0.,-1.));
#661=DIRECTION('',(0.,-1.,0.));
#662=DIRECTION('',(0.,0.,-1.));
#663=DIRECTION('',(0.,-1.,0.));
#664=DIRECTION('',(0.,0.,-1.));
#665=DIRECTION('',(0.,-1.,0.));
#666=DIRECTION('',(0.,0.,-1.));
#667=DIRECTION('',(0.,-1.,0.));
#668=DIRECTION('',(0.,0.,-1.));
#669=DIRECTION('',(0.,-1.,0.));
#670=DIRECTION('',(0.,0.,-1.));
#671=DIRECTION('',(0.,-1.,0.));
#672=DIRECTION('',(0.,0.,-1.));
#673=DIRECTION('',(0.,-1.,0.));
#674=DIRECTION('',(0.,0.,-1.));
#675=DIRECTION('',(0.,1.,0.));
#676=DIRECTION('',(0.,0.,1.));
#677=DIRECTION('',(0.,1.,0.));
#678=DIRECTION('',(0.,0.,1.));
#679=DIRECTION('',(0.,1.,0.));
#680=DIRECTION('',(0.,0.,1.));
#681=DIRECTION('',(0.759951494214413,-0.649979789256005,0.));
#682=DIRECTION('',(0.649979789256005,0.759951494214413,0.));
#683=DIRECTION('',(0.,-1.,0.));
#684=DIRECTION('',(0.,0.,-1.));
#685=DIRECTION('',(0.,0.,-1.));
#686=DIRECTION('',(0.,0.,1.));
#687=DIRECTION('',(0.,1.,0.));
#688=DIRECTION('',(0.,0.,1.));
#689=DIRECTION('',(0.,1.,0.));
#690=DIRECTION('',(0.,0.,1.));
#691=DIRECTION('',(0.,1.,0.));
#692=DIRECTION('',(0.,0.,1.));
#693=DIRECTION('',(0.,1.,0.));
#694=DIRECTION('',(0.,0.,1.));
#695=DIRECTION('',(0.,1.,0.));
#696=DIRECTION('',(0.,0.,1.));
#697=DIRECTION('',(0.,1.,0.));
#698=DIRECTION('',(0.,0.,1.));
#699=DIRECTION('',(0.,1.,0.));
#700=DIRECTION('',(0.,0.,1.));
#701=DIRECTION('',(0.,1.,0.));
#702=DIRECTION('',(0.,0.,1.));
#703=DIRECTION('',(0.,1.,0.));
#704=DIRECTION('',(0.,0.,1.));
#705=DIRECTION('',(0.,1.,0.));
#706=DIRECTION('',(0.,0.,1.));
#707=DIRECTION('',(0.,1.,0.));
#708=DIRECTION('',(0.,0.,1.));
#709=DIRECTION('',(0.,1.,0.));
#710=DIRECTION('',(0.,0.,1.));
#711=DIRECTION('',(0.,0.,1.));
#712=DIRECTION('',(1.,0.,0.));
#713=DIRECTION('',(0.,0.,1.));
#714=DIRECTION('',(0.,0.,1.));
#715=DIRECTION('',(0.,0.,1.));
#716=DIRECTION('',(1.,0.,0.));
#717=DIRECTION('',(0.,0.,1.));
#718=DIRECTION('',(-0.759951494214413,-0.649979789256005,0.));
#719=DIRECTION('',(0.649979789256005,-0.759951494214413,0.));
#720=DIRECTION('',(0.,0.,-1.));
#721=DIRECTION('',(0.,0.,-1.));
#722=DIRECTION('',(-1.,0.,0.));
#723=DIRECTION('',(0.,0.,-1.));
#724=DIRECTION('',(0.,0.,-1.));
#725=DIRECTION('',(-1.,0.,0.));
#726=DIRECTION('',(0.,0.,-1.));
#727=DIRECTION('',(0.759951494214413,-0.649979789256005,0.));
#728=DIRECTION('',(-0.649979789256005,-0.759951494214413,0.));
#729=CARTESIAN_POINT('',(0.,0.,0.));
#730=CARTESIAN_POINT('',(0.,0.0105,0.));
#731=CARTESIAN_POINT('',(-0.00994907638797276,6.14836186562114E-31,0.00890159418454262));
#732=CARTESIAN_POINT('',(-0.00994907638797276,0.00076533970587633,0.00890159418454262));
#733=CARTESIAN_POINT('',(-0.00966390834092721,0.00223882730490726,0.00922945832968687));
#734=CARTESIAN_POINT('',(-0.00834124040821146,0.00466419171501797,0.0105140718759422));
#735=CARTESIAN_POINT('',(-0.00626857884919257,0.00647938568250121,0.0119193026102525));
#736=CARTESIAN_POINT('',(-0.00373078638523596,0.00777607472085123,0.0128751697713816));
#737=CARTESIAN_POINT('',(-0.000885769290570311,0.00872927580139188,0.0134634137280509));
#738=CARTESIAN_POINT('',(0.00139274050637189,0.009,0.0133619621135957));
#739=CARTESIAN_POINT('',(0.00286090347379431,0.009,0.013039851659955));
#740=CARTESIAN_POINT('',(-0.00994907638797276,-1.92592994438724E-34,0.00890159418454262));
#741=CARTESIAN_POINT('',(0.00286090347379431,0.009,0.013039851659955));
#742=CARTESIAN_POINT('',(0.,0.,0.));
#743=CARTESIAN_POINT('',(-0.00605092361202725,0.,-0.0118999505646625));
#744=CARTESIAN_POINT('',(-0.00529097211781283,0.001649979789256,-0.0122567578930371));
#745=CARTESIAN_POINT('',(-0.00516631224523934,0.00150422840129478,-0.0123105708112454));
#746=CARTESIAN_POINT('',(-0.00499866605158761,0.00113552182371861,-0.0123785174281978));
#747=CARTESIAN_POINT('',(-0.00514396399745498,0.000312216409808691,-0.0123216175287389));
#748=CARTESIAN_POINT('',(-0.0056963689956532,4.21398273303247E-19,-0.0120802355909165));
#749=CARTESIAN_POINT('',(-0.00605092361202725,4.21398273303247E-19,-0.0118999505646625));
#750=CARTESIAN_POINT('',(-0.00529097211781283,0.001649979789256,-0.0122567578930371));
#751=CARTESIAN_POINT('',(0.,-0.00453618512424251,0.));
#752=CARTESIAN_POINT('',(-0.00931087510624166,0.00635002021074399,-0.00956713670624443));
#753=CARTESIAN_POINT('',(-0.00890269705780086,0.007936085168587,-0.00994808951995427));
#754=CARTESIAN_POINT('',(-0.00903157296100794,0.00788765461753279,-0.00983275650832408));
#755=CARTESIAN_POINT('',(-0.00926952745387893,0.00773992140650177,-0.00961088182254187));
#756=CARTESIAN_POINT('',(-0.00954248531049823,0.00733637256990247,-0.00933690479451185));
#757=CARTESIAN_POINT('',(-0.00957373094474106,0.00676462629057852,-0.00930432035365602));
#758=CARTESIAN_POINT('',(-0.00940999906761977,0.00646591520287593,-0.00947066784071382));
#759=CARTESIAN_POINT('',(-0.00931087510624166,0.00635002021074399,-0.00956713670624442));
#760=CARTESIAN_POINT('',(-0.00890269705780086,0.007936085168587,-0.00994808951995427));
#761=CARTESIAN_POINT('',(-0.00286090347379432,0.009,-0.013039851659955));
#762=CARTESIAN_POINT('',(-0.00399361855548686,0.009,-0.0127913374439548));
#763=CARTESIAN_POINT('',(-0.00619636338788084,0.00878475569875381,-0.011991701400973));
#764=CARTESIAN_POINT('',(-0.00806351170993021,0.00825144442367357,-0.0106990892885482));
#765=CARTESIAN_POINT('',(-0.00890269705780086,0.007936085168587,-0.00994808951995427));
#766=CARTESIAN_POINT('',(-0.00286090347379431,0.009,-0.013039851659955));
#767=CARTESIAN_POINT('',(0.,0.009,0.));
#768=CARTESIAN_POINT('',(-0.01435,0.,0.));
#769=CARTESIAN_POINT('',(-0.00994907638797276,0.,0.01435));
#770=CARTESIAN_POINT('',(-0.00994907638797276,-1.92592994438724E-34,0.0103411014416397));
#771=CARTESIAN_POINT('',(0.,0.,0.));
#772=CARTESIAN_POINT('',(-0.00605092361202725,4.33680868994202E-19,-0.0130118724033634));
#773=CARTESIAN_POINT('',(-0.00605092361202725,2.16840434497101E-19,-0.01435));
#774=CARTESIAN_POINT('',(0.,0.0105,0.));
#775=CARTESIAN_POINT('',(0.00890269705780086,0.007936085168587,0.0112545317582307));
#776=CARTESIAN_POINT('',(0.00812193132738299,0.00822949079079724,0.0118721425945002));
#777=CARTESIAN_POINT('',(0.00644795372492907,0.00871684471028818,0.0129404374805185));
#778=CARTESIAN_POINT('',(0.0035161497215552,0.00907182330293416,0.0140290791851989));
#779=CARTESIAN_POINT('',(0.000443216551619507,0.00893015882037259,0.0144541177583075));
#780=CARTESIAN_POINT('',(-0.00262083477682226,0.00823825901669485,0.0142130972804968));
#781=CARTESIAN_POINT('',(-0.00535953581030299,0.00703029272627433,0.0134051246835662));
#782=CARTESIAN_POINT('',(-0.00768745631445021,0.00529499480982471,0.012199983857523));
#783=CARTESIAN_POINT('',(-0.00941023281733101,0.0030368839546167,0.0108782934800645));
#784=CARTESIAN_POINT('',(-0.00994907638797276,0.00105002815425307,0.0103411014416397));
#785=CARTESIAN_POINT('',(-0.00994907638797276,-1.63983416415861E-20,0.0103411014416397));
#786=CARTESIAN_POINT('',(0.00890269705780086,0.007936085168587,0.0112545317582307));
#787=CARTESIAN_POINT('',(0.00931087510624166,0.00635002021074399,0.0109192538552764));
#788=CARTESIAN_POINT('',(0.00941099697072006,0.0064670819436957,0.0108338796907118));
#789=CARTESIAN_POINT('',(0.00957025779369175,0.00676170672347103,0.010692798974065));
#790=CARTESIAN_POINT('',(0.00954730461165609,0.00731856409103574,0.0107136566686724));
#791=CARTESIAN_POINT('',(0.0092794424645225,0.00773276182067708,0.0109488669034753));
#792=CARTESIAN_POINT('',(0.00903497935363838,0.00788637452196727,0.01114989220225));
#793=CARTESIAN_POINT('',(0.00890269705780086,0.00793608516858701,0.0112545317582307));
#794=CARTESIAN_POINT('',(0.00931087510624166,0.00635002021074399,0.0109192538552764));
#795=CARTESIAN_POINT('',(0.,-0.00453618512424251,0.));
#796=CARTESIAN_POINT('',(0.00529097211781283,0.001649979789256,0.0133389697521408));
#797=CARTESIAN_POINT('',(0.00605092361202725,4.33680868994202E-19,0.0130118724033634));
#798=CARTESIAN_POINT('',(0.00569213875847673,4.33680868994202E-19,0.0131787184709152));
#799=CARTESIAN_POINT('',(0.00514228401868105,0.000318135028817457,0.0133991205862776));
#800=CARTESIAN_POINT('',(0.0049989477419478,0.00113352483010336,0.0134508478663099));
#801=CARTESIAN_POINT('',(0.00516617234540022,0.00150406483145225,0.0133884722345974));
#802=CARTESIAN_POINT('',(0.00529097211781283,0.001649979789256,0.0133389697521408));
#803=CARTESIAN_POINT('',(0.00605092361202725,4.33680868994202E-19,0.0130118724033634));
#804=CARTESIAN_POINT('',(0.,0.,0.));
#805=CARTESIAN_POINT('',(0.00994907638797276,-1.92592994438724E-34,-0.0103411014416397));
#806=CARTESIAN_POINT('',(-0.00890269705780086,0.007936085168587,-0.0112545317582307));
#807=CARTESIAN_POINT('',(-0.00812193132738299,0.00822949079079724,-0.0118721425945002));
#808=CARTESIAN_POINT('',(-0.00644795372492907,0.00871684471028818,-0.0129404374805185));
#809=CARTESIAN_POINT('',(-0.0035161497215552,0.00907182330293416,-0.0140290791851989));
#810=CARTESIAN_POINT('',(-0.000443216551619507,0.00893015882037259,-0.0144541177583075));
#811=CARTESIAN_POINT('',(0.00262083477682226,0.00823825901669485,-0.0142130972804968));
#812=CARTESIAN_POINT('',(0.00535953581030299,0.00703029272627433,-0.0134051246835662));
#813=CARTESIAN_POINT('',(0.00768745631445021,0.00529499480982471,-0.012199983857523));
#814=CARTESIAN_POINT('',(0.00941023281733101,0.0030368839546167,-0.0108782934800645));
#815=CARTESIAN_POINT('',(0.00994907638797276,0.00105002815425307,-0.0103411014416397));
#816=CARTESIAN_POINT('',(0.00994907638797276,-1.63983416415861E-20,-0.0103411014416397));
#817=CARTESIAN_POINT('',(-0.00890269705780086,0.007936085168587,-0.0112545317582307));
#818=CARTESIAN_POINT('',(-0.00931087510624166,0.00635002021074399,-0.0109192538552764));
#819=CARTESIAN_POINT('',(-0.00941099697072006,0.0064670819436957,-0.0108338796907118));
#820=CARTESIAN_POINT('',(-0.00957025779369175,0.00676170672347103,-0.010692798974065));
#821=CARTESIAN_POINT('',(-0.00954730461165609,0.00731856409103574,-0.0107136566686724));
#822=CARTESIAN_POINT('',(-0.0092794424645225,0.00773276182067708,-0.0109488669034753));
#823=CARTESIAN_POINT('',(-0.00903497935363838,0.00788637452196727,-0.01114989220225));
#824=CARTESIAN_POINT('',(-0.00890269705780086,0.00793608516858701,-0.0112545317582307));
#825=CARTESIAN_POINT('',(-0.00931087510624166,0.00635002021074399,-0.0109192538552764));
#826=CARTESIAN_POINT('',(0.,-0.00453618512424251,0.));
#827=CARTESIAN_POINT('',(-0.00529097211781283,0.001649979789256,-0.0133389697521408));
#828=CARTESIAN_POINT('',(-0.00605092361202725,4.33680868994202E-19,-0.0130118724033634));
#829=CARTESIAN_POINT('',(-0.00569213875847673,4.33680868994202E-19,-0.0131787184709152));
#830=CARTESIAN_POINT('',(-0.00514228401868105,0.000318135028817457,-0.0133991205862776));
#831=CARTESIAN_POINT('',(-0.0049989477419478,0.00113352483010336,-0.0134508478663099));
#832=CARTESIAN_POINT('',(-0.00516617234540022,0.00150406483145225,-0.0133884722345974));
#833=CARTESIAN_POINT('',(-0.00529097211781283,0.001649979789256,-0.0133389697521408));
#834=CARTESIAN_POINT('',(0.,0.01,0.));
#835=CARTESIAN_POINT('',(0.,0.01,0.01435));
#836=CARTESIAN_POINT('',(-0.01435,0.01,0.));
#837=CARTESIAN_POINT('',(0.00844374768689828,0.01,0.004875));
#838=CARTESIAN_POINT('',(0.00844374768689828,0.01,0.006125));
#839=CARTESIAN_POINT('',(8.67361737988404E-19,0.01,0.007));
#840=CARTESIAN_POINT('',(8.67361737988404E-19,0.01,0.00825));
#841=CARTESIAN_POINT('',(1.30104260698261E-18,0.01,0.00975));
#842=CARTESIAN_POINT('',(1.30104260698261E-18,0.01,0.011));
#843=CARTESIAN_POINT('',(-0.00606217782649107,0.01,0.0035));
#844=CARTESIAN_POINT('',(-0.00606217782649107,0.01,0.00475));
#845=CARTESIAN_POINT('',(0.,0.01,-0.00975));
#846=CARTESIAN_POINT('',(0.,0.01,-0.0085));
#847=CARTESIAN_POINT('',(0.00606217782649107,0.01,-0.0035));
#848=CARTESIAN_POINT('',(0.00606217782649107,0.01,-0.00225));
#849=CARTESIAN_POINT('',(0.00844374768689828,0.01,-0.004875));
#850=CARTESIAN_POINT('',(0.00844374768689828,0.01,-0.003625));
#851=CARTESIAN_POINT('',(0.00606217782649107,0.01,0.0035));
#852=CARTESIAN_POINT('',(0.00606217782649107,0.01,0.00475));
#853=CARTESIAN_POINT('',(-0.00844374768689828,0.01,-0.004875));
#854=CARTESIAN_POINT('',(-0.00844374768689828,0.01,-0.003625));
#855=CARTESIAN_POINT('',(-0.00606217782649107,0.01,-0.0035));
#856=CARTESIAN_POINT('',(-0.00606217782649107,0.01,-0.00225));
#857=CARTESIAN_POINT('',(-0.00844374768689828,0.01,0.004875));
#858=CARTESIAN_POINT('',(-0.00844374768689828,0.01,0.006125));
#859=CARTESIAN_POINT('',(0.,0.01,-0.007));
#860=CARTESIAN_POINT('',(0.,0.01,-0.00575));
#861=CARTESIAN_POINT('',(0.,0.01,0.));
#862=CARTESIAN_POINT('',(0.,0.01,0.0055));
#863=CARTESIAN_POINT('',(0.,0.0105,0.));
#864=CARTESIAN_POINT('',(0.,0.009,0.));
#865=CARTESIAN_POINT('',(0.,0.009,0.0055));
#866=CARTESIAN_POINT('',(-0.01335,0.009,0.));
#867=CARTESIAN_POINT('',(0.00844374768689828,0.009,0.004875));
#868=CARTESIAN_POINT('',(0.00844374768689828,0.009,0.003625));
#869=CARTESIAN_POINT('',(8.67361737988404E-19,0.009,0.007));
#870=CARTESIAN_POINT('',(8.67361737988404E-19,0.009,0.00575));
#871=CARTESIAN_POINT('',(1.30104260698261E-18,0.009,0.00975));
#872=CARTESIAN_POINT('',(1.30104260698261E-18,0.009,0.0085));
#873=CARTESIAN_POINT('',(-0.00606217782649107,0.009,0.0035));
#874=CARTESIAN_POINT('',(-0.00606217782649107,0.009,0.00225));
#875=CARTESIAN_POINT('',(0.,0.009,-0.00975));
#876=CARTESIAN_POINT('',(0.,0.009,-0.011));
#877=CARTESIAN_POINT('',(0.00606217782649107,0.009,-0.0035));
#878=CARTESIAN_POINT('',(0.00606217782649107,0.009,-0.00475));
#879=CARTESIAN_POINT('',(0.00844374768689828,0.009,-0.004875));
#880=CARTESIAN_POINT('',(0.00844374768689828,0.009,-0.006125));
#881=CARTESIAN_POINT('',(0.00606217782649107,0.009,0.0035));
#882=CARTESIAN_POINT('',(0.00606217782649107,0.009,0.00225));
#883=CARTESIAN_POINT('',(-0.00844374768689828,0.009,-0.004875));
#884=CARTESIAN_POINT('',(-0.00844374768689828,0.009,-0.006125));
#885=CARTESIAN_POINT('',(-0.00606217782649107,0.009,-0.0035));
#886=CARTESIAN_POINT('',(-0.00606217782649107,0.009,-0.00475));
#887=CARTESIAN_POINT('',(-0.00844374768689828,0.009,0.004875));
#888=CARTESIAN_POINT('',(-0.00844374768689828,0.009,0.003625));
#889=CARTESIAN_POINT('',(0.,0.009,-0.007));
#890=CARTESIAN_POINT('',(0.,0.009,-0.00825));
#891=CARTESIAN_POINT('',(0.,0.009,0.));
#892=CARTESIAN_POINT('',(0.,0.0105,0.));
#893=CARTESIAN_POINT('',(0.00286090347379432,0.009,0.013039851659955));
#894=CARTESIAN_POINT('',(0.00399361855548686,0.009,0.0127913374439548));
#895=CARTESIAN_POINT('',(0.00619636338788084,0.00878475569875381,0.011991701400973));
#896=CARTESIAN_POINT('',(0.00806351170993021,0.00825144442367357,0.0106990892885482));
#897=CARTESIAN_POINT('',(0.00890269705780086,0.007936085168587,0.00994808951995427));
#898=CARTESIAN_POINT('',(0.00890269705780086,0.007936085168587,0.00994808951995427));
#899=CARTESIAN_POINT('',(0.00994907638797276,6.14836186562114E-31,-0.00890159418454262));
#900=CARTESIAN_POINT('',(0.00994907638797276,0.00076533970587633,-0.00890159418454262));
#901=CARTESIAN_POINT('',(0.00966390834092721,0.00223882730490726,-0.00922945832968687));
#902=CARTESIAN_POINT('',(0.00834124040821146,0.00466419171501797,-0.0105140718759422));
#903=CARTESIAN_POINT('',(0.00626857884919257,0.00647938568250121,-0.0119193026102525));
#904=CARTESIAN_POINT('',(0.00373078638523596,0.00777607472085123,-0.0128751697713816));
#905=CARTESIAN_POINT('',(0.000885769290570311,0.00872927580139188,-0.0134634137280509));
#906=CARTESIAN_POINT('',(-0.00139274050637189,0.009,-0.0133619621135957));
#907=CARTESIAN_POINT('',(-0.00286090347379431,0.009,-0.013039851659955));
#908=CARTESIAN_POINT('',(0.00994907638797276,-1.92592994438724E-34,-0.00890159418454262));
#909=CARTESIAN_POINT('',(0.,0.,0.));
#910=CARTESIAN_POINT('',(0.00605092361202725,0.,0.0118999505646625));
#911=CARTESIAN_POINT('',(0.00529097211781283,0.001649979789256,0.0122567578930371));
#912=CARTESIAN_POINT('',(0.00516631224523934,0.00150422840129478,0.0123105708112454));
#913=CARTESIAN_POINT('',(0.00499866605158761,0.00113552182371861,0.0123785174281978));
#914=CARTESIAN_POINT('',(0.00514396399745498,0.000312216409808691,0.0123216175287389));
#915=CARTESIAN_POINT('',(0.0056963689956532,4.21398273303247E-19,0.0120802355909165));
#916=CARTESIAN_POINT('',(0.00605092361202725,4.21398273303247E-19,0.0118999505646625));
#917=CARTESIAN_POINT('',(0.00529097211781283,0.001649979789256,0.0122567578930371));
#918=CARTESIAN_POINT('',(0.,-0.00453618512424251,0.));
#919=CARTESIAN_POINT('',(0.00931087510624166,0.00635002021074399,0.00956713670624443));
#920=CARTESIAN_POINT('',(0.00890269705780086,0.007936085168587,0.00994808951995427));
#921=CARTESIAN_POINT('',(0.00903157296100794,0.00788765461753279,0.00983275650832408));
#922=CARTESIAN_POINT('',(0.00926952745387893,0.00773992140650177,0.00961088182254187));
#923=CARTESIAN_POINT('',(0.00954248531049823,0.00733637256990247,0.00933690479451185));
#924=CARTESIAN_POINT('',(0.00957373094474106,0.00676462629057852,0.00930432035365602));
#925=CARTESIAN_POINT('',(0.00940999906761977,0.00646591520287593,0.00947066784071382));
#926=CARTESIAN_POINT('',(0.00931087510624166,0.00635002021074399,0.00956713670624442));
#927=CARTESIAN_POINT('',(-0.01435,0.,0.));
#928=CARTESIAN_POINT('',(0.00605092361202725,2.16840434497101E-19,0.01435));
#929=CARTESIAN_POINT('',(0.00994907638797276,0.,-0.01435));
#930=CARTESIAN_POINT('',(0.,1.73472347597681E-18,-0.007));
#931=CARTESIAN_POINT('',(-0.00844374768689828,1.73472347597681E-18,0.004875));
#932=CARTESIAN_POINT('',(-0.00606217782649107,1.73472347597681E-18,-0.0035));
#933=CARTESIAN_POINT('',(-0.00844374768689828,1.73472347597681E-18,-0.004875));
#934=CARTESIAN_POINT('',(0.00606217782649107,1.73472347597681E-18,0.0035));
#935=CARTESIAN_POINT('',(0.00844374768689828,1.73472347597681E-18,-0.004875));
#936=CARTESIAN_POINT('',(0.00606217782649107,1.73472347597681E-18,-0.0035));
#937=CARTESIAN_POINT('',(0.,1.73472347597681E-18,-0.00975));
#938=CARTESIAN_POINT('',(-0.00606217782649107,1.73472347597681E-18,0.0035));
#939=CARTESIAN_POINT('',(1.30104260698261E-18,1.73472347597681E-18,0.00975));
#940=CARTESIAN_POINT('',(8.67361737988404E-19,1.73472347597681E-18,0.007));
#941=CARTESIAN_POINT('',(0.00844374768689828,1.73472347597681E-18,0.004875));
#942=CARTESIAN_POINT('',(-0.00855092361202725,0.007,-0.01435));
#943=CARTESIAN_POINT('',(-0.00890269705780086,0.007936085168587,-0.01435));
#944=CARTESIAN_POINT('',(-0.00931087510624166,0.00635002021074399,-0.01435));
#945=CARTESIAN_POINT('',(0.00994907638797279,-1.92592994438724E-34,-0.0144288026379939));
#946=CARTESIAN_POINT('',(0.00994907638797279,-1.92592994438724E-34,-0.00886862872656975));
#947=CARTESIAN_POINT('',(0.00994907638797279,0.00154646581094687,-0.0144288026379938));
#948=CARTESIAN_POINT('',(0.00994907638797279,0.00154646581094687,-0.00886862872656975));
#949=CARTESIAN_POINT('',(0.00878904721785611,0.00463721773617334,-0.0144288026379939));
#950=CARTESIAN_POINT('',(0.00878904721785611,0.00463721773617334,-0.00886862872656975));
#951=CARTESIAN_POINT('',(0.00402138814558397,0.00806988020201342,-0.0144288026379938));
#952=CARTESIAN_POINT('',(0.00402138814558397,0.00806988020201342,-0.00886862872656975));
#953=CARTESIAN_POINT('',(-0.0025355153487713,0.00940455133925649,-0.0144288026379939));
#954=CARTESIAN_POINT('',(-0.0025355153487713,0.00940455133925649,-0.00886862872656975));
#955=CARTESIAN_POINT('',(-0.00696176617100793,0.00866547173400627,-0.0144288026379938));
#956=CARTESIAN_POINT('',(-0.00696176617100793,0.00866547173400627,-0.00886862872656975));
#957=CARTESIAN_POINT('',(-0.00890269705780088,0.007936085168587,-0.0144288026379939));
#958=CARTESIAN_POINT('',(-0.00890269705780088,0.007936085168587,-0.00886862872656975));
#959=CARTESIAN_POINT('',(-0.00605092361202725,0.001,-0.01435));
#960=CARTESIAN_POINT('',(-0.00529097211781283,0.001649979789256,-0.01435));
#961=CARTESIAN_POINT('',(-0.00931087510624166,0.00635002021074399,-0.01435));
#962=CARTESIAN_POINT('',(-0.00994907638797279,-1.92592994438724E-34,0.0144288026379939));
#963=CARTESIAN_POINT('',(-0.00994907638797279,-1.92592994438724E-34,0.00886862872656975));
#964=CARTESIAN_POINT('',(-0.00994907638797279,0.00154646581094687,0.0144288026379938));
#965=CARTESIAN_POINT('',(-0.00994907638797279,0.00154646581094687,0.00886862872656975));
#966=CARTESIAN_POINT('',(-0.00878904721785611,0.00463721773617334,0.0144288026379939));
#967=CARTESIAN_POINT('',(-0.00878904721785611,0.00463721773617334,0.00886862872656975));
#968=CARTESIAN_POINT('',(-0.00402138814558397,0.00806988020201342,0.0144288026379938));
#969=CARTESIAN_POINT('',(-0.00402138814558397,0.00806988020201342,0.00886862872656975));
#970=CARTESIAN_POINT('',(0.0025355153487713,0.00940455133925649,0.0144288026379939));
#971=CARTESIAN_POINT('',(0.0025355153487713,0.00940455133925649,0.00886862872656975));
#972=CARTESIAN_POINT('',(0.00696176617100793,0.00866547173400627,0.0144288026379938));
#973=CARTESIAN_POINT('',(0.00696176617100793,0.00866547173400627,0.00886862872656975));
#974=CARTESIAN_POINT('',(0.00890269705780088,0.007936085168587,0.0144288026379939));
#975=CARTESIAN_POINT('',(0.00890269705780088,0.007936085168587,0.00886862872656975));
#976=CARTESIAN_POINT('',(0.00890269705780086,0.007936085168587,0.01435));
#977=CARTESIAN_POINT('',(0.00855092361202725,0.007,0.01435));
#978=CARTESIAN_POINT('',(0.00931087510624166,0.00635002021074399,0.01435));
#979=CARTESIAN_POINT('',(0.00605092361202725,0.001,0.01435));
#980=CARTESIAN_POINT('',(0.00529097211781283,0.001649979789256,0.01435));
#981=CARTESIAN_POINT('',(0.00931087510624166,0.00635002021074399,0.01435));
#982=MECHANICAL_DESIGN_GEOMETRIC_PRESENTATION_REPRESENTATION('',(#516),
#983);
#983=(
GEOMETRIC_REPRESENTATION_CONTEXT(3)
GLOBAL_UNCERTAINTY_ASSIGNED_CONTEXT((#984))
GLOBAL_UNIT_ASSIGNED_CONTEXT((#987,#986,#985))
REPRESENTATION_CONTEXT('Propeller 1 cover','TOP_LEVEL_ASSEMBLY_PART')
);
#984=UNCERTAINTY_MEASURE_WITH_UNIT(LENGTH_MEASURE(2.E-5),#987,
'DISTANCE_ACCURACY_VALUE','Maximum Tolerance applied to model');
#985=(
NAMED_UNIT(*)
SI_UNIT($,.STERADIAN.)
SOLID_ANGLE_UNIT()
);
#986=(
NAMED_UNIT(*)
PLANE_ANGLE_UNIT()
SI_UNIT($,.RADIAN.)
);
#987=(
LENGTH_UNIT()
NAMED_UNIT(*)
SI_UNIT($,.METRE.)
);
#988=PRODUCT_DEFINITION_SHAPE('','',#989);
#989=PRODUCT_DEFINITION('','',#991,#990);
#990=PRODUCT_DEFINITION_CONTEXT('',#997,'design');
#991=PRODUCT_DEFINITION_FORMATION_WITH_SPECIFIED_SOURCE('','',#993,
 .NOT_KNOWN.);
#992=PRODUCT_RELATED_PRODUCT_CATEGORY('','',(#993));
#993=PRODUCT('Propeller 1 cover','Propeller 1 cover',
'Propeller 1 cover',(#995));
#994=PRODUCT_CATEGORY('','');
#995=PRODUCT_CONTEXT('',#997,'mechanical');
#996=APPLICATION_PROTOCOL_DEFINITION('international standard',
'automotive_design',2010,#997);
#997=APPLICATION_CONTEXT(
'core data for automotive mechanical design processes');
ENDSEC;
END-ISO-10303-21;
