ISO-10303-21;
HEADER;
/* Generated by software containing ST-Developer
 * from STEP Tools, Inc. (www.steptools.com) 
 */
/* OPTION: using custom renumber hook */

FILE_DESCRIPTION(
/* description */ ('STEP AP214',
'CAx-IF Rec.Pracs.---User Defined Attributes---1.5---2016-08-15'),
/* implementation_level */ '2;1');

FILE_NAME(
/* name */ '6a386d19ee269b265a35562d',
/* time_stamp */ '2026-06-21T23:00:41Z',
/* author */ (''),
/* organization */ (''),
/* preprocessor_version */ 'ST-DEVELOPER v20',
/* originating_system */ 'ONSHAPE BY PTC INC, 1.216',
/* authorisation */ '  ');

FILE_SCHEMA (('AUTOMOTIVE_DESIGN {1 0 10303 214 3 1 1}'));
ENDSEC;

DATA;
#10=PROPERTY_DEFINITION_REPRESENTATION(#14,#12);
#11=PROPERTY_DEFINITION_REPRESENTATION(#15,#13);
#12=REPRESENTATION('',(#16),#737);
#13=REPRESENTATION('',(#17),#737);
#14=PROPERTY_DEFINITION('pmi validation property','',#742);
#15=PROPERTY_DEFINITION('pmi validation property','',#742);
#16=VALUE_REPRESENTATION_ITEM('number of annotations',COUNT_MEASURE(0.));
#17=VALUE_REPRESENTATION_ITEM('number of views',COUNT_MEASURE(0.));
#18=SHAPE_REPRESENTATION_RELATIONSHIP('','',#271,#19);
#19=ADVANCED_BREP_SHAPE_REPRESENTATION('',(#269),#737);
#20=CYLINDRICAL_SURFACE('',#283,0.00125);
#21=CYLINDRICAL_SURFACE('',#286,0.001);
#22=CYLINDRICAL_SURFACE('',#288,0.001);
#23=CYLINDRICAL_SURFACE('',#289,0.001);
#24=CYLINDRICAL_SURFACE('',#291,0.001);
#25=B_SPLINE_CURVE_WITH_KNOTS('',3,(#447,#448,#449,#450,#451,#452,#453,
#454,#455,#456,#457),.UNSPECIFIED.,.F.,.F.,(4,1,1,1,1,1,1,1,4),(5.90330551248169E-17,
0.00306992311585079,0.00613984623170151,0.00920976934755224,0.012279692463403,
0.0153496155792537,0.0184195386951044,0.0214894618109551,0.0245593849268059),
 .UNSPECIFIED.);
#26=B_SPLINE_CURVE_WITH_KNOTS('',3,(#462,#463,#464,#465,#466,#467,#468),
 .UNSPECIFIED.,.F.,.F.,(4,1,1,1,4),(0.,0.000589697164378067,0.00117939432875613,
0.0017690914931342,0.00235878865751227),.UNSPECIFIED.);
#27=B_SPLINE_CURVE_WITH_KNOTS('',3,(#470,#471,#472,#473,#474),
 .UNSPECIFIED.,.F.,.F.,(4,1,4),(0.,0.00359131433675567,0.00718262867351135),
 .UNSPECIFIED.);
#28=B_SPLINE_CURVE_WITH_KNOTS('',3,(#476,#477,#478,#479,#480,#481,#482),
 .UNSPECIFIED.,.F.,.F.,(4,1,1,1,4),(0.,0.000547577033167663,0.00109515406633533,
0.00164273109950299,0.00219030813267065),.UNSPECIFIED.);
#29=B_SPLINE_CURVE_WITH_KNOTS('',3,(#484,#485,#486,#487,#488,#489,#490,
#491,#492,#493,#494),.UNSPECIFIED.,.F.,.F.,(4,1,1,1,1,1,1,1,4),(5.90330551248169E-17,
0.00306992311585079,0.00613984623170151,0.00920976934755224,0.012279692463403,
0.0153496155792537,0.0184195386951044,0.0214894618109551,0.0245593849268059),
 .UNSPECIFIED.);
#30=B_SPLINE_CURVE_WITH_KNOTS('',3,(#495,#496,#497,#498,#499,#500,#501),
 .UNSPECIFIED.,.F.,.F.,(4,1,1,1,4),(0.,0.000589697164378067,0.00117939432875613,
0.0017690914931342,0.00235878865751227),.UNSPECIFIED.);
#31=B_SPLINE_CURVE_WITH_KNOTS('',3,(#503,#504,#505,#506,#507),
 .UNSPECIFIED.,.F.,.F.,(4,1,4),(0.,0.00359131433675567,0.00718262867351135),
 .UNSPECIFIED.);
#32=B_SPLINE_CURVE_WITH_KNOTS('',3,(#509,#510,#511,#512,#513,#514,#515),
 .UNSPECIFIED.,.F.,.F.,(4,1,1,1,4),(0.,0.000547577033167663,0.00109515406633533,
0.00164273109950299,0.00219030813267065),.UNSPECIFIED.);
#33=B_SPLINE_CURVE_WITH_KNOTS('',3,(#619,#620,#621,#622,#623,#624,#625,
#626,#627,#628,#629,#630),.UNSPECIFIED.,.F.,.F.,(4,1,1,1,1,1,1,1,1,4),(1.53206629090322E-17,
0.00310245024079662,0.00620490048159322,0.00930735072238982,0.0124098009631864,
0.015512251203983,0.0186147014447796,0.0217171516855762,0.0232683768059745,
0.0248196019263728),.UNSPECIFIED.);
#34=B_SPLINE_CURVE_WITH_KNOTS('',3,(#632,#633,#634,#635,#636,#637,#638),
 .UNSPECIFIED.,.F.,.F.,(4,1,1,1,4),(0.,0.000575767675183726,0.00115153535036745,
0.00172730302555118,0.00230307070073491),.UNSPECIFIED.);
#35=B_SPLINE_CURVE_WITH_KNOTS('',3,(#640,#641,#642,#643,#644),
 .UNSPECIFIED.,.F.,.F.,(4,1,4),(0.,0.00372487690942707,0.00744975381885414),
 .UNSPECIFIED.);
#36=B_SPLINE_CURVE_WITH_KNOTS('',3,(#646,#647,#648,#649,#650,#651,#652),
 .UNSPECIFIED.,.F.,.F.,(4,1,1,1,4),(3.90915225181732E-20,0.00059343570905528,
0.00118687141811056,0.00178030712716584,0.00237374283622112),
 .UNSPECIFIED.);
#37=B_SPLINE_CURVE_WITH_KNOTS('',3,(#653,#654,#655,#656,#657,#658,#659,
#660,#661,#662,#663,#664),.UNSPECIFIED.,.F.,.F.,(4,1,1,1,1,1,1,1,1,4),(1.53206629090322E-17,
0.00310245024079662,0.00620490048159322,0.00930735072238982,0.0124098009631864,
0.015512251203983,0.0186147014447796,0.0217171516855762,0.0232683768059745,
0.0248196019263728),.UNSPECIFIED.);
#38=B_SPLINE_CURVE_WITH_KNOTS('',3,(#666,#667,#668,#669,#670,#671,#672),
 .UNSPECIFIED.,.F.,.F.,(4,1,1,1,4),(0.,0.000575767675183726,0.00115153535036745,
0.00172730302555118,0.00230307070073491),.UNSPECIFIED.);
#39=B_SPLINE_CURVE_WITH_KNOTS('',3,(#674,#675,#676,#677,#678),
 .UNSPECIFIED.,.F.,.F.,(4,1,4),(0.,0.00372487690942707,0.00744975381885414),
 .UNSPECIFIED.);
#40=B_SPLINE_CURVE_WITH_KNOTS('',3,(#680,#681,#682,#683,#684,#685,#686),
 .UNSPECIFIED.,.F.,.F.,(4,1,1,1,4),(3.90915225181732E-20,0.00059343570905528,
0.00118687141811056,0.00178030712716584,0.00237374283622112),
 .UNSPECIFIED.);
#41=B_SPLINE_SURFACE_WITH_KNOTS('',3,3,((#352,#353,#354,#355,#356,#357,
#358,#359,#360,#361,#362,#363,#364,#365,#366,#367,#368,#369,#370),(#371,
#372,#373,#374,#375,#376,#377,#378,#379,#380,#381,#382,#383,#384,#385,#386,
#387,#388,#389),(#390,#391,#392,#393,#394,#395,#396,#397,#398,#399,#400,
#401,#402,#403,#404,#405,#406,#407,#408),(#409,#410,#411,#412,#413,#414,
#415,#416,#417,#418,#419,#420,#421,#422,#423,#424,#425,#426,#427),(#428,
#429,#430,#431,#432,#433,#434,#435,#436,#437,#438,#439,#440,#441,#442,#443,
#444,#445,#446)),.UNSPECIFIED.,.F.,.T.,.F.,(4,1,4),(1,1,1,1,1,1,1,1,1,1,
1,1,1,1,1,1,1,1,1,1,1,1,1),(0.320261542032295,0.945528934413596,1.5707963267949),
(-1.17809724509617,-0.785398163397448,-0.392699081698725,0.,0.392699081698724,
0.785398163397448,1.17809724509617,1.5707963267949,1.96349540849362,2.35619449019234,
2.74889357189107,3.14159265358979,3.53429173528852,3.92699081698724,4.31968989868597,
4.71238898038469,5.10508806208341,5.49778714378214,5.89048622548086,6.28318530717959,
6.67588438887831,7.06858347057703,7.46128255227576),.UNSPECIFIED.);
#42=B_SPLINE_SURFACE_WITH_KNOTS('',3,3,((#524,#525,#526,#527,#528,#529,
#530,#531,#532,#533,#534,#535,#536,#537,#538,#539,#540,#541,#542),(#543,
#544,#545,#546,#547,#548,#549,#550,#551,#552,#553,#554,#555,#556,#557,#558,
#559,#560,#561),(#562,#563,#564,#565,#566,#567,#568,#569,#570,#571,#572,
#573,#574,#575,#576,#577,#578,#579,#580),(#581,#582,#583,#584,#585,#586,
#587,#588,#589,#590,#591,#592,#593,#594,#595,#596,#597,#598,#599),(#600,
#601,#602,#603,#604,#605,#606,#607,#608,#609,#610,#611,#612,#613,#614,#615,
#616,#617,#618)),.UNSPECIFIED.,.F.,.T.,.F.,(4,1,4),(1,1,1,1,1,1,1,1,1,1,
1,1,1,1,1,1,1,1,1,1,1,1,1),(4.71238898038469,5.33334501631277,5.95430105224085),
(-1.17809724509617,-0.785398163397448,-0.392699081698725,0.,0.392699081698724,
0.785398163397448,1.17809724509617,1.5707963267949,1.96349540849362,2.35619449019234,
2.74889357189107,3.14159265358979,3.53429173528852,3.92699081698724,4.31968989868597,
4.71238898038469,5.10508806208341,5.49778714378214,5.89048622548086,6.28318530717959,
6.67588438887831,7.06858347057703,7.46128255227576),.UNSPECIFIED.);
#43=B_SPLINE_SURFACE_WITH_KNOTS('',3,1,((#696,#697),(#698,#699),(#700,#701),
(#702,#703),(#704,#705),(#706,#707),(#708,#709)),
 .SURF_OF_LINEAR_EXTRUSION.,.F.,.F.,.F.,(4,1,1,1,4),(2,2),(4.22123089258376,
4.73671949623272,5.25220809988167,5.76769670353063,6.28318530717959),(0.,
1.),.UNSPECIFIED.);
#44=B_SPLINE_SURFACE_WITH_KNOTS('',3,1,((#716,#717),(#718,#719),(#720,#721),
(#722,#723),(#724,#725),(#726,#727),(#728,#729)),
 .SURF_OF_LINEAR_EXTRUSION.,.F.,.F.,.F.,(4,1,1,1,4),(2,2),(4.22123089258376,
4.73671949623272,5.25220809988167,5.76769670353063,6.28318530717959),(0.,
1.),.UNSPECIFIED.);
#45=LINE('',#347,#55);
#46=LINE('',#351,#56);
#47=LINE('',#519,#57);
#48=LINE('',#523,#58);
#49=LINE('',#710,#59);
#50=LINE('',#712,#60);
#51=LINE('',#714,#61);
#52=LINE('',#730,#62);
#53=LINE('',#732,#63);
#54=LINE('',#734,#64);
#55=VECTOR('',#298,1.);
#56=VECTOR('',#301,1.);
#57=VECTOR('',#308,1.);
#58=VECTOR('',#311,1.);
#59=VECTOR('',#324,1.);
#60=VECTOR('',#327,1.);
#61=VECTOR('',#330,1.);
#62=VECTOR('',#333,1.);
#63=VECTOR('',#336,1.);
#64=VECTOR('',#339,1.);
#65=ORIENTED_EDGE('',*,*,#133,.T.);
#66=ORIENTED_EDGE('',*,*,#134,.F.);
#67=ORIENTED_EDGE('',*,*,#135,.F.);
#68=ORIENTED_EDGE('',*,*,#136,.T.);
#69=ORIENTED_EDGE('',*,*,#137,.F.);
#70=ORIENTED_EDGE('',*,*,#138,.T.);
#71=ORIENTED_EDGE('',*,*,#139,.F.);
#72=ORIENTED_EDGE('',*,*,#140,.F.);
#73=ORIENTED_EDGE('',*,*,#141,.F.);
#74=ORIENTED_EDGE('',*,*,#142,.F.);
#75=ORIENTED_EDGE('',*,*,#135,.T.);
#76=ORIENTED_EDGE('',*,*,#143,.F.);
#77=ORIENTED_EDGE('',*,*,#144,.F.);
#78=ORIENTED_EDGE('',*,*,#145,.F.);
#79=ORIENTED_EDGE('',*,*,#146,.F.);
#80=ORIENTED_EDGE('',*,*,#147,.T.);
#81=ORIENTED_EDGE('',*,*,#148,.T.);
#82=ORIENTED_EDGE('',*,*,#149,.F.);
#83=ORIENTED_EDGE('',*,*,#138,.F.);
#84=ORIENTED_EDGE('',*,*,#150,.F.);
#85=ORIENTED_EDGE('',*,*,#151,.F.);
#86=ORIENTED_EDGE('',*,*,#152,.F.);
#87=ORIENTED_EDGE('',*,*,#153,.F.);
#88=ORIENTED_EDGE('',*,*,#133,.F.);
#89=ORIENTED_EDGE('',*,*,#154,.F.);
#90=ORIENTED_EDGE('',*,*,#155,.F.);
#91=ORIENTED_EDGE('',*,*,#156,.F.);
#92=ORIENTED_EDGE('',*,*,#157,.F.);
#93=ORIENTED_EDGE('',*,*,#148,.F.);
#94=ORIENTED_EDGE('',*,*,#158,.T.);
#95=ORIENTED_EDGE('',*,*,#159,.T.);
#96=ORIENTED_EDGE('',*,*,#158,.F.);
#97=ORIENTED_EDGE('',*,*,#160,.T.);
#98=ORIENTED_EDGE('',*,*,#159,.F.);
#99=ORIENTED_EDGE('',*,*,#146,.T.);
#100=ORIENTED_EDGE('',*,*,#160,.F.);
#101=ORIENTED_EDGE('',*,*,#142,.T.);
#102=ORIENTED_EDGE('',*,*,#161,.T.);
#103=ORIENTED_EDGE('',*,*,#154,.T.);
#104=ORIENTED_EDGE('',*,*,#136,.F.);
#105=ORIENTED_EDGE('',*,*,#141,.T.);
#106=ORIENTED_EDGE('',*,*,#162,.T.);
#107=ORIENTED_EDGE('',*,*,#155,.T.);
#108=ORIENTED_EDGE('',*,*,#161,.F.);
#109=ORIENTED_EDGE('',*,*,#140,.T.);
#110=ORIENTED_EDGE('',*,*,#163,.T.);
#111=ORIENTED_EDGE('',*,*,#156,.T.);
#112=ORIENTED_EDGE('',*,*,#162,.F.);
#113=ORIENTED_EDGE('',*,*,#139,.T.);
#114=ORIENTED_EDGE('',*,*,#149,.T.);
#115=ORIENTED_EDGE('',*,*,#157,.T.);
#116=ORIENTED_EDGE('',*,*,#163,.F.);
#117=ORIENTED_EDGE('',*,*,#137,.T.);
#118=ORIENTED_EDGE('',*,*,#164,.T.);
#119=ORIENTED_EDGE('',*,*,#150,.T.);
#120=ORIENTED_EDGE('',*,*,#147,.F.);
#121=ORIENTED_EDGE('',*,*,#145,.T.);
#122=ORIENTED_EDGE('',*,*,#165,.T.);
#123=ORIENTED_EDGE('',*,*,#151,.T.);
#124=ORIENTED_EDGE('',*,*,#164,.F.);
#125=ORIENTED_EDGE('',*,*,#144,.T.);
#126=ORIENTED_EDGE('',*,*,#166,.T.);
#127=ORIENTED_EDGE('',*,*,#152,.T.);
#128=ORIENTED_EDGE('',*,*,#165,.F.);
#129=ORIENTED_EDGE('',*,*,#143,.T.);
#130=ORIENTED_EDGE('',*,*,#134,.T.);
#131=ORIENTED_EDGE('',*,*,#153,.T.);
#132=ORIENTED_EDGE('',*,*,#166,.F.);
#133=EDGE_CURVE('',#167,#168,#191,.T.);
#134=EDGE_CURVE('',#169,#168,#45,.T.);
#135=EDGE_CURVE('',#170,#169,#192,.T.);
#136=EDGE_CURVE('',#170,#167,#46,.T.);
#137=EDGE_CURVE('',#171,#172,#25,.T.);
#138=EDGE_CURVE('',#171,#173,#193,.T.);
#139=EDGE_CURVE('',#174,#173,#26,.T.);
#140=EDGE_CURVE('',#175,#174,#27,.T.);
#141=EDGE_CURVE('',#176,#175,#28,.T.);
#142=EDGE_CURVE('',#170,#176,#29,.T.);
#143=EDGE_CURVE('',#177,#169,#30,.T.);
#144=EDGE_CURVE('',#178,#177,#31,.T.);
#145=EDGE_CURVE('',#172,#178,#32,.T.);
#146=EDGE_CURVE('',#179,#179,#194,.T.);
#147=EDGE_CURVE('',#171,#180,#47,.T.);
#148=EDGE_CURVE('',#180,#181,#195,.T.);
#149=EDGE_CURVE('',#173,#181,#48,.T.);
#150=EDGE_CURVE('',#182,#180,#33,.T.);
#151=EDGE_CURVE('',#183,#182,#34,.T.);
#152=EDGE_CURVE('',#184,#183,#35,.T.);
#153=EDGE_CURVE('',#168,#184,#36,.T.);
#154=EDGE_CURVE('',#185,#167,#37,.T.);
#155=EDGE_CURVE('',#186,#185,#38,.T.);
#156=EDGE_CURVE('',#187,#186,#39,.T.);
#157=EDGE_CURVE('',#181,#187,#40,.T.);
#158=EDGE_CURVE('',#188,#188,#196,.T.);
#159=EDGE_CURVE('',#189,#189,#197,.T.);
#160=EDGE_CURVE('',#190,#190,#198,.T.);
#161=EDGE_CURVE('',#176,#185,#49,.T.);
#162=EDGE_CURVE('',#175,#186,#50,.T.);
#163=EDGE_CURVE('',#174,#187,#51,.T.);
#164=EDGE_CURVE('',#172,#182,#52,.T.);
#165=EDGE_CURVE('',#178,#183,#53,.T.);
#166=EDGE_CURVE('',#177,#184,#54,.T.);
#167=VERTEX_POINT('',#345);
#168=VERTEX_POINT('',#346);
#169=VERTEX_POINT('',#348);
#170=VERTEX_POINT('',#350);
#171=VERTEX_POINT('',#458);
#172=VERTEX_POINT('',#459);
#173=VERTEX_POINT('',#461);
#174=VERTEX_POINT('',#469);
#175=VERTEX_POINT('',#475);
#176=VERTEX_POINT('',#483);
#177=VERTEX_POINT('',#502);
#178=VERTEX_POINT('',#508);
#179=VERTEX_POINT('',#517);
#180=VERTEX_POINT('',#520);
#181=VERTEX_POINT('',#522);
#182=VERTEX_POINT('',#631);
#183=VERTEX_POINT('',#639);
#184=VERTEX_POINT('',#645);
#185=VERTEX_POINT('',#665);
#186=VERTEX_POINT('',#673);
#187=VERTEX_POINT('',#679);
#188=VERTEX_POINT('',#688);
#189=VERTEX_POINT('',#691);
#190=VERTEX_POINT('',#694);
#191=CIRCLE('',#274,0.0125);
#192=CIRCLE('',#275,0.0135);
#193=CIRCLE('',#276,0.0135);
#194=CIRCLE('',#277,0.00425);
#195=CIRCLE('',#279,0.0125);
#196=CIRCLE('',#280,0.00403734106053586);
#197=CIRCLE('',#282,0.00125);
#198=CIRCLE('',#284,0.00125);
#199=EDGE_LOOP('',(#65,#66,#67,#68));
#200=EDGE_LOOP('',(#69,#70,#71,#72,#73,#74,#75,#76,#77,#78));
#201=EDGE_LOOP('',(#79));
#202=EDGE_LOOP('',(#80,#81,#82,#83));
#203=EDGE_LOOP('',(#84,#85,#86,#87,#88,#89,#90,#91,#92,#93));
#204=EDGE_LOOP('',(#94));
#205=EDGE_LOOP('',(#95));
#206=EDGE_LOOP('',(#96));
#207=EDGE_LOOP('',(#97));
#208=EDGE_LOOP('',(#98));
#209=EDGE_LOOP('',(#99));
#210=EDGE_LOOP('',(#100));
#211=EDGE_LOOP('',(#101,#102,#103,#104));
#212=EDGE_LOOP('',(#105,#106,#107,#108));
#213=EDGE_LOOP('',(#109,#110,#111,#112));
#214=EDGE_LOOP('',(#113,#114,#115,#116));
#215=EDGE_LOOP('',(#117,#118,#119,#120));
#216=EDGE_LOOP('',(#121,#122,#123,#124));
#217=EDGE_LOOP('',(#125,#126,#127,#128));
#218=EDGE_LOOP('',(#129,#130,#131,#132));
#219=FACE_BOUND('',#199,.T.);
#220=FACE_BOUND('',#200,.T.);
#221=FACE_BOUND('',#201,.T.);
#222=FACE_BOUND('',#202,.T.);
#223=FACE_BOUND('',#203,.T.);
#224=FACE_BOUND('',#204,.T.);
#225=FACE_BOUND('',#205,.T.);
#226=FACE_BOUND('',#206,.T.);
#227=FACE_BOUND('',#207,.T.);
#228=FACE_BOUND('',#208,.T.);
#229=FACE_BOUND('',#209,.T.);
#230=FACE_BOUND('',#210,.T.);
#231=FACE_BOUND('',#211,.T.);
#232=FACE_BOUND('',#212,.T.);
#233=FACE_BOUND('',#213,.T.);
#234=FACE_BOUND('',#214,.T.);
#235=FACE_BOUND('',#215,.T.);
#236=FACE_BOUND('',#216,.T.);
#237=FACE_BOUND('',#217,.T.);
#238=FACE_BOUND('',#218,.T.);
#239=PLANE('',#273);
#240=PLANE('',#278);
#241=PLANE('',#281);
#242=PLANE('',#285);
#243=PLANE('',#287);
#244=PLANE('',#290);
#245=ADVANCED_FACE('',(#219),#239,.T.);
#246=ADVANCED_FACE('',(#220,#221),#41,.T.);
#247=ADVANCED_FACE('',(#222),#240,.T.);
#248=ADVANCED_FACE('',(#223,#224),#42,.T.);
#249=ADVANCED_FACE('',(#225,#226),#241,.T.);
#250=ADVANCED_FACE('',(#227,#228),#20,.F.);
#251=ADVANCED_FACE('',(#229,#230),#242,.T.);
#252=ADVANCED_FACE('',(#231),#43,.F.);
#253=ADVANCED_FACE('',(#232),#21,.F.);
#254=ADVANCED_FACE('',(#233),#243,.F.);
#255=ADVANCED_FACE('',(#234),#22,.T.);
#256=ADVANCED_FACE('',(#235),#44,.F.);
#257=ADVANCED_FACE('',(#236),#23,.F.);
#258=ADVANCED_FACE('',(#237),#244,.F.);
#259=ADVANCED_FACE('',(#238),#24,.T.);
#260=CLOSED_SHELL('',(#245,#246,#247,#248,#249,#250,#251,#252,#253,#254,
#255,#256,#257,#258,#259));
#261=STYLED_ITEM('',(#262),#269);
#262=PRESENTATION_STYLE_ASSIGNMENT((#263));
#263=SURFACE_STYLE_USAGE(.BOTH.,#264);
#264=SURFACE_SIDE_STYLE('',(#265));
#265=SURFACE_STYLE_FILL_AREA(#266);
#266=FILL_AREA_STYLE('',(#267));
#267=FILL_AREA_STYLE_COLOUR('',#268);
#268=COLOUR_RGB('',0.752941176470588,0.752941176470588,0.752941176470588);
#269=MANIFOLD_SOLID_BREP('Propeller 2 cover',#260);
#270=SHAPE_DEFINITION_REPRESENTATION(#742,#271);
#271=SHAPE_REPRESENTATION('Propeller 2 cover',(#272),#737);
#272=AXIS2_PLACEMENT_3D('',#342,#292,#293);
#273=AXIS2_PLACEMENT_3D('',#343,#294,#295);
#274=AXIS2_PLACEMENT_3D('',#344,#296,#297);
#275=AXIS2_PLACEMENT_3D('',#349,#299,#300);
#276=AXIS2_PLACEMENT_3D('',#460,#302,#303);
#277=AXIS2_PLACEMENT_3D('',#516,#304,#305);
#278=AXIS2_PLACEMENT_3D('',#518,#306,#307);
#279=AXIS2_PLACEMENT_3D('',#521,#309,#310);
#280=AXIS2_PLACEMENT_3D('',#687,#312,#313);
#281=AXIS2_PLACEMENT_3D('',#689,#314,#315);
#282=AXIS2_PLACEMENT_3D('',#690,#316,#317);
#283=AXIS2_PLACEMENT_3D('',#692,#318,#319);
#284=AXIS2_PLACEMENT_3D('',#693,#320,#321);
#285=AXIS2_PLACEMENT_3D('',#695,#322,#323);
#286=AXIS2_PLACEMENT_3D('',#711,#325,#326);
#287=AXIS2_PLACEMENT_3D('',#713,#328,#329);
#288=AXIS2_PLACEMENT_3D('',#715,#331,#332);
#289=AXIS2_PLACEMENT_3D('',#731,#334,#335);
#290=AXIS2_PLACEMENT_3D('',#733,#337,#338);
#291=AXIS2_PLACEMENT_3D('',#735,#340,#341);
#292=DIRECTION('',(0.,0.,1.));
#293=DIRECTION('',(1.,0.,0.));
#294=DIRECTION('',(0.,-1.,0.));
#295=DIRECTION('',(0.,0.,-1.));
#296=DIRECTION('',(0.,1.,0.));
#297=DIRECTION('',(0.,0.,1.));
#298=DIRECTION('',(0.,0.,-1.));
#299=DIRECTION('',(0.,1.,0.));
#300=DIRECTION('',(0.,0.,1.));
#301=DIRECTION('',(0.,0.,1.));
#302=DIRECTION('',(0.,1.,0.));
#303=DIRECTION('',(0.,0.,1.));
#304=DIRECTION('',(0.,1.,0.));
#305=DIRECTION('',(0.,0.,1.));
#306=DIRECTION('',(0.,-1.,0.));
#307=DIRECTION('',(0.,0.,-1.));
#308=DIRECTION('',(0.,0.,-1.));
#309=DIRECTION('',(0.,1.,0.));
#310=DIRECTION('',(0.,0.,1.));
#311=DIRECTION('',(0.,0.,1.));
#312=DIRECTION('',(0.,1.,0.));
#313=DIRECTION('',(0.,0.,1.));
#314=DIRECTION('',(0.,-1.,0.));
#315=DIRECTION('',(0.,0.,-1.));
#316=DIRECTION('',(0.,1.,0.));
#317=DIRECTION('',(0.,0.,1.));
#318=DIRECTION('',(0.,1.,0.));
#319=DIRECTION('',(0.,0.,1.));
#320=DIRECTION('',(0.,1.,0.));
#321=DIRECTION('',(0.,0.,1.));
#322=DIRECTION('',(0.,1.,0.));
#323=DIRECTION('',(0.,0.,1.));
#324=DIRECTION('',(0.,0.,1.));
#325=DIRECTION('',(0.,0.,1.));
#326=DIRECTION('',(1.,0.,0.));
#327=DIRECTION('',(0.,0.,1.));
#328=DIRECTION('',(0.759951494214413,-0.649979789256005,0.));
#329=DIRECTION('',(0.649979789256005,0.759951494214413,0.));
#330=DIRECTION('',(0.,0.,1.));
#331=DIRECTION('',(0.,0.,1.));
#332=DIRECTION('',(1.,0.,0.));
#333=DIRECTION('',(0.,0.,-1.));
#334=DIRECTION('',(0.,0.,-1.));
#335=DIRECTION('',(-1.,0.,0.));
#336=DIRECTION('',(0.,0.,-1.));
#337=DIRECTION('',(-0.759951494214413,-0.649979789256005,0.));
#338=DIRECTION('',(-0.649979789256005,0.759951494214413,0.));
#339=DIRECTION('',(0.,0.,-1.));
#340=DIRECTION('',(0.,0.,-1.));
#341=DIRECTION('',(-1.,0.,0.));
#342=CARTESIAN_POINT('',(0.,0.,0.));
#343=CARTESIAN_POINT('',(-0.0135,1.92592994438724E-34,0.));
#344=CARTESIAN_POINT('',(0.,0.,0.));
#345=CARTESIAN_POINT('',(-0.00994907638797275,0.,-0.00756742221805306));
#346=CARTESIAN_POINT('',(-0.00605092361202725,0.,0.0109378390663518));
#347=CARTESIAN_POINT('',(-0.00605092361202725,0.,0.0135));
#348=CARTESIAN_POINT('',(-0.00605092361202725,0.,0.0120679875472844));
#349=CARTESIAN_POINT('',(0.,0.,0.));
#350=CARTESIAN_POINT('',(-0.00994907638797275,-3.46944695195361E-18,-0.00912501391923777));
#351=CARTESIAN_POINT('',(-0.00994907638797275,-3.46944695195361E-18,-0.0135));
#352=CARTESIAN_POINT('',(-0.00402871045422372,0.0185000000000001,-0.00166874650901373));
#353=CARTESIAN_POINT('',(-0.00436064477288817,0.0185,-3.19839640883224E-18));
#354=CARTESIAN_POINT('',(-0.00402871045422371,0.0185,0.00166874650901373));
#355=CARTESIAN_POINT('',(-0.0030834414892549,0.0185,0.0030834414892549));
#356=CARTESIAN_POINT('',(-0.00166874650901373,0.0185,0.00402871045422371));
#357=CARTESIAN_POINT('',(-9.72393823447937E-19,0.0185,0.00436064477288817));
#358=CARTESIAN_POINT('',(0.00166874650901373,0.0185,0.00402871045422371));
#359=CARTESIAN_POINT('',(0.0030834414892549,0.0185,0.0030834414892549));
#360=CARTESIAN_POINT('',(0.00402871045422371,0.0185,0.00166874650901373));
#361=CARTESIAN_POINT('',(0.00436064477288817,0.0185,5.80194407812044E-19));
#362=CARTESIAN_POINT('',(0.00402871045422371,0.0185,-0.00166874650901373));
#363=CARTESIAN_POINT('',(0.0030834414892549,0.0185,-0.0030834414892549));
#364=CARTESIAN_POINT('',(0.00166874650901373,0.0185,-0.00402871045422371));
#365=CARTESIAN_POINT('',(1.18584612615602E-18,0.0185,-0.00436064477288817));
#366=CARTESIAN_POINT('',(-0.00166874650901373,0.0185,-0.00402871045422371));
#367=CARTESIAN_POINT('',(-0.0030834414892549,0.0185,-0.0030834414892549));
#368=CARTESIAN_POINT('',(-0.00402871045422372,0.0185000000000001,-0.00166874650901373));
#369=CARTESIAN_POINT('',(-0.00436064477288817,0.0185,-3.19839640883224E-18));
#370=CARTESIAN_POINT('',(-0.00402871045422371,0.0185,0.00166874650901373));
#371=CARTESIAN_POINT('',(-0.00656502278533865,0.0172332382331847,-0.00271932147497565));
#372=CARTESIAN_POINT('',(-0.0071059294575924,0.0172332382331847,-4.77048955893622E-18));
#373=CARTESIAN_POINT('',(-0.00656502278533865,0.0172332382331847,0.00271932147497566));
#374=CARTESIAN_POINT('',(-0.00502465090609683,0.0172332382331847,0.00502465090609683));
#375=CARTESIAN_POINT('',(-0.00271932147497566,0.0172332382331847,0.00656502278533865));
#376=CARTESIAN_POINT('',(-1.05032085459533E-19,0.0172332382331847,0.0071059294575924));
#377=CARTESIAN_POINT('',(0.00271932147497566,0.0172332382331847,0.00656502278533865));
#378=CARTESIAN_POINT('',(0.00502465090609683,0.0172332382331847,0.00502465090609684));
#379=CARTESIAN_POINT('',(0.00656502278533865,0.0172332382331847,0.00271932147497566));
#380=CARTESIAN_POINT('',(0.0071059294575924,0.0172332382331847,1.74952008277416E-18));
#381=CARTESIAN_POINT('',(0.00656502278533865,0.0172332382331847,-0.00271932147497566));
#382=CARTESIAN_POINT('',(0.00502465090609683,0.0172332382331847,-0.00502465090609683));
#383=CARTESIAN_POINT('',(0.00271932147497566,0.0172332382331847,-0.00656502278533865));
#384=CARTESIAN_POINT('',(3.98444298388423E-18,0.0172332382331847,-0.0071059294575924));
#385=CARTESIAN_POINT('',(-0.00271932147497566,0.0172332382331847,-0.00656502278533866));
#386=CARTESIAN_POINT('',(-0.00502465090609684,0.0172332382331847,-0.00502465090609683));
#387=CARTESIAN_POINT('',(-0.00656502278533865,0.0172332382331847,-0.00271932147497565));
#388=CARTESIAN_POINT('',(-0.0071059294575924,0.0172332382331847,-4.77048955893622E-18));
#389=CARTESIAN_POINT('',(-0.00656502278533865,0.0172332382331847,0.00271932147497566));
#390=CARTESIAN_POINT('',(-0.0110663381036566,0.0121674670936697,-0.00458382732834067));
#391=CARTESIAN_POINT('',(-0.0119781180491964,0.0121674670936697,-1.02999206386123E-17));
#392=CARTESIAN_POINT('',(-0.0110663381036565,0.0121674670936697,0.0045838273283407));
#393=CARTESIAN_POINT('',(-0.00846980849843972,0.0121674670936697,0.00846980849843972));
#394=CARTESIAN_POINT('',(-0.00458382732834069,0.0121674670936697,0.0110663381036565));
#395=CARTESIAN_POINT('',(-4.02171243356342E-18,0.0121674670936697,0.0119781180491964));
#396=CARTESIAN_POINT('',(0.0045838273283407,0.0121674670936697,0.0110663381036565));
#397=CARTESIAN_POINT('',(0.00846980849843972,0.0121674670936697,0.00846980849843972));
#398=CARTESIAN_POINT('',(0.0110663381036565,0.0121674670936697,0.0045838273283407));
#399=CARTESIAN_POINT('',(0.0119781180491964,0.0121674670936697,2.42701409167959E-19));
#400=CARTESIAN_POINT('',(0.0110663381036565,0.0121674670936697,-0.00458382732834069));
#401=CARTESIAN_POINT('',(0.00846980849843973,0.0121674670936697,-0.00846980849843972));
#402=CARTESIAN_POINT('',(0.0045838273283407,0.0121674670936697,-0.0110663381036565));
#403=CARTESIAN_POINT('',(-9.89334482393023E-19,0.0121674670936697,-0.0119781180491964));
#404=CARTESIAN_POINT('',(-0.00458382732834069,0.0121674670936697,-0.0110663381036565));
#405=CARTESIAN_POINT('',(-0.00846980849843973,0.0121674670936697,-0.00846980849843972));
#406=CARTESIAN_POINT('',(-0.0110663381036566,0.0121674670936697,-0.00458382732834067));
#407=CARTESIAN_POINT('',(-0.0119781180491964,0.0121674670936697,-1.02999206386123E-17));
#408=CARTESIAN_POINT('',(-0.0110663381036565,0.0121674670936697,0.0045838273283407));
#409=CARTESIAN_POINT('',(-0.0128061316157357,0.00406539565398961,-0.00530447339677257));
#410=CARTESIAN_POINT('',(-0.0138612569767901,0.0040653956539896,-1.05167610731094E-17));
#411=CARTESIAN_POINT('',(-0.0128061316157357,0.0040653956539896,0.0053044733967726));
#412=CARTESIAN_POINT('',(-0.00980138880405765,0.0040653956539896,0.00980138880405765));
#413=CARTESIAN_POINT('',(-0.0053044733967726,0.0040653956539896,0.0128061316157357));
#414=CARTESIAN_POINT('',(1.28749007982654E-19,0.0040653956539896,0.0138612569767901));
#415=CARTESIAN_POINT('',(0.00530447339677259,0.0040653956539896,0.0128061316157357));
#416=CARTESIAN_POINT('',(0.00980138880405765,0.0040653956539896,0.00980138880405765));
#417=CARTESIAN_POINT('',(0.0128061316157357,0.0040653956539896,0.0053044733967726));
#418=CARTESIAN_POINT('',(0.0138612569767901,0.0040653956539896,2.84091541786642E-18));
#419=CARTESIAN_POINT('',(0.0128061316157357,0.0040653956539896,-0.0053044733967726));
#420=CARTESIAN_POINT('',(0.00980138880405765,0.0040653956539896,-0.00980138880405764));
#421=CARTESIAN_POINT('',(0.0053044733967726,0.0040653956539896,-0.0128061316157357));
#422=CARTESIAN_POINT('',(5.26515680013273E-18,0.0040653956539896,-0.0138612569767901));
#423=CARTESIAN_POINT('',(-0.0053044733967726,0.0040653956539896,-0.0128061316157357));
#424=CARTESIAN_POINT('',(-0.00980138880405765,0.0040653956539896,-0.00980138880405765));
#425=CARTESIAN_POINT('',(-0.0128061316157357,0.00406539565398961,-0.00530447339677257));
#426=CARTESIAN_POINT('',(-0.0138612569767901,0.0040653956539896,-1.05167610731094E-17));
#427=CARTESIAN_POINT('',(-0.0128061316157357,0.0040653956539896,0.0053044733967726));
#428=CARTESIAN_POINT('',(-0.0127970802663576,-3.1344014578917E-18,-0.0053007242051024));
#429=CARTESIAN_POINT('',(-0.0138514598668212,-3.1344014578917E-18,-1.02999206386123E-17));
#430=CARTESIAN_POINT('',(-0.0127970802663576,-3.1344014578917E-18,0.00530072420510243));
#431=CARTESIAN_POINT('',(-0.00979446120116258,-3.1344014578917E-18,0.00979446120116258));
#432=CARTESIAN_POINT('',(-0.00530072420510243,-3.1344014578917E-18,0.0127970802663576));
#433=CARTESIAN_POINT('',(-8.94466792300541E-19,-3.1344014578917E-18,0.0138514598668212));
#434=CARTESIAN_POINT('',(0.00530072420510242,-3.1344014578917E-18,0.0127970802663576));
#435=CARTESIAN_POINT('',(0.00979446120116258,-3.1344014578917E-18,0.00979446120116258));
#436=CARTESIAN_POINT('',(0.0127970802663576,-3.1344014578917E-18,0.00530072420510243));
#437=CARTESIAN_POINT('',(0.0138514598668212,-3.1344014578917E-18,1.75046637739492E-18));
#438=CARTESIAN_POINT('',(0.0127970802663576,-3.1344014578917E-18,-0.00530072420510242));
#439=CARTESIAN_POINT('',(0.00979446120116259,-3.1344014578917E-18,-0.00979446120116258));
#440=CARTESIAN_POINT('',(0.00530072420510243,-3.1344014578917E-18,-0.0127970802663576));
#441=CARTESIAN_POINT('',(4.49943901581484E-18,-3.1344014578917E-18,-0.0138514598668212));
#442=CARTESIAN_POINT('',(-0.00530072420510242,-3.1344014578917E-18,-0.0127970802663576));
#443=CARTESIAN_POINT('',(-0.00979446120116259,-3.1344014578917E-18,-0.00979446120116257));
#444=CARTESIAN_POINT('',(-0.0127970802663576,-3.1344014578917E-18,-0.0053007242051024));
#445=CARTESIAN_POINT('',(-0.0138514598668212,-3.1344014578917E-18,-1.02999206386123E-17));
#446=CARTESIAN_POINT('',(-0.0127970802663576,-3.1344014578917E-18,0.00530072420510243));
#447=CARTESIAN_POINT('',(0.00994907638797262,-1.13798187896278E-18,0.0091250139192381));
#448=CARTESIAN_POINT('',(0.00994907638797262,0.00104229206497514,0.0091250139192381));
#449=CARTESIAN_POINT('',(0.00941697473715002,0.00304182892111865,0.00954568911899867));
#450=CARTESIAN_POINT('',(0.00762755351224152,0.00536358143733679,0.0106210473842329));
#451=CARTESIAN_POINT('',(0.00522719010548174,0.00710954195720104,0.0115536916813415));
#452=CARTESIAN_POINT('',(0.00242309893348846,0.00830274499090746,0.0120993397475719));
#453=CARTESIAN_POINT('',(-0.000638510809745752,0.00895293150334245,0.0121067590093519));
#454=CARTESIAN_POINT('',(-0.0036619882782491,0.0090619345909675,0.0115157470323171));
#455=CARTESIAN_POINT('',(-0.00650926870842107,0.00870125036634074,0.0103293851520528));
#456=CARTESIAN_POINT('',(-0.00815503858586192,0.00821704934338832,0.0091858440128618));
#457=CARTESIAN_POINT('',(-0.00890269705780087,0.00793608516858701,0.00853099713776013));
#458=CARTESIAN_POINT('',(0.00994907638797275,-3.46944695195361E-18,0.00912501391923777));
#459=CARTESIAN_POINT('',(-0.00890269705780086,0.00793608516858701,0.00853099713776013));
#460=CARTESIAN_POINT('',(0.,0.,0.));
#461=CARTESIAN_POINT('',(0.00605092361202725,0.,-0.0120679875472844));
#462=CARTESIAN_POINT('',(0.00529097211781284,0.001649979789256,-0.0123672786762058));
#463=CARTESIAN_POINT('',(0.00516789809409444,0.00150608256388098,-0.0124291421050879));
#464=CARTESIAN_POINT('',(0.00500028757685827,0.00114144421751804,-0.012517174646183));
#465=CARTESIAN_POINT('',(0.00510344079764772,0.000524575257901557,-0.0124958325793758));
#466=CARTESIAN_POINT('',(0.00551639820074563,9.4100512325049E-5,-0.0123257962767392));
#467=CARTESIAN_POINT('',(0.00587306159479855,1.19348319402805E-18,-0.0121571680734919));
#468=CARTESIAN_POINT('',(0.00605092361202725,1.19348319402805E-18,-0.0120679875472844));
#469=CARTESIAN_POINT('',(0.00529097211781284,0.001649979789256,-0.0123672786762058));
#470=CARTESIAN_POINT('',(0.00931087510624166,0.006350020210744,-0.00873003892278969));
#471=CARTESIAN_POINT('',(0.00873952336776414,0.00568200004372466,-0.00957250597507851));
#472=CARTESIAN_POINT('',(0.00748934178996276,0.0042202971203507,-0.0109980755543296));
#473=CARTESIAN_POINT('',(0.00604172917292402,0.00252775930679581,-0.0119899089901959));
#474=CARTESIAN_POINT('',(0.00529097211781283,0.001649979789256,-0.0123672786762058));
#475=CARTESIAN_POINT('',(0.00931087510624166,0.006350020210744,-0.00873003892278969));
#476=CARTESIAN_POINT('',(0.00890269705780086,0.00793608516858701,-0.00853099713776013));
#477=CARTESIAN_POINT('',(0.0090362873209201,0.00788588299814755,-0.00841399028285113));
#478=CARTESIAN_POINT('',(0.00930145493327487,0.00772916922473519,-0.00819491108452145));
#479=CARTESIAN_POINT('',(0.00958293025759253,0.00721237096166205,-0.00809440742401423));
#480=CARTESIAN_POINT('',(0.00953712529703896,0.00668807301142111,-0.00836106731299726));
#481=CARTESIAN_POINT('',(0.00939733271249039,0.00645110579546677,-0.00860255583351371));
#482=CARTESIAN_POINT('',(0.00931087510624166,0.006350020210744,-0.00873003892278969));
#483=CARTESIAN_POINT('',(0.00890269705780086,0.00793608516858701,-0.00853099713776013));
#484=CARTESIAN_POINT('',(-0.00994907638797262,-1.13798187896278E-18,-0.0091250139192381));
#485=CARTESIAN_POINT('',(-0.00994907638797262,0.00104229206497514,-0.0091250139192381));
#486=CARTESIAN_POINT('',(-0.00941697473715002,0.00304182892111865,-0.00954568911899867));
#487=CARTESIAN_POINT('',(-0.00762755351224152,0.00536358143733679,-0.0106210473842329));
#488=CARTESIAN_POINT('',(-0.00522719010548174,0.00710954195720104,-0.0115536916813415));
#489=CARTESIAN_POINT('',(-0.00242309893348846,0.00830274499090746,-0.0120993397475719));
#490=CARTESIAN_POINT('',(0.000638510809745752,0.00895293150334245,-0.0121067590093519));
#491=CARTESIAN_POINT('',(0.0036619882782491,0.0090619345909675,-0.0115157470323171));
#492=CARTESIAN_POINT('',(0.00650926870842107,0.00870125036634074,-0.0103293851520528));
#493=CARTESIAN_POINT('',(0.00815503858586192,0.00821704934338832,-0.0091858440128618));
#494=CARTESIAN_POINT('',(0.00890269705780087,0.00793608516858701,-0.00853099713776013));
#495=CARTESIAN_POINT('',(-0.00529097211781284,0.001649979789256,0.0123672786762058));
#496=CARTESIAN_POINT('',(-0.00516789809409444,0.00150608256388098,0.0124291421050879));
#497=CARTESIAN_POINT('',(-0.00500028757685827,0.00114144421751804,0.012517174646183));
#498=CARTESIAN_POINT('',(-0.00510344079764772,0.000524575257901557,0.0124958325793758));
#499=CARTESIAN_POINT('',(-0.00551639820074563,9.4100512325049E-5,0.0123257962767392));
#500=CARTESIAN_POINT('',(-0.00587306159479855,1.19348319402805E-18,0.0121571680734919));
#501=CARTESIAN_POINT('',(-0.00605092361202725,1.19348319402805E-18,0.0120679875472844));
#502=CARTESIAN_POINT('',(-0.00529097211781284,0.001649979789256,0.0123672786762058));
#503=CARTESIAN_POINT('',(-0.00931087510624166,0.006350020210744,0.00873003892278969));
#504=CARTESIAN_POINT('',(-0.00873952336776414,0.00568200004372466,0.00957250597507851));
#505=CARTESIAN_POINT('',(-0.00748934178996276,0.0042202971203507,0.0109980755543296));
#506=CARTESIAN_POINT('',(-0.00604172917292402,0.00252775930679581,0.0119899089901959));
#507=CARTESIAN_POINT('',(-0.00529097211781283,0.001649979789256,0.0123672786762058));
#508=CARTESIAN_POINT('',(-0.00931087510624166,0.006350020210744,0.00873003892278969));
#509=CARTESIAN_POINT('',(-0.00890269705780086,0.00793608516858701,0.00853099713776013));
#510=CARTESIAN_POINT('',(-0.0090362873209201,0.00788588299814755,0.00841399028285113));
#511=CARTESIAN_POINT('',(-0.00930145493327487,0.00772916922473519,0.00819491108452145));
#512=CARTESIAN_POINT('',(-0.00958293025759253,0.00721237096166205,0.00809440742401423));
#513=CARTESIAN_POINT('',(-0.00953712529703896,0.00668807301142111,0.00836106731299726));
#514=CARTESIAN_POINT('',(-0.00939733271249039,0.00645110579546677,0.00860255583351371));
#515=CARTESIAN_POINT('',(-0.00931087510624166,0.006350020210744,0.00873003892278969));
#516=CARTESIAN_POINT('',(0.,0.0185,0.));
#517=CARTESIAN_POINT('',(0.,0.0185,0.00425));
#518=CARTESIAN_POINT('',(-0.0135,1.92592994438724E-34,0.));
#519=CARTESIAN_POINT('',(0.00994907638797275,-3.46944695195361E-18,0.0135));
#520=CARTESIAN_POINT('',(0.00994907638797275,0.,0.00756742221805306));
#521=CARTESIAN_POINT('',(0.,0.,0.));
#522=CARTESIAN_POINT('',(0.00605092361202725,0.,-0.0109378390663518));
#523=CARTESIAN_POINT('',(0.00605092361202725,0.,-0.0135));
#524=CARTESIAN_POINT('',(-0.0118491483947756,-3.39675256221207E-18,-0.0049080779676874));
#525=CARTESIAN_POINT('',(-0.0128254258026122,-3.39675256221207E-18,-9.75781955236954E-18));
#526=CARTESIAN_POINT('',(-0.0118491483947756,-3.39675256221207E-18,0.00490807796768743));
#527=CARTESIAN_POINT('',(-0.00906894555663202,-3.39675256221207E-18,0.00906894555663201));
#528=CARTESIAN_POINT('',(-0.00490807796768743,-3.39675256221207E-18,0.0118491483947756));
#529=CARTESIAN_POINT('',(-1.575481281893E-18,-3.39675256221207E-18,0.0128254258026122));
#530=CARTESIAN_POINT('',(0.00490807796768743,-3.39675256221207E-18,0.0118491483947756));
#531=CARTESIAN_POINT('',(0.00906894555663202,-3.39675256221207E-18,0.00906894555663202));
#532=CARTESIAN_POINT('',(0.0118491483947756,-3.39675256221207E-18,0.00490807796768743));
#533=CARTESIAN_POINT('',(0.0128254258026122,-3.39675256221207E-18,2.0855936394871E-18));
#534=CARTESIAN_POINT('',(0.0118491483947756,-3.39675256221207E-18,-0.00490807796768743));
#535=CARTESIAN_POINT('',(0.00906894555663202,-3.39675256221207E-18,-0.00906894555663202));
#536=CARTESIAN_POINT('',(0.00490807796768743,-3.39675256221207E-18,-0.0118491483947756));
#537=CARTESIAN_POINT('',(5.57686492472231E-18,-3.39675256221207E-18,-0.0128254258026122));
#538=CARTESIAN_POINT('',(-0.00490807796768743,-3.39675256221207E-18,-0.0118491483947756));
#539=CARTESIAN_POINT('',(-0.00906894555663202,-3.39675256221207E-18,-0.00906894555663201));
#540=CARTESIAN_POINT('',(-0.0118491483947756,-3.39675256221207E-18,-0.0049080779676874));
#541=CARTESIAN_POINT('',(-0.0128254258026122,-3.39675256221207E-18,-9.75781955236954E-18));
#542=CARTESIAN_POINT('',(-0.0118491483947756,-3.39675256221207E-18,0.00490807796768743));
#543=CARTESIAN_POINT('',(-0.0118573009159058,0.00383014516693598,-0.00491145485250706));
#544=CARTESIAN_POINT('',(-0.0128342500278962,0.00383014516693598,-9.43255890062389E-18));
#545=CARTESIAN_POINT('',(-0.0118573009159058,0.00383014516693598,0.00491145485250709));
#546=CARTESIAN_POINT('',(-0.00907518522616907,0.00383014516693598,0.00907518522616907));
#547=CARTESIAN_POINT('',(-0.00491145485250709,0.00383014516693598,0.0118573009159057));
#548=CARTESIAN_POINT('',(-1.07403777711845E-18,0.00383014516693598,0.0128342500278962));
#549=CARTESIAN_POINT('',(0.00491145485250708,0.00383014516693598,0.0118573009159058));
#550=CARTESIAN_POINT('',(0.00907518522616907,0.00383014516693598,0.00907518522616907));
#551=CARTESIAN_POINT('',(0.0118573009159058,0.00383014516693598,0.00491145485250709));
#552=CARTESIAN_POINT('',(0.0128342500278962,0.00383014516693598,1.14326948566669E-18));
#553=CARTESIAN_POINT('',(0.0118573009159058,0.00383014516693598,-0.00491145485250708));
#554=CARTESIAN_POINT('',(0.00907518522616907,0.00383014516693598,-0.00907518522616907));
#555=CARTESIAN_POINT('',(0.00491145485250709,0.00383014516693598,-0.0118573009159058));
#556=CARTESIAN_POINT('',(4.24194099984954E-18,0.00383014516693598,-0.0128342500278962));
#557=CARTESIAN_POINT('',(-0.00491145485250709,0.00383014516693598,-0.0118573009159058));
#558=CARTESIAN_POINT('',(-0.00907518522616908,0.00383014516693598,-0.00907518522616907));
#559=CARTESIAN_POINT('',(-0.0118573009159058,0.00383014516693598,-0.00491145485250706));
#560=CARTESIAN_POINT('',(-0.0128342500278962,0.00383014516693598,-9.43255890062389E-18));
#561=CARTESIAN_POINT('',(-0.0118573009159058,0.00383014516693598,0.00491145485250709));
#562=CARTESIAN_POINT('',(-0.0102694176755237,0.0114641288264601,-0.00425373207887589));
#563=CARTESIAN_POINT('',(-0.0111155375935317,0.0114641288264601,-9.21571846612679E-18));
#564=CARTESIAN_POINT('',(-0.0102694176755237,0.0114641288264601,0.00425373207887592));
#565=CARTESIAN_POINT('',(-0.00785987200892028,0.0114641288264601,0.00785987200892027));
#566=CARTESIAN_POINT('',(-0.00425373207887591,0.0114641288264601,0.0102694176755237));
#567=CARTESIAN_POINT('',(-3.76421441759811E-18,0.0114641288264601,0.0111155375935317));
#568=CARTESIAN_POINT('',(0.00425373207887591,0.0114641288264601,0.0102694176755237));
#569=CARTESIAN_POINT('',(0.00785987200892028,0.0114641288264601,0.00785987200892028));
#570=CARTESIAN_POINT('',(0.0102694176755237,0.0114641288264601,0.00425373207887591));
#571=CARTESIAN_POINT('',(0.0111155375935317,0.0114641288264601,1.97382499511894E-18));
#572=CARTESIAN_POINT('',(0.0102694176755237,0.0114641288264601,-0.00425373207887591));
#573=CARTESIAN_POINT('',(0.00785987200892027,0.0114641288264601,-0.00785987200892028));
#574=CARTESIAN_POINT('',(0.00425373207887591,0.0114641288264601,-0.0102694176755237));
#575=CARTESIAN_POINT('',(-1.57209315010398E-18,0.0114641288264601,-0.0111155375935317));
#576=CARTESIAN_POINT('',(-0.00425373207887591,0.0114641288264601,-0.0102694176755237));
#577=CARTESIAN_POINT('',(-0.00785987200892029,0.0114641288264601,-0.00785987200892028));
#578=CARTESIAN_POINT('',(-0.0102694176755237,0.0114641288264601,-0.00425373207887589));
#579=CARTESIAN_POINT('',(-0.0111155375935317,0.0114641288264601,-9.21571846612679E-18));
#580=CARTESIAN_POINT('',(-0.0102694176755237,0.0114641288264601,0.00425373207887592));
#581=CARTESIAN_POINT('',(-0.00615258418444213,0.0162749522654366,-0.00254848381283812));
#582=CARTESIAN_POINT('',(-0.00665950913288248,0.0162749522654366,-4.01154803819637E-18));
#583=CARTESIAN_POINT('',(-0.00615258418444211,0.0162749522654366,0.00254848381283813));
#584=CARTESIAN_POINT('',(-0.00470898406723495,0.0162749522654366,0.00470898406723495));
#585=CARTESIAN_POINT('',(-0.00254848381283813,0.0162749522654366,0.00615258418444211));
#586=CARTESIAN_POINT('',(-4.45539330255762E-19,0.0162749522654366,0.00665950913288249));
#587=CARTESIAN_POINT('',(0.00254848381283813,0.0162749522654366,0.00615258418444211));
#588=CARTESIAN_POINT('',(0.00470898406723495,0.0162749522654366,0.00470898406723495));
#589=CARTESIAN_POINT('',(0.00615258418444212,0.0162749522654366,0.00254848381283813));
#590=CARTESIAN_POINT('',(0.00665950913288248,0.0162749522654366,1.13501753187586E-18));
#591=CARTESIAN_POINT('',(0.00615258418444212,0.0162749522654366,-0.00254848381283813));
#592=CARTESIAN_POINT('',(0.00470898406723495,0.0162749522654366,-0.00470898406723495));
#593=CARTESIAN_POINT('',(0.00254848381283813,0.0162749522654366,-0.00615258418444211));
#594=CARTESIAN_POINT('',(4.13013265081197E-18,0.0162749522654366,-0.00665950913288249));
#595=CARTESIAN_POINT('',(-0.00254848381283813,0.0162749522654366,-0.00615258418444212));
#596=CARTESIAN_POINT('',(-0.00470898406723495,0.0162749522654366,-0.00470898406723495));
#597=CARTESIAN_POINT('',(-0.00615258418444213,0.0162749522654366,-0.00254848381283812));
#598=CARTESIAN_POINT('',(-0.00665950913288248,0.0162749522654366,-4.01154803819637E-18));
#599=CARTESIAN_POINT('',(-0.00615258418444211,0.0162749522654366,0.00254848381283813));
#600=CARTESIAN_POINT('',(-0.0038271242677288,0.0175,-0.00158524677658046));
#601=CARTESIAN_POINT('',(-0.00414244945693938,0.0175,-3.06287113727155E-18));
#602=CARTESIAN_POINT('',(-0.00382712426772879,0.0175,0.00158524677658047));
#603=CARTESIAN_POINT('',(-0.00292915410172437,0.0175,0.00292915410172437));
#604=CARTESIAN_POINT('',(-0.00158524677658047,0.0175,0.00382712426772879));
#605=CARTESIAN_POINT('',(-1.10791909500862E-18,0.0175,0.00414244945693938));
#606=CARTESIAN_POINT('',(0.00158524677658046,0.0175,0.00382712426772879));
#607=CARTESIAN_POINT('',(0.00292915410172437,0.0175,0.00292915410172437));
#608=CARTESIAN_POINT('',(0.00382712426772879,0.0175,0.00158524677658047));
#609=CARTESIAN_POINT('',(0.00414244945693938,0.0175,3.25895926456092E-19));
#610=CARTESIAN_POINT('',(0.00382712426772879,0.0175,-0.00158524677658046));
#611=CARTESIAN_POINT('',(0.00292915410172437,0.0175,-0.00292915410172437));
#612=CARTESIAN_POINT('',(0.00158524677658047,0.0175,-0.00382712426772879));
#613=CARTESIAN_POINT('',(1.09775469964157E-18,0.0175,-0.00414244945693938));
#614=CARTESIAN_POINT('',(-0.00158524677658047,0.0175,-0.00382712426772879));
#615=CARTESIAN_POINT('',(-0.00292915410172437,0.0175,-0.00292915410172437));
#616=CARTESIAN_POINT('',(-0.0038271242677288,0.0175,-0.00158524677658046));
#617=CARTESIAN_POINT('',(-0.00414244945693938,0.0175,-3.06287113727155E-18));
#618=CARTESIAN_POINT('',(-0.00382712426772879,0.0175,0.00158524677658047));
#619=CARTESIAN_POINT('',(-0.00890269705780087,0.007936085168587,0.00694339787488847));
#620=CARTESIAN_POINT('',(-0.00821405877379321,0.00819487002084853,0.00769119056981097));
#621=CARTESIAN_POINT('',(-0.00666956974790207,0.00866422424741135,0.00898312283955768));
#622=CARTESIAN_POINT('',(-0.00382077969840495,0.0090558345256171,0.0103676693033983));
#623=CARTESIAN_POINT('',(-0.000775264007649675,0.00897083246008849,0.011051227683698));
#624=CARTESIAN_POINT('',(0.00234412069094042,0.00833171489260109,0.0110569492273644));
#625=CARTESIAN_POINT('',(0.00520691067460826,0.00712341028908273,0.0104339030553084));
#626=CARTESIAN_POINT('',(0.00761768270261626,0.00537475463366379,0.00936207569459705));
#627=CARTESIAN_POINT('',(0.00910644380807448,0.00344058658610901,0.00831106455318305));
#628=CARTESIAN_POINT('',(0.00981283219043789,0.0015742818230672,0.00769684328663907));
#629=CARTESIAN_POINT('',(0.00994907638797276,0.000529140254512266,0.00756742221805306));
#630=CARTESIAN_POINT('',(0.00994907638797276,-3.39675256221206E-18,0.00756742221805306));
#631=CARTESIAN_POINT('',(-0.00890269705780086,0.00793608516858701,0.00694339787488848));
#632=CARTESIAN_POINT('',(-0.00931087510624166,0.006350020210744,0.00715059046805202));
#633=CARTESIAN_POINT('',(-0.00939364440650915,0.00644679345577883,0.00700354333301775));
#634=CARTESIAN_POINT('',(-0.00952793742672788,0.00666723610943953,0.00672633677764969));
#635=CARTESIAN_POINT('',(-0.00959193116155811,0.00719767232557544,0.00637459047184057));
#636=CARTESIAN_POINT('',(-0.00928768943495826,0.00774679510966651,0.00653152760735913));
#637=CARTESIAN_POINT('',(-0.00903094128635088,0.00788789199590198,0.00680413739590731));
#638=CARTESIAN_POINT('',(-0.00890269705780086,0.00793608516858702,0.00694339787488848));
#639=CARTESIAN_POINT('',(-0.00931087510624166,0.006350020210744,0.00715059046805202));
#640=CARTESIAN_POINT('',(-0.00529097211781284,0.001649979789256,0.0112699387167817));
#641=CARTESIAN_POINT('',(-0.00606365423387585,0.00255339392360466,0.0108467403554543));
#642=CARTESIAN_POINT('',(-0.00751337599618975,0.00424839773399498,0.00975645185241189));
#643=CARTESIAN_POINT('',(-0.00877266410588694,0.005720747946155,0.00810677090440125));
#644=CARTESIAN_POINT('',(-0.00931087510624166,0.00635002021074399,0.00715059046805202));
#645=CARTESIAN_POINT('',(-0.00529097211781284,0.001649979789256,0.0112699387167817));
#646=CARTESIAN_POINT('',(-0.00605092361202725,-1.48153584660893E-18,0.0109378390663518));
#647=CARTESIAN_POINT('',(-0.00587547908466358,-1.48153584660893E-18,0.0110348967599955));
#648=CARTESIAN_POINT('',(-0.00552392188628623,9.11490308359583E-5,0.0112180033764631));
#649=CARTESIAN_POINT('',(-0.00510862701428933,0.000513997989274434,0.0114062899057129));
#650=CARTESIAN_POINT('',(-0.00499769202057637,0.00113556094484494,0.0114341688530474));
#651=CARTESIAN_POINT('',(-0.00516782093189116,0.00150599234641169,0.0113373886797019));
#652=CARTESIAN_POINT('',(-0.00529097211781284,0.001649979789256,0.0112699387167817));
#653=CARTESIAN_POINT('',(0.00890269705780087,0.007936085168587,-0.00694339787488847));
#654=CARTESIAN_POINT('',(0.00821405877379321,0.00819487002084853,-0.00769119056981097));
#655=CARTESIAN_POINT('',(0.00666956974790207,0.00866422424741135,-0.00898312283955768));
#656=CARTESIAN_POINT('',(0.00382077969840495,0.0090558345256171,-0.0103676693033983));
#657=CARTESIAN_POINT('',(0.000775264007649675,0.00897083246008849,-0.011051227683698));
#658=CARTESIAN_POINT('',(-0.00234412069094042,0.00833171489260109,-0.0110569492273644));
#659=CARTESIAN_POINT('',(-0.00520691067460826,0.00712341028908273,-0.0104339030553084));
#660=CARTESIAN_POINT('',(-0.00761768270261626,0.00537475463366379,-0.00936207569459705));
#661=CARTESIAN_POINT('',(-0.00910644380807448,0.00344058658610901,-0.00831106455318305));
#662=CARTESIAN_POINT('',(-0.00981283219043789,0.0015742818230672,-0.00769684328663907));
#663=CARTESIAN_POINT('',(-0.00994907638797276,0.000529140254512266,-0.00756742221805306));
#664=CARTESIAN_POINT('',(-0.00994907638797276,-3.39675256221206E-18,-0.00756742221805306));
#665=CARTESIAN_POINT('',(0.00890269705780086,0.00793608516858701,-0.00694339787488848));
#666=CARTESIAN_POINT('',(0.00931087510624166,0.006350020210744,-0.00715059046805202));
#667=CARTESIAN_POINT('',(0.00939364440650915,0.00644679345577883,-0.00700354333301775));
#668=CARTESIAN_POINT('',(0.00952793742672788,0.00666723610943953,-0.00672633677764969));
#669=CARTESIAN_POINT('',(0.00959193116155811,0.00719767232557544,-0.00637459047184057));
#670=CARTESIAN_POINT('',(0.00928768943495826,0.00774679510966651,-0.00653152760735913));
#671=CARTESIAN_POINT('',(0.00903094128635088,0.00788789199590198,-0.00680413739590731));
#672=CARTESIAN_POINT('',(0.00890269705780086,0.00793608516858702,-0.00694339787488848));
#673=CARTESIAN_POINT('',(0.00931087510624166,0.006350020210744,-0.00715059046805202));
#674=CARTESIAN_POINT('',(0.00529097211781284,0.001649979789256,-0.0112699387167817));
#675=CARTESIAN_POINT('',(0.00606365423387585,0.00255339392360466,-0.0108467403554543));
#676=CARTESIAN_POINT('',(0.00751337599618975,0.00424839773399498,-0.00975645185241189));
#677=CARTESIAN_POINT('',(0.00877266410588694,0.005720747946155,-0.00810677090440125));
#678=CARTESIAN_POINT('',(0.00931087510624166,0.00635002021074399,-0.00715059046805202));
#679=CARTESIAN_POINT('',(0.00529097211781284,0.001649979789256,-0.0112699387167817));
#680=CARTESIAN_POINT('',(0.00605092361202725,-1.48153584660893E-18,-0.0109378390663518));
#681=CARTESIAN_POINT('',(0.00587547908466358,-1.48153584660893E-18,-0.0110348967599955));
#682=CARTESIAN_POINT('',(0.00552392188628623,9.11490308359583E-5,-0.0112180033764631));
#683=CARTESIAN_POINT('',(0.00510862701428933,0.000513997989274434,-0.0114062899057129));
#684=CARTESIAN_POINT('',(0.00499769202057637,0.00113556094484494,-0.0114341688530474));
#685=CARTESIAN_POINT('',(0.00516782093189116,0.00150599234641169,-0.0113373886797019));
#686=CARTESIAN_POINT('',(0.00529097211781284,0.001649979789256,-0.0112699387167817));
#687=CARTESIAN_POINT('',(0.,0.0175,0.));
#688=CARTESIAN_POINT('',(0.,0.0175,0.00403734106053586));
#689=CARTESIAN_POINT('',(-0.00403734106053586,0.0175,0.));
#690=CARTESIAN_POINT('',(0.,0.0175,0.));
#691=CARTESIAN_POINT('',(0.,0.0175,0.00125));
#692=CARTESIAN_POINT('',(0.,0.0105,0.));
#693=CARTESIAN_POINT('',(0.,0.0185,0.));
#694=CARTESIAN_POINT('',(0.,0.0185,0.00125));
#695=CARTESIAN_POINT('',(-0.00425,0.0185,0.));
#696=CARTESIAN_POINT('',(0.00890269705780086,0.00793608516858701,-0.0121227138390984));
#697=CARTESIAN_POINT('',(0.00890269705780086,0.00793608516858701,-0.00691250732241803));
#698=CARTESIAN_POINT('',(0.0069617661710079,0.00866547173400628,-0.0121227138390984));
#699=CARTESIAN_POINT('',(0.0069617661710079,0.00866547173400628,-0.00691250732241803));
#700=CARTESIAN_POINT('',(0.0025355153487713,0.00940455133925648,-0.0121227138390984));
#701=CARTESIAN_POINT('',(0.0025355153487713,0.00940455133925648,-0.00691250732241803));
#702=CARTESIAN_POINT('',(-0.00402138814558394,0.00806988020201343,-0.0121227138390984));
#703=CARTESIAN_POINT('',(-0.00402138814558394,0.00806988020201343,-0.00691250732241803));
#704=CARTESIAN_POINT('',(-0.00878904721785612,0.00463721773617336,-0.0121227138390984));
#705=CARTESIAN_POINT('',(-0.00878904721785612,0.00463721773617336,-0.00691250732241803));
#706=CARTESIAN_POINT('',(-0.0099490763879728,0.00154646581094685,-0.0121227138390984));
#707=CARTESIAN_POINT('',(-0.0099490763879728,0.00154646581094685,-0.00691250732241803));
#708=CARTESIAN_POINT('',(-0.00994907638797279,-1.94566585065559E-17,-0.0121227138390984));
#709=CARTESIAN_POINT('',(-0.00994907638797279,-1.94566585065559E-17,-0.00691250732241803));
#710=CARTESIAN_POINT('',(0.00890269705780086,0.00793608516858701,-0.0135));
#711=CARTESIAN_POINT('',(0.00855092361202725,0.007,-0.0135));
#712=CARTESIAN_POINT('',(0.00931087510624166,0.006350020210744,-0.0135));
#713=CARTESIAN_POINT('',(0.00931087510624166,0.006350020210744,-0.0135));
#714=CARTESIAN_POINT('',(0.00529097211781284,0.001649979789256,-0.0135));
#715=CARTESIAN_POINT('',(0.00605092361202725,0.001,-0.0135));
#716=CARTESIAN_POINT('',(-0.00890269705780086,0.00793608516858701,0.0121227138390984));
#717=CARTESIAN_POINT('',(-0.00890269705780086,0.00793608516858701,0.00691250732241803));
#718=CARTESIAN_POINT('',(-0.0069617661710079,0.00866547173400628,0.0121227138390984));
#719=CARTESIAN_POINT('',(-0.0069617661710079,0.00866547173400628,0.00691250732241803));
#720=CARTESIAN_POINT('',(-0.0025355153487713,0.00940455133925648,0.0121227138390984));
#721=CARTESIAN_POINT('',(-0.0025355153487713,0.00940455133925648,0.00691250732241803));
#722=CARTESIAN_POINT('',(0.00402138814558394,0.00806988020201343,0.0121227138390984));
#723=CARTESIAN_POINT('',(0.00402138814558394,0.00806988020201343,0.00691250732241803));
#724=CARTESIAN_POINT('',(0.00878904721785612,0.00463721773617336,0.0121227138390984));
#725=CARTESIAN_POINT('',(0.00878904721785612,0.00463721773617336,0.00691250732241803));
#726=CARTESIAN_POINT('',(0.0099490763879728,0.00154646581094685,0.0121227138390984));
#727=CARTESIAN_POINT('',(0.0099490763879728,0.00154646581094685,0.00691250732241803));
#728=CARTESIAN_POINT('',(0.00994907638797279,-1.94566585065559E-17,0.0121227138390984));
#729=CARTESIAN_POINT('',(0.00994907638797279,-1.94566585065559E-17,0.00691250732241803));
#730=CARTESIAN_POINT('',(-0.00890269705780086,0.00793608516858701,0.0135));
#731=CARTESIAN_POINT('',(-0.00855092361202725,0.007,0.0135));
#732=CARTESIAN_POINT('',(-0.00931087510624166,0.006350020210744,0.0135));
#733=CARTESIAN_POINT('',(-0.00931087510624166,0.006350020210744,0.0135));
#734=CARTESIAN_POINT('',(-0.00529097211781284,0.001649979789256,0.0135));
#735=CARTESIAN_POINT('',(-0.00605092361202725,0.001,0.0135));
#736=MECHANICAL_DESIGN_GEOMETRIC_PRESENTATION_REPRESENTATION('',(#261),
#737);
#737=(
GEOMETRIC_REPRESENTATION_CONTEXT(3)
GLOBAL_UNCERTAINTY_ASSIGNED_CONTEXT((#738))
GLOBAL_UNIT_ASSIGNED_CONTEXT((#741,#740,#739))
REPRESENTATION_CONTEXT('Propeller 2 cover','TOP_LEVEL_ASSEMBLY_PART')
);
#738=UNCERTAINTY_MEASURE_WITH_UNIT(LENGTH_MEASURE(2.E-5),#741,
'DISTANCE_ACCURACY_VALUE','Maximum Tolerance applied to model');
#739=(
NAMED_UNIT(*)
SI_UNIT($,.STERADIAN.)
SOLID_ANGLE_UNIT()
);
#740=(
NAMED_UNIT(*)
PLANE_ANGLE_UNIT()
SI_UNIT($,.RADIAN.)
);
#741=(
LENGTH_UNIT()
NAMED_UNIT(*)
SI_UNIT($,.METRE.)
);
#742=PRODUCT_DEFINITION_SHAPE('','',#743);
#743=PRODUCT_DEFINITION('','',#745,#744);
#744=PRODUCT_DEFINITION_CONTEXT('',#751,'design');
#745=PRODUCT_DEFINITION_FORMATION_WITH_SPECIFIED_SOURCE('','',#747,
 .NOT_KNOWN.);
#746=PRODUCT_RELATED_PRODUCT_CATEGORY('','',(#747));
#747=PRODUCT('Propeller 2 cover','Propeller 2 cover',
'Propeller 2 cover',(#749));
#748=PRODUCT_CATEGORY('','');
#749=PRODUCT_CONTEXT('',#751,'mechanical');
#750=APPLICATION_PROTOCOL_DEFINITION('international standard',
'automotive_design',2010,#751);
#751=APPLICATION_CONTEXT(
'core data for automotive mechanical design processes');
ENDSEC;
END-ISO-10303-21;
